<?xml version="1.0" standalone="no"?>
<!DOCTYPE svg PUBLIC "-//W3C//DTD SVG 1.1//EN" "http://www.w3.org/Graphics/SVG/1.1/DTD/svg11.dtd" >
<svg xmlns="http://www.w3.org/2000/svg" xmlns:xlink="http://www.w3.org/1999/xlink" version="1.1">
<metadata>
Created by FontForge 20201107 at Thu Jul 10 10:06:34 2014
 By 
Copyright (c) 2014 Dukom Design (www.dukom.org), with Reserved Font Name O`ConstantineO'
</metadata>
<defs>
<font id="Constantine-Bold" horiz-adv-x="577" >
  <font-face 
    font-family="Constantine"
    font-weight="700"
    font-stretch="normal"
    units-per-em="1000"
    panose-1="0 0 5 0 0 0 0 0 0 0"
    ascent="800"
    descent="-200"
    x-height="600"
    cap-height="699"
    bbox="-34 -239 1320 914"
    underline-thickness="50"
    underline-position="-100"
    unicode-range="U+000D-FB02"
  />
<missing-glyph horiz-adv-x="250" 
 />
    <glyph glyph-name=".notdef" horiz-adv-x="250" 
 />
    <glyph glyph-name=".null" horiz-adv-x="0" 
 />
    <glyph glyph-name="nonmarkingreturn" unicode="&#xd;" horiz-adv-x="250" 
 />
    <glyph glyph-name="NULL" horiz-adv-x="0" 
 />
    <glyph glyph-name="NULL" horiz-adv-x="0" 
 />
    <glyph glyph-name="space" unicode=" " horiz-adv-x="250" 
 />
    <glyph glyph-name="exclam" unicode="!" horiz-adv-x="230" 
d="M134 170h-40l-20 233l-12 299h105l-12 -299zM115 -4q-19 0 -32 13t-13 32t13 32t32 13t32 -13t13 -32t-13 -32t-32 -13z" />
    <glyph glyph-name="quotedbl" unicode="&#x22;" horiz-adv-x="315" 
d="M45 505h-10q10 47 14 77.5t4 61.5q0 13 -0.5 26.5t-1.5 29.5h12l70 14h18q1 -19 -2.5 -49.5t-13 -62.5t-26.5 -60t-43 -42h-14zM175 505h-10q10 47 14 77.5t4 61.5q0 13 -0.5 26.5t-1.5 29.5h12l70 14h18q1 -19 -2.5 -49.5t-13 -62.5t-26.5 -60t-43 -42h-14z" />
    <glyph glyph-name="numbersign" unicode="#" horiz-adv-x="536" 
d="M412 400l-25 -143h103v-45h-112l-37 -212h-78l38 212h-118l-37 -212h-78l37 212h-103v45h112q8 48 17.5 99.5t17.5 99.5h-103v45h112q8 48 17.5 99.5t17.5 99.5h78l-35 -199h117q8 48 17.5 99.5t17.5 99.5h78l-35 -199h103v-45h-112zM344 456h-117q-8 -48 -17.5 -99.5
t-17.5 -99.5h117z" />
    <glyph glyph-name="dollar" unicode="$" horiz-adv-x="469" 
d="M378 301q34 -32 45.5 -64t11.5 -61q0 -41 -13.5 -75t-39 -59.5t-61 -40t-80.5 -16.5l-6 -86l-76 5l6 88q-35 6 -69 19.5t-56 37.5q-3 13 -3 35q0 23 4.5 51.5t13.5 56.5h10q0 -3 -0.5 -6t-0.5 -5q-1 -5 -1 -9v-8q0 -23 9 -43t24 -36t34 -27.5t39 -17.5l23 301l-77 72
q-32 32 -46.5 65.5t-14.5 62.5t11 58t32 52.5t52 39.5t72 21l6 78l77 -2l-6 -77q11 -1 20.5 -3t19.5 -4l58 -8v-128l-13 -1q0 24 -7.5 41t-20.5 28.5t-29 18t-32 9.5l-21 -265zM333 155q0 57 -31 84l-38 35l-19 -239q38 9 63 40t25 80zM156 564q0 -20 6.5 -43t26.5 -41
l13 -13l15 194q-29 -12 -45 -38.5t-16 -58.5z" />
    <glyph glyph-name="percent" unicode="%" horiz-adv-x="684" 
d="M550 696h7l-371 -709h-18l-41 17h-8l334 633q-15 -6 -32 -10t-39 -4h-14q-6 1 -9.5 1t-6 0.5l-5 1t-8.5 3.5q3 -13 5 -25.5t2 -23.5t-1 -24t-3 -24q-8 -40 -25.5 -73t-42 -57t-54.5 -37t-64 -13q-61 0 -96 35t-35 99q0 10 1.5 22t3.5 26q14 83 65 130t121 50
q13 0 23 -1.5t19 -3.5q21 -7 36 -13t25 -13h-1q14 -8 29 -15.5t28 -9.5h7q23 0 49 12.5t47 24.5l28 15h13zM523 348q61 0 95.5 -35.5t34.5 -98.5q0 -11 -1 -23.5t-3 -25.5q-8 -41 -25 -74t-41.5 -56.5t-55.5 -36.5t-65 -13q-61 0 -95.5 35.5t-34.5 98.5q0 11 1.5 23t3.5 26
q7 40 24.5 73.5t42 57t55.5 36.5t64 13zM551 168q2 16 3.5 30t1.5 27q0 42 -9 64t-28 22q-28 0 -50.5 -38.5t-34.5 -107.5q-6 -32 -6 -58q0 -85 37 -85q29 0 51.5 38.5t34.5 107.5zM244 534q3 17 4 31t1 27q0 85 -37 85q-29 0 -51 -38.5t-34 -107.5q-6 -32 -6 -57
q0 -85 37 -85q29 0 51.5 38t34.5 107z" />
    <glyph glyph-name="ampersand" unicode="&#x26;" horiz-adv-x="646" 
d="M626 376q-14 0 -20 -12.5t-2 -32.5t5.5 -38.5t1.5 -36.5q0 -77 -38 -144h-3q21 -17 41.5 -34.5t41.5 -32t42 -24t42 -10.5h14v-10h-27q-17 0 -40 0.5t-50 5t-56 15t-57 30.5q-33 -29 -78 -45t-107 -16q-156 0 -239 61t-83 173q0 66 36.5 111.5t92.5 73.5h-6
q-20 32 -30 64t-10 69t15 68.5t43.5 54.5t68 36t89.5 13q28 0 55 -5.5t51 -14.5t43.5 -22t32.5 -29h3l-17 -113h-8q0 72 -36.5 111t-93.5 39q-25 0 -51 -9.5t-47 -27.5t-34.5 -43.5t-13.5 -56.5q0 -65 39.5 -120t114.5 -120l54 -48q13 -11 24 -21.5t23.5 -21.5t27 -24
t34.5 -29q8 20 10.5 38.5t2.5 40.5q0 24 -5.5 47.5t-13.5 43.5q-10 20 -22.5 32.5t-27.5 12.5h-31v10h230v-10h-16zM336 24q43 0 78.5 18.5t61.5 48.5h1q-63 52 -108 90.5t-85 74.5q-38 34 -68.5 63.5t-51.5 55.5q-24 -29 -35.5 -68t-11.5 -81q0 -88 53.5 -143.5
t151.5 -60.5z" />
    <glyph glyph-name="quotesingle" unicode="'" horiz-adv-x="170" 
d="M30 505h-10q10 47 14 77.5t4 61.5q0 13 -0.5 26.5t-1.5 29.5h12l70 14h18q1 -19 -2.5 -49.5t-13 -62.5t-26.5 -60t-43 -42h-14z" />
    <glyph glyph-name="parenleft" unicode="(" horiz-adv-x="338" 
d="M316 715h-7q-28 -13 -53.5 -46.5t-44.5 -82t-30.5 -109t-11.5 -127.5v-11q1 -72 13 -140t31.5 -123.5t44.5 -95.5t51 -58h5l-14 -22h-20q-45 23 -85 67t-71 102t-49.5 126.5t-19.5 140.5v6q0 70 18.5 134.5t50 117t73.5 89.5t88 53h18z" />
    <glyph glyph-name="parenright" unicode=")" horiz-adv-x="338" 
d="M34 -79h4q27 18 51.5 58t44 95t31.5 121.5t13 138.5q1 2 1 15q0 67 -11.5 127.5t-31 108.5t-45.5 82t-54 48h-5l15 20h17q46 -16 87.5 -53t73 -89.5t50 -117t18.5 -134.5v-6q-1 -72 -20 -140.5t-49.5 -126t-70.5 -101.5t-84 -67h-19z" />
    <glyph glyph-name="asterisk" unicode="*" horiz-adv-x="386" 
d="M248 595h-7l17 -13l67 -70h2l-23 -38h-10l-44 -10h-16l-40 71l-40 -72h-16l-44 10h-10l-23 38h2l68 73l17 11h-7l-103 20h-12l-4 45h4l30 34h17l77 -37v1l-12 98h9l41 18h12l41 -18h9l-12 -98l77 36h17l30 -33h4l-3 -45h-12z" />
    <glyph glyph-name="plus" unicode="+" horiz-adv-x="481" 
d="M455 279h-170v-170h-91v170h-170v61h170v170h91v-170h170v-61z" />
    <glyph glyph-name="comma" unicode="," horiz-adv-x="185" 
d="M46 -82q22 7 32 19t12.5 25t-2 25t-10.5 20q-10 11 -20 24.5t-2 32.5q4 10 14.5 15.5t21.5 5t22 -7.5t17 -22q12 -28 9 -54t-16 -45.5t-33 -31.5t-44 -13z" />
    <glyph glyph-name="hyphen" unicode="-" horiz-adv-x="380" 
d="M26 312h328l6 -22l-6 -22h-328l-6 23z" />
    <glyph glyph-name="period" unicode="." horiz-adv-x="179" 
d="M90 -4q-19 0 -32 13t-13 32t13 32t32 13t32 -13t13 -32t-13 -32t-32 -13z" />
    <glyph glyph-name="slash" unicode="/" horiz-adv-x="406" 
d="M355 713h18l40 -17h8l-361 -710h-19l-40 19h-7z" />
    <glyph glyph-name="zero" unicode="0" horiz-adv-x="596" 
d="M298 714q59 0 106 -25t79.5 -72t50 -114.5t17.5 -152.5t-17.5 -152.5t-50 -114.5t-79.5 -72t-106 -25t-106 25t-79.5 72t-50 114.5t-17.5 152.5t17.5 152.5t50 114.5t79.5 72t106 25zM298 668q-32 0 -57.5 -22t-43.5 -63t-27.5 -100t-9.5 -133t9.5 -133t27.5 -100
t43.5 -63t57.5 -22t57.5 22t43.5 63t27.5 100t9.5 133t-9.5 133t-27.5 100t-43.5 63t-57.5 22z" />
    <glyph glyph-name="one" unicode="1" horiz-adv-x="344" 
d="M64 0h-15v15h36q17 0 28.5 15.5t11.5 38.5v516q0 49 -31 49h-53v16h13q35 5 67.5 16.5t64.5 47.5h49v-646q0 -23 11.5 -38.5t28.5 -15.5h36v-15h-15z" />
    <glyph glyph-name="two" unicode="2" horiz-adv-x="553" 
d="M65 525l-18 121h4q15 15 37.5 27.5t48.5 22t54 14.5t54 5q54 0 98 -14t75 -40t47.5 -63.5t16.5 -84.5q0 -55 -27.5 -112t-68.5 -111.5t-89 -104t-88 -88.5h1l-24 -24h194q16 0 28.5 4t23 13.5t21 25.5t23.5 39h54l-53 -154h-444v21h5q28 25 63.5 61t71.5 77.5t70 87.5
t61 91.5t43 89t16 80.5t-15 67t-38.5 51t-51.5 32t-55 11h-3q-57 -2 -91 -35.5t-34 -97.5v-14z" />
    <glyph glyph-name="three" unicode="3" horiz-adv-x="503" 
d="M45 636h4q26 29 65 51t106 25h16q46 0 83.5 -12t63.5 -33t40 -49t14 -60q0 -26 -9.5 -51t-26 -46.5t-38 -38t-44.5 -26.5h-1q28 -10 53 -25.5t44 -38t30.5 -51t11.5 -63.5q0 -52 -25 -98.5t-69 -81.5t-103 -55.5t-126 -20.5q-40 0 -78 7h-12l5 25h31q52 0 98.5 17t82 47
t56 71.5t20.5 91.5q0 39 -14 68t-39 48t-59.5 28t-74.5 9h-15l5 27h15q29 0 58 10t52.5 29t38 47t14.5 64q0 21 -8.5 41.5t-23.5 36.5t-37 26t-49 10q-24 0 -47 -8.5t-40.5 -23.5t-28.5 -36t-11 -46v-9q0 -3 0.5 -5t0.5 -3l-9 1z" />
    <glyph glyph-name="four" unicode="4" horiz-adv-x="583" 
d="M439 71q0 -19 8.5 -32t21.5 -13h34v-26h-239v26h34q11 0 20 12.5t11 30.5v174h-304v17l365 454h48v-401h51q17 0 23.5 4.5t14.5 15.5h8l-25 -90h-71v-172zM329 313v221l-179 -221h179z" />
    <glyph glyph-name="five" unicode="5" horiz-adv-x="498" 
d="M408 611l-235 -15h13l-39 -132q17 3 33.5 4t33.5 1q49 0 92.5 -12.5t76 -38t51 -63t18.5 -88.5v-12q-2 -55 -22 -98t-50.5 -75t-69 -54t-78 -36t-76.5 -20t-64 -6q-21 0 -41 4h-12l5 25h25q29 0 72 15t84 46t71.5 78t35.5 110q1 2 1 7v10q0 66 -39.5 102t-104.5 36
q-22 0 -49 -5t-61 -17l-32 10l80 277h13l230 17q21 0 35 13t25 35l14 -1z" />
    <glyph glyph-name="six" unicode="6" horiz-adv-x="560" 
d="M164 309q-1 -9 -1 -18.5v-18.5q0 -54 8 -98.5t24 -76.5t40 -50t56 -18q28 0 48 14t33.5 37t20 53.5t6.5 62.5q0 1 -0.5 2t-0.5 4q-2 69 -29 112t-79 43q-24 0 -49.5 -14t-46.5 -42h-24zM415 712q-61 -20 -106 -57t-75.5 -86.5t-47 -109.5t-21.5 -126q33 37 77 56t91 19
q34 0 66 -12t57.5 -36t42 -60t20.5 -84v-8q0 -2 0.5 -4t0.5 -4q0 -42 -16 -81t-45.5 -69t-72 -48.5t-95.5 -19.5h-4q-53 0 -98 19.5t-77.5 56t-51 89t-18.5 119.5v5q1 77 23 154.5t65.5 142t110 109.5t156.5 56h16l11 -21h-9z" />
    <glyph glyph-name="seven" unicode="7" horiz-adv-x="502" 
d="M48 698h446l-108 -288q-6 -17 -16 -45.5t-22.5 -64.5t-26.5 -76.5t-26.5 -80.5t-23.5 -77t-18 -66h-126q16 42 39 100t48 121q20 53 41 104.5t36 89.5l88 225h-281q-22 0 -36 -15t-25 -45h-17z" />
    <glyph glyph-name="eight" unicode="8" horiz-adv-x="552" 
d="M475 541q0 -55 -29.5 -98t-87.5 -70h1q28 -15 55 -33t48.5 -41t35 -52.5t13.5 -66.5q0 -43 -16.5 -78.5t-47 -61t-74 -39.5t-96.5 -14t-96 13.5t-74 38.5t-48 60t-17 78v9q3 60 38 103.5t104 78.5h-2q-48 36 -76.5 79.5t-28.5 95.5q0 36 13.5 67t39.5 53.5t62.5 36
t83.5 14.5h4q42 0 78 -11.5t62 -34t40.5 -54.5t14.5 -73zM278 32q30 0 51 11.5t35 30t20.5 42.5t6.5 49q0 34 -10 57t-25.5 39t-35 27t-38.5 21h1l-27 13l-19 9q-30 -24 -51.5 -62.5t-23.5 -93.5q1 -66 31.5 -104.5t84.5 -38.5zM295 406q32 29 46.5 66.5t14.5 76.5
q0 57 -21 88.5t-57 31.5q-19 0 -34 -9t-25.5 -24.5t-16 -36t-5.5 -43.5q0 -50 22.5 -85.5t66.5 -60.5z" />
    <glyph glyph-name="nine" unicode="9" horiz-adv-x="560" 
d="M399 387q1 8 1 15v15q0 115 -32 182.5t-96 67.5q-28 0 -48.5 -13.5t-34 -36.5t-20 -53.5t-6.5 -64.5v-7q2 -66 29.5 -109.5t79.5 -43.5q23 1 48.5 14t47.5 43h23zM148 -16q61 17 106.5 54.5t76 89t47 113t20.5 127.5q-32 -37 -75.5 -58.5t-90.5 -21.5q-36 0 -69 11.5
t-59 35t-42 59.5t-17 84v9q0 51 17 92.5t47.5 70.5t72 45.5t91.5 17.5h4q55 0 100 -19.5t77 -56.5t49 -91t17 -123q0 -74 -21 -152t-64.5 -143.5t-110.5 -111t-159 -53.5h-14l-12 21h9z" />
    <glyph glyph-name="colon" unicode=":" horiz-adv-x="170" 
d="M90 379q-19 0 -32 13t-13 32t13 32t32 13t32 -13t13 -32t-13 -32t-32 -13zM90 -4q-19 0 -32 13t-13 32t13 32t32 13t32 -13t13 -32t-13 -32t-32 -13z" />
    <glyph glyph-name="semicolon" unicode=";" horiz-adv-x="600" 
d="M90 407q-19 0 -32 13t-13 32t13 32t32 13t32 -13t13 -32t-13 -32t-32 -13zM46 -82q22 7 32 19t12.5 25t-2 25t-10.5 20q-10 11 -20 24.5t-2 32.5q4 10 14.5 15.5t21.5 5t22 -7.5t17 -22q12 -28 9 -54t-16 -45.5t-33 -31.5t-44 -13z" />
    <glyph glyph-name="less" unicode="&#x3c;" horiz-adv-x="481" 
d="M458 468h-8l-317 -153q77 -38 158.5 -76.5t158.5 -76.5h8v-66h-21l-403 192h-9v54h9l403 191h21v-65z" />
    <glyph glyph-name="equal" unicode="=" horiz-adv-x="481" 
d="M34 409h414v-62h-414v62zM34 251h414v-62h-414v62z" />
    <glyph glyph-name="greater" unicode="&#x3e;" horiz-adv-x="481" 
d="M450 342h9v-54h-9l-403 -192h-21v66h8l316 153q-77 38 -158 76.5t-158 76.5h-8v65h21z" />
    <glyph glyph-name="question" unicode="?" horiz-adv-x="413" 
d="M6 623q24 44 66 68t96 24q98 0 154 -44.5t56 -125.5q0 -27 -9.5 -51t-24.5 -46t-34 -41.5t-37 -37.5q-20 -20 -42 -48t-31 -54q-3 -10 -5 -19.5t-2 -23.5q0 -29 15 -48h-5l-6 -5h-17q-29 27 -39.5 50.5t-10.5 45.5q0 30 21 59t47 60q13 16 26.5 32.5t24.5 36t17.5 41.5
t6.5 49q0 66 -27.5 102.5t-78.5 36.5q-53 0 -83.5 -41t-28.5 -113h-40zM181 -3q-25 0 -42.5 13t-17.5 32t17.5 32t42.5 13t42.5 -13t17.5 -32t-17.5 -32t-42.5 -13z" />
    <glyph glyph-name="at" unicode="@" horiz-adv-x="977" 
d="M394 227q-24 -33 -48 -62t-49.5 -50.5t-52 -34t-56.5 -12.5q-33 0 -61 13t-48.5 37t-31.5 57t-11 74q0 30 8 68t25 78q30 64 77 118t107 94t131.5 62.5t149.5 22.5q17 0 37 -1t38 -4q71 -10 129 -39.5t99 -74t63.5 -100.5t22.5 -120v-9v-18t-2 -18q-10 -82 -45.5 -159.5
t-95 -137.5t-142 -96.5t-185.5 -36.5q-63 0 -130.5 14t-142.5 46h-8l-12 30h20q66 -26 122 -38t104 -12q81 0 150 30.5t121.5 83.5t87 124.5t47.5 153.5q2 13 2.5 27t0.5 27q0 117 -56 190.5t-154 87.5q-15 2 -29 3t-28 1q-121 0 -217.5 -67.5t-153.5 -193.5
q-20 -44 -29 -85t-9 -79q0 -49 13 -77.5t38 -29.5q17 0 37 14.5t40.5 37t40.5 49.5t38 52q5 8 10.5 14.5t10.5 13.5l120 164q12 12 28 36q8 11 15.5 22.5t12.5 25.5h49l41 -403q4 -39 17 -39h29l-3 -23h-201l3 23h29q5 0 10.5 7t6.5 21l-6 97zM422 266h92q0 5 -0.5 12
t-0.5 11q-1 17 -1.5 27.5t-1 19.5t-1.5 20t-2 31z" />
    <glyph glyph-name="A" unicode="A" horiz-adv-x="712" 
d="M636 85q14 -30 31.5 -43.5t32.5 -13.5h32v-26h-267v26h32q7 0 12.5 8t5.5 24q0 10 -2 18q-15 39 -31 80.5t-30 80.5h-223q-16 -39 -32.5 -80.5t-31.5 -80.5q-2 -10 -2 -18q0 -16 5.5 -24.5t13.5 -8.5h32v-26h-243v26h32q15 0 32 13.5t31 42.5l222 525q10 22 18 42
q6 16 11.5 33t5.5 31h51zM435 285q-13 34 -24 63.5t-22.5 58.5t-22.5 59t-24 65l-96 -246h189z" />
    <glyph glyph-name="B" unicode="B" horiz-adv-x="563" 
d="M243 699q113 -2 174 -48t61 -124q0 -52 -28.5 -89t-66.5 -57h-3q75 -20 116.5 -71t41.5 -119q0 -88 -64.5 -140t-186.5 -52h-262v26h36q17 0 27.5 15.5t12.5 37.5v543q0 22 -11.5 37.5t-28.5 15.5h-35v26h15zM284 49q63 2 99 39.5t36 107.5q0 38 -11.5 65.5t-30 46
t-42 29.5t-47.5 16q-17 2 -32.5 3.5t-44.5 2.5v-309zM262 388q18 3 35 11.5t31 24t22.5 39t8.5 57.5q0 63 -30 96.5t-89 33.5h-29v-266q13 0 27.5 1t23.5 3z" />
    <glyph glyph-name="C" unicode="C" horiz-adv-x="760" 
d="M708 141q-41 -67 -114 -111t-183 -44q-82 0 -150.5 26t-118 74t-77 115t-27.5 150q0 81 27 148t76.5 115t119 74t155.5 26q79 0 140.5 -20t107.5 -50h7l21 -151h-18q-11 43 -37.5 76t-62 55t-76.5 33t-81 11q-60 0 -107.5 -22.5t-81 -64t-51.5 -100t-18 -129.5
q0 -70 19.5 -127t54 -98t81 -65.5t99.5 -29.5q46 1 94 15.5t89 46t70 83t38 125.5h17z" />
    <glyph glyph-name="D" unicode="D" horiz-adv-x="807" 
d="M393 700q83 0 152 -25t118.5 -71t76.5 -110.5t27 -143.5t-27 -143.5t-76.5 -110.5t-118.5 -71t-152 -25h-355v26h36q17 0 27.5 15.5t12.5 37.5v547q0 20 -12.5 33.5t-27.5 13.5h-36v27h355zM223 45h170q57 0 104 22t80.5 62t51.5 96t18 125q0 68 -18.5 124t-51.5 96
t-80 62t-104 22h-170v-609z" />
    <glyph glyph-name="E" unicode="E" 
d="M481 -2h-449v26h36q17 0 27.5 15.5t12.5 38.5v546q-2 20 -13.5 34t-25.5 14h-36v26h317q14 0 31 2t33.5 5t31 7t22.5 8h14v-144h-17v26q0 20 -9 33.5t-23 16.5h-214v-285h174q11 1 18.5 12t7.5 29v22h22v-170h-22v23q0 17 -7 28t-17 12h-175v-277h150q32 0 56 9.5
t42 26.5t31.5 40.5t24.5 51.5h21z" />
    <glyph glyph-name="F" unicode="F" horiz-adv-x="541" 
d="M496 588h-21v23q0 18 -7.5 28.5t-18.5 11.5h-217v-285h180q11 1 18 12t7 29v22h17v-170h-17v23q0 16 -7 27t-16 13h-181v-242q1 -23 12 -38.5t27 -15.5h36v-26h-261v26h36q17 0 27.5 15.5t12.5 38.5v546q0 20 -12.5 34t-27.5 14h-36v26h309q14 0 32.5 2t36.5 5t33.5 7
t23.5 8h14v-134z" />
    <glyph glyph-name="G" unicode="G" horiz-adv-x="798" 
d="M735 320q-25 0 -25 -35v-160q-18 -24 -45.5 -48.5t-65.5 -44t-86.5 -31.5t-107.5 -12q-83 0 -152.5 26t-119 74t-77 115t-27.5 149t27.5 149t77 115t118.5 74t152 26q87 0 147 -20.5t106 -49.5h7l21 -151h-15q-23 85 -81.5 129.5t-146.5 44.5q-57 0 -110 -23t-93.5 -64.5
t-64.5 -100t-24 -130.5q0 -71 19 -129t53 -100t81 -65.5t103 -24.5q56 1 109 22t93 57v173q0 17 -9 25.5t-22 8.5h-30v23h217v-23h-16z" />
    <glyph glyph-name="H" unicode="H" horiz-adv-x="813" 
d="M522 1h-15v26h36q16 0 27 15.5t12 36.5v245h-353v-244q2 -22 12.5 -37.5t27.5 -15.5h36v-26h-261v26h36q17 0 27.5 15.5t12.5 37.5v542q-2 22 -12.5 38t-27.5 16h-36v26h261v-26h-36q-17 0 -27.5 -16t-12.5 -38v-252h353v252q-1 21 -12 36.5t-27 15.5h-36v26h260v-26h-35
q-17 0 -27.5 -16t-12.5 -38v-541q2 -22 12.5 -37.5t27.5 -15.5h35v-26h-15z" />
    <glyph glyph-name="I" unicode="I" horiz-adv-x="338" 
d="M300 0h-261v26h36q17 0 27.5 15.5t12.5 37.5v542q-2 22 -12.5 38t-27.5 16h-36v26h261v-26h-36q-17 0 -27.5 -16t-12.5 -38v-542q2 -22 12.5 -37.5t27.5 -15.5h36v-26z" />
    <glyph glyph-name="J" unicode="J" horiz-adv-x="324" 
d="M301 674h-36q-15 0 -26.5 -16t-13.5 -38v-616q0 -44 -16 -81t-44.5 -64.5t-66.5 -43t-82 -15.5h-15v22h10q22 8 41 26.5t33 43t22 54.5t8 61v613q-1 22 -12 38t-27 16h-36v25h261v-25z" />
    <glyph glyph-name="K" unicode="K" horiz-adv-x="657" 
d="M203 79q2 -22 12.5 -37.5t27.5 -15.5h36v-26h-261v26h36q17 0 27.5 15.5t12.5 37.5v542q-2 22 -12.5 38t-27.5 16h-36v26h261v-26h-36q-17 0 -27.5 -16t-12.5 -38v-233q54 63 106 127t106 127h-1q3 4 3 14q0 19 -8 19h-33v25h253v-25h-27q-25 0 -48 -12t-40 -32
l-238 -260l276 -309q35 -35 82 -36h15v-26h-64q-11 0 -31.5 1.5t-44 7.5t-47.5 17.5t-42 31.5l-217 249v-228z" />
    <glyph glyph-name="L" unicode="L" horiz-adv-x="562" 
d="M480 0h-449v26h36q17 0 27.5 15.5t12.5 37.5v541q-2 22 -12.5 37.5t-27.5 15.5h-36v27h261v-27h-36q-17 0 -27.5 -15.5t-12.5 -37.5v-574h150q32 0 56 9.5t42 26.5t31.5 40.5t24.5 51.5h22z" />
    <glyph glyph-name="M" unicode="M" horiz-adv-x="931" 
d="M834 80q5 -23 19 -38.5t30 -15.5h39v-26h-259v25h39q5 0 9.5 10.5t5.5 22.5l-36 406q-42 -94 -84.5 -186.5t-84.5 -186.5q-4 -8 -7.5 -17t-6.5 -18q-5 -14 -10 -32t-8 -38h-50l-216 466q-9 -100 -18 -198.5t-17 -197.5q1 -11 5 -21t10 -10h38v-25h-236v26h39
q16 0 30 15.5t19 38.5q17 153 37 317t37 317h50l253 -548q61 134 124.5 274t123.5 274h50z" />
    <glyph glyph-name="N" unicode="N" horiz-adv-x="841" 
d="M765 699h15v-26h-41q-14 0 -24.5 -15t-11.5 -35v-506q0 -23 1.5 -46.5t3.5 -42.5q1 -11 2 -21.5t3 -21.5h-48l-495 528v-437q2 -21 12.5 -36t24.5 -15h41v-26h-248v26h41q15 0 25.5 15t11.5 37v508q0 25 -1.5 48.5t-3.5 41.5l-5 40h49l495 -528v436q-2 21 -12.5 36
t-25.5 15h-41v26h15z" />
    <glyph glyph-name="O" unicode="O" horiz-adv-x="807" 
d="M401 714q83 0 152 -26t118.5 -74t77 -115t27.5 -149t-27.5 -149t-77 -115t-118.5 -74t-152 -26t-152 26t-118.5 74t-77 115t-27.5 149t27.5 149t77 115t118.5 74t152 26zM401 32q57 0 104 23t80.5 64.5t51.5 100t18 130.5t-18 130.5t-51.5 100t-80.5 64.5t-104 23
t-103.5 -23t-80 -64.5t-51.5 -100t-18 -130.5t18 -130.5t51.5 -100t80 -64.5t103.5 -23z" />
    <glyph glyph-name="P" unicode="P" 
d="M222 359h17l11 -3h-1q10 -3 25 -3q16 0 36 3.5t39.5 15t37 31.5t28.5 53h-1q5 22 5 48v8q-2 66 -29 104t-78 38h-90v-295zM313 700q106 0 165.5 -52t59.5 -145q0 -46 -18 -80t-48 -57t-68.5 -35t-80.5 -13q-29 0 -49.5 6.5t-46.5 20.5h-5v-266q2 -22 12.5 -37.5
t27.5 -15.5h36v-26h-261v26h36q17 0 27.5 15.5t12.5 37.5v546q-2 20 -13.5 34t-25.5 14h-36v27h275z" />
    <glyph glyph-name="Q" unicode="Q" horiz-adv-x="830" 
d="M1320 -109h-1q-23 -22 -44 -38.5t-42.5 -30t-45 -24t-51.5 -19.5q-26 -8 -57 -13t-65 -5q-47 0 -99.5 11t-107.5 34q-31 13 -62.5 27.5t-61.5 31.5q-35 18 -72 36.5t-74 34.5t-71.5 28t-65.5 18h3q-81 2 -148.5 29.5t-115.5 75.5t-74.5 114.5t-26.5 146.5
q0 82 27.5 149.5t77.5 115.5t119.5 74.5t152.5 26.5t152 -26.5t118.5 -74.5t77 -115.5t27.5 -149.5q0 -65 -18.5 -121.5t-52 -101.5t-81.5 -77.5t-106 -49.5h1q60 -20 136 -50t164 -67q46 -19 101 -31t106 -12q69 0 135 22q32 11 60 21t54 23h18zM157 348q0 -72 18.5 -131
t52 -101t81 -65t105.5 -23q57 0 104 23t80.5 65t52 101t18.5 131t-18.5 131t-52 101t-80.5 65t-104 23q-58 0 -105.5 -23t-81 -65t-52 -101t-18.5 -131z" />
    <glyph glyph-name="R" unicode="R" horiz-adv-x="677" 
d="M293 697q98 -2 156 -52.5t58 -139.5q0 -34 -12.5 -66.5t-34.5 -58.5t-52 -44.5t-64 -23.5h7q20 -16 32.5 -30.5t22.5 -26.5l33 -47l13 -18q20 -27 40.5 -54.5t33.5 -40.5q29 -32 56.5 -51.5t67.5 -19.5h15v-26h-77q-39 0 -69 8.5t-52.5 21.5t-38.5 28.5t-28 30.5l-70 100
q-11 15 -22.5 31.5t-22.5 30.5q-28 42 -38 53q-3 5 -11 12q-6 6 -11.5 10.5t-8.5 5.5q-2 1 -9 2t-17 2v-256q2 -22 12.5 -37.5t27.5 -15.5h36v-26h-260v26h36q17 0 27.5 15.5t12.5 37.5v542q-2 22 -12.5 38t-27.5 16h-36v26h15zM231 359h8.5t9.5 1q16 0 35 3.5t37.5 13.5
t34.5 28.5t26 49.5h-1q5 20 5 47v9q-2 64 -27.5 101t-70.5 39q-17 1 -33 1.5t-31 0.5q-8 0 -15 -0.5t-13 -0.5h-6v-293h41z" />
    <glyph glyph-name="S" unicode="S" horiz-adv-x="475" 
d="M378 301q34 -32 45.5 -64t11.5 -61q0 -42 -14.5 -77.5t-41.5 -60.5t-65 -39t-85 -14q-20 0 -46 3.5t-52.5 11t-50.5 19.5t-40 30q-3 13 -3 35q0 23 4.5 51.5t13.5 56.5h10q0 -3 -0.5 -6t-0.5 -5q-1 -5 -1 -9v-8q0 -30 15 -54.5t38 -42t49.5 -26.5t50.5 -9h7q22 1 42 10
t35 25t24 38t9 50q0 57 -31 84l-187 174q-32 32 -46.5 65.5t-14.5 62.5q0 32 12.5 63t37.5 55.5t61.5 39.5t83.5 15q22 0 45.5 -2.5t43.5 -7.5l58 -8v-128l-13 -1q0 32 -13.5 52t-33.5 31t-42.5 14.5t-40.5 3.5q-22 0 -40 -8.5t-30.5 -23t-19.5 -33t-7 -39.5q0 -20 6.5 -43
t26.5 -41z" />
    <glyph glyph-name="T" unicode="T" horiz-adv-x="628" 
d="M487 701q14 0 31 2t33.5 5t31 7t22.5 8h15v-144h-19v26q0 20 -9 33.5t-23 15.5h-200v-576q2 -22 12.5 -37.5t27.5 -15.5h36v-26h-261v26h36q15 0 26 15t12 37v577h-199q-14 -2 -23 -15.5t-9 -33.5v-26h-20v144h12q9 -4 23.5 -8t31 -7t34 -5t31.5 -2h348z" />
    <glyph glyph-name="U" unicode="U" horiz-adv-x="785" 
d="M736 701h15v-26h-39q-11 0 -18.5 -11t-9.5 -28v-386q0 -59 -20.5 -108t-58.5 -83.5t-91 -53.5t-117 -19q-66 0 -120 19t-93 53.5t-60 82.5t-21 107v386q-1 17 -9 29t-19 12h-39v26h244v-26h-38q-11 0 -19 -11t-9 -28v-373q0 -52 13.5 -94t37.5 -72t58 -46.5t75 -16.5
q44 0 80 15.5t61.5 44t39.5 68t14 88.5v385q-2 17 -9.5 28t-18.5 11h-39v26h15z" />
    <glyph glyph-name="V" unicode="V" horiz-adv-x="740" 
d="M761 674h-32q-15 0 -32.5 -13.5t-31.5 -42.5l-234 -526q-5 -11 -9.5 -22t-8.5 -21q-7 -17 -11.5 -34t-4.5 -29h-52l-277 631q-14 29 -31.5 43t-32.5 14h-31v26h266v-26h-32q-7 0 -12.5 -8t-5.5 -23q0 -16 5 -23l181 -454q48 115 96 229t96 229q2 10 2 19q0 15 -5.5 23
t-12.5 8h-32v26h242v-26z" />
    <glyph glyph-name="W" unicode="W" horiz-adv-x="982" 
d="M989 701h15v-26h-32q-15 0 -34.5 -13.5t-29.5 -41.5l-163 -517h1q0 1 -4 -12h1q-4 -16 -10 -45t-8 -58h-52l-178 500q-32 -98 -63.5 -193t-63.5 -193h1l-9 -36q-4 -17 -7 -37.5t-4 -40.5h-52l-224 632q-11 28 -30 41t-34 13h-31v26h263v-26h-32q-7 0 -12.5 -8t-5.5 -25
q0 -8 2 -16l126 -406q40 125 81 248.5t81 248.5h48l170 -478l112 389h-1q0 2 0.5 2.5t0.5 2.5q1 4 1 11q0 31 -16 31h-32v26h15z" />
    <glyph glyph-name="X" unicode="X" horiz-adv-x="662" 
d="M690 26v-26h-284v26h35q7 0 11.5 9.5t4.5 23.5q0 8 -2 14h1l-131 205l-130 -205q-2 -6 -2 -15q0 -13 5 -22.5t11 -9.5h36v-26h-268v26h37q22 0 44 16.5t37 37.5h-1q20 31 41 61.5t42 61.5q26 38 50.5 75.5t49.5 75.5l-169 266h1q-14 21 -35.5 37t-44.5 16h-36v27h283v-27
h-36q-6 0 -11 -10t-5 -23q0 -6 0.5 -9t1.5 -5h-1l115 -179q26 42 56.5 89.5t56.5 88.5q2 4 2 16q0 13 -5 22.5t-10 9.5h-36v27h266v-27h-37q-23 0 -44.5 -16t-35.5 -37l-168 -248h1l187 -293h-1q14 -21 34.5 -37t43.5 -16h40z" />
    <glyph glyph-name="Y" unicode="Y" horiz-adv-x="661" 
d="M669 699h15v-26h-36q-23 0 -44 -16t-35 -37h1l-192 -311h2v-231q1 -22 12 -37.5t27 -15.5h36v-26h-260v26h36q15 0 26 15.5t13 37.5v233h2l-184 309h1q-14 21 -35 37.5t-44 16.5h-37v26h287v-26h-36q-7 0 -11 -10t-4 -23q0 -12 2 -16l126 -237l137 239q1 2 1 14
q0 13 -5 23t-11 10h-36v26h15z" />
    <glyph glyph-name="Z" unicode="Z" horiz-adv-x="651" 
d="M595 1h-556v16l406 639h-336q-14 -2 -24 -16t-10 -34v-26h-21v143h21q9 -4 23.5 -8t31.5 -7t34.5 -5t31.5 -2h271q13 0 28.5 1.5t30.5 4.5t27.5 6t18.5 6h22v-22l-413 -652h318q44 0 72 35t42 87h20z" />
    <glyph glyph-name="bracketleft" unicode="[" horiz-adv-x="332" 
d="M70 722h212v-25h-12l-102 -20h12v-723h-12q26 -5 52.5 -10t52.5 -10h12v-24h-215v812z" />
    <glyph glyph-name="backslash" unicode="\" horiz-adv-x="406" 
d="M40 713h18l361 -709h-7l-41 -19h-19l-361 711h7z" />
    <glyph glyph-name="bracketright" unicode="]" horiz-adv-x="332" 
d="M250 -90h-215v24h12l105 20h-12v723h12q-26 5 -51 10t-51 10h-12v25h212v-812z" />
    <glyph glyph-name="asciicircum" unicode="^" horiz-adv-x="523" 
d="M222 371h80l196 -189h-83l-153 144l-154 -144h-83z" />
    <glyph glyph-name="underscore" unicode="_" horiz-adv-x="500" 
d="M-15 -60h530v-30h-530v30z" />
    <glyph glyph-name="grave" unicode="`" horiz-adv-x="439" 
d="M245 747h-17q-43 20 -84 41t-79 43h-6q14 26 45 54h20q32 -31 63.5 -64t63.5 -68z" />
    <glyph glyph-name="a" unicode="a" horiz-adv-x="663" 
d="M592 78q13 -27 27 -39.5t26 -12.5h31v-26h-246v26h31q5 0 10 8t5 23q0 10 -2 16q-13 30 -25.5 62t-25.5 62h-207l-52 -121q-2 -3 -2 -19q0 -15 4.5 -23t9.5 -8h31v-26h-232v26h31q12 0 27 12t29 40h-1l202 431q11 23 18 40q7 16 12 33.5t6 31.5h51zM404 243l-83 202
l-86 -202h169z" />
    <glyph glyph-name="b" unicode="b" horiz-adv-x="551" 
d="M247 600q29 0 68 -5t74 -21t59 -47t24 -82q0 -38 -27 -68t-64 -50h-3q68 -17 109.5 -59t41.5 -97q0 -50 -23 -82.5t-58 -52t-77.5 -27.5t-82.5 -8h-264v26h35q14 0 24 13t11 31v459q-1 19 -11 31t-24 12h-35v27h223zM288 46q50 0 86 32t38 93q-3 39 -21 65t-46 41.5
t-64.5 22.5t-77.5 8v-262h85zM256 337q19 3 37.5 9.5t32.5 19.5t22.5 32t8.5 47q0 57 -29 83t-82 26h-43v-220q17 0 28.5 0.5t25.5 2.5h-1z" />
    <glyph glyph-name="c" unicode="c" horiz-adv-x="705" 
d="M670 120q-20 -31 -50.5 -56t-68.5 -42t-81.5 -26.5t-90.5 -9.5q-80 0 -143.5 22t-108.5 62.5t-69 98.5t-24 131t24 131.5t69 99t108.5 62t143.5 21.5q66 0 130.5 -17t112.5 -46l31 -150h-17q-23 90 -81 128.5t-139 38.5q-52 0 -100 -18.5t-84.5 -53t-58.5 -84.5t-22 -112
q0 -60 22.5 -109t59.5 -83.5t85.5 -54t101.5 -20.5q49 0 91.5 13.5t75 41.5t53 71t24.5 103h17z" />
    <glyph glyph-name="d" unicode="d" horiz-adv-x="760" 
d="M390 599q76 -1 138 -22.5t106 -60t68 -93.5t24 -124q0 -70 -23.5 -125.5t-67 -94.5t-106 -59.5t-139.5 -20.5h-348v26h36q14 0 22.5 13.5t9.5 32.5v458q-1 19 -10 31.5t-22 12.5h-35v27h15zM220 45h170q103 0 161 66.5t58 186.5q0 119 -58 187t-161 68h-170v-508z" />
    <glyph glyph-name="e" unicode="e" horiz-adv-x="546" 
d="M457 -5h-438v26h37q14 0 22.5 13t9.5 32v462q0 18 -9 30.5t-23 12.5h-37v26h308q13 0 29 2t31.5 5t29 6.5t21.5 6.5h20v-131h-19v23q0 18 -7.5 29.5t-19.5 12.5h-215v-230h181q8 1 12.5 10t4.5 23v21h19v-153h-19v21q0 26 -15 33h-182v-230h165q29 1 50 9t36.5 22.5
t27.5 34t22 43.5h18z" />
    <glyph glyph-name="f" unicode="f" horiz-adv-x="523" 
d="M341 596q13 0 29.5 2t32.5 4.5t30 6t22 6.5h20v-130h-19v23q0 18 -7 29.5t-19 12.5h-220v-230h184q8 1 12.5 10t4.5 23v21h18v-153h-18v21q0 26 -15 33h-186v-206q1 -19 10.5 -32t23.5 -13h37v-26h-250v26h37q14 0 23.5 13t10.5 32v461q-1 18 -10.5 31t-23.5 13h-37v26
h156z" />
    <glyph glyph-name="g" unicode="g" horiz-adv-x="742" 
d="M672 120q-18 -24 -46.5 -48t-67 -43.5t-85.5 -31.5t-102 -12q-77 0 -140.5 22t-108.5 62.5t-69.5 98.5t-24.5 131t24.5 131.5t69.5 99t108.5 62t140.5 21.5q73 0 131.5 -15t110.5 -47l31 -150h-19q-21 87 -74 127t-146 40q-51 0 -98 -18.5t-83.5 -53t-58 -84.5
t-21.5 -112t16 -111.5t45.5 -84.5t71 -53.5t92.5 -18.5q54 0 102.5 19t93.5 61l-3 126q0 29 -23 29h-29v22h209v-22h-29q-20 0 -20 -30z" />
    <glyph glyph-name="h" unicode="h" horiz-adv-x="746" 
d="M470 -1h-15v26h34q14 0 23.5 13t10.5 32v203h-312v-203q1 -19 10.5 -32t23.5 -13h34v-26h-245v26h34q14 0 23.5 13t10.5 32v458q-1 18 -10.5 31t-23.5 13h-34v27h245v-27h-35q-13 0 -22 -12.5t-10 -29.5v-211h312v210q-1 18 -10.5 31t-23.5 13h-34v27h245v-27h-34
q-12 0 -21.5 -13t-11.5 -30v-459q1 -19 10.5 -32t23.5 -13h34v-26h-15z" />
    <glyph glyph-name="i" unicode="i" horiz-adv-x="336" 
d="M29 26h36q17 0 29 13t14 31v459q-2 18 -14 31t-29 13h-36v27h267v-27h-36q-15 0 -27.5 -13t-14.5 -30v-460q1 -18 13 -31t29 -13h36v-26h-267v26z" />
    <glyph glyph-name="j" unicode="j" horiz-adv-x="309" 
d="M293 573h-36q-17 0 -28.5 -13t-12.5 -32v-524q0 -37 -17 -70t-46.5 -58t-67.5 -39.5t-80 -14.5h-15v24h11q21 6 40 22t33.5 37.5t23 47t8.5 51.5v528q-2 17 -13.5 29t-26.5 12h-36v27h263v-27z" />
    <glyph glyph-name="k" unicode="k" horiz-adv-x="596" 
d="M182 70q1 -19 10.5 -32t23.5 -13h35v-26h-246v26h35q14 0 23.5 13t10.5 32v458q-1 18 -10.5 31t-23.5 13h-35v27h246v-27h-35q-14 0 -23.5 -12.5t-10.5 -29.5v-193l178 212q1 1 1 10q0 14 -4 14h-32v27h244v-27h-27q-22 0 -42 -8.5t-36 -23.5h1l-207 -221
q56 -62 117.5 -129t117.5 -129q17 -17 33.5 -26t43.5 -10h15v-26h-61q-12 0 -31.5 2t-42.5 8t-45.5 17.5t-40.5 30.5l-182 200v-188z" />
    <glyph glyph-name="l" unicode="l" horiz-adv-x="536" 
d="M516 152l-59 -154h-438v26h37q14 0 22.5 13t9.5 32v459q-1 18 -11 31t-24 13h-35v27h248v-27h-35q-14 0 -24 -13t-11 -31v-482h161q56 2 86 30t50 76h23z" />
    <glyph glyph-name="m" unicode="m" horiz-adv-x="878" 
d="M488 89q0 2 -2 0h2zM794 72q4 -23 16.5 -35t27.5 -12h38v-26h-249v25h38q12 0 12 25v4q-6 47 -11.5 86.5t-10.5 77t-10 77.5l-11 88q-38 -74 -74 -147t-74 -146l-5 -11h1q-5 -14 -15 -39t-15 -54h-49l-202 389l-36 -322q1 -11 4.5 -19t8.5 -8h38v-25h-226v26h37
q17 0 29 12.5t15 35.5l76 540h50l239 -460l230 460h50z" />
    <glyph glyph-name="n" unicode="n" horiz-adv-x="779" 
d="M736 598h15v-26h-39q-12 0 -21 -12t-11 -29v-414q0 -23 1.5 -46.5t3.5 -42.5q1 -11 2 -21.5t3 -21.5h-47l-470 446v-363q2 -18 11 -30.5t20 -12.5h40v-26h-230v26h40q12 0 21 12.5t10 30.5v416q0 23 -2 47t-4 42l-6 41h49l469 -441v360q-2 17 -11 29t-20 12h-40v26h15z
" />
    <glyph glyph-name="o" unicode="o" horiz-adv-x="746" 
d="M367 614q73 0 137 -23t112 -64.5t75.5 -99t27.5 -127.5t-27.5 -127.5t-75.5 -99t-112 -64.5t-137 -23t-137.5 23t-112.5 64.5t-75.5 99t-27.5 127.5t27.5 127.5t75.5 99t112.5 64.5t137.5 23zM367 32q49 0 91.5 19.5t73.5 54.5t49 84.5t18 109.5t-18 109.5t-49 84.5
t-73.5 54.5t-91.5 19.5q-50 0 -92.5 -19.5t-73.5 -54.5t-49 -84.5t-18 -109.5t18 -109.5t49 -84.5t73.5 -54.5t92.5 -19.5z" />
    <glyph glyph-name="p" unicode="p" horiz-adv-x="553" 
d="M206 294h8l24 -5q12 -3 33 -3q15 0 33.5 3.5t36.5 14t34 29.5t27 51q2 8 3.5 22t1.5 28q0 55 -34 87t-96 32h-71v-259zM279 599q55 -1 100 -13.5t77 -35t50 -54.5t18 -72q0 -43 -16 -76t-44 -55.5t-64.5 -34t-76.5 -11.5q-30 0 -59 8.5t-58 22.5v-208q1 -19 10 -32
t23 -13h37v-26h-249v26h37q14 0 22.5 13t9.5 32v460q-1 18 -10.5 30.5t-23.5 12.5h-37v27h15z" />
    <glyph glyph-name="q" unicode="q" horiz-adv-x="766" 
d="M1204 -90h-2q-23 -20 -45.5 -36.5t-43.5 -30.5q-16 -11 -38 -20.5t-48 -18.5q-23 -8 -51 -12t-59 -4q-41 0 -87.5 9.5t-92.5 28.5q-24 10 -42 19l-38 19h1l-40 19l-59 29.5t-62 29t-60.5 24.5t-53.5 16q-73 0 -136.5 23.5t-110.5 65.5t-74 100t-27 127q0 70 27 128
t74.5 100t110.5 65t135 23t135.5 -23t110.5 -65t74.5 -100t27.5 -128q0 -54 -17.5 -102t-48.5 -86.5t-74 -67t-95 -44.5h1q51 -17 119 -42t146 -56q43 -17 90.5 -27t95.5 -10q60 0 118.5 18.5t109.5 42.5h18zM154 298q0 -60 17.5 -110t48.5 -85.5t72.5 -55t89.5 -19.5
t90 19.5t72.5 55t48.5 85.5t18 110t-18 110t-48.5 85.5t-72.5 55t-90 19.5t-89.5 -19.5t-72.5 -55t-48.5 -85.5t-17.5 -110z" />
    <glyph glyph-name="r" unicode="r" horiz-adv-x="627" 
d="M271 599q101 -2 161 -45t60 -121q0 -30 -11 -56.5t-31 -48.5t-47 -38t-60 -23h6q19 -15 35 -33t27 -32l27 -37q12 -16 26.5 -34t29.5 -35q28 -32 52 -51.5t59 -19.5h15v-26h-53q-46 0 -78 8.5t-54.5 21.5t-38 28.5t-27.5 29.5q-5 5 -11.5 13.5t-11.5 16.5q-8 10 -15 21.5
t-15 21.5l-44 62q-11 13 -21 24.5t-18 17.5q-17 16 -52 19v-212q1 -18 9.5 -31t22.5 -13h37v-26h-246v26h37q14 0 22.5 12.5t9.5 30.5v461q-1 18 -9.5 30t-22.5 12h-36v27h15zM223 309q5 1 11 1h13q14 0 31 1t34.5 8.5t32.5 23t24 45.5q6 18 6 44q0 11 -1 12q-1 49 -29.5 77
t-76.5 31q-10 1 -19 1h-19h-49v-244h42z" />
    <glyph glyph-name="s" unicode="s" horiz-adv-x="462" 
d="M372 262q27 -23 39.5 -53.5t13.5 -58.5q0 -34 -15.5 -64t-42.5 -52.5t-62.5 -35.5t-75.5 -13q-24 0 -50.5 3t-52.5 10t-48.5 17t-38.5 25q-4 15 -4 33q0 20 4 45.5t13 50.5h11q0 -3 -0.5 -6t-0.5 -5q-1 -5 -1 -8.5v-5.5q0 -27 15 -47.5t37.5 -35t49 -22t50.5 -7.5h6
q51 2 79.5 27.5t28.5 71.5q0 47 -27 70l-195 150q-32 27 -43 56.5t-12 55.5q0 31 14.5 59t39 48t58.5 32t73 12q34 0 58.5 -2.5t41.5 -6.5l51 -10l3 -112h-11q-2 28 -15.5 45t-33 26t-42.5 11.5t-44 2.5q-20 0 -37.5 -7t-30 -18t-20 -26t-7.5 -33q0 -19 5.5 -37t23.5 -33z
" />
    <glyph glyph-name="t" unicode="t" horiz-adv-x="578" 
d="M446 601q13 0 29 2t32 5t29.5 6.5t21.5 6.5h20v-131h-21v23q0 17 -7.5 28.5t-18.5 13.5h-188v-485q1 -18 10.5 -31t23.5 -13h35v-26h-247v26h35q14 0 23 13t11 32v484h-190q-12 -2 -18.5 -13.5t-6.5 -28.5v-23h-21v131h20q8 -3 21.5 -6.5t29.5 -6.5t32 -5t29 -2h316z" />
    <glyph glyph-name="u" unicode="u" horiz-adv-x="700" 
d="M652 602h15v-27h-38q-9 0 -15.5 -9t-7.5 -23v-328q0 -53 -18.5 -95t-53 -71.5t-84 -45.5t-110.5 -16q-62 0 -111 15.5t-83.5 44.5t-53 71t-18.5 95v328q-2 14 -8.5 24t-15.5 10h-37v27h231v-27h-38q-9 0 -15.5 -10t-7.5 -24v-315q0 -91 41 -143.5t115 -52.5
q83 0 128.5 48.5t45.5 135.5v327q-1 14 -7.5 23.5t-15.5 9.5h-38v26h15z" />
    <glyph glyph-name="v" unicode="v" horiz-adv-x="684" 
d="M692 574h-31q-12 0 -26.5 -12.5t-28.5 -39.5h1l-202 -431q-5 -11 -9.5 -21t-8.5 -20q-7 -16 -12 -33.5t-6 -30.5h-51l-243 536h1q-14 27 -28 39.5t-26 12.5h-31v26h246v-26h-31q-5 0 -9.5 -8t-4.5 -24q0 -6 2 -16h-1q21 -51 39.5 -96t37 -89.5t37 -89.5t39.5 -96
q38 92 77 181.5t77 182.5q5 7 5 23q0 15 -4.5 23.5t-9.5 8.5h-31v26h232v-26z" />
    <glyph glyph-name="w" unicode="w" horiz-adv-x="899" 
d="M898 602h15v-26h-31q-19 0 -33.5 -15t-23.5 -38l-141 -419h1q0 -1 -1 -3q-1 -3 -3 -11q-5 -14 -10.5 -41.5t-7.5 -59.5h-53l-161 410l-105 -296h1q0 1 -2 -9q-4 -14 -10.5 -43.5t-8.5 -61.5h-52l-207 538q-8 20 -22.5 33.5t-32.5 13.5h-31v26h247v-26h-31q-5 0 -8.5 -6.5
t-3.5 -23.5q0 -5 0.5 -9t2.5 -9l107 -324l143 413h49l152 -389l90 299q3 9 3 21q0 28 -10 28h-32v26h15z" />
    <glyph glyph-name="x" unicode="x" horiz-adv-x="626" 
d="M633 33h19v-29h-277v26h35q5 0 9.5 7.5t4.5 18.5q0 3 1 6t-1 5q-31 45 -58.5 83t-58.5 83l-119 -162q-4 -4 -4 -16q0 -11 4.5 -18.5t10.5 -7.5h35v-26h-259v26h36q20 0 39.5 13.5t33.5 30.5q44 55 88.5 113.5t88.5 113.5l-161 231q-14 17 -34 30.5t-41 13.5h-36v26h275
v-26h-35q-5 0 -9.5 -8t-4.5 -19q0 -4 -1 -6.5t1 -4.5q28 -39 51.5 -74.5t52.5 -75.5q24 35 51 74.5t50 74.5v11q0 11 -4 19t-9 8h-36v26h263v-26h-36q-21 0 -41 -13.5t-34 -32.5l-153 -213q42 -60 85.5 -122.5t85.5 -122.5q14 -17 32 -29.5t37 -14.5z" />
    <glyph glyph-name="y" unicode="y" horiz-adv-x="640" 
d="M656 573h-36q-20 0 -38 -14t-32 -32h1l-185 -280h2v-177q1 -18 10.5 -31t23.5 -13h34v-26h-246v26h34q14 0 23 13t11 31v177h2l-179 280h1q-14 21 -31.5 33.5t-37.5 12.5h-35v27h272v-27h-34q-6 0 -9.5 -7.5t-3.5 -18.5v-5q0 -2 0.5 -2.5t0.5 -1.5h-2q33 -59 61 -107.5
t61 -107.5l130 217h-1v8q0 25 -13 25h-34v27h250v-27z" />
    <glyph glyph-name="z" unicode="z" horiz-adv-x="608" 
d="M593 158l-60 -157h-509v16l358 539h-299q-12 -2 -18.5 -13.5t-6.5 -28.5v-23h-19v130h20q8 -3 21.5 -6.5t29 -6.5t31.5 -5t29 -2h224q14 0 31 1.5t33 4t29.5 5.5t19.5 6h21v-21l-364 -551h275q56 2 85.5 32t49.5 77z" />
    <glyph glyph-name="braceleft" unicode="{" horiz-adv-x="337" 
d="M27 332h19q10 0 21 1t16 9h-2q2 8 2 15q0 11 -1.5 25t-3.5 31q0 1 -0.5 2t-0.5 2q-4 21 -6.5 46t-2.5 45v4q0 46 11 86t35 70t61.5 47t89.5 17h15l5 -22h-11q-31 -8 -49.5 -25t-28.5 -42.5t-14 -58.5t-5 -72v-29q0 -5 0.5 -10.5t0.5 -10.5q1 -9 1 -20v-19q0 -34 -7.5 -62
t-37.5 -45h1q28 -17 36 -44.5t8 -61.5v-21t-1 -21q0 -5 -0.5 -11.5t-0.5 -10.5v-27q1 -39 5 -72t14 -58.5t28.5 -42.5t49.5 -25h11l-5 -22h-15q-52 0 -89.5 17t-61.5 47t-35 70t-11 86v4q0 17 2 38t4 40q0 2 0.5 5t0.5 5q2 17 3.5 32.5t1.5 26.5q0 8 -0.5 12t-0.5 6
q-3 11 -12.5 13.5t-18.5 4.5q-1 0 -2 0.5t-2 0.5h-15z" />
    <glyph glyph-name="bar" unicode="|" horiz-adv-x="245" 
d="M85 700h75v-880h-75v880z" />
    <glyph glyph-name="braceright" unicode="}" horiz-adv-x="337" 
d="M30 733h15q52 0 89.5 -17t61.5 -47t35.5 -70t11.5 -86v-4q0 -19 -2.5 -41t-5.5 -42q0 -2 -0.5 -4t-0.5 -4l-3 -19q-2 -11 -3 -22t-1 -19q0 -7 2 -15h-2q5 -8 16 -9t21 -1h19v-25h-15q-1 0 -1.5 -0.5t-1.5 -0.5q-8 -2 -18 -5.5t-16 -12.5h2q-2 -10 -2 -18q0 -10 1.5 -23.5
t3.5 -28.5q0 -2 0.5 -3.5t0.5 -3.5q0 -3 0.5 -6t0.5 -6q2 -18 4 -38.5t2 -37.5v-4q0 -46 -11 -86t-35 -70t-61.5 -47t-89.5 -17h-15l-5 22h11q31 8 49.5 25t29 42.5t14 58.5t3.5 72v6v21.5t-1 21.5q0 5 -0.5 10.5t-0.5 10.5v21q0 33 8.5 61t35.5 45q-27 17 -35.5 45t-8.5 61
v19q0 5 0.5 10t0.5 11q1 11 1 21.5v21.5v7q0 39 -3.5 72t-14 58.5t-29 42.5t-49.5 25h-11z" />
    <glyph glyph-name="asciitilde" unicode="~" horiz-adv-x="493" 
d="M277 308q2 -2 3 -2l-1 2h-2zM439 354q5 -16 6.5 -26.5t1.5 -17.5q0 -24 -10 -42t-27 -30t-38.5 -17.5t-44.5 -5.5q-31 0 -58 14.5t-50 30.5q-17 12 -35.5 23.5t-27.5 12.5q-15 -2 -15 -40l4 -28v-9h-93q0 1 -0.5 2t-0.5 2q-2 12 -3 21t-1 15q0 25 9 43.5t24.5 31t36 19
t42.5 6.5q32 1 61.5 -15t56.5 -36h-1q16 -11 30 -19.5t21 -10.5q9 0 17 9.5t8 28.5q0 9 -8 38h95z" />
    <glyph glyph-name="exclamdown" unicode="&#xa1;" horiz-adv-x="230" 
d="M96 529h40l20 -230l12 -299h-105l12 299zM115 706q19 0 32 -13t13 -32t-13 -32t-32 -13t-32 13t-13 32t13 32t32 13z" />
    <glyph glyph-name="cent" unicode="&#xa2;" horiz-adv-x="602" 
d="M569 192q-33 -57 -95.5 -87t-147.5 -32h15l-7 -83h-16l-45 5h-14l7 81h13q-57 7 -103 29t-78.5 57t-50 81.5t-17.5 103.5q0 63 20.5 113.5t58.5 85.5t93 54t123 20h-15l7 82h15l46 -1h15l-7 -83h-13q93 -12 157 -52h7l18 -132h-17q-8 30 -25 53t-39 39.5t-46 26.5t-45 15
q-9 -112 -19 -224t-19 -224q37 3 74.5 15.5t68.5 36.5t52 59t24 83h14zM306 573q-78 -7 -117.5 -65t-39.5 -161q0 -89 31.5 -145.5t90.5 -74.5z" />
    <glyph glyph-name="sterling" unicode="&#xa3;" 
d="M561 168l-49 -144h-8q-42 -19 -84.5 -27.5t-81.5 -8.5q-11 0 -20.5 0.5t-17.5 1.5q-29 4 -50.5 9.5t-39.5 10.5l-13 3q-17 5 -32.5 8t-29.5 3q-10 0 -25 -3q-2 0 -10.5 -6.5t-18.5 -16.5h-47v22h5q34 29 62.5 105t31.5 194h-110l18 52h91q-1 8 -1 17v17q0 64 11.5 118
t37.5 94.5t68 65t102 29.5h-1q5 1 9.5 1h10.5q51 0 87 -18.5t57 -44.5h2l-30 -99h-12q3 22 3 33q0 27 -12 43.5t-29 25.5t-35.5 12t-32.5 3q-3 0 -7 -1q-35 -4 -57 -21.5t-34.5 -48.5t-17 -74t-4.5 -98v-25.5t1 -27.5h182l-17 -52h-164q-2 -50 -10 -88t-20 -67.5t-27 -51.5
t-30 -38h13q8 0 21.5 -0.5t28 -1t28 -1.5t22.5 -2q2 0 4.5 -0.5t4.5 -0.5l28 -4l30 -3q7 -1 13 -1h12q23 0 47 5t47 18t44 34t37 53z" />
    <glyph glyph-name="currency" unicode="&#xa4;" horiz-adv-x="541" 
d="M469 131h-22l-50 50q-28 -20 -62.5 -30t-69.5 -10t-69.5 10t-62.5 29l-48 -49h-22l-32 33l57 57h-1q-26 32 -38 66t-12 68t12.5 69t38.5 66h1l-58 58l32 32h22l49 -49q28 20 61.5 28.5t69.5 8.5q35 0 69 -10t62 -28l50 50h21l33 -32h1l-59 -59h1q25 -32 37 -65.5
t12 -67.5t-11.5 -67.5t-36.5 -64.5h-1l57 -58zM157 236q24 -24 51.5 -36t54.5 -12t55 12t52 36q45 46 45 118q0 71 -45 118q-24 24 -52 36t-55 12t-54.5 -12t-51.5 -36q-23 -23 -34 -53.5t-11 -64.5t11 -64.5t34 -53.5z" />
    <glyph glyph-name="yen" unicode="&#xa5;" horiz-adv-x="661" 
d="M664 699h15v-26h-36q-23 0 -44 -16t-35 -37h1l-50 -80q-17 -29 -36.5 -60t-36.5 -60h119v-45h-147l-40 -66h2v-6h185v-45h-185v-180q1 -22 12 -37.5t27 -15.5h36v-26h-260v26h36q15 0 26 15.5t13 37.5v180h-186v45h186v7h2l-39 65h-149v45h122l-119 200h1
q-14 21 -35 37.5t-44 16.5h-37v26h287v-26h-36q-7 0 -11 -10t-4 -23q0 -12 2 -16l126 -237l137 239q1 2 1 14q0 13 -5 23t-11 10h-36v26h15z" />
    <glyph glyph-name="brokenbar" unicode="&#xa6;" horiz-adv-x="245" 
d="M85 700h75v-350h-75v350zM85 170h75v-350h-75v350z" />
    <glyph glyph-name="section" unicode="&#xa7;" horiz-adv-x="511" 
d="M276 709q18 3 36 3q61 0 91.5 -23t30.5 -47q0 -13 -20 -30q-9 -7 -18.5 -7.5t-18.5 3.5t-19 11t-20 15q-17 14 -37 27.5t-37 13.5q-16 0 -43 -19q-14 -11 -22.5 -25t-8.5 -35q0 -37 37 -90.5t120 -138.5q63 -63 89 -125.5t26 -119.5q0 -52 -18.5 -98.5t-48.5 -83
t-69.5 -60.5t-81.5 -31q-20 -3 -38 -3q-30 0 -53 6.5t-38 17t-23 23t-8 24.5q0 6 6 14t15 15q17 11 35.5 3t38.5 -24q18 -14 38 -27t39 -13q17 0 43 17h-1q29 20 29 61q0 39 -41 99t-117 135q-61 61 -89.5 122.5t-28.5 114.5q0 52 20 98.5t51.5 83.5t71.5 61t81 31h-12z
M359 -15q18 27 27 62q5 -18 5 -30q0 -7 -1 -14.5t-4 -17.5h-27zM153 583q-8 -14 -14 -29t-11 -32q-5 16 -5.5 31t1.5 31h26zM279 318q-35 33 -61 61.5t-44.5 53t-29.5 46.5t-16 43q-8 -29 -8 -60q0 -45 28.5 -101.5t85.5 -112.5q128 -120 152 -201q6 24 6 51q0 47 -28 105
t-85 115z" />
    <glyph glyph-name="dieresis" unicode="&#xa8;" horiz-adv-x="600" 
d="M184 698q-24 0 -39 11.5t-15 28.5t15.5 28.5t39.5 11.5t39.5 -11t15.5 -28t-13.5 -27.5t-36.5 -11.5h7zM370 696q-24 0 -39 11.5t-15 28.5t15.5 28.5t39.5 11.5t39.5 -11t15.5 -28t-13.5 -27.5t-36.5 -11.5h7z" />
    <glyph glyph-name="copyright" unicode="&#xa9;" horiz-adv-x="848" 
d="M423 714q78 0 147 -28.5t120.5 -78t81.5 -116t30 -141.5t-30 -141.5t-81.5 -116t-120.5 -78t-147 -28.5t-147 28.5t-120.5 78t-81.5 116t-30 141.5t30 141.5t81.5 116t120.5 78t147 28.5zM423 661q-62 0 -116 -24.5t-94 -66.5t-63.5 -99t-23.5 -122t23.5 -121.5t63.5 -99
t94 -67t116 -24.5t116 24.5t94.5 67t64 99t23.5 121.5t-23.5 122t-64 99t-94.5 66.5t-116 24.5zM631 319h9l-8 -99q-28 -48 -82.5 -73.5t-121.5 -25.5q-53 0 -98 17.5t-78 48t-52 72t-19 89.5q0 49 19 90.5t52 72t78 47.5t98 17q47 0 92.5 -12t77.5 -33h7l16 -111h-52
q-13 54 -50 84.5t-91 30.5q-29 0 -54 -14t-43 -38.5t-28.5 -58t-10.5 -73.5q0 -39 10.5 -72t29 -57.5t43.5 -39t54 -15.5q32 0 60 9t49 28.5t34.5 50t16.5 74.5h21z" />
    <glyph glyph-name="guillemotleft" unicode="&#xab;" horiz-adv-x="453" 
d="M204 490h18l8 -5h6l-118 -193l119 -197h-8l-9 -5h-16l-175 202zM374 490h18l8 -5h6l-118 -193l119 -197h-8l-9 -5h-16l-175 202z" />
    <glyph glyph-name="logicalnot" unicode="&#xac;" horiz-adv-x="601" 
d="M560 194h-92v141h-425v62h517v-203z" />
    <glyph glyph-name="softhyphen" unicode="&#xad;" horiz-adv-x="380" 
d="M25 332h330l6 -33l-6 -31h-330l-6 32z" />
    <glyph glyph-name="registered" unicode="&#xae;" horiz-adv-x="245" 
d="M123 701q23 0 43.5 -9t36 -24.5t24.5 -36t9 -43.5t-9 -43.5t-24.5 -36t-36 -24.5t-43.5 -9t-43.5 9t-36 24.5t-24.5 36t-9 43.5t9 43.5t24.5 36t36 24.5t43.5 9zM123 495q19 0 36 7.5t29.5 20t20 29.5t7.5 36t-7.5 36t-20 29.5t-29.5 20t-36 7.5t-36 -7.5t-29.5 -20
t-20 -29.5t-7.5 -36t7.5 -36t20 -29.5t29.5 -20t36 -7.5zM124 652q18 0 30 -8.5t12 -23.5q0 -13 -8 -22t-21 -11q7 -2 15 -13.5t14 -19.5q2 -3 6.5 -9.5t14.5 -9.5v-2h-13q-13 0 -21 4t-13.5 10.5t-10 14.5t-8.5 15q-3 5 -5.5 9.5t-5.5 4.5v2h11q1 0 7.5 2t10.5 15q2 6 2 11
q0 22 -24 22h-12v-98q0 -11 11 -11h3v-2h-50v2h3q10 0 10 11v95q0 10 -11 10h-3v2h37h19z" />
    <glyph glyph-name="macron" unicode="&#xaf;" horiz-adv-x="600" 
d="M155 738h280v-35h-280v35z" />
    <glyph glyph-name="degree" unicode="&#xb0;" horiz-adv-x="257" 
d="M129 664q41 0 69.5 -28.5t28.5 -69.5t-28.5 -69.5t-69.5 -28.5t-69.5 28.5t-28.5 69.5t28.5 69.5t69.5 28.5zM129 625q-25 0 -42 -17t-17 -42t17 -42t42 -17t42 17t17 42t-17 42t-42 17z" />
    <glyph glyph-name="plusminus" unicode="&#xb1;" horiz-adv-x="481" 
d="M459 407v-60h-172v-172h-91v172h-172v60h172v172h91v-172h172zM23 120h436v-60h-436v60z" />
    <glyph glyph-name="acute" unicode="&#xb4;" horiz-adv-x="439" 
d="M191 752q32 35 63.5 68t63.5 64h21q14 -14 25.5 -28t18.5 -26h-6q-42 -23 -81 -43.5t-81 -40.5h-18z" />
    <glyph glyph-name="paragraph" unicode="&#xb6;" horiz-adv-x="520" 
d="M522 736h3q-13 -27 -39 -46t-79 -20v-523q0 -28 -2 -49.5t-8 -40t-16 -35.5t-25 -35h-20l-9 8h-5q9 15 14.5 29.5t7.5 30.5t2.5 33.5t0.5 39.5v542h-53v-670q0 -28 -2 -56t-11 -54t-27.5 -49t-52.5 -40h-19l-7 9h1q17 18 28 34t17.5 33.5t9 39t2.5 50.5q0 8 -0.5 16
t-0.5 17v333h6q-44 1 -81 14t-64 37t-42.5 57.5t-15.5 75.5t16.5 76t45.5 58t67 37t82 13h167q6 0 14 0.5t17.5 4.5t21 12.5t25.5 24.5h22z" />
    <glyph glyph-name="periodcentered" unicode="&#xb7;" horiz-adv-x="170" 
d="M85 305q-19 0 -32 13t-13 32t13 32t32 13t32 -13t13 -32t-13 -32t-32 -13z" />
    <glyph glyph-name="cedilla" unicode="&#xb8;" horiz-adv-x="600" 
d="M284 1h51l-38 -45q5 1 10.5 1.5t11.5 0.5q15 0 29.5 -3t26 -10.5t19 -19.5t8.5 -31t-8 -33.5t-25 -25t-36.5 -16t-43.5 -5.5q-13 0 -24.5 2t-22.5 5h-11l1 10h15q13 0 26.5 3t25 10.5t18 20t5.5 30.5q0 21 -10 31t-24 10q-11 0 -29 -8h-20l-5 10h2z" />
    <glyph glyph-name="guillemotright" unicode="&#xbb;" horiz-adv-x="453" 
d="M80 90h-16l-9 5h-8l119 197l-118 193h6l8 5h18l175 -198zM250 90h-16l-9 5h-8l119 197l-118 193h6l8 5h18l175 -198z" />
    <glyph glyph-name="questiondown" unicode="&#xbf;" horiz-adv-x="433" 
d="M407 77q-24 -44 -66 -68t-96 -24q-98 0 -154 44.5t-56 125.5q0 28 9.5 52.5t24.5 46t33.5 41t37.5 37.5q21 20 42 46t31 55q2 10 4.5 19.5t2.5 23.5q0 29 -15 48h5l6 5h17q29 -27 39.5 -50.5t10.5 -45.5q0 -30 -21 -59t-47 -60q-14 -16 -27 -32.5t-24 -36t-17.5 -41.5
t-6.5 -49q0 -66 27.5 -102.5t78.5 -36.5q53 0 83 41t29 113h40zM233 704q19 0 32 -13t13 -32t-13 -32t-32 -13t-32 13t-13 32t13 32t32 13z" />
    <glyph glyph-name="Agrave" unicode="&#xc0;" horiz-adv-x="712" 
d="M369 765h-17q-43 20 -84 41t-79 43h-6q14 26 45 54h20q32 -31 63.5 -64t63.5 -68zM636 85q14 -30 31.5 -43.5t32.5 -13.5h32v-26h-267v26h32q7 0 12.5 8t5.5 24q0 10 -2 18q-15 39 -31 80.5t-30 80.5h-223q-16 -39 -32.5 -80.5t-31.5 -80.5q-2 -10 -2 -18
q0 -16 5.5 -24.5t13.5 -8.5h32v-26h-243v26h32q15 0 32 13.5t31 42.5l222 525q10 22 18 42q6 16 11.5 33t5.5 31h51zM435 285q-13 34 -24 63.5t-22.5 58.5t-22.5 59t-24 65l-96 -246h189z" />
    <glyph glyph-name="Aacute" unicode="&#xc1;" horiz-adv-x="712" 
d="M340 770q32 35 63.5 68t63.5 64h21q14 -14 25.5 -28t18.5 -26h-6q-42 -23 -81 -43.5t-81 -40.5h-18zM636 85q14 -30 31.5 -43.5t32.5 -13.5h32v-26h-267v26h32q7 0 12.5 8t5.5 24q0 10 -2 18q-15 39 -31 80.5t-30 80.5h-223q-16 -39 -32.5 -80.5t-31.5 -80.5
q-2 -10 -2 -18q0 -16 5.5 -24.5t13.5 -8.5h32v-26h-243v26h32q15 0 32 13.5t31 42.5l222 525q10 22 18 42q6 16 11.5 33t5.5 31h51zM435 285q-13 34 -24 63.5t-22.5 58.5t-22.5 59t-24 65l-96 -246h189z" />
    <glyph glyph-name="Acircumflex" unicode="&#xc2;" horiz-adv-x="712" 
d="M340 890h32l114 -119l-6 -8h-19l-106 61l-97 -61h-19l-6 8zM636 85q14 -30 31.5 -43.5t32.5 -13.5h32v-26h-267v26h32q7 0 12.5 8t5.5 24q0 10 -2 18q-15 39 -31 80.5t-30 80.5h-223q-16 -39 -32.5 -80.5t-31.5 -80.5q-2 -10 -2 -18q0 -16 5.5 -24.5t13.5 -8.5h32v-26
h-243v26h32q15 0 32 13.5t31 42.5l222 525q10 22 18 42q6 16 11.5 33t5.5 31h51zM435 285q-13 34 -24 63.5t-22.5 58.5t-22.5 59t-24 65l-96 -246h189z" />
    <glyph glyph-name="Atilde" unicode="&#xc3;" horiz-adv-x="712" 
d="M507 843q-5 -37 -26 -58t-55 -21q-21 0 -41 8.5t-36 16.5l-26 13t-17 6q-23 0 -40 -41h-39q5 40 26 62.5t52 22.5q24 0 41 -8t33 -16q14 -8 26.5 -13.5t19.5 -5.5q28 0 41 34h41zM636 85q14 -30 31.5 -43.5t32.5 -13.5h32v-26h-267v26h32q7 0 12.5 8t5.5 24q0 10 -2 18
q-15 39 -31 80.5t-30 80.5h-223q-16 -39 -32.5 -80.5t-31.5 -80.5q-2 -10 -2 -18q0 -16 5.5 -24.5t13.5 -8.5h32v-26h-243v26h32q15 0 32 13.5t31 42.5l222 525q10 22 18 42q6 16 11.5 33t5.5 31h51zM435 285q-13 34 -24 63.5t-22.5 58.5t-22.5 59t-24 65l-96 -246h189z" />
    <glyph glyph-name="Adieresis" unicode="&#xc4;" horiz-adv-x="712" 
d="M636 85q14 -30 31.5 -43.5t32.5 -13.5h32v-26h-267v26h32q7 0 12.5 8t5.5 24q0 10 -2 18q-15 39 -31 80.5t-30 80.5h-223q-16 -39 -32.5 -80.5t-31.5 -80.5q-2 -10 -2 -18q0 -16 5.5 -24.5t13.5 -8.5h32v-26h-243v26h32q15 0 32 13.5t31 42.5l222 525q10 22 18 42
q6 16 11.5 33t5.5 31h51zM435 285q-13 34 -24 63.5t-22.5 58.5t-22.5 59t-24 65l-96 -246h189zM260 762q-17 0 -28 11.5t-11 28.5t11.5 28.5t28.5 11.5t28.5 -11t11.5 -28t-11 -28t-28 -11zM446 760q-17 0 -28 11.5t-11 28.5t11.5 28.5t28.5 11.5t28.5 -11t11.5 -28t-11 -28
t-28 -11z" />
    <glyph glyph-name="Aring" unicode="&#xc5;" horiz-adv-x="712" 
d="M351 834q40 0 66.5 -20t26.5 -55q0 -33 -27 -54q-14 -12 -33 -17l252 -603q14 -30 31.5 -43.5t32.5 -13.5h32v-26h-267v26h32q7 0 12.5 8t5.5 24q0 10 -2 18q-15 39 -31 80.5t-30 80.5h-223q-16 -39 -32.5 -80.5t-31.5 -80.5q-2 -10 -2 -18q0 -16 5.5 -24.5t13.5 -8.5h32
v-26h-243v26h32q15 0 32 13.5t31 42.5l222 525l15 35q4 10 8 21.5t7 23.5q-19 5 -34 17q-26 21 -26 54t26.5 54t66.5 21zM435 285q-13 34 -24 63.5t-22.5 58.5t-22.5 59t-24 65l-96 -246h189zM351 817q-21 0 -35 -15t-14 -43t14 -43q10 -11 23 -14h23q14 3 24 14
q14 15 14 43t-14 43t-35 15z" />
    <glyph glyph-name="AE" unicode="&#xc6;" horiz-adv-x="902" 
d="M818 -3h-429v26h33q11 0 18 11.5t8 28.5v247h-119q-35 -60 -69.5 -118t-69.5 -118q-9 -14 -9 -28q0 -9 2 -16t7 -6h33v-26h-241v26h30q16 0 36 17t34 40l366 572q-1 0 -1 5q0 14 -1 14h-27v26h261q15 0 32 2t33.5 5t31 7t23.5 8h21v-131h-28v23q0 18 -7.5 28.5
t-18.5 11.5h-211v-295h170q10 1 17.5 12t7.5 29v23h28v-171h-28v23q0 16 -7 27t-16 13h-171v-267h164q47 2 79.5 31.5t51.5 74.5h27zM446 355v156l-92 -156h92z" />
    <glyph glyph-name="Ccedilla" unicode="&#xc7;" horiz-adv-x="760" 
d="M708 141q-20 -33 -47.5 -60.5t-62.5 -48t-79 -33t-96 -13.5h14l-29 -33q5 1 10.5 1.5t11.5 0.5q15 0 29.5 -3t26 -10.5t19 -19.5t8.5 -31t-8 -33.5t-25 -25t-36.5 -16t-43.5 -5.5q-13 0 -24.5 2t-22.5 5h-11l1 10h15q13 0 26.5 3t25 10.5t18 20t5.5 30.5q0 21 -10 31
t-24 10q-11 0 -29 -8h-20l-5 10h2l39 52q-77 4 -141 31.5t-110 75t-71.5 112.5t-25.5 145q0 81 27 148t76.5 115t119 74t155.5 26q79 0 140.5 -20t107.5 -50h7l21 -151h-18q-11 43 -37.5 76t-62 55t-76.5 33t-81 11q-60 0 -107.5 -22.5t-81 -64t-51.5 -100t-18 -129.5
q0 -70 19.5 -127t54 -98t81 -65.5t99.5 -29.5q46 1 94 15.5t89 46t70 83t38 125.5h17z" />
    <glyph glyph-name="Egrave" unicode="&#xc8;" 
d="M310 765h-17q-43 20 -84 41t-79 43h-6q14 26 45 54h20q32 -31 63.5 -64t63.5 -68zM481 -2h-449v26h36q17 0 27.5 15.5t12.5 38.5v546q-2 20 -13.5 34t-25.5 14h-36v26h317q14 0 31 2t33.5 5t31 7t22.5 8h14v-144h-17v26q0 20 -9 33.5t-23 16.5h-214v-285h174
q11 1 18.5 12t7.5 29v22h22v-170h-22v23q0 17 -7 28t-17 12h-175v-277h150q32 0 56 9.5t42 26.5t31.5 40.5t24.5 51.5h21z" />
    <glyph glyph-name="Eacute" unicode="&#xc9;" 
d="M281 770q32 35 63.5 68t63.5 64h21q14 -14 25.5 -28t18.5 -26h-6q-42 -23 -81 -43.5t-81 -40.5h-18zM481 -2h-449v26h36q17 0 27.5 15.5t12.5 38.5v546q-2 20 -13.5 34t-25.5 14h-36v26h317q14 0 31 2t33.5 5t31 7t22.5 8h14v-144h-17v26q0 20 -9 33.5t-23 16.5h-214
v-285h174q11 1 18.5 12t7.5 29v22h22v-170h-22v23q0 17 -7 28t-17 12h-175v-277h150q32 0 56 9.5t42 26.5t31.5 40.5t24.5 51.5h21z" />
    <glyph glyph-name="Ecircumflex" unicode="&#xca;" 
d="M282 890h32l114 -119l-6 -8h-19l-106 61l-97 -61h-19l-6 8zM481 -2h-449v26h36q17 0 27.5 15.5t12.5 38.5v546q-2 20 -13.5 34t-25.5 14h-36v26h317q14 0 31 2t33.5 5t31 7t22.5 8h14v-144h-17v26q0 20 -9 33.5t-23 16.5h-214v-285h174q11 1 18.5 12t7.5 29v22h22v-170
h-22v23q0 17 -7 28t-17 12h-175v-277h150q32 0 56 9.5t42 26.5t31.5 40.5t24.5 51.5h21z" />
    <glyph glyph-name="Edieresis" unicode="&#xcb;" 
d="M202 762q-17 0 -28 11.5t-11 28.5t11.5 28.5t28.5 11.5t28.5 -11t11.5 -28t-11 -28t-28 -11zM388 760q-17 0 -28 11.5t-11 28.5t11.5 28.5t28.5 11.5t28.5 -11t11.5 -28t-11 -28t-28 -11zM481 -2h-449v26h36q17 0 27.5 15.5t12.5 38.5v546q-2 20 -13.5 34t-25.5 14h-36
v26h317q14 0 31 2t33.5 5t31 7t22.5 8h14v-144h-17v26q0 20 -9 33.5t-23 16.5h-214v-285h174q11 1 18.5 12t7.5 29v22h22v-170h-22v23q0 17 -7 28t-17 12h-175v-277h150q32 0 56 9.5t42 26.5t31.5 40.5t24.5 51.5h21z" />
    <glyph glyph-name="Igrave" unicode="&#xcc;" horiz-adv-x="338" 
d="M181 765h-17q-43 20 -84 41t-79 43h-6q14 26 45 54h20q32 -31 63.5 -64t63.5 -68zM300 0h-261v26h36q17 0 27.5 15.5t12.5 37.5v542q-2 22 -12.5 38t-27.5 16h-36v26h261v-26h-36q-17 0 -27.5 -16t-12.5 -38v-542q2 -22 12.5 -37.5t27.5 -15.5h36v-26z" />
    <glyph glyph-name="Iacute" unicode="&#xcd;" horiz-adv-x="338" 
d="M152 770q32 35 63.5 68t63.5 64h21q14 -14 25.5 -28t18.5 -26h-6q-42 -23 -81 -43.5t-81 -40.5h-18zM300 0h-261v26h36q17 0 27.5 15.5t12.5 37.5v542q-2 22 -12.5 38t-27.5 16h-36v26h261v-26h-36q-17 0 -27.5 -16t-12.5 -38v-542q2 -22 12.5 -37.5t27.5 -15.5h36v-26z
" />
    <glyph glyph-name="Icircumflex" unicode="&#xce;" horiz-adv-x="338" 
d="M153 890h32l114 -119l-6 -8h-19l-106 61l-97 -61h-19l-6 8zM300 0h-261v26h36q17 0 27.5 15.5t12.5 37.5v542q-2 22 -12.5 38t-27.5 16h-36v26h261v-26h-36q-17 0 -27.5 -16t-12.5 -38v-542q2 -22 12.5 -37.5t27.5 -15.5h36v-26z" />
    <glyph glyph-name="Idieresis" unicode="&#xcf;" horiz-adv-x="338" 
d="M300 0h-261v26h36q17 0 27.5 15.5t12.5 37.5v542q-2 22 -12.5 38t-27.5 16h-36v26h261v-26h-36q-17 0 -27.5 -16t-12.5 -38v-542q2 -22 12.5 -37.5t27.5 -15.5h36v-26zM73 762q-17 0 -28 11.5t-11 28.5t11.5 28.5t28.5 11.5t28.5 -11t11.5 -28t-11 -28t-28 -11zM259 760
q-17 0 -28 11.5t-11 28.5t11.5 28.5t28.5 11.5t28.5 -11t11.5 -28t-11 -28t-28 -11z" />
    <glyph glyph-name="Eth" unicode="&#xd0;" horiz-adv-x="807" 
d="M397 700q83 0 151.5 -25t117 -71t75 -110.5t26.5 -143.5t-26.5 -143.5t-75 -110.5t-117 -71t-151.5 -25h-354v26h36q16 0 27 15.5t12 37.5v248h-80v46h80v253q0 20 -12 33.5t-27 13.5h-36v27h354zM228 45h169q57 0 104 22t80.5 62t52 96t18.5 125q0 68 -18.5 124t-52 96
t-80.5 62t-104 22h-169v-281h159v-46h-159v-282z" />
    <glyph glyph-name="Ntilde" unicode="&#xd1;" horiz-adv-x="841" 
d="M577 843q-5 -37 -26 -58t-55 -21q-21 0 -41 8.5t-36 16.5l-26 13t-17 6q-23 0 -40 -41h-39q5 40 26 62.5t52 22.5q24 0 41 -8t33 -16q14 -8 26.5 -13.5t19.5 -5.5q28 0 41 34h41zM765 699h15v-26h-41q-14 0 -24.5 -15t-11.5 -35v-506q0 -23 1.5 -46.5t3.5 -42.5
q1 -11 2 -21.5t3 -21.5h-48l-495 528v-437q2 -21 12.5 -36t24.5 -15h41v-26h-248v26h41q15 0 25.5 15t11.5 37v508q0 25 -1.5 48.5t-3.5 41.5l-5 40h49l495 -528v436q-2 21 -12.5 36t-25.5 15h-41v26h15z" />
    <glyph glyph-name="Ograve" unicode="&#xd2;" horiz-adv-x="838" 
d="M431 765h-17q-43 20 -84 41t-79 43h-6q14 26 45 54h20q32 -31 63.5 -64t63.5 -68zM421 714q83 0 152 -26t118.5 -74t77 -115t27.5 -149t-27.5 -149t-77 -115t-118.5 -74t-152 -26t-152 26t-118.5 74t-77 115t-27.5 149t27.5 149t77 115t118.5 74t152 26zM421 32
q57 0 104 23t80.5 64.5t51.5 100t18 130.5t-18 130.5t-51.5 100t-80.5 64.5t-104 23t-103.5 -23t-80 -64.5t-51.5 -100t-18 -130.5t18 -130.5t51.5 -100t80 -64.5t103.5 -23z" />
    <glyph glyph-name="Oacute" unicode="&#xd3;" horiz-adv-x="838" 
d="M412 770q32 35 63.5 68t63.5 64h21q14 -14 25.5 -28t18.5 -26h-6q-42 -23 -81 -43.5t-81 -40.5h-18zM421 714q83 0 152 -26t118.5 -74t77 -115t27.5 -149t-27.5 -149t-77 -115t-118.5 -74t-152 -26t-152 26t-118.5 74t-77 115t-27.5 149t27.5 149t77 115t118.5 74t152 26
zM421 32q57 0 104 23t80.5 64.5t51.5 100t18 130.5t-18 130.5t-51.5 100t-80.5 64.5t-104 23t-103.5 -23t-80 -64.5t-51.5 -100t-18 -130.5t18 -130.5t51.5 -100t80 -64.5t103.5 -23z" />
    <glyph glyph-name="Ocircumflex" unicode="&#xd4;" horiz-adv-x="838" 
d="M413 890h32l114 -119l-6 -8h-19l-106 61l-97 -61h-19l-6 8zM421 714q83 0 152 -26t118.5 -74t77 -115t27.5 -149t-27.5 -149t-77 -115t-118.5 -74t-152 -26t-152 26t-118.5 74t-77 115t-27.5 149t27.5 149t77 115t118.5 74t152 26zM421 32q57 0 104 23t80.5 64.5
t51.5 100t18 130.5t-18 130.5t-51.5 100t-80.5 64.5t-104 23t-103.5 -23t-80 -64.5t-51.5 -100t-18 -130.5t18 -130.5t51.5 -100t80 -64.5t103.5 -23z" />
    <glyph glyph-name="Otilde" unicode="&#xd5;" horiz-adv-x="838" 
d="M580 843q-5 -37 -26 -58t-55 -21q-21 0 -41 8.5t-36 16.5l-26 13t-17 6q-23 0 -40 -41h-39q5 40 26 62.5t52 22.5q24 0 41 -8t33 -16q14 -8 26.5 -13.5t19.5 -5.5q28 0 41 34h41zM421 714q83 0 152 -26t118.5 -74t77 -115t27.5 -149t-27.5 -149t-77 -115t-118.5 -74
t-152 -26t-152 26t-118.5 74t-77 115t-27.5 149t27.5 149t77 115t118.5 74t152 26zM421 32q57 0 104 23t80.5 64.5t51.5 100t18 130.5t-18 130.5t-51.5 100t-80.5 64.5t-104 23t-103.5 -23t-80 -64.5t-51.5 -100t-18 -130.5t18 -130.5t51.5 -100t80 -64.5t103.5 -23z" />
    <glyph glyph-name="Odieresis" unicode="&#xd6;" horiz-adv-x="838" 
d="M421 714q83 0 152 -26t118.5 -74t77 -115t27.5 -149t-27.5 -149t-77 -115t-118.5 -74t-152 -26t-152 26t-118.5 74t-77 115t-27.5 149t27.5 149t77 115t118.5 74t152 26zM421 32q57 0 104 23t80.5 64.5t51.5 100t18 130.5t-18 130.5t-51.5 100t-80.5 64.5t-104 23
t-103.5 -23t-80 -64.5t-51.5 -100t-18 -130.5t18 -130.5t51.5 -100t80 -64.5t103.5 -23zM333 762q-17 0 -28 11.5t-11 28.5t11.5 28.5t28.5 11.5t28.5 -11t11.5 -28t-11 -28t-28 -11zM519 760q-17 0 -28 11.5t-11 28.5t11.5 28.5t28.5 11.5t28.5 -11t11.5 -28t-11 -28
t-28 -11z" />
    <glyph glyph-name="multiply" unicode="&#xd7;" horiz-adv-x="415" 
d="M262 313q7 -8 24 -24.5t35 -35t34.5 -35t24.5 -23.5l-43 -43h-22l-107 107l-108 -107h-22l-43 43l118 118l-118 119l43 43h22l108 -107l107 107h22l43 -43z" />
    <glyph glyph-name="Oslash" unicode="&#xd8;" horiz-adv-x="828" 
d="M681 622h-1q51 -51 78 -118.5t27 -150.5q0 -82 -26.5 -149t-75 -115t-117 -74t-151.5 -26q-65 0 -118.5 15t-96.5 43l-59 -69l-58 32h-1l66 79q-47 50 -75 119t-28 146q0 82 26.5 149t75.5 115t117.5 74t151.5 26q63 0 116 -15t95 -41l55 68l57 -34h2zM579 607h2
q-68 66 -164 66q-58 0 -105 -23t-80 -65t-51 -100.5t-18 -130.5q0 -59 11.5 -108t33.5 -87zM251 105h-2q35 -32 77 -50.5t91 -18.5q57 0 103.5 23t80 65t51.5 100.5t18 129.5q0 64 -10.5 112.5t-35.5 86.5z" />
    <glyph glyph-name="Ugrave" unicode="&#xd9;" horiz-adv-x="785" 
d="M414 765h-17q-43 20 -84 41t-79 43h-6q14 26 45 54h20q32 -31 63.5 -64t63.5 -68zM736 701h15v-26h-39q-11 0 -18.5 -11t-9.5 -28v-386q0 -59 -20.5 -108t-58.5 -83.5t-91 -53.5t-117 -19q-66 0 -120 19t-93 53.5t-60 82.5t-21 107v386q-1 17 -9 29t-19 12h-39v26h244
v-26h-38q-11 0 -19 -11t-9 -28v-373q0 -52 13.5 -94t37.5 -72t58 -46.5t75 -16.5q44 0 80 15.5t61.5 44t39.5 68t14 88.5v385q-2 17 -9.5 28t-18.5 11h-39v26h15z" />
    <glyph glyph-name="Uacute" unicode="&#xda;" horiz-adv-x="785" 
d="M385 770q32 35 63.5 68t63.5 64h21q14 -14 25.5 -28t18.5 -26h-6q-42 -23 -81 -43.5t-81 -40.5h-18zM736 701h15v-26h-39q-11 0 -18.5 -11t-9.5 -28v-386q0 -59 -20.5 -108t-58.5 -83.5t-91 -53.5t-117 -19q-66 0 -120 19t-93 53.5t-60 82.5t-21 107v386q-1 17 -9 29
t-19 12h-39v26h244v-26h-38q-11 0 -19 -11t-9 -28v-373q0 -52 13.5 -94t37.5 -72t58 -46.5t75 -16.5q44 0 80 15.5t61.5 44t39.5 68t14 88.5v385q-2 17 -9.5 28t-18.5 11h-39v26h15z" />
    <glyph glyph-name="Ucircumflex" unicode="&#xdb;" horiz-adv-x="785" 
d="M385 890h32l114 -119l-6 -8h-19l-106 61l-97 -61h-19l-6 8zM736 701h15v-26h-39q-11 0 -18.5 -11t-9.5 -28v-386q0 -59 -20.5 -108t-58.5 -83.5t-91 -53.5t-117 -19q-66 0 -120 19t-93 53.5t-60 82.5t-21 107v386q-1 17 -9 29t-19 12h-39v26h244v-26h-38q-11 0 -19 -11
t-9 -28v-373q0 -52 13.5 -94t37.5 -72t58 -46.5t75 -16.5q44 0 80 15.5t61.5 44t39.5 68t14 88.5v385q-2 17 -9.5 28t-18.5 11h-39v26h15z" />
    <glyph glyph-name="Udieresis" unicode="&#xdc;" horiz-adv-x="785" 
d="M736 701h15v-26h-39q-11 0 -18.5 -11t-9.5 -28v-386q0 -59 -20.5 -108t-58.5 -83.5t-91 -53.5t-117 -19q-66 0 -120 19t-93 53.5t-60 82.5t-21 107v386q-1 17 -9 29t-19 12h-39v26h244v-26h-38q-11 0 -19 -11t-9 -28v-373q0 -52 13.5 -94t37.5 -72t58 -46.5t75 -16.5
q44 0 80 15.5t61.5 44t39.5 68t14 88.5v385q-2 17 -9.5 28t-18.5 11h-39v26h15zM305 762q-17 0 -28 11.5t-11 28.5t11.5 28.5t28.5 11.5t28.5 -11t11.5 -28t-11 -28t-28 -11zM491 760q-17 0 -28 11.5t-11 28.5t11.5 28.5t28.5 11.5t28.5 -11t11.5 -28t-11 -28t-28 -11z" />
    <glyph glyph-name="Yacute" unicode="&#xdd;" horiz-adv-x="661" 
d="M323 770q32 35 63.5 68t63.5 64h21q14 -14 25.5 -28t18.5 -26h-6q-42 -23 -81 -43.5t-81 -40.5h-18zM669 699h15v-26h-36q-23 0 -44 -16t-35 -37h1l-192 -311h2v-231q1 -22 12 -37.5t27 -15.5h36v-26h-260v26h36q15 0 26 15.5t13 37.5v233h2l-184 309h1q-14 21 -35 37.5
t-44 16.5h-37v26h287v-26h-36q-7 0 -11 -10t-4 -23q0 -12 2 -16l126 -237l137 239q1 2 1 14q0 13 -5 23t-11 10h-36v26h15z" />
    <glyph glyph-name="Thorn" unicode="&#xde;" horiz-adv-x="554" 
d="M205 211h4l21 -4q5 -2 11.5 -2h14.5q16 0 35.5 4t39 15t37 31.5t29.5 52.5q2 7 3.5 19.5t1.5 28.5v8q-2 64 -29 103t-79 39h-89v-295zM296 551q109 0 164 -52.5t55 -143.5q0 -44 -17.5 -80t-47 -61.5t-67.5 -39t-78 -13.5q-26 0 -51.5 5t-48.5 17v-104q1 -22 12 -37.5
t27 -15.5h36v-26h-260v26h36q16 0 27 15.5t12 37.5v542q-1 22 -12 38t-27 16h-36v26h260v-26h-36q-16 0 -27 -16t-12 -38v-70h91z" />
    <glyph glyph-name="germandbls" unicode="&#xdf;" horiz-adv-x="924" 
d="M372 262q27 -23 39.5 -53.5t13.5 -58.5q0 -34 -15.5 -64t-42.5 -52.5t-62.5 -35.5t-75.5 -13q-24 0 -50.5 3t-52.5 10t-48.5 17t-38.5 25q-4 15 -4 33q0 20 4 45.5t13 50.5h11q0 -3 -0.5 -6t-0.5 -5q-1 -5 -1 -8.5v-5.5q0 -27 15 -47.5t37.5 -35t49 -22t50.5 -7.5h6
q51 2 79.5 27.5t28.5 71.5q0 47 -27 70l-195 150q-32 27 -43 56.5t-12 55.5q0 31 14.5 59t39 48t58.5 32t73 12q34 0 58.5 -2.5t41.5 -6.5l51 -10l3 -112h-11q-2 28 -15.5 45t-33 26t-42.5 11.5t-44 2.5q-20 0 -37.5 -7t-30 -18t-20 -26t-7.5 -33q0 -19 5.5 -37t23.5 -33z
M807 262q27 -23 39.5 -53.5t13.5 -58.5q0 -34 -15.5 -64t-42.5 -52.5t-62.5 -35.5t-75.5 -13q-24 0 -50.5 3t-52.5 10t-48.5 17t-38.5 25q-4 15 -4 33q0 20 4 45.5t13 50.5h11q0 -3 -0.5 -6t-0.5 -5q-1 -5 -1 -8.5v-5.5q0 -27 15 -47.5t37.5 -35t49 -22t50.5 -7.5h6
q51 2 79.5 27.5t28.5 71.5q0 47 -27 70l-195 150q-32 27 -43 56.5t-12 55.5q0 31 14.5 59t39 48t58.5 32t73 12q34 0 58.5 -2.5t41.5 -6.5l51 -10l3 -112h-11q-2 28 -15.5 45t-33 26t-42.5 11.5t-44 2.5q-20 0 -37.5 -7t-30 -18t-20 -26t-7.5 -33q0 -19 5.5 -37t23.5 -33z
" />
    <glyph glyph-name="agrave" unicode="&#xe0;" horiz-adv-x="663" 
d="M344 665h-17q-43 20 -84 41t-79 43h-6q14 26 45 54h20q32 -31 63.5 -64t63.5 -68zM592 78q13 -27 27 -39.5t26 -12.5h31v-26h-246v26h31q5 0 10 8t5 23q0 10 -2 16q-13 30 -25.5 62t-25.5 62h-207l-52 -121q-2 -3 -2 -19q0 -15 4.5 -23t9.5 -8h31v-26h-232v26h31
q12 0 27 12t29 40h-1l202 431q11 23 18 40q7 16 12 33.5t6 31.5h51zM404 243l-83 202l-86 -202h169z" />
    <glyph glyph-name="aacute" unicode="&#xe1;" horiz-adv-x="663" 
d="M315 670q32 35 63.5 68t63.5 64h21q14 -14 25.5 -28t18.5 -26h-6q-42 -23 -81 -43.5t-81 -40.5h-18zM592 78q13 -27 27 -39.5t26 -12.5h31v-26h-246v26h31q5 0 10 8t5 23q0 10 -2 16q-13 30 -25.5 62t-25.5 62h-207l-52 -121q-2 -3 -2 -19q0 -15 4.5 -23t9.5 -8h31v-26
h-232v26h31q12 0 27 12t29 40h-1l202 431q11 23 18 40q7 16 12 33.5t6 31.5h51zM404 243l-83 202l-86 -202h169z" />
    <glyph glyph-name="acircumflex" unicode="&#xe2;" horiz-adv-x="663" 
d="M316 790h32l114 -119l-6 -8h-19l-106 61l-97 -61h-19l-6 8zM592 78q13 -27 27 -39.5t26 -12.5h31v-26h-246v26h31q5 0 10 8t5 23q0 10 -2 16q-13 30 -25.5 62t-25.5 62h-207l-52 -121q-2 -3 -2 -19q0 -15 4.5 -23t9.5 -8h31v-26h-232v26h31q12 0 27 12t29 40h-1l202 431
q11 23 18 40q7 16 12 33.5t6 31.5h51zM404 243l-83 202l-86 -202h169z" />
    <glyph glyph-name="atilde" unicode="&#xe3;" horiz-adv-x="663" 
d="M483 743q-5 -37 -26 -58t-55 -21q-21 0 -41 8.5t-36 16.5l-26 13t-17 6q-23 0 -40 -41h-39q5 40 26 62.5t52 22.5q24 0 41 -8t33 -16q14 -8 26.5 -13.5t19.5 -5.5q28 0 41 34h41zM592 78q13 -27 27 -39.5t26 -12.5h31v-26h-246v26h31q5 0 10 8t5 23q0 10 -2 16
q-13 30 -25.5 62t-25.5 62h-207l-52 -121q-2 -3 -2 -19q0 -15 4.5 -23t9.5 -8h31v-26h-232v26h31q12 0 27 12t29 40h-1l202 431q11 23 18 40q7 16 12 33.5t6 31.5h51zM404 243l-83 202l-86 -202h169z" />
    <glyph glyph-name="adieresis" unicode="&#xe4;" horiz-adv-x="663" 
d="M592 78q13 -27 27 -39.5t26 -12.5h31v-26h-246v26h31q5 0 10 8t5 23q0 10 -2 16q-13 30 -25.5 62t-25.5 62h-207l-52 -121q-2 -3 -2 -19q0 -15 4.5 -23t9.5 -8h31v-26h-232v26h31q12 0 27 12t29 40h-1l202 431q11 23 18 40q7 16 12 33.5t6 31.5h51zM404 243l-83 202
l-86 -202h169zM236 662q-17 0 -28 11.5t-11 28.5t11.5 28.5t28.5 11.5t28.5 -11t11.5 -28t-11 -28t-28 -11zM422 660q-17 0 -28 11.5t-11 28.5t11.5 28.5t28.5 11.5t28.5 -11t11.5 -28t-11 -28t-28 -11z" />
    <glyph glyph-name="aring" unicode="&#xe5;" horiz-adv-x="663" 
d="M592 78q13 -27 27 -39.5t26 -12.5h31v-26h-246v26h31q5 0 10 8t5 23q0 10 -2 16q-13 30 -25.5 62t-25.5 62h-207l-52 -121q-2 -3 -2 -19q0 -15 4.5 -23t9.5 -8h31v-26h-232v26h31q12 0 27 12t29 40h-1l202 431q11 23 18 40q7 16 12 33.5t6 31.5h51zM404 243l-83 202
l-86 -202h169zM332 814q40 0 66.5 -20t26.5 -55q0 -33 -26.5 -54t-66.5 -21t-66.5 21t-26.5 54t26.5 54t66.5 21zM332 797q-21 0 -35 -15t-14 -43t14 -43t35 -15t35 15t14 43t-14 43t-35 15z" />
    <glyph glyph-name="ae" unicode="&#xe6;" horiz-adv-x="834" 
d="M769 -2h-403v26h31q8 0 13 8.5t5 22.5v206h-108l-133 -209h1q-1 -2 -1 -10q0 -18 6 -18h31v-26h-221v26h29q13 0 30.5 15t30.5 35l336 480v9q0 9 3 11h-25v25h255q12 0 27 2t29 5t26.5 6.5t20.5 6.5h21v-121h-20v21q0 14 -5 23t-13 9h-207v-242h174q8 0 12.5 9.5
t4.5 23.5v21h21v-151h-21v18q0 14 -5 22.5t-11 10.5h-175v-217h170q38 1 64 26.5t42 64.5h21zM416 308v122l-78 -122h78z" />
    <glyph glyph-name="ccedilla" unicode="&#xe7;" horiz-adv-x="705" 
d="M670 120q-38 -58 -108 -93t-156 -40q-10 -11 -17.5 -21.5t-17.5 -21.5q5 1 10.5 1.5t11.5 0.5q15 0 29.5 -3t26 -10.5t19 -19.5t8.5 -31t-8 -33.5t-25 -25t-36.5 -16t-43.5 -5.5q-13 0 -24.5 2t-22.5 5h-11l1 10h15q13 0 26.5 3t25 10.5t18 20t5.5 30.5q0 21 -10 31
t-24 10q-11 0 -29 -8h-20l-5 10h2l45 61q-74 3 -133.5 26t-101 63.5t-64 97t-22.5 126.5q0 73 24 131.5t69 99t108.5 62t143.5 21.5q66 0 130.5 -17t112.5 -46l31 -150h-17q-23 90 -81 128.5t-139 38.5q-52 0 -100 -18.5t-84.5 -53t-58.5 -84.5t-22 -112q0 -60 22.5 -109
t59.5 -83.5t85.5 -54t101.5 -20.5q49 0 91.5 13.5t75 41.5t53 71t24.5 103h17z" />
    <glyph glyph-name="egrave" unicode="&#xe8;" horiz-adv-x="546" 
d="M309 665h-17q-43 20 -84 41t-79 43h-6q14 26 45 54h20q32 -31 63.5 -64t63.5 -68zM457 -5h-438v26h37q14 0 22.5 13t9.5 32v462q0 18 -9 30.5t-23 12.5h-37v26h308q13 0 29 2t31.5 5t29 6.5t21.5 6.5h20v-131h-19v23q0 18 -7.5 29.5t-19.5 12.5h-215v-230h181
q8 1 12.5 10t4.5 23v21h19v-153h-19v21q0 26 -15 33h-182v-230h165q29 1 50 9t36.5 22.5t27.5 34t22 43.5h18z" />
    <glyph glyph-name="eacute" unicode="&#xe9;" horiz-adv-x="546" 
d="M280 670q32 35 63.5 68t63.5 64h21q14 -14 25.5 -28t18.5 -26h-6q-42 -23 -81 -43.5t-81 -40.5h-18zM457 -5h-438v26h37q14 0 22.5 13t9.5 32v462q0 18 -9 30.5t-23 12.5h-37v26h308q13 0 29 2t31.5 5t29 6.5t21.5 6.5h20v-131h-19v23q0 18 -7.5 29.5t-19.5 12.5h-215
v-230h181q8 1 12.5 10t4.5 23v21h19v-153h-19v21q0 26 -15 33h-182v-230h165q29 1 50 9t36.5 22.5t27.5 34t22 43.5h18z" />
    <glyph glyph-name="ecircumflex" unicode="&#xea;" horiz-adv-x="546" 
d="M251 790h32l114 -119l-6 -8h-19l-106 61l-97 -61h-19l-6 8zM457 -5h-438v26h37q14 0 22.5 13t9.5 32v462q0 18 -9 30.5t-23 12.5h-37v26h308q13 0 29 2t31.5 5t29 6.5t21.5 6.5h20v-131h-19v23q0 18 -7.5 29.5t-19.5 12.5h-215v-230h181q8 1 12.5 10t4.5 23v21h19v-153
h-19v21q0 26 -15 33h-182v-230h165q29 1 50 9t36.5 22.5t27.5 34t22 43.5h18z" />
    <glyph glyph-name="edieresis" unicode="&#xeb;" horiz-adv-x="546" 
d="M201 662q-17 0 -28 11.5t-11 28.5t11.5 28.5t28.5 11.5t28.5 -11t11.5 -28t-11 -28t-28 -11zM387 660q-17 0 -28 11.5t-11 28.5t11.5 28.5t28.5 11.5t28.5 -11t11.5 -28t-11 -28t-28 -11zM457 -5h-438v26h37q14 0 22.5 13t9.5 32v462q0 18 -9 30.5t-23 12.5h-37v26h308
q13 0 29 2t31.5 5t29 6.5t21.5 6.5h20v-131h-19v23q0 18 -7.5 29.5t-19.5 12.5h-215v-230h181q8 1 12.5 10t4.5 23v21h19v-153h-19v21q0 26 -15 33h-182v-230h165q29 1 50 9t36.5 22.5t27.5 34t22 43.5h18z" />
    <glyph glyph-name="igrave" unicode="&#xec;" horiz-adv-x="306" 
d="M166 665h-17q-89 42 -162 84h-6q13 25 44 54h20q32 -31 63.5 -64t63.5 -68zM29 26h36q17 0 29 13t14 31v459q-2 18 -14 31t-29 13h-36v27h267v-27h-36q-15 0 -27.5 -13t-14.5 -30v-460q1 -18 13 -31t29 -13h36v-26h-267v26z" />
    <glyph glyph-name="iacute" unicode="&#xed;" horiz-adv-x="306" 
d="M137 670q32 35 63.5 68t63.5 64h21q14 -14 25.5 -28t18.5 -26h-6q-42 -23 -81 -43.5t-81 -40.5h-18zM29 26h36q17 0 29 13t14 31v459q-2 18 -14 31t-29 13h-36v27h267v-27h-36q-15 0 -27.5 -13t-14.5 -30v-460q1 -18 13 -31t29 -13h36v-26h-267v26z" />
    <glyph glyph-name="icircumflex" unicode="&#xee;" horiz-adv-x="306" 
d="M137 790h32l114 -119l-6 -8h-19l-106 61l-97 -61h-19l-6 8zM29 26h36q17 0 29 13t14 31v459q-2 18 -14 31t-29 13h-36v27h267v-27h-36q-15 0 -27.5 -13t-14.5 -30v-460q1 -18 13 -31t29 -13h36v-26h-267v26z" />
    <glyph glyph-name="idieresis" unicode="&#xef;" horiz-adv-x="306" 
d="M29 26h36q17 0 29 13t14 31v459q-2 18 -14 31t-29 13h-36v27h267v-27h-36q-15 0 -27.5 -13t-14.5 -30v-460q1 -18 13 -31t29 -13h36v-26h-267v26zM57 662q-17 0 -28 11.5t-11 28.5t11.5 28.5t28.5 11.5t28.5 -11t11.5 -28t-11 -28t-28 -11zM243 660q-17 0 -28 11.5
t-11 28.5t11.5 28.5t28.5 11.5t28.5 -11t11.5 -28t-11 -28t-28 -11z" />
    <glyph glyph-name="eth" unicode="&#xf0;" horiz-adv-x="760" 
d="M385 599q76 -1 138 -22.5t106 -60t68 -93.5t24 -124q0 -70 -23.5 -125.5t-67 -94.5t-106 -59.5t-139.5 -20.5h-348v26h36q14 0 22.5 13.5t9.5 32.5v206h-61v46h61v206q-1 19 -10 31.5t-22 12.5h-35v27h15zM215 45h170q103 0 161 66.5t58 186.5q0 119 -58 187t-161 68
h-170v-231h153v-46h-153v-231z" />
    <glyph glyph-name="ntilde" unicode="&#xf1;" horiz-adv-x="779" 
d="M539 743q-5 -37 -26 -58t-55 -21q-21 0 -41 8.5t-36 16.5l-26 13t-17 6q-23 0 -40 -41h-39q5 40 26 62.5t52 22.5q24 0 41 -8t33 -16q14 -8 26.5 -13.5t19.5 -5.5q28 0 41 34h41zM736 598h15v-26h-39q-12 0 -21 -12t-11 -29v-414q0 -23 1.5 -46.5t3.5 -42.5
q1 -11 2 -21.5t3 -21.5h-47l-470 446v-363q2 -18 11 -30.5t20 -12.5h40v-26h-230v26h40q12 0 21 12.5t10 30.5v416q0 23 -2 47t-4 42l-6 41h49l469 -441v360q-2 17 -11 29t-20 12h-40v26h15z" />
    <glyph glyph-name="ograve" unicode="&#xf2;" horiz-adv-x="774" 
d="M399 665h-17q-43 20 -84 41t-79 43h-6q14 26 45 54h20q32 -31 63.5 -64t63.5 -68zM388 614q73 0 137 -23t112 -64.5t75.5 -99t27.5 -127.5t-27.5 -127.5t-75.5 -99t-112 -64.5t-137 -23t-137.5 23t-112.5 64.5t-75.5 99t-27.5 127.5t27.5 127.5t75.5 99t112.5 64.5
t137.5 23zM388 32q49 0 91.5 19.5t73.5 54.5t49 84.5t18 109.5t-18 109.5t-49 84.5t-73.5 54.5t-91.5 19.5q-50 0 -92.5 -19.5t-73.5 -54.5t-49 -84.5t-18 -109.5t18 -109.5t49 -84.5t73.5 -54.5t92.5 -19.5z" />
    <glyph glyph-name="oacute" unicode="&#xf3;" horiz-adv-x="774" 
d="M370 670q32 35 63.5 68t63.5 64h21q14 -14 25.5 -28t18.5 -26h-6q-42 -23 -81 -43.5t-81 -40.5h-18zM388 614q73 0 137 -23t112 -64.5t75.5 -99t27.5 -127.5t-27.5 -127.5t-75.5 -99t-112 -64.5t-137 -23t-137.5 23t-112.5 64.5t-75.5 99t-27.5 127.5t27.5 127.5t75.5 99
t112.5 64.5t137.5 23zM388 32q49 0 91.5 19.5t73.5 54.5t49 84.5t18 109.5t-18 109.5t-49 84.5t-73.5 54.5t-91.5 19.5q-50 0 -92.5 -19.5t-73.5 -54.5t-49 -84.5t-18 -109.5t18 -109.5t49 -84.5t73.5 -54.5t92.5 -19.5z" />
    <glyph glyph-name="ocircumflex" unicode="&#xf4;" horiz-adv-x="774" 
d="M371 790h32l114 -119l-6 -8h-19l-106 61l-97 -61h-19l-6 8zM388 614q73 0 137 -23t112 -64.5t75.5 -99t27.5 -127.5t-27.5 -127.5t-75.5 -99t-112 -64.5t-137 -23t-137.5 23t-112.5 64.5t-75.5 99t-27.5 127.5t27.5 127.5t75.5 99t112.5 64.5t137.5 23zM388 32
q49 0 91.5 19.5t73.5 54.5t49 84.5t18 109.5t-18 109.5t-49 84.5t-73.5 54.5t-91.5 19.5q-50 0 -92.5 -19.5t-73.5 -54.5t-49 -84.5t-18 -109.5t18 -109.5t49 -84.5t73.5 -54.5t92.5 -19.5z" />
    <glyph glyph-name="otilde" unicode="&#xf5;" horiz-adv-x="774" 
d="M538 743q-5 -37 -26 -58t-55 -21q-21 0 -41 8.5t-36 16.5l-26 13t-17 6q-23 0 -40 -41h-39q5 40 26 62.5t52 22.5q24 0 41 -8t33 -16q14 -8 26.5 -13.5t19.5 -5.5q28 0 41 34h41zM389 614q73 0 137 -23t112 -64.5t75.5 -99t27.5 -127.5t-27.5 -127.5t-75.5 -99
t-112 -64.5t-137 -23t-137.5 23t-112.5 64.5t-75.5 99t-27.5 127.5t27.5 127.5t75.5 99t112.5 64.5t137.5 23zM389 32q49 0 91.5 19.5t73.5 54.5t49 84.5t18 109.5t-18 109.5t-49 84.5t-73.5 54.5t-91.5 19.5q-50 0 -92.5 -19.5t-73.5 -54.5t-49 -84.5t-18 -109.5t18 -109.5
t49 -84.5t73.5 -54.5t92.5 -19.5z" />
    <glyph glyph-name="odieresis" unicode="&#xf6;" horiz-adv-x="774" 
d="M388 614q73 0 137 -23t112 -64.5t75.5 -99t27.5 -127.5t-27.5 -127.5t-75.5 -99t-112 -64.5t-137 -23t-137.5 23t-112.5 64.5t-75.5 99t-27.5 127.5t27.5 127.5t75.5 99t112.5 64.5t137.5 23zM388 32q49 0 91.5 19.5t73.5 54.5t49 84.5t18 109.5t-18 109.5t-49 84.5
t-73.5 54.5t-91.5 19.5q-50 0 -92.5 -19.5t-73.5 -54.5t-49 -84.5t-18 -109.5t18 -109.5t49 -84.5t73.5 -54.5t92.5 -19.5zM291 662q-17 0 -28 11.5t-11 28.5t11.5 28.5t28.5 11.5t28.5 -11t11.5 -28t-11 -28t-28 -11zM477 660q-17 0 -28 11.5t-11 28.5t11.5 28.5t28.5 11.5
t28.5 -11t11.5 -28t-11 -28t-28 -11z" />
    <glyph glyph-name="divide" unicode="&#xf7;" horiz-adv-x="481" 
d="M24 332h432v-45h-432v45zM240 433q-14 0 -24.5 10.5t-10.5 24.5t10.5 24.5t24.5 10.5t24.5 -10.5t10.5 -24.5t-10.5 -24.5t-24.5 -10.5zM239 117q-14 0 -24.5 10.5t-10.5 24.5t10.5 24.5t24.5 10.5t24.5 -10.5t10.5 -24.5t-10.5 -24.5t-24.5 -10.5z" />
    <glyph glyph-name="oslash" unicode="&#xf8;" horiz-adv-x="774" 
d="M612 551h-3q60 -45 95.5 -107.5t35.5 -140.5q0 -70 -27.5 -127.5t-75.5 -99t-112.5 -64.5t-137.5 -23q-57 0 -107.5 14t-92.5 39l-54 -65l-59 32h-2l60 72h2q-47 45 -73 100.5t-26 121.5q0 70 27.5 128t75.5 99.5t112.5 64.5t137.5 23q91 0 163 -33q11 14 22.5 26.5
t22.5 26.5l58 -34h2zM508 534h4q-29 18 -60.5 28t-63.5 10q-49 0 -91.5 -19.5t-74 -55t-49.5 -85t-18 -109.5q0 -45 10 -84t27 -68zM233 99h-2q33 -30 73 -46.5t83 -16.5q49 0 92 19.5t74 55t49 84.5t18 109q0 118 -61 187z" />
    <glyph glyph-name="ugrave" unicode="&#xf9;" horiz-adv-x="700" 
d="M363 665h-17q-43 20 -84 41t-79 43h-6q14 26 45 54h20q32 -31 63.5 -64t63.5 -68zM660 602h15v-27h-38q-9 0 -15.5 -9t-7.5 -23v-328q0 -53 -18.5 -95t-53 -71.5t-84 -45.5t-110.5 -16q-62 0 -111 15.5t-83.5 44.5t-53 71t-18.5 95v328q-2 14 -8.5 24t-15.5 10h-37v27
h231v-27h-38q-9 0 -15.5 -10t-7.5 -24v-315q0 -91 41 -143.5t115 -52.5q83 0 128.5 48.5t45.5 135.5v327q-1 14 -7.5 23.5t-15.5 9.5h-38v26h15z" />
    <glyph glyph-name="uacute" unicode="&#xfa;" horiz-adv-x="700" 
d="M333 670q32 35 63.5 68t63.5 64h21q14 -14 25.5 -28t18.5 -26h-6q-42 -23 -81 -43.5t-81 -40.5h-18zM660 602h15v-27h-38q-9 0 -15.5 -9t-7.5 -23v-328q0 -53 -18.5 -95t-53 -71.5t-84 -45.5t-110.5 -16q-62 0 -111 15.5t-83.5 44.5t-53 71t-18.5 95v328q-2 14 -8.5 24
t-15.5 10h-37v27h231v-27h-38q-9 0 -15.5 -10t-7.5 -24v-315q0 -91 41 -143.5t115 -52.5q83 0 128.5 48.5t45.5 135.5v327q-1 14 -7.5 23.5t-15.5 9.5h-38v26h15z" />
    <glyph glyph-name="ucircumflex" unicode="&#xfb;" horiz-adv-x="700" 
d="M334 790h32l114 -119l-6 -8h-19l-106 61l-97 -61h-19l-6 8zM660 602h15v-27h-38q-9 0 -15.5 -9t-7.5 -23v-328q0 -53 -18.5 -95t-53 -71.5t-84 -45.5t-110.5 -16q-62 0 -111 15.5t-83.5 44.5t-53 71t-18.5 95v328q-2 14 -8.5 24t-15.5 10h-37v27h231v-27h-38
q-9 0 -15.5 -10t-7.5 -24v-315q0 -91 41 -143.5t115 -52.5q83 0 128.5 48.5t45.5 135.5v327q-1 14 -7.5 23.5t-15.5 9.5h-38v26h15z" />
    <glyph glyph-name="udieresis" unicode="&#xfc;" horiz-adv-x="700" 
d="M660 602h15v-27h-38q-9 0 -15.5 -9t-7.5 -23v-328q0 -53 -18.5 -95t-53 -71.5t-84 -45.5t-110.5 -16q-62 0 -111 15.5t-83.5 44.5t-53 71t-18.5 95v328q-2 14 -8.5 24t-15.5 10h-37v27h231v-27h-38q-9 0 -15.5 -10t-7.5 -24v-315q0 -91 41 -143.5t115 -52.5
q83 0 128.5 48.5t45.5 135.5v327q-1 14 -7.5 23.5t-15.5 9.5h-38v26h15zM254 662q-17 0 -28 11.5t-11 28.5t11.5 28.5t28.5 11.5t28.5 -11t11.5 -28t-11 -28t-28 -11zM440 660q-17 0 -28 11.5t-11 28.5t11.5 28.5t28.5 11.5t28.5 -11t11.5 -28t-11 -28t-28 -11z" />
    <glyph glyph-name="yacute" unicode="&#xfd;" horiz-adv-x="640" 
d="M316 670q32 35 63.5 68t63.5 64h21q14 -14 25.5 -28t18.5 -26h-6q-42 -23 -81 -43.5t-81 -40.5h-18zM656 573h-36q-20 0 -38 -14t-32 -32h1l-185 -280h2v-177q1 -18 10.5 -31t23.5 -13h34v-26h-246v26h34q14 0 23 13t11 31v177h2l-179 280h1q-14 21 -31.5 33.5
t-37.5 12.5h-35v27h272v-27h-34q-6 0 -9.5 -7.5t-3.5 -18.5v-5q0 -2 0.5 -2.5t0.5 -1.5h-2q33 -59 61 -107.5t61 -107.5l130 217h-1v8q0 25 -13 25h-34v27h250v-27z" />
    <glyph glyph-name="thorn" unicode="&#xfe;" horiz-adv-x="527" 
d="M200 173h17q6 -2 11.5 -3.5t8.5 -2.5q12 -3 29 -3q13 0 29.5 4t32.5 14.5t30 29.5t24 50q2 8 3.5 22t1.5 28q0 57 -30.5 88t-86.5 31h-70v-258zM273 477q104 -2 165 -47.5t61 -126.5q0 -43 -14.5 -77t-40 -57.5t-59 -36t-70.5 -12.5q-58 0 -110 28h-5v-79q1 -19 9.5 -32
t19.5 -13h36v-26h-237v26h36q11 0 19.5 13t9.5 32v460q-1 18 -9.5 30.5t-19.5 12.5h-36v27h237v-27h-36q-11 0 -19 -12t-9 -29v-53z" />
    <glyph glyph-name="ydieresis" unicode="&#xff;" horiz-adv-x="640" 
d="M656 573h-36q-20 0 -38 -14t-32 -32h1l-185 -280h2v-177q1 -18 10.5 -31t23.5 -13h34v-26h-246v26h34q14 0 23 13t11 31v177h2l-179 280h1q-14 21 -31.5 33.5t-37.5 12.5h-35v27h272v-27h-34q-6 0 -9.5 -7.5t-3.5 -18.5v-5q0 -2 0.5 -2.5t0.5 -1.5h-2q33 -59 61 -107.5
t61 -107.5l130 217h-1v8q0 25 -13 25h-34v27h250v-27zM237 662q-17 0 -28 11.5t-11 28.5t11.5 28.5t28.5 11.5t28.5 -11t11.5 -28t-11 -28t-28 -11zM423 660q-17 0 -28 11.5t-11 28.5t11.5 28.5t28.5 11.5t28.5 -11t11.5 -28t-11 -28t-28 -11z" />
    <glyph glyph-name="Amacron" unicode="&#x100;" horiz-adv-x="712" 
d="M636 85q14 -30 31.5 -43.5t32.5 -13.5h32v-26h-267v26h32q7 0 12.5 8t5.5 24q0 10 -2 18q-15 39 -31 80.5t-30 80.5h-223q-16 -39 -32.5 -80.5t-31.5 -80.5q-2 -10 -2 -18q0 -16 5.5 -24.5t13.5 -8.5h32v-26h-243v26h32q15 0 32 13.5t31 42.5l222 525q10 22 18 42
q6 16 11.5 33t5.5 31h51zM435 285q-13 34 -24 63.5t-22.5 58.5t-22.5 59t-24 65l-96 -246h189zM192 830h291v-51h-291v51z" />
    <glyph glyph-name="amacron" unicode="&#x101;" horiz-adv-x="663" 
d="M596 78h-1q14 -28 28.5 -40t26.5 -12h31v-26h-247v26h31q6 0 11 8t5 23q0 10 -2 16l-52 125h-208l-52 -122q-2 -10 -2 -19q0 -15 4.5 -23t9.5 -8h31v-26h-233v26h31q12 0 27.5 12.5t29.5 39.5h-1l202 433q5 11 9.5 21t8.5 20q6 17 12 33.5t7 30.5h51zM408 244l-83 203
q-22 -51 -44 -101.5t-43 -101.5h170zM188 730h291v-51h-291v51z" />
    <glyph glyph-name="Abreve" unicode="&#x102;" horiz-adv-x="712" 
d="M473 868q0 -21 -9.5 -39.5t-25.5 -33t-37.5 -22.5t-45.5 -8t-45.5 8t-37.5 22.5t-25.5 33t-9.5 39.5h39q8 -20 29.5 -37t50.5 -17t50.5 17t29.5 37h37zM636 85q14 -30 31.5 -43.5t32.5 -13.5h32v-26h-267v26h32q7 0 12.5 8t5.5 24q0 10 -2 18q-15 39 -31 80.5t-30 80.5
h-223q-16 -39 -32.5 -80.5t-31.5 -80.5q-2 -10 -2 -18q0 -16 5.5 -24.5t13.5 -8.5h32v-26h-243v26h32q15 0 32 13.5t31 42.5l222 525q10 22 18 42q6 16 11.5 33t5.5 31h51zM435 285q-13 34 -24 63.5t-22.5 58.5t-22.5 59t-24 65l-96 -246h189z" />
    <glyph glyph-name="abreve" unicode="&#x103;" horiz-adv-x="663" 
d="M448 768q0 -21 -9.5 -39.5t-25.5 -33t-37.5 -22.5t-45.5 -8t-45.5 8t-37.5 22.5t-25.5 33t-9.5 39.5h39q8 -20 29.5 -37t50.5 -17t50.5 17t29.5 37h37zM592 78q13 -27 27 -39.5t26 -12.5h31v-26h-246v26h31q5 0 10 8t5 23q0 10 -2 16q-13 30 -25.5 62t-25.5 62h-207
l-52 -121q-2 -3 -2 -19q0 -15 4.5 -23t9.5 -8h31v-26h-232v26h31q12 0 27 12t29 40h-1l202 431q11 23 18 40q7 16 12 33.5t6 31.5h51zM404 243l-83 202l-86 -202h169z" />
    <glyph glyph-name="Aogonek" unicode="&#x104;" horiz-adv-x="737" 
d="M636 85q14 -30 31.5 -43.5t32.5 -13.5h32l2 -19l-2 -5l-2 -4h-15q-25 0 -40.5 0.5t-23.5 1.5h-31l-10 -2q-24 -5 -36.5 -26.5t-12.5 -44.5q0 -28 16.5 -47.5t38.5 -19.5q19 0 43 25h22l6 -6h3q-10 -28 -39 -42.5t-63 -14.5q-20 0 -38.5 5.5t-32.5 17t-23 28.5t-9 41
t16.5 43t36.5 31q2 2 5 4.5t5 4.5l4 3h-87v26h32q7 0 12.5 8t5.5 24q0 10 -2 18q-15 39 -31 80.5t-30 80.5h-223q-16 -39 -32.5 -80.5t-31.5 -80.5q-2 -10 -2 -18q0 -16 5.5 -24.5t13.5 -8.5h32v-26h-243v26h32q15 0 32 13.5t31 42.5l222 525q10 22 18 42q6 16 11.5 33
t5.5 31h51zM435 285q-13 34 -24 63.5t-22.5 58.5t-22.5 59t-24 65l-96 -246h189z" />
    <glyph glyph-name="aogonek" unicode="&#x105;" horiz-adv-x="633" 
d="M596 78h-1q14 -28 28.5 -40t26.5 -12h31v-26h-185q-22 -8 -31.5 -27t-8.5 -44q2 -28 18 -47.5t36 -19.5q17 0 42 25h22l6 -6h3q-10 -28 -38 -42.5t-61 -14.5q-20 0 -38.5 5.5t-32.5 17.5t-23 29.5t-9 41.5q0 23 16 44t45 38h-8v26h31q6 0 11 8t5 23q0 10 -2 16l-52 125
h-208l-52 -122q-2 -10 -2 -19q0 -15 4.5 -23t9.5 -8h31v-26h-233v26h31q12 0 27.5 12.5t29.5 39.5h-1l202 433q5 11 9.5 21t8.5 20q6 17 12 33.5t7 30.5h51zM408 244l-83 203q-22 -51 -44 -101.5t-43 -101.5h170z" />
    <glyph glyph-name="Cacute" unicode="&#x106;" horiz-adv-x="760" 
d="M400 770q32 35 63.5 68t63.5 64h21q14 -14 25.5 -28t18.5 -26h-6q-42 -23 -81 -43.5t-81 -40.5h-18zM708 141q-41 -67 -114 -111t-183 -44q-82 0 -150.5 26t-118 74t-77 115t-27.5 150q0 81 27 148t76.5 115t119 74t155.5 26q79 0 140.5 -20t107.5 -50h7l21 -151h-18
q-11 43 -37.5 76t-62 55t-76.5 33t-81 11q-60 0 -107.5 -22.5t-81 -64t-51.5 -100t-18 -129.5q0 -70 19.5 -127t54 -98t81 -65.5t99.5 -29.5q46 1 94 15.5t89 46t70 83t38 125.5h17z" />
    <glyph glyph-name="cacute" unicode="&#x107;" horiz-adv-x="705" 
d="M363 670q32 35 63.5 68t63.5 64h21q14 -14 25.5 -28t18.5 -26h-6q-42 -23 -81 -43.5t-81 -40.5h-18zM670 120q-20 -31 -50.5 -56t-68.5 -42t-81.5 -26.5t-90.5 -9.5q-80 0 -143.5 22t-108.5 62.5t-69 98.5t-24 131t24 131.5t69 99t108.5 62t143.5 21.5q66 0 130.5 -17
t112.5 -46l31 -150h-17q-23 90 -81 128.5t-139 38.5q-52 0 -100 -18.5t-84.5 -53t-58.5 -84.5t-22 -112q0 -60 22.5 -109t59.5 -83.5t85.5 -54t101.5 -20.5q49 0 91.5 13.5t75 41.5t53 71t24.5 103h17z" />
    <glyph glyph-name="Cdotaccent" unicode="&#x10a;" horiz-adv-x="760" 
d="M416 765q-18 0 -30.5 12.5t-12.5 30.5t12.5 30.5t30.5 12.5t30.5 -12.5t12.5 -30.5t-12.5 -30.5t-30.5 -12.5zM708 141q-41 -67 -114 -111t-183 -44q-82 0 -150.5 26t-118 74t-77 115t-27.5 150q0 81 27 148t76.5 115t119 74t155.5 26q79 0 140.5 -20t107.5 -50h7
l21 -151h-18q-11 43 -37.5 76t-62 55t-76.5 33t-81 11q-60 0 -107.5 -22.5t-81 -64t-51.5 -100t-18 -129.5q0 -70 19.5 -127t54 -98t81 -65.5t99.5 -29.5q46 1 94 15.5t89 46t70 83t38 125.5h17z" />
    <glyph glyph-name="cdotaccent" unicode="&#x10b;" horiz-adv-x="705" 
d="M670 120q-20 -31 -50.5 -56t-68.5 -42t-81.5 -26.5t-90.5 -9.5q-80 0 -143.5 22t-108.5 62.5t-69 98.5t-24 131t24 131.5t69 99t108.5 62t143.5 21.5q66 0 130.5 -17t112.5 -46l31 -150h-17q-23 90 -81 128.5t-139 38.5q-52 0 -100 -18.5t-84.5 -53t-58.5 -84.5t-22 -112
q0 -60 22.5 -109t59.5 -83.5t85.5 -54t101.5 -20.5q49 0 91.5 13.5t75 41.5t53 71t24.5 103h17zM379 665q-18 0 -30.5 12.5t-12.5 30.5t12.5 30.5t30.5 12.5t30.5 -12.5t12.5 -30.5t-12.5 -30.5t-30.5 -12.5z" />
    <glyph glyph-name="Ccaron" unicode="&#x10c;" horiz-adv-x="760" 
d="M433 764h-32l-114 119l6 8h19l105 -61l98 61h19l6 -8zM708 141q-41 -67 -114 -111t-183 -44q-82 0 -150.5 26t-118 74t-77 115t-27.5 150q0 81 27 148t76.5 115t119 74t155.5 26q79 0 140.5 -20t107.5 -50h7l21 -151h-18q-11 43 -37.5 76t-62 55t-76.5 33t-81 11
q-60 0 -107.5 -22.5t-81 -64t-51.5 -100t-18 -129.5q0 -70 19.5 -127t54 -98t81 -65.5t99.5 -29.5q46 1 94 15.5t89 46t70 83t38 125.5h17z" />
    <glyph glyph-name="ccaron" unicode="&#x10d;" horiz-adv-x="705" 
d="M396 664h-32l-114 119l6 8h19l105 -61l98 61h19l6 -8zM670 120q-20 -31 -50.5 -56t-68.5 -42t-81.5 -26.5t-90.5 -9.5q-80 0 -143.5 22t-108.5 62.5t-69 98.5t-24 131t24 131.5t69 99t108.5 62t143.5 21.5q66 0 130.5 -17t112.5 -46l31 -150h-17q-23 90 -81 128.5
t-139 38.5q-52 0 -100 -18.5t-84.5 -53t-58.5 -84.5t-22 -112q0 -60 22.5 -109t59.5 -83.5t85.5 -54t101.5 -20.5q49 0 91.5 13.5t75 41.5t53 71t24.5 103h17z" />
    <glyph glyph-name="Dcaron" unicode="&#x10e;" horiz-adv-x="807" 
d="M415 764h-32l-114 119l6 8h19l105 -61l98 61h19l6 -8zM391 700q83 0 152 -25t118.5 -71t76.5 -110.5t27 -143.5t-27 -143.5t-76.5 -110.5t-118.5 -71t-152 -25h-355v26h36q17 0 27.5 15.5t12.5 37.5v547q0 20 -12.5 33.5t-27.5 13.5h-36v27h355zM221 45h170q57 0 104 22
t80.5 62t51.5 96t18 125q0 68 -18.5 124t-51.5 96t-80 62t-104 22h-170v-609z" />
    <glyph glyph-name="dcaron" unicode="&#x10f;" horiz-adv-x="760" 
d="M404 665h-32l-114 119l6 8h19l105 -61l98 61h19l6 -8zM384 599q76 -1 138 -22.5t106 -60t68 -93.5t24 -124q0 -70 -23.5 -125.5t-67 -94.5t-106 -59.5t-139.5 -20.5h-348v26h36q14 0 22.5 13.5t9.5 32.5v458q-1 19 -10 31.5t-22 12.5h-35v27h15zM214 45h170
q103 0 161 66.5t58 186.5q0 119 -58 187t-161 68h-170v-508z" />
    <glyph glyph-name="Dcroat" unicode="&#x110;" horiz-adv-x="807" 
d="M243 830h291v-51h-291v51zM385 702q84 0 153.5 -25t119 -71t76.5 -111t27 -144q0 -80 -27 -144.5t-76.5 -110.5t-119 -71t-153.5 -25h-355v26h36q16 0 27 15.5t12 38.5v549q0 20 -12 33.5t-27 13.5h-36v26h355zM215 45h170q58 0 105 22t80.5 62.5t52 96.5t18.5 125
t-18.5 125.5t-52 96.5t-80.5 62t-105 22h-170v-612z" />
    <glyph glyph-name="dcroat" unicode="&#x111;" horiz-adv-x="760" 
d="M241 731h291v-51h-291v51zM383 602q76 -1 138.5 -22.5t106.5 -60.5t68 -94.5t24 -124.5q0 -71 -23.5 -126.5t-67.5 -94.5t-106.5 -59.5t-139.5 -20.5h-349v26h35q14 0 23 13.5t10 32.5v461q-1 20 -10 32.5t-23 12.5h-34v26h15zM212 45h171q104 0 162 67t58 187t-58 188.5
t-162 68.5h-171v-511z" />
    <glyph glyph-name="Emacron" unicode="&#x112;" 
d="M152 830h291v-51h-291v51zM481 -2h-449v26h36q17 0 27.5 15.5t12.5 38.5v546q-2 20 -13.5 34t-25.5 14h-36v26h317q14 0 31 2t33.5 5t31 7t22.5 8h14v-144h-17v26q0 20 -9 33.5t-23 16.5h-214v-285h174q11 1 18.5 12t7.5 29v22h22v-170h-22v23q0 17 -7 28t-17 12h-175
v-277h150q32 0 56 9.5t42 26.5t31.5 40.5t24.5 51.5h21z" />
    <glyph glyph-name="emacron" unicode="&#x113;" horiz-adv-x="546" 
d="M138 730h291v-51h-291v51zM457 -5h-438v26h37q14 0 22.5 13t9.5 32v462q0 18 -9 30.5t-23 12.5h-37v26h308q13 0 29 2t31.5 5t29 6.5t21.5 6.5h20v-131h-19v23q0 18 -7.5 29.5t-19.5 12.5h-215v-230h181q8 1 12.5 10t4.5 23v21h19v-153h-19v21q0 26 -15 33h-182v-230h165
q29 1 50 9t36.5 22.5t27.5 34t22 43.5h18z" />
    <glyph glyph-name="Edotaccent" unicode="&#x116;" 
d="M297 765q-18 0 -30.5 12.5t-12.5 30.5t12.5 30.5t30.5 12.5t30.5 -12.5t12.5 -30.5t-12.5 -30.5t-30.5 -12.5zM481 -2h-449v26h36q17 0 27.5 15.5t12.5 38.5v546q-2 20 -13.5 34t-25.5 14h-36v26h317q14 0 31 2t33.5 5t31 7t22.5 8h14v-144h-17v26q0 20 -9 33.5t-23 16.5
h-214v-285h174q11 1 18.5 12t7.5 29v22h22v-170h-22v23q0 17 -7 28t-17 12h-175v-277h150q32 0 56 9.5t42 26.5t31.5 40.5t24.5 51.5h21z" />
    <glyph glyph-name="edotaccent" unicode="&#x117;" horiz-adv-x="546" 
d="M296 665q-18 0 -30.5 12.5t-12.5 30.5t12.5 30.5t30.5 12.5t30.5 -12.5t12.5 -30.5t-12.5 -30.5t-30.5 -12.5zM457 -5h-438v26h37q14 0 22.5 13t9.5 32v462q0 18 -9 30.5t-23 12.5h-37v26h308q13 0 29 2t31.5 5t29 6.5t21.5 6.5h20v-131h-19v23q0 18 -7.5 29.5
t-19.5 12.5h-215v-230h181q8 1 12.5 10t4.5 23v21h19v-153h-19v21q0 26 -15 33h-182v-230h165q29 1 50 9t36.5 22.5t27.5 34t22 43.5h18z" />
    <glyph glyph-name="Eogonek" unicode="&#x118;" 
d="M481 -2h-7q-35 -8 -49 -27.5t-13 -50.5q2 -28 18 -47.5t36 -19.5q17 0 42 25h22l6 -6h3q-10 -28 -38 -42.5t-61 -14.5q-20 0 -38.5 5.5t-32.5 17.5t-23 29.5t-9 41.5q0 15 7.5 29t20.5 26t30 20.5t36 13.5h-399v26h36q17 0 27.5 15.5t12.5 38.5v546q-2 20 -13.5 34
t-25.5 14h-36v26h317q14 0 31 2t33.5 5t31 7t22.5 8h14v-144h-17v26q0 20 -9 33.5t-23 16.5h-214v-285h174q11 1 18.5 12t7.5 29v22h22v-170h-22v23q0 17 -7 28t-17 12h-175v-277h150q32 0 56 9.5t42 26.5t31.5 40.5t24.5 51.5h21z" />
    <glyph glyph-name="eogonek" unicode="&#x119;" horiz-adv-x="546" 
d="M457 -5h-4q-35 -9 -48.5 -28.5t-12.5 -49.5q2 -28 18 -47.5t36 -19.5q17 0 42 25h22l6 -6h3q-10 -28 -38 -42.5t-61 -14.5q-20 0 -38.5 5.5t-32.5 17.5t-23 29.5t-9 41.5q0 15 7.5 29t20.5 26t30 20.5t36 13.5h-392v26h37q14 0 22.5 13t9.5 32v462q0 18 -9 30.5t-23 12.5
h-37v26h308q13 0 29 2t31.5 5t29 6.5t21.5 6.5h20v-131h-19v23q0 18 -7.5 29.5t-19.5 12.5h-215v-230h181q8 1 12.5 10t4.5 23v21h19v-153h-19v21q0 26 -15 33h-182v-230h165q29 1 50 9t36.5 22.5t27.5 34t22 43.5h18l-58 -155h3h4l-5 -3q-3 0 -4 -1v-1z" />
    <glyph glyph-name="Ecaron" unicode="&#x11a;" 
d="M314 764h-32l-114 119l6 8h19l105 -61l98 61h19l6 -8zM481 -2h-449v26h36q17 0 27.5 15.5t12.5 38.5v546q-2 20 -13.5 34t-25.5 14h-36v26h317q14 0 31 2t33.5 5t31 7t22.5 8h14v-144h-17v26q0 20 -9 33.5t-23 16.5h-214v-285h174q11 1 18.5 12t7.5 29v22h22v-170h-22v23
q0 17 -7 28t-17 12h-175v-277h150q32 0 56 9.5t42 26.5t31.5 40.5t24.5 51.5h21z" />
    <glyph glyph-name="ecaron" unicode="&#x11b;" horiz-adv-x="546" 
d="M291 664h-32l-114 119l6 8h19l105 -61l98 61h19l6 -8zM457 -5h-438v26h37q14 0 22.5 13t9.5 32v462q0 18 -9 30.5t-23 12.5h-37v26h308q13 0 29 2t31.5 5t29 6.5t21.5 6.5h20v-131h-19v23q0 18 -7.5 29.5t-19.5 12.5h-215v-230h181q8 1 12.5 10t4.5 23v21h19v-153h-19v21
q0 26 -15 33h-182v-230h165q29 1 50 9t36.5 22.5t27.5 34t22 43.5h18z" />
    <glyph glyph-name="Gbreve" unicode="&#x11e;" horiz-adv-x="798" 
d="M536 868q0 -21 -9.5 -39.5t-25.5 -33t-37.5 -22.5t-45.5 -8t-45.5 8t-37.5 22.5t-25.5 33t-9.5 39.5h39q8 -20 29.5 -37t50.5 -17t50.5 17t29.5 37h37zM735 320q-25 0 -25 -35v-160q-18 -24 -45.5 -48.5t-65.5 -44t-86.5 -31.5t-107.5 -12q-83 0 -152.5 26t-119 74
t-77 115t-27.5 149t27.5 149t77 115t118.5 74t152 26q87 0 147 -20.5t106 -49.5h7l21 -151h-15q-23 85 -81.5 129.5t-146.5 44.5q-57 0 -110 -23t-93.5 -64.5t-64.5 -100t-24 -130.5q0 -71 19 -129t53 -100t81 -65.5t103 -24.5q56 1 109 22t93 57v173q0 17 -9 25.5t-22 8.5
h-30v23h217v-23h-16z" />
    <glyph glyph-name="gbreve" unicode="&#x11f;" horiz-adv-x="742" 
d="M494 768q0 -21 -9.5 -39.5t-25.5 -33t-37.5 -22.5t-45.5 -8t-45.5 8t-37.5 22.5t-25.5 33t-9.5 39.5h39q8 -20 29.5 -37t50.5 -17t50.5 17t29.5 37h37zM672 120q-18 -24 -46.5 -48t-67 -43.5t-85.5 -31.5t-102 -12q-77 0 -140.5 22t-108.5 62.5t-69.5 98.5t-24.5 131
t24.5 131.5t69.5 99t108.5 62t140.5 21.5q73 0 131.5 -15t110.5 -47l31 -150h-19q-21 87 -74 127t-146 40q-51 0 -98 -18.5t-83.5 -53t-58 -84.5t-21.5 -112t16 -111.5t45.5 -84.5t71 -53.5t92.5 -18.5q54 0 102.5 19t93.5 61l-3 126q0 29 -23 29h-29v22h209v-22h-29
q-20 0 -20 -30z" />
    <glyph glyph-name="Gdotaccent" unicode="&#x120;" horiz-adv-x="798" 
d="M418 765q-18 0 -30.5 12.5t-12.5 30.5t12.5 30.5t30.5 12.5t30.5 -12.5t12.5 -30.5t-12.5 -30.5t-30.5 -12.5zM735 320q-25 0 -25 -35v-160q-18 -24 -45.5 -48.5t-65.5 -44t-86.5 -31.5t-107.5 -12q-83 0 -152.5 26t-119 74t-77 115t-27.5 149t27.5 149t77 115t118.5 74
t152 26q87 0 147 -20.5t106 -49.5h7l21 -151h-15q-23 85 -81.5 129.5t-146.5 44.5q-57 0 -110 -23t-93.5 -64.5t-64.5 -100t-24 -130.5q0 -71 19 -129t53 -100t81 -65.5t103 -24.5q56 1 109 22t93 57v173q0 17 -9 25.5t-22 8.5h-30v23h217v-23h-16z" />
    <glyph glyph-name="gdotaccent" unicode="&#x121;" horiz-adv-x="742" 
d="M377 665q-18 0 -30.5 12.5t-12.5 30.5t12.5 30.5t30.5 12.5t30.5 -12.5t12.5 -30.5t-12.5 -30.5t-30.5 -12.5zM672 120q-18 -24 -46.5 -48t-67 -43.5t-85.5 -31.5t-102 -12q-77 0 -140.5 22t-108.5 62.5t-69.5 98.5t-24.5 131t24.5 131.5t69.5 99t108.5 62t140.5 21.5
q73 0 131.5 -15t110.5 -47l31 -150h-19q-21 87 -74 127t-146 40q-51 0 -98 -18.5t-83.5 -53t-58 -84.5t-21.5 -112t16 -111.5t45.5 -84.5t71 -53.5t92.5 -18.5q54 0 102.5 19t93.5 61l-3 126q0 29 -23 29h-29v22h209v-22h-29q-20 0 -20 -30z" />
    <glyph glyph-name="Gcommaaccent" unicode="&#x122;" horiz-adv-x="798" 
d="M368 -198h8q15 5 21 17t6 26q0 24 -6 30l-10 11q-6 8 -11.5 15.5t0.5 20.5q4 8 15.5 12.5t26.5 4.5q14 0 28.5 -6.5t20.5 -18.5q9 -21 9 -37q0 -17 -7.5 -31t-20.5 -25t-29 -18t-34 -8h-15zM735 320q-25 0 -25 -35v-160q-18 -24 -45.5 -48.5t-65.5 -44t-86.5 -31.5
t-107.5 -12q-83 0 -152.5 26t-119 74t-77 115t-27.5 149t27.5 149t77 115t118.5 74t152 26q87 0 147 -20.5t106 -49.5h7l21 -151h-15q-23 85 -81.5 129.5t-146.5 44.5q-57 0 -110 -23t-93.5 -64.5t-64.5 -100t-24 -130.5q0 -71 19 -129t53 -100t81 -65.5t103 -24.5
q56 1 109 22t93 57v173q0 17 -9 25.5t-22 8.5h-30v23h217v-23h-16z" />
    <glyph glyph-name="gcommaaccent" unicode="&#x123;" horiz-adv-x="742" 
d="M328 -202h8q15 5 21 17t6 26q0 24 -6 30l-10 11q-6 8 -11.5 15.5t0.5 20.5q4 8 15.5 12.5t26.5 4.5q14 0 28.5 -6.5t20.5 -18.5q9 -21 9 -37q0 -17 -7.5 -31t-20.5 -25t-29 -18t-34 -8h-15zM672 120q-18 -24 -46.5 -48t-67 -43.5t-85.5 -31.5t-102 -12q-77 0 -140.5 22
t-108.5 62.5t-69.5 98.5t-24.5 131t24.5 131.5t69.5 99t108.5 62t140.5 21.5q73 0 131.5 -15t110.5 -47l31 -150h-19q-21 87 -74 127t-146 40q-51 0 -98 -18.5t-83.5 -53t-58 -84.5t-21.5 -112t16 -111.5t45.5 -84.5t71 -53.5t92.5 -18.5q54 0 102.5 19t93.5 61l-3 126
q0 29 -23 29h-29v22h209v-22h-29q-20 0 -20 -30z" />
    <glyph glyph-name="Hbar" unicode="&#x126;" horiz-adv-x="778" 
d="M498 1h-15v26h36q15 0 26 15.5t13 36.5v245h-353v-244q1 -22 12 -37.5t27 -15.5h36v-26h-260v26h36q16 0 27 15.5t12 37.5v407h-62v46h62v89q-1 22 -12 38t-27 16h-36v26h260v-26h-36q-16 0 -27 -16t-12 -38v-89h353v89q-2 21 -13 36.5t-26 15.5h-36v26h260v-26h-36
q-16 0 -27 -16t-12 -38v-88h64v-46h-64v-407q1 -22 12 -37.5t27 -15.5h36v-26h-15zM558 370v117h-353v-117h353z" />
    <glyph glyph-name="hbar" unicode="&#x127;" horiz-adv-x="748" 
d="M641 414v-344q1 -18 10.5 -31t23.5 -13h34v-26h-245v26h34q14 0 23.5 13t10.5 31v204h-312v-204q1 -18 10.5 -31t23.5 -13h34v-26h-245v26h34q14 0 23.5 13t10.5 31v343h-64v46h64v70q-1 18 -10.5 31t-23.5 13h-34v27h245v-27h-35q-13 0 -22 -12.5t-10 -29.5v-72h312v70
q-1 18 -10.5 31t-23.5 13h-34v27h245v-27h-34q-12 0 -21.5 -13t-11.5 -30v-71h70v-46h-15zM532 414h-312v-94h312v94z" />
    <glyph glyph-name="Imacron" unicode="&#x12a;" horiz-adv-x="338" 
d="M25 830h291v-51h-291v51zM298 0h-261v26h36q16 0 27 15.5t12 38.5v543q-1 23 -12 38.5t-27 15.5h-36v26h261v-26h-36q-17 0 -27.5 -15.5t-12.5 -38.5v-543q2 -23 12.5 -38.5t27.5 -15.5h36v-26z" />
    <glyph glyph-name="imacron" unicode="&#x12b;" horiz-adv-x="306" 
d="M8 730h291v-51h-291v51zM270 0h-239v26h34q12 0 20.5 13t9.5 32v461q-1 18 -9.5 31t-20.5 13h-34v27h239v-27h-34q-12 0 -21 -12.5t-10 -29.5v-463q1 -19 10 -32t21 -13h34v-26z" />
    <glyph glyph-name="Iogonek" unicode="&#x12e;" horiz-adv-x="338" 
d="M300 0h-111q-64 -16 -62 -78q2 -28 18 -47.5t36 -19.5q17 0 42 25h22l6 -6h3q-10 -28 -38 -42.5t-61 -14.5q-20 0 -38.5 5.5t-32.5 17.5t-23 29.5t-9 41.5q0 15 7.5 29t20.5 26t30 20.5t36 13.5h-107v26h36q17 0 27.5 15.5t12.5 37.5v542q-2 22 -12.5 38t-27.5 16h-36v26
h261v-26h-36q-17 0 -27.5 -16t-12.5 -38v-542q2 -22 12.5 -37.5t27.5 -15.5h36v-26z" />
    <glyph glyph-name="iogonek" unicode="&#x12f;" horiz-adv-x="307" 
d="M270 0h-93q-64 -16 -62 -78q2 -28 18 -47.5t36 -19.5q17 0 42 25h22l6 -6h3q-10 -28 -38 -42.5t-61 -14.5q-20 0 -38.5 5.5t-32.5 17.5t-23 29.5t-9 41.5q0 15 7.5 29t20.5 26t30 20.5t36 13.5h-103v26h34q12 0 20.5 13t9.5 32v461q-1 18 -9.5 31t-20.5 13h-34v27h239
v-27h-34q-12 0 -21 -12.5t-10 -29.5v-463q1 -19 10 -32t21 -13h34v-26z" />
    <glyph glyph-name="Idotaccent" unicode="&#x130;" horiz-adv-x="338" 
d="M300 0h-261v26h36q17 0 27.5 15.5t12.5 37.5v542q-2 22 -12.5 38t-27.5 16h-36v26h261v-26h-36q-17 0 -27.5 -16t-12.5 -38v-542q2 -22 12.5 -37.5t27.5 -15.5h36v-26zM168 765q-18 0 -30.5 12.5t-12.5 30.5t12.5 30.5t30.5 12.5t30.5 -12.5t12.5 -30.5t-12.5 -30.5
t-30.5 -12.5z" />
    <glyph glyph-name="dotlessi" unicode="&#x131;" horiz-adv-x="306" 
d="M266 0h-227v10h26q17 0 28 15.5t12 38.5v472q-1 23 -12 38.5t-28 15.5h-26v10h227v-10h-26q-17 0 -28 -15t-12 -37v-474q1 -23 12 -38.5t28 -15.5h26v-10z" />
    <glyph glyph-name="IJ" unicode="&#x132;" horiz-adv-x="662" 
d="M288 -4h-261v26h36q16 0 27 15.5t12 38.5v545q-1 22 -12 38t-27 16h-36v25h261v-25h-36q-15 0 -26.5 -16t-13.5 -38v-545q2 -23 13.5 -38.5t26.5 -15.5h36v-26zM620 674h-36q-15 0 -26.5 -16t-13.5 -38v-616q0 -44 -16 -81t-44.5 -64.5t-66.5 -43t-82 -15.5h-15v22h10
q22 8 41 26.5t33 43t22 54.5t8 61v613q-1 22 -12 38t-27 16h-36v25h261v-25z" />
    <glyph glyph-name="ij" unicode="&#x133;" horiz-adv-x="645" 
d="M25 22h36q17 0 29.5 13t13.5 32v461q-1 19 -13.5 32t-29.5 13h-36v27h268v-27h-36q-17 0 -29 -13t-14 -30v-463q1 -19 13.5 -32t29.5 -13h36v-26h-268v26zM616 573h-36q-17 0 -28.5 -13t-12.5 -32v-524q0 -37 -17 -70t-46.5 -58t-67.5 -39.5t-80 -14.5h-15v24h11
q21 6 40 22t33.5 37.5t23 47t8.5 51.5v528q-2 17 -13.5 29t-26.5 12h-36v27h263v-27z" />
    <glyph glyph-name="Kcommaaccent" unicode="&#x136;" horiz-adv-x="643" 
d="M198 79q2 -22 12.5 -37.5t27.5 -15.5h36v-26h-261v26h36q17 0 27.5 15.5t12.5 37.5v542q-2 22 -12.5 38t-27.5 16h-36v26h261v-26h-36q-17 0 -27.5 -16t-12.5 -38v-221l193 242q3 4 3 14q0 19 -8 19h-33v25h253v-25h-27q-25 0 -48 -12t-40 -32l-226 -260l264 -309
q35 -35 82 -36h15v-26h-64q-12 0 -32.5 1t-44 7t-47.5 17.5t-42 32.5l-198 240v-219zM304 -202h8q15 5 21 17t6 26q0 24 -6 30l-10 11q-6 8 -11.5 15.5t0.5 20.5q4 8 15.5 12.5t26.5 4.5q14 0 28.5 -6.5t20.5 -18.5q9 -21 9 -37q0 -17 -7.5 -31t-20.5 -25t-29 -18t-34 -8
h-15z" />
    <glyph glyph-name="kcommaaccent" unicode="&#x137;" horiz-adv-x="624" 
d="M182 70q1 -19 10.5 -32t23.5 -13h35v-26h-246v26h35q14 0 23.5 13t10.5 32v458q-1 18 -10.5 31t-23.5 13h-35v27h246v-27h-35q-14 0 -23.5 -12.5t-10.5 -29.5v-189l176 208q1 1 1 10q0 14 -4 14h-32v27h244v-27h-27q-22 0 -42 -8.5t-36 -23.5h1l-207 -221
q56 -62 117.5 -129t117.5 -129q17 -17 33.5 -26t43.5 -10h15v-26h-61q-12 0 -31.5 2t-42.5 8t-45.5 17.5t-40.5 30.5l-180 198v-186zM274 -202h8q15 5 21 17t6 26q0 24 -6 30l-10 11q-6 8 -11.5 15.5t0.5 20.5q4 8 15.5 12.5t26.5 4.5q14 0 28.5 -6.5t20.5 -18.5
q9 -21 9 -37q0 -17 -7.5 -31t-20.5 -25t-29 -18t-34 -8h-15z" />
    <glyph glyph-name="Lacute" unicode="&#x139;" horiz-adv-x="562" 
d="M152 770q32 35 63.5 68t63.5 64h21q14 -14 25.5 -28t18.5 -26h-6q-42 -23 -81 -43.5t-81 -40.5h-18zM480 0h-449v26h36q17 0 27.5 15.5t12.5 37.5v541q-2 22 -12.5 37.5t-27.5 15.5h-36v27h261v-27h-36q-17 0 -27.5 -15.5t-12.5 -37.5v-574h150q32 0 56 9.5t42 26.5
t31.5 40.5t24.5 51.5h22z" />
    <glyph glyph-name="lacute" unicode="&#x13a;" horiz-adv-x="536" 
d="M140 670q32 35 63.5 68t63.5 64h21q14 -14 25.5 -28t18.5 -26h-6q-42 -23 -81 -43.5t-81 -40.5h-18zM504 152h12l-59 -154h-438v26h37q14 0 22.5 13t9.5 32v459q-1 18 -11 31t-24 13h-35v27h248v-27h-35q-14 0 -24 -13t-11 -31v-482h127q56 2 86 32t50 78h16z" />
    <glyph glyph-name="Lcommaaccent" unicode="&#x13b;" horiz-adv-x="562" 
d="M258 -187h8q15 5 21 17t6 26q0 24 -6 30l-10 11q-6 8 -11.5 15.5t0.5 20.5q4 8 15.5 12.5t26.5 4.5q14 0 28.5 -6.5t20.5 -18.5q9 -21 9 -37q0 -17 -7.5 -31t-20.5 -25t-29 -18t-34 -8h-15zM480 0h-449v26h36q17 0 27.5 15.5t12.5 37.5v541q-2 22 -12.5 37.5t-27.5 15.5
h-36v27h261v-27h-36q-17 0 -27.5 -15.5t-12.5 -37.5v-574h117q32 0 56 9.5t42 26.5t31.5 40.5t24.5 51.5h55z" />
    <glyph glyph-name="lcommaaccent" unicode="&#x13c;" horiz-adv-x="536" 
d="M281 -203h8q15 5 21 17t6 26q0 24 -6 30l-10 11q-6 8 -11.5 15.5t0.5 20.5q4 8 15.5 12.5t26.5 4.5q14 0 28.5 -6.5t20.5 -18.5q9 -21 9 -37q0 -17 -7.5 -31t-20.5 -25t-29 -18t-34 -8h-15zM504 152h12l-59 -154h-438v26h37q14 0 22.5 13t9.5 32v459q-1 18 -11 31t-24 13
h-35v27h248v-27h-35q-14 0 -24 -13t-11 -31v-482h127q56 2 86 32t50 78h16z" />
    <glyph glyph-name="Lcaron" unicode="&#x13d;" horiz-adv-x="562" 
d="M348 569h8q16 5 22 17t6 26q0 23 -7 30l-3 3q-9 9 -16 20t-2 23q4 8 16 13t27 5t28.5 -7t19.5 -18q9 -21 9 -37q0 -17 -7.5 -31t-20.5 -25t-29 -18t-34 -8h-15zM480 0h-449v26h36q17 0 27.5 15.5t12.5 37.5v541q-2 22 -12.5 37.5t-27.5 15.5h-36v27h261v-27h-36
q-17 0 -27.5 -15.5t-12.5 -37.5v-574h150q32 0 56 9.5t42 26.5t31.5 40.5t24.5 51.5h22z" />
    <glyph glyph-name="lcaron" unicode="&#x13e;" horiz-adv-x="536" 
d="M340 466h8q16 5 22 17t6 26q0 23 -7 30l-3 3q-9 9 -16 20t-2 23q4 8 16 13t27 5t28.5 -7t19.5 -18q9 -21 9 -37q0 -17 -7.5 -31t-20.5 -25t-29 -18t-34 -8h-15zM516 152l-59 -154h-438v26h37q14 0 22.5 13t9.5 32v459q-1 18 -11 31t-24 13h-35v27h248v-27h-35
q-14 0 -24 -13t-11 -31v-482h161q56 2 86 30t50 76h23z" />
    <glyph glyph-name="Ldot" unicode="&#x13f;" horiz-adv-x="562" 
d="M480 0h-449v26h36q17 0 27.5 15.5t12.5 37.5v541q-2 22 -12.5 37.5t-27.5 15.5h-36v27h261v-27h-36q-17 0 -27.5 -15.5t-12.5 -37.5v-574h117q32 0 56 9.5t42 26.5t31.5 40.5t24.5 51.5h55zM335 403q-19 0 -32 13t-13 32t13 32t32 13t32 -13t13 -32t-13 -32t-32 -13z" />
    <glyph glyph-name="ldot" unicode="&#x140;" horiz-adv-x="536" 
d="M504 152h12l-59 -154h-438v26h37q14 0 22.5 13t9.5 32v459q-1 18 -11 31t-24 13h-35v27h248v-27h-35q-14 0 -24 -13t-11 -31v-482h127q56 2 86 32t50 78h16zM317 341q-19 0 -32 13t-13 32t13 32t32 13t32 -13t13 -32t-13 -32t-32 -13z" />
    <glyph glyph-name="Lslash" unicode="&#x141;" horiz-adv-x="562" 
d="M532 177h16l-62 -176h-449v26h36q17 0 27.5 15.5t12.5 37.5v203q-18 -11 -37.5 -22t-37.5 -21h-20l-23 39h6l120 70h-8v272q-2 22 -12.5 37.5t-27.5 15.5h-36v27h261v-27h-36q-17 0 -27.5 -15.5t-12.5 -37.5v-214l93 55h21l23 -40h-5l-139 -81h7v-295h117q32 0 56 9.5
t42 26.5t31.5 40.5t24.5 51.5h12z" />
    <glyph glyph-name="lslash" unicode="&#x142;" horiz-adv-x="536" 
d="M516 152l-59 -154h-438v26h37q14 0 22.5 13t9.5 32v157l-28 -16l-38 39l66 37v242q-1 18 -11 31t-24 13h-35v27h248v-27h-35q-14 0 -24 -13t-11 -31v-179q25 15 42.5 25t30.5 17.5t22.5 13t18.5 10.5l38 -38l-152 -89v-242h161q56 2 86 30t50 76h23z" />
    <glyph glyph-name="Nacute" unicode="&#x143;" horiz-adv-x="841" 
d="M409 770q32 35 63.5 68t63.5 64h21q14 -14 25.5 -28t18.5 -26h-6q-42 -23 -81 -43.5t-81 -40.5h-18zM765 699h15v-26h-41q-14 0 -24.5 -15t-11.5 -35v-506q0 -23 1.5 -46.5t3.5 -42.5q1 -11 2 -21.5t3 -21.5h-48l-495 528v-437q2 -21 12.5 -36t24.5 -15h41v-26h-248v26
h41q15 0 25.5 15t11.5 37v508q0 25 -1.5 48.5t-3.5 41.5l-5 40h49l495 -528v436q-2 21 -12.5 36t-25.5 15h-41v26h15z" />
    <glyph glyph-name="nacute" unicode="&#x144;" horiz-adv-x="779" 
d="M371 670q32 35 63.5 68t63.5 64h21q14 -14 25.5 -28t18.5 -26h-6q-42 -23 -81 -43.5t-81 -40.5h-18zM736 598h15v-26h-39q-12 0 -21 -12t-11 -29v-414q0 -23 1.5 -46.5t3.5 -42.5q1 -11 2 -21.5t3 -21.5h-47l-470 446v-363q2 -18 11 -30.5t20 -12.5h40v-26h-230v26h40
q12 0 21 12.5t10 30.5v416q0 23 -2 47t-4 42l-6 41h49l469 -441v360q-2 17 -11 29t-20 12h-40v26h15z" />
    <glyph glyph-name="Ncommaaccent" unicode="&#x145;" horiz-adv-x="841" 
d="M375 -202h8q15 5 21 17t6 26q0 24 -6 30l-10 11q-6 8 -11.5 15.5t0.5 20.5q4 8 15.5 12.5t26.5 4.5q14 0 28.5 -6.5t20.5 -18.5q9 -21 9 -37q0 -17 -7.5 -31t-20.5 -25t-29 -18t-34 -8h-15zM765 699h15v-26h-41q-14 0 -24.5 -15t-11.5 -35v-506q0 -23 1.5 -46.5
t3.5 -42.5q1 -11 2 -21.5t3 -21.5h-48l-495 528v-437q2 -21 12.5 -36t24.5 -15h41v-26h-248v26h41q15 0 25.5 15t11.5 37v508q0 25 -1.5 48.5t-3.5 41.5l-5 40h49l495 -528v436q-2 21 -12.5 36t-25.5 15h-41v26h15z" />
    <glyph glyph-name="ncommaaccent" unicode="&#x146;" horiz-adv-x="779" 
d="M349 -203h8q15 5 21 17t6 26q0 24 -6 30l-10 11q-6 8 -11.5 15.5t0.5 20.5q4 8 15.5 12.5t26.5 4.5q14 0 28.5 -6.5t20.5 -18.5q9 -21 9 -37q0 -17 -7.5 -31t-20.5 -25t-29 -18t-34 -8h-15zM736 598h15v-26h-39q-12 0 -21 -12t-11 -29v-414q0 -23 1.5 -46.5t3.5 -42.5
q1 -11 2 -21.5t3 -21.5h-47l-470 446v-363q2 -18 11 -30.5t20 -12.5h40v-26h-230v26h40q12 0 21 12.5t10 30.5v416q0 23 -2 47t-4 42l-6 41h49l469 -441v360q-2 17 -11 29t-20 12h-40v26h15z" />
    <glyph glyph-name="Ncaron" unicode="&#x147;" horiz-adv-x="841" 
d="M442 764h-32l-114 119l6 8h19l105 -61l98 61h19l6 -8zM765 699h15v-26h-41q-14 0 -24.5 -15t-11.5 -35v-506q0 -23 1.5 -46.5t3.5 -42.5q1 -11 2 -21.5t3 -21.5h-48l-495 528v-437q2 -21 12.5 -36t24.5 -15h41v-26h-248v26h41q15 0 25.5 15t11.5 37v508q0 25 -1.5 48.5
t-3.5 41.5l-5 40h49l495 -528v436q-2 21 -12.5 36t-25.5 15h-41v26h15z" />
    <glyph glyph-name="ncaron" unicode="&#x148;" horiz-adv-x="779" 
d="M404 664h-32l-114 119l6 8h19l105 -61l98 61h19l6 -8zM736 598h15v-26h-39q-12 0 -21 -12t-11 -29v-414q0 -23 1.5 -46.5t3.5 -42.5q1 -11 2 -21.5t3 -21.5h-47l-470 446v-363q2 -18 11 -30.5t20 -12.5h40v-26h-230v26h40q12 0 21 12.5t10 30.5v416q0 23 -2 47t-4 42
l-6 41h49l469 -441v360q-2 17 -11 29t-20 12h-40v26h15z" />
    <glyph glyph-name="Eng" unicode="&#x14a;" horiz-adv-x="817" 
d="M764 704h15v-29h-38q-12 0 -20.5 -13t-9.5 -31v-654q0 -41 -12.5 -71.5t-33.5 -51.5t-48 -34t-56 -19h-16l-13 21h7q15 6 29.5 18t26 31t18.5 45.5t7 61.5v59h4l-449 480v-446q2 -18 10.5 -30.5t19.5 -12.5h39v-29h-227v29h39q12 0 20.5 12.5t9.5 30.5v516
q0 25 -1.5 48.5t-3.5 41.5l-5 40h49l497 -530v442q-1 18 -9.5 31t-20.5 13h-38v29h15z" />
    <glyph glyph-name="eng" unicode="&#x14b;" horiz-adv-x="839" 
d="M761 599h15v-26h-39q-11 0 -19 -12t-10 -29v-546q0 -36 -11.5 -63.5t-30.5 -48t-44 -33t-53 -18.5h-15l-13 20h6q29 14 50 50t21 95v37h5q-56 54 -109 103.5t-104.5 99t-104.5 99t-109 103.5v-365q1 -18 10 -30.5t22 -12.5h40v-26h-232v26h40q12 0 21 12.5t11 30.5v419
q0 24 -2 48t-4 42l-6 40h49l474 -447v367q0 17 -9 29t-20 12h-39v26h15z" />
    <glyph glyph-name="Omacron" unicode="&#x14c;" horiz-adv-x="838" 
d="M276 830h291v-50h-291v50zM420 716q83 0 152.5 -26t119 -74t77 -115.5t27.5 -149.5t-27.5 -149t-77 -115t-119 -74.5t-152.5 -26.5t-152.5 26.5t-119 74.5t-77 115t-27.5 149t27.5 149.5t77 115.5t119 74t152.5 26zM420 32q57 0 104 23t80.5 65t51.5 100.5t18 130.5
t-18 131t-51.5 101t-80.5 65t-104 23t-104 -23t-80.5 -65t-52 -101t-18.5 -131t18.5 -130.5t52 -100.5t80.5 -65t104 -23z" />
    <glyph glyph-name="omacron" unicode="&#x14d;" horiz-adv-x="774" 
d="M388 614q73 0 137 -23t112 -64.5t75.5 -99t27.5 -127.5t-27.5 -127.5t-75.5 -99t-112 -64.5t-137 -23t-137.5 23t-112.5 64.5t-75.5 99t-27.5 127.5t27.5 127.5t75.5 99t112.5 64.5t137.5 23zM388 32q49 0 91.5 19.5t73.5 54.5t49 84.5t18 109.5t-18 109.5t-49 84.5
t-73.5 54.5t-91.5 19.5q-50 0 -92.5 -19.5t-73.5 -54.5t-49 -84.5t-18 -109.5t18 -109.5t49 -84.5t73.5 -54.5t92.5 -19.5zM235 730h291v-51h-291v51z" />
    <glyph glyph-name="Ohungarumlaut" unicode="&#x150;" horiz-adv-x="838" 
d="M349 768q15 33 32 66t35 66h14q17 -1 34 -3.5t31 -8.5h5q-27 -30 -56.5 -60t-61.5 -60h-33zM473 766q14 31 29 63t38 69h13q18 0 34.5 -3.5t30.5 -8.5h6q-26 -28 -54 -58t-64 -62h-33zM421 714q83 0 152 -26t118.5 -74t77 -115t27.5 -149t-27.5 -149t-77 -115t-118.5 -74
t-152 -26t-152 26t-118.5 74t-77 115t-27.5 149t27.5 149t77 115t118.5 74t152 26zM421 32q57 0 104 23t80.5 64.5t51.5 100t18 130.5t-18 130.5t-51.5 100t-80.5 64.5t-104 23t-103.5 -23t-80 -64.5t-51.5 -100t-18 -130.5t18 -130.5t51.5 -100t80 -64.5t103.5 -23z" />
    <glyph glyph-name="ohungarumlaut" unicode="&#x151;" horiz-adv-x="774" 
d="M307 668q15 33 32 66t35 66h14q17 -1 34 -3.5t31 -8.5h5q-27 -30 -56.5 -60t-61.5 -60h-33zM431 666q14 31 29 63t38 69h13q18 0 34.5 -3.5t30.5 -8.5h6q-26 -28 -54 -58t-64 -62h-33zM388 614q73 0 137 -23t112 -64.5t75.5 -99t27.5 -127.5t-27.5 -127.5t-75.5 -99
t-112 -64.5t-137 -23t-137.5 23t-112.5 64.5t-75.5 99t-27.5 127.5t27.5 127.5t75.5 99t112.5 64.5t137.5 23zM388 32q49 0 91.5 19.5t73.5 54.5t49 84.5t18 109.5t-18 109.5t-49 84.5t-73.5 54.5t-91.5 19.5q-50 0 -92.5 -19.5t-73.5 -54.5t-49 -84.5t-18 -109.5t18 -109.5
t49 -84.5t73.5 -54.5t92.5 -19.5z" />
    <glyph glyph-name="OE" unicode="&#x152;" horiz-adv-x="962" 
d="M869 -2h-300h-17.5t-25.5 -2l-37 -4q-21 -3 -45.5 -5.5t-42.5 -2.5q-83 0 -151.5 26t-117.5 74t-75.5 115t-26.5 149t26.5 149t75.5 115t117.5 74t151.5 26q21 0 53.5 -2.5t57.5 -6.5q14 -2 28.5 -3t34.5 -1h154q14 0 31.5 2t34.5 5.5t31.5 7t23.5 6.5h20v-143h-59v25
q0 20 -9 34t-23 17h-177v-286h145q11 1 18 12t7 29v23h57v-171h-57v23q0 16 -7 27t-16 13h-146v-276h120q33 0 56.5 9.5t41.5 26.5t31.5 40.5t25.5 51.5h55zM496 627q0 11 -9 18.5t-23 12t-31 6t-33 1.5q-58 0 -105 -23t-80 -64.5t-51 -100t-18 -130.5q0 -71 18 -129.5
t51 -100.5t80 -65t105 -23q16 0 33 2.5t31 7.5t23 12.5t9 17.5v558z" />
    <glyph glyph-name="oe" unicode="&#x153;" horiz-adv-x="885" 
d="M802 -3h-288h-16.5t-25.5 -2l-35 -4q-18 -3 -39.5 -5.5t-39.5 -2.5q-74 0 -135 21.5t-104.5 62t-67 98.5t-23.5 132q0 73 23.5 131.5t67 99t104.5 62t135 21.5q16 0 44.5 -2t56.5 -6q14 -2 28 -3.5t34 -1.5h158q12 0 26.5 2t29 5t27 6.5t20.5 6.5h20v-131h-56v23
q0 17 -7 28.5t-18 14.5h-174v-232h140q17 2 17 34v20h56v-153h-56v21q0 13 -4 22t-12 11h-142v-231h130q50 1 78 32t46 78h55zM441 526q0 11 -7.5 18.5t-19.5 12t-27 6.5t-30 2q-48 0 -87 -18.5t-67 -53.5t-43.5 -85t-15.5 -112t15.5 -112t43.5 -85t67 -53.5t87 -18.5
q15 0 30 2.5t27 8t19.5 13t7.5 17.5v458z" />
    <glyph glyph-name="Racute" unicode="&#x154;" horiz-adv-x="677" 
d="M293 697q98 -2 156 -52.5t58 -139.5q0 -34 -12.5 -66.5t-34.5 -58.5t-52 -44.5t-64 -23.5h7q20 -16 32.5 -30.5t22.5 -26.5l33 -47l13 -18q20 -27 40.5 -54.5t33.5 -40.5q29 -32 56.5 -51.5t67.5 -19.5h15v-26h-77q-39 0 -69 8.5t-52.5 21.5t-38.5 28.5t-28 30.5l-70 100
l-38 54q-5 7 -10.5 15t-10.5 14h1l-10 12q-7 10 -14 18.5t-12 13.5q-6 6 -11.5 10.5t-8.5 5.5q-2 1 -9 2t-17 2v-256q2 -22 12.5 -37.5t27.5 -15.5h36v-26h-260v26h36q17 0 27.5 15.5t12.5 37.5v542q-2 22 -12.5 38t-27.5 16h-36v26h15zM231 359q8 0 28 0.5t43.5 9
t45.5 28.5t34 58h-1q5 20 5 47v9q-2 64 -27.5 101t-70.5 39q-17 1 -33 1.5t-31 0.5q-8 0 -15 -0.5t-13 -0.5h-6v-293h41zM307 770q32 35 63.5 68t63.5 64h21q14 -14 25.5 -28t18.5 -26h-6q-42 -23 -81 -43.5t-81 -40.5h-18z" />
    <glyph glyph-name="racute" unicode="&#x155;" horiz-adv-x="627" 
d="M285 670q32 35 63.5 68t63.5 64h21q14 -14 25.5 -28t18.5 -26h-6q-42 -23 -81 -43.5t-81 -40.5h-18zM271 599q101 -2 161 -45t60 -121q0 -30 -11 -56.5t-31 -48.5t-47 -38t-60 -23h6q19 -15 35 -33t27 -32l27 -37q12 -16 26.5 -34t29.5 -35q28 -32 52 -51.5t59 -19.5h15
v-26h-53q-46 0 -78 8.5t-54.5 21.5t-38 28.5t-27.5 29.5q-5 5 -11.5 13.5t-11.5 16.5q-8 10 -15 21.5t-15 21.5l-44 62q-11 13 -21 24.5t-18 17.5q-17 16 -52 19v-212q1 -18 9.5 -31t22.5 -13h37v-26h-246v26h37q14 0 22.5 12.5t9.5 30.5v461q-1 18 -9.5 30t-22.5 12h-36v27
h15zM225 309h10t11 1q17 0 34.5 1.5t34 9t30.5 23t24 44.5q6 18 6 44q0 11 -1 12q-1 49 -29.5 77t-76.5 31q-10 1 -19 1h-19h-49v-244h44z" />
    <glyph glyph-name="Rcommaaccent" unicode="&#x156;" horiz-adv-x="677" 
d="M328 -190h8q15 5 21 17t6 26q0 24 -6 30l-10 11q-6 8 -11.5 15.5t0.5 20.5q4 8 15.5 12.5t26.5 4.5q14 0 28.5 -6.5t20.5 -18.5q9 -21 9 -37q0 -17 -7.5 -31t-20.5 -25t-29 -18t-34 -8h-15zM293 697q98 -2 156 -52.5t58 -139.5q0 -34 -12.5 -66.5t-34.5 -58.5t-52 -44.5
t-64 -23.5h7q20 -16 32.5 -30.5t22.5 -26.5l33 -47l13 -18q20 -27 40.5 -54.5t33.5 -40.5q29 -32 56.5 -51.5t67.5 -19.5h15v-26h-77q-39 0 -69 8.5t-52.5 21.5t-38.5 28.5t-28 30.5l-70 100l-38 54q-5 7 -10.5 15t-10.5 14h1l-10 12q-7 10 -14 18.5t-12 13.5
q-6 6 -11.5 10.5t-8.5 5.5q-2 1 -9 2t-17 2v-256q2 -22 12.5 -37.5t27.5 -15.5h36v-26h-260v26h36q17 0 27.5 15.5t12.5 37.5v542q-2 22 -12.5 38t-27.5 16h-36v26h15zM231 359h8.5t9.5 1q16 0 35 3.5t37.5 13.5t34.5 28.5t26 49.5h-1q5 20 5 47v9q-2 64 -27.5 101t-70.5 39
q-17 1 -33 1.5t-31 0.5q-8 0 -15 -0.5t-13 -0.5h-6v-293h41z" />
    <glyph glyph-name="rcommaaccent" unicode="&#x157;" horiz-adv-x="627" 
d="M317 -202h8q15 5 21 17t6 26q0 24 -6 30l-10 11q-6 8 -11.5 15.5t0.5 20.5q4 8 15.5 12.5t26.5 4.5q14 0 28.5 -6.5t20.5 -18.5q9 -21 9 -37q0 -17 -7.5 -31t-20.5 -25t-29 -18t-34 -8h-15zM271 599q101 -2 161 -45t60 -121q0 -30 -11 -56.5t-31 -48.5t-47 -38t-60 -23h6
q19 -15 35 -33t27 -32l27 -37q12 -16 26.5 -34t29.5 -35q28 -32 52 -51.5t59 -19.5h15v-26h-53q-46 0 -78 8.5t-54.5 21.5t-38 28.5t-27.5 29.5q-5 5 -11.5 13.5t-11.5 16.5q-8 10 -15 21.5t-15 21.5l-44 62q-11 13 -21 24.5t-18 17.5q-17 16 -52 19v-212q1 -18 9.5 -31
t22.5 -13h37v-26h-246v26h37q14 0 22.5 12.5t9.5 30.5v461q-1 18 -9.5 30t-22.5 12h-36v27h15zM223 309q5 1 11 1h13q14 0 31 1t34.5 8.5t32.5 23t24 45.5q6 18 6 44q0 11 -1 12q-1 49 -29.5 77t-76.5 31q-10 1 -19 1h-19h-49v-244h42z" />
    <glyph glyph-name="Rcaron" unicode="&#x158;" horiz-adv-x="677" 
d="M340 764h-32l-114 119l6 8h19l105 -61l98 61h19l6 -8zM293 697q98 -2 156 -52.5t58 -139.5q0 -34 -12.5 -66.5t-34.5 -58.5t-52 -44.5t-64 -23.5h7q20 -16 32.5 -30.5t22.5 -26.5l33 -47l13 -18q20 -27 40.5 -54.5t33.5 -40.5q29 -32 56.5 -51.5t67.5 -19.5h15v-26h-77
q-39 0 -69 8.5t-52.5 21.5t-38.5 28.5t-28 30.5l-70 100l-38 54q-5 7 -10.5 15t-10.5 14h1l-10 12q-7 10 -14 18.5t-12 13.5q-6 6 -11.5 10.5t-8.5 5.5q-2 1 -9 2t-17 2v-256q2 -22 12.5 -37.5t27.5 -15.5h36v-26h-260v26h36q17 0 27.5 15.5t12.5 37.5v542q-2 22 -12.5 38
t-27.5 16h-36v26h15zM190 359h41h8.5t9.5 1q16 0 35 3.5t37.5 13.5t34.5 28.5t26 49.5h-1q5 20 5 47v9q-2 64 -27.5 101t-70.5 39q-17 1 -33 1.5t-31 0.5q-8 0 -15 -0.5t-13 -0.5h-6v-293z" />
    <glyph glyph-name="rcaron" unicode="&#x159;" horiz-adv-x="627" 
d="M318 664h-32l-114 119l6 8h19l105 -61l98 61h19l6 -8zM271 599q101 -2 161 -45t60 -121q0 -30 -11 -56.5t-31 -48.5t-47 -38t-60 -23h6q19 -15 35 -33t27 -32l27 -37q12 -16 26.5 -34t29.5 -35q28 -32 52 -51.5t59 -19.5h15v-26h-53q-46 0 -78 8.5t-54.5 21.5t-38 28.5
t-27.5 29.5q-5 5 -11.5 13.5t-11.5 16.5q-8 10 -15 21.5t-15 21.5l-44 62q-11 13 -21 24.5t-18 17.5q-17 16 -52 19v-212q1 -18 9.5 -31t22.5 -13h37v-26h-246v26h37q14 0 22.5 12.5t9.5 30.5v461q-1 18 -9.5 30t-22.5 12h-36v27h15zM181 309h42q5 1 11 1h13q14 0 31 1
t34.5 8.5t32.5 23t24 45.5q6 18 6 44q0 11 -1 12q-1 49 -29.5 77t-76.5 31q-10 1 -19 1h-19h-49v-244z" />
    <glyph glyph-name="Sacute" unicode="&#x15a;" horiz-adv-x="475" 
d="M222 770q32 35 63.5 68t63.5 64h21q14 -14 25.5 -28t18.5 -26h-6q-42 -23 -81 -43.5t-81 -40.5h-18zM378 301q34 -32 45.5 -64t11.5 -61q0 -42 -14.5 -77.5t-41.5 -60.5t-65 -39t-85 -14q-20 0 -46 3.5t-52.5 11t-50.5 19.5t-40 30q-3 13 -3 35q0 23 4.5 51.5t13.5 56.5
h10q0 -3 -0.5 -6t-0.5 -5q-1 -5 -1 -9v-8q0 -30 15 -54.5t38 -42t49.5 -26.5t50.5 -9h7q22 1 42 10t35 25t24 38t9 50q0 57 -31 84l-187 174q-32 32 -46.5 65.5t-14.5 62.5q0 32 12.5 63t37.5 55.5t61.5 39.5t83.5 15q22 0 45.5 -2.5t43.5 -7.5l58 -8v-128l-13 -1
q0 32 -13.5 52t-33.5 31t-42.5 14.5t-40.5 3.5q-22 0 -40 -8.5t-30.5 -23t-19.5 -33t-7 -39.5q0 -20 6.5 -43t26.5 -41z" />
    <glyph glyph-name="sacute" unicode="&#x15b;" horiz-adv-x="462" 
d="M215 670q32 35 63.5 68t63.5 64h21q14 -14 25.5 -28t18.5 -26h-6q-42 -23 -81 -43.5t-81 -40.5h-18zM372 262q27 -23 39.5 -53.5t13.5 -58.5q0 -34 -15.5 -64t-42.5 -52.5t-62.5 -35.5t-75.5 -13q-24 0 -50.5 3t-52.5 10t-48.5 17t-38.5 25q-4 15 -4 33q0 20 4 45.5
t13 50.5h11q0 -3 -0.5 -6t-0.5 -5q-1 -5 -1 -8.5v-5.5q0 -27 15 -47.5t37.5 -35t49 -22t50.5 -7.5h6q51 2 79.5 27.5t28.5 71.5q0 47 -27 70l-195 150q-32 27 -43 56.5t-12 55.5q0 31 14.5 59t39 48t58.5 32t73 12q34 0 58.5 -2.5t41.5 -6.5l51 -10l3 -112h-11
q-2 28 -15.5 45t-33 26t-42.5 11.5t-44 2.5q-20 0 -37.5 -7t-30 -18t-20 -26t-7.5 -33q0 -19 5.5 -37t23.5 -33z" />
    <glyph glyph-name="Scedilla" unicode="&#x15e;" horiz-adv-x="475" 
d="M378 301q34 -32 45.5 -64t11.5 -61q0 -80 -49.5 -131t-134.5 -59h10l-36 -42q5 1 10.5 1.5t11.5 0.5q15 0 29.5 -3t26 -10.5t19 -19.5t8.5 -31t-8 -33.5t-25 -25t-36.5 -16t-43.5 -5.5q-13 0 -24.5 2t-22.5 5h-11l1 10h15q13 0 26.5 3t25 10.5t18 20t5.5 30.5
q0 21 -10 31t-24 10q-11 0 -29 -8h-20l-5 10h2l45 59h11q-22 1 -46.5 5t-49 11.5t-46.5 19t-38 27.5q-3 13 -3 36t4.5 51.5t13.5 56.5h53q0 -3 -0.5 -6t-0.5 -5q-1 -5 -1 -9v-8q0 -61 31 -96.5t79 -35.5h7q22 1 42 10t35 25t24 38t9 50q0 57 -31 84l-187 174
q-32 32 -46.5 65.5t-14.5 62.5q0 32 12.5 63t37.5 55.5t61.5 39.5t83.5 15q22 0 45.5 -2.5t43.5 -7.5h58v-136h-56q0 48 -25.5 74t-61.5 26q-22 0 -40 -8.5t-30.5 -23t-19.5 -33t-7 -39.5q0 -20 6.5 -43t26.5 -41z" />
    <glyph glyph-name="scedilla" unicode="&#x15f;" horiz-adv-x="412" 
d="M372 262q27 -23 39.5 -53.5t13.5 -58.5q0 -33 -14.5 -62t-40 -51.5t-59 -36t-72.5 -15.5l-38 -43q5 1 11 1.5t12 0.5q15 0 29.5 -3t26 -10.5t19 -19.5t8.5 -31t-8 -33.5t-25 -25t-36.5 -16t-43.5 -5.5q-13 0 -24.5 2t-22.5 5h-11l1 10h15q13 0 26.5 3t25 10.5t18 20
t5.5 30.5q0 21 -10 31t-24 10q-11 0 -29 -8h-20l-5 10h2l47 61h6q-46 3 -86.5 16t-68.5 39q-4 15 -4 33q0 20 4 45.5t13 50.5h56q0 -3 -0.5 -6t-0.5 -5q-1 -5 -1 -8.5v-5.5q0 -54 29.5 -83t77.5 -29h7q50 2 78.5 27.5t28.5 71.5q0 47 -27 70h1l-196 150q-32 27 -43 56.5
t-12 55.5q0 31 14.5 59t39 48t58.5 32t73 12q34 0 58.5 -2.5t41.5 -6.5h51l3 -122h-58q0 40 -21 62.5t-67 22.5q-20 0 -37.5 -6.5t-30 -18t-20 -26.5t-7.5 -33q0 -19 6 -37t24 -33h-1z" />
    <glyph glyph-name="Scaron" unicode="&#x160;" horiz-adv-x="475" 
d="M255 764h-32l-114 119l6 8h19l105 -61l98 61h19l6 -8zM378 301q34 -32 45.5 -64t11.5 -61q0 -42 -14.5 -77.5t-41.5 -60.5t-65 -39t-85 -14q-20 0 -46 3.5t-52.5 11t-50.5 19.5t-40 30q-3 13 -3 35q0 23 4.5 51.5t13.5 56.5h10q0 -3 -0.5 -6t-0.5 -5q-1 -5 -1 -9v-8
q0 -30 15 -54.5t38 -42t49.5 -26.5t50.5 -9h7q22 1 42 10t35 25t24 38t9 50q0 57 -31 84l-187 174q-32 32 -46.5 65.5t-14.5 62.5q0 32 12.5 63t37.5 55.5t61.5 39.5t83.5 15q22 0 45.5 -2.5t43.5 -7.5l58 -8v-128l-13 -1q0 32 -13.5 52t-33.5 31t-42.5 14.5t-40.5 3.5
q-22 0 -40 -8.5t-30.5 -23t-19.5 -33t-7 -39.5q0 -20 6.5 -43t26.5 -41z" />
    <glyph glyph-name="scaron" unicode="&#x161;" horiz-adv-x="462" 
d="M248 664h-32l-114 119l6 8h19l105 -61l98 61h19l6 -8zM372 262q27 -23 39.5 -53.5t13.5 -58.5q0 -34 -15.5 -64t-42.5 -52.5t-62.5 -35.5t-75.5 -13q-24 0 -50.5 3t-52.5 10t-48.5 17t-38.5 25q-4 15 -4 33q0 20 4 45.5t13 50.5h11q0 -3 -0.5 -6t-0.5 -5q-1 -5 -1 -8.5
v-5.5q0 -27 15 -47.5t37.5 -35t49 -22t50.5 -7.5h6q51 2 79.5 27.5t28.5 71.5q0 47 -27 70l-195 150q-32 27 -43 56.5t-12 55.5q0 31 14.5 59t39 48t58.5 32t73 12q34 0 58.5 -2.5t41.5 -6.5l51 -10l3 -112h-11q-2 28 -15.5 45t-33 26t-42.5 11.5t-44 2.5q-20 0 -37.5 -7
t-30 -18t-20 -26t-7.5 -33q0 -19 5.5 -37t23.5 -33z" />
    <glyph glyph-name="Tcedilla" unicode="&#x162;" horiz-adv-x="618" 
d="M487 701q14 0 31 2t33.5 5t31 7t22.5 8h15v-144h-19v26q0 20 -9 33.5t-23 15.5h-200v-576q2 -22 12.5 -37.5t27.5 -15.5h36v-26h-105q-9 -11 -19 -22t-19 -22q5 1 10.5 1.5t11.5 0.5q15 0 29.5 -3t26 -10.5t19 -19.5t8.5 -31t-8 -33.5t-25 -25t-36.5 -16t-43.5 -5.5
q-13 0 -24.5 2t-22.5 5h-11l1 10h15q13 0 26.5 3t25 10.5t18 20t5.5 30.5q0 21 -10 31t-24 10q-11 0 -29 -8h-20l-5 10h2l47 62h-104v26h36q15 0 26 15t12 37v577h-199q-14 -2 -23 -15.5t-9 -33.5v-26h-20v144h12q9 -4 23.5 -8t31 -7t34 -5t31.5 -2h348z" />
    <glyph glyph-name="tcedilla" unicode="&#x163;" horiz-adv-x="578" 
d="M446 601q13 0 29 2t32 5t29.5 6.5t21.5 6.5h20v-131h-21v23q0 17 -7.5 28.5t-18.5 13.5h-188v-485q1 -18 10.5 -31t23.5 -13h35v-26h-96q-9 -11 -19 -22t-19 -22q5 1 10.5 1.5t11.5 0.5q15 0 29.5 -3t26 -10.5t19 -19.5t8.5 -31t-8 -33.5t-25 -25t-36.5 -16t-43.5 -5.5
q-13 0 -24.5 2t-22.5 5h-11l1 10h15q13 0 26.5 3t25 10.5t18 20t5.5 30.5q0 21 -10 31t-24 10q-11 0 -29 -8h-20l-5 10h2l47 62h-99v26h35q14 0 23 13t11 32v484h-190q-12 -2 -18.5 -13.5t-6.5 -28.5v-23h-21v131h20q8 -3 21.5 -6.5t29.5 -6.5t32 -5t29 -2h316z" />
    <glyph glyph-name="Tcaron" unicode="&#x164;" horiz-adv-x="618" 
d="M325 764h-32l-114 119l6 8h19l105 -61l98 61h19l6 -8zM487 701q14 0 31 2t33.5 5t31 7t22.5 8h15v-144h-19v26q0 20 -9 33.5t-23 15.5h-200v-576q2 -22 12.5 -37.5t27.5 -15.5h36v-26h-261v26h36q15 0 26 15t12 37v577h-199q-14 -2 -23 -15.5t-9 -33.5v-26h-20v144h12
q9 -4 23.5 -8t31 -7t34 -5t31.5 -2h348z" />
    <glyph glyph-name="tcaron" unicode="&#x165;" horiz-adv-x="578" 
d="M159 784l6 8h19l105 -61l98 61h19l6 -8l-106 -119h-33zM446 601q13 0 29 2t32 5t29.5 6.5t21.5 6.5h20v-131h-21v23q0 17 -7.5 28.5t-18.5 13.5h-188v-485q1 -18 10.5 -31t23.5 -13h35v-26h-247v26h35q14 0 23 13t11 32v484h-190q-12 -2 -18.5 -13.5t-6.5 -28.5v-23h-21
v131h20q8 -3 21.5 -6.5t29.5 -6.5t32 -5t29 -2h316z" />
    <glyph glyph-name="Tbar" unicode="&#x166;" horiz-adv-x="618" 
d="M487 701q14 0 31 2t33.5 5t31 7t22.5 8h15v-144h-19v26q0 20 -9 33.5t-23 15.5h-200v-247h154v-46h-154v-283q2 -22 12.5 -37.5t27.5 -15.5h36v-26h-261v26h36q15 0 26 15t12 37v284h-161v46h161v247h-199q-14 -2 -23 -15.5t-9 -33.5v-26h-20v144h12q9 -4 23.5 -8t31 -7
t34 -5t31.5 -2h348z" />
    <glyph glyph-name="tbar" unicode="&#x167;" horiz-adv-x="578" 
d="M446 601q13 0 29 2t32 5t29.5 6.5t21.5 6.5h20v-131h-21v23q0 17 -7.5 28.5t-18.5 13.5h-188v-210h144v-46h-144v-229q1 -18 10.5 -31t23.5 -13h35v-26h-247v26h35q14 0 23 13t11 32v228h-140v46h140v210h-190q-12 -2 -18.5 -13.5t-6.5 -28.5v-23h-21v131h20
q8 -3 21.5 -6.5t29.5 -6.5t32 -5t29 -2h316z" />
    <glyph glyph-name="Umacron" unicode="&#x16a;" horiz-adv-x="785" 
d="M736 701h15v-26h-39q-11 0 -18.5 -11t-9.5 -28v-386q0 -59 -20.5 -108t-58.5 -83.5t-91 -53.5t-117 -19q-66 0 -120 19t-93 53.5t-60 82.5t-21 107v386q-1 17 -9 29t-19 12h-39v26h244v-26h-38q-11 0 -19 -11t-9 -28v-373q0 -52 13.5 -94t37.5 -72t58 -46.5t75 -16.5
q44 0 80 15.5t61.5 44t39.5 68t14 88.5v385q-2 17 -9.5 28t-18.5 11h-39v26h15zM259 830h291v-50h-291v50z" />
    <glyph glyph-name="umacron" unicode="&#x16b;" horiz-adv-x="700" 
d="M203 730h291v-51h-291v51zM662 605h15v-26h-37q-9 0 -16 -9.5t-8 -23.5v-330q0 -53 -18.5 -95.5t-53 -72t-84 -45.5t-111.5 -16t-111.5 15.5t-84.5 45t-53.5 71.5t-18.5 95v330q-1 14 -7.5 24.5t-15.5 10.5h-38v26h232v-26h-38q-8 0 -15 -10.5t-9 -24.5v-317
q0 -93 41.5 -145t116.5 -52q83 0 129 48.5t46 136.5v329q-1 14 -7.5 23.5t-15.5 9.5h-38v26h15z" />
    <glyph glyph-name="Uring" unicode="&#x16e;" horiz-adv-x="785" 
d="M736 701h15v-26h-39q-11 0 -18.5 -11t-9.5 -28v-386q0 -59 -20.5 -108t-58.5 -83.5t-91 -53.5t-117 -19q-66 0 -120 19t-93 53.5t-60 82.5t-21 107v386q-1 17 -9 29t-19 12h-39v26h244v-26h-38q-11 0 -19 -11t-9 -28v-373q0 -52 13.5 -94t37.5 -72t58 -46.5t75 -16.5
q44 0 80 15.5t61.5 44t39.5 68t14 88.5v385q-2 17 -9.5 28t-18.5 11h-39v26h15zM402 914q40 0 66.5 -20t26.5 -55q0 -33 -26.5 -54t-66.5 -21t-66.5 21t-26.5 54t26.5 54t66.5 21zM402 897q-21 0 -35 -15t-14 -43t14 -43t35 -15t35 15t14 43t-14 43t-35 15z" />
    <glyph glyph-name="uring" unicode="&#x16f;" horiz-adv-x="700" 
d="M660 602h15v-27h-38q-9 0 -15.5 -9t-7.5 -23v-328q0 -53 -18.5 -95t-53 -71.5t-84 -45.5t-110.5 -16q-62 0 -111 15.5t-83.5 44.5t-53 71t-18.5 95v328q-2 14 -8.5 24t-15.5 10h-37v27h231v-27h-38q-9 0 -15.5 -10t-7.5 -24v-315q0 -91 41 -143.5t115 -52.5
q83 0 128.5 48.5t45.5 135.5v327q-1 14 -7.5 23.5t-15.5 9.5h-38v26h15zM351 814q40 0 66.5 -20t26.5 -55q0 -33 -26.5 -54t-66.5 -21t-66.5 21t-26.5 54t26.5 54t66.5 21zM351 797q-21 0 -35 -15t-14 -43t14 -43t35 -15t35 15t14 43t-14 43t-35 15z" />
    <glyph glyph-name="Uhungarumlaut" unicode="&#x170;" horiz-adv-x="785" 
d="M322 768q15 33 32 66t35 66h14q17 -1 34 -3.5t31 -8.5h5q-27 -30 -56.5 -60t-61.5 -60h-33zM446 766q14 31 29 63t38 69h13q18 0 34.5 -3.5t30.5 -8.5h6q-26 -28 -54 -58t-64 -62h-33zM736 701h15v-26h-39q-11 0 -18.5 -11t-9.5 -28v-386q0 -59 -20.5 -108t-58.5 -83.5
t-91 -53.5t-117 -19q-66 0 -120 19t-93 53.5t-60 82.5t-21 107v386q-1 17 -9 29t-19 12h-39v26h244v-26h-38q-11 0 -19 -11t-9 -28v-373q0 -52 13.5 -94t37.5 -72t58 -46.5t75 -16.5q44 0 80 15.5t61.5 44t39.5 68t14 88.5v385q-2 17 -9.5 28t-18.5 11h-39v26h15z" />
    <glyph glyph-name="uhungarumlaut" unicode="&#x171;" horiz-adv-x="700" 
d="M270 668q15 33 32 66t35 66h14q17 -1 34 -3.5t31 -8.5h5q-27 -30 -56.5 -60t-61.5 -60h-33zM394 666q14 31 29 63t38 69h13q18 0 34.5 -3.5t30.5 -8.5h6q-26 -28 -54 -58t-64 -62h-33zM660 602h15v-27h-38q-9 0 -15.5 -9t-7.5 -23v-328q0 -53 -18.5 -95t-53 -71.5
t-84 -45.5t-110.5 -16q-62 0 -111 15.5t-83.5 44.5t-53 71t-18.5 95v328q-2 14 -8.5 24t-15.5 10h-37v27h231v-27h-38q-9 0 -15.5 -10t-7.5 -24v-315q0 -91 41 -143.5t115 -52.5q83 0 128.5 48.5t45.5 135.5v327q-1 14 -7.5 23.5t-15.5 9.5h-38v26h15z" />
    <glyph glyph-name="Uogonek" unicode="&#x172;" horiz-adv-x="785" 
d="M736 701h15v-26h-39q-11 0 -18.5 -11t-9.5 -28v-386q0 -54 -17.5 -99t-49.5 -79t-77.5 -55.5t-101.5 -27.5h2q-32 -8 -44.5 -28t-11.5 -49q2 -28 18 -47.5t36 -19.5q17 0 42 25h22l6 -6h3q-10 -28 -38 -42.5t-61 -14.5q-20 0 -38.5 5.5t-32.5 17.5t-23 29.5t-9 41.5
q0 28 22.5 51t55.5 34q-65 1 -117 20.5t-89.5 54t-57.5 82t-20 105.5v386q-1 17 -9 29t-19 12h-39v26h244v-26h-38q-11 0 -19 -11t-9 -28v-373q0 -52 13.5 -94t37.5 -72t58 -46.5t75 -16.5q44 0 80 15.5t61.5 44t39.5 68t14 88.5v385q-2 17 -9.5 28t-18.5 11h-39v26h15z" />
    <glyph glyph-name="uogonek" unicode="&#x173;" horiz-adv-x="700" 
d="M660 602h15v-27h-38q-9 0 -15.5 -9t-7.5 -23v-328q0 -98 -60.5 -156.5t-166.5 -69.5h3q-36 -10 -50 -29t-13 -50q2 -28 18 -47.5t36 -19.5q17 0 42 25h22l6 -6h3q-10 -28 -38 -42.5t-61 -14.5q-20 0 -38.5 5.5t-32.5 17.5t-23 29.5t-9 41.5q0 30 25 53.5t61 34.5
q-59 1 -106.5 17.5t-80.5 45.5t-51 70t-18 93v328q-2 14 -8.5 24t-15.5 10h-37v27h231v-27h-38q-9 0 -15.5 -10t-7.5 -24v-315q0 -91 41 -143.5t115 -52.5q83 0 128.5 48.5t45.5 135.5v327q-1 14 -7.5 23.5t-15.5 9.5h-38v26h15z" />
    <glyph glyph-name="Wcircumflex" unicode="&#x174;" horiz-adv-x="982" 
d="M491 890h32l114 -119l-6 -8h-19l-106 61l-97 -61h-19l-6 8zM989 701h15v-26h-32q-15 0 -34.5 -13.5t-29.5 -41.5l-163 -517h1q0 1 -4 -12h1q-4 -16 -10 -45t-8 -58h-52l-178 500q-32 -98 -63.5 -193t-63.5 -193h1l-9 -36q-4 -17 -7 -37.5t-4 -40.5h-52l-224 632
q-11 28 -30 41t-34 13h-31v26h263v-26h-32q-7 0 -12.5 -8t-5.5 -25q0 -8 2 -16l126 -406q40 125 81 248.5t81 248.5h48l170 -478l112 389h-1q0 2 0.5 2.5t0.5 2.5q1 4 1 11q0 31 -16 31h-32v26h15z" />
    <glyph glyph-name="wcircumflex" unicode="&#x175;" horiz-adv-x="899" 
d="M447 791h32l114 -119l-6 -8h-19l-106 61l-97 -61h-19l-6 8zM898 602h15v-26h-31q-19 0 -33.5 -15t-23.5 -38l-141 -419h1q0 -1 -1 -3q-1 -3 -3 -11q-5 -14 -10.5 -41.5t-7.5 -59.5h-53l-161 410l-105 -296h1q0 1 -2 -9q-4 -14 -10.5 -43.5t-8.5 -61.5h-52l-207 538
q-8 20 -22.5 33.5t-32.5 13.5h-31v26h247v-26h-31q-5 0 -8.5 -6.5t-3.5 -23.5q0 -5 0.5 -9t2.5 -9l107 -324l143 413h49l152 -389l90 299q3 9 3 21q0 28 -10 28h-32v26h15z" />
    <glyph glyph-name="Ycircumflex" unicode="&#x176;" horiz-adv-x="661" 
d="M324 890h32l114 -119l-6 -8h-19l-106 61l-97 -61h-19l-6 8zM669 699h15v-26h-36q-23 0 -44 -16t-35 -37h1l-192 -311h2v-231q1 -22 12 -37.5t27 -15.5h36v-26h-260v26h36q15 0 26 15.5t13 37.5v233h2l-184 309h1q-14 21 -35 37.5t-44 16.5h-37v26h287v-26h-36
q-7 0 -11 -10t-4 -23q0 -12 2 -16l126 -237l137 239q1 2 1 14q0 13 -5 23t-11 10h-36v26h15z" />
    <glyph glyph-name="ycircumflex" unicode="&#x177;" horiz-adv-x="640" 
d="M317 790h32l114 -119l-6 -8h-19l-106 61l-97 -61h-19l-6 8zM656 573h-36q-20 0 -38 -14t-32 -32h1l-185 -280h2v-177q1 -18 10.5 -31t23.5 -13h34v-26h-246v26h34q14 0 23 13t11 31v177h2l-179 280h1q-14 21 -31.5 33.5t-37.5 12.5h-35v27h272v-27h-34q-6 0 -9.5 -7.5
t-3.5 -18.5v-5q0 -2 0.5 -2.5t0.5 -1.5h-2q33 -59 61 -107.5t61 -107.5l130 217h-1v8q0 25 -13 25h-34v27h250v-27z" />
    <glyph glyph-name="Ydieresis" unicode="&#x178;" horiz-adv-x="661" 
d="M669 699h15v-26h-36q-23 0 -44 -16t-35 -37h1l-192 -311h2v-231q1 -22 12 -37.5t27 -15.5h36v-26h-260v26h36q15 0 26 15.5t13 37.5v233h2l-184 309h1q-14 21 -35 37.5t-44 16.5h-37v26h287v-26h-36q-7 0 -11 -10t-4 -23q0 -12 2 -16l126 -237l137 239q1 2 1 14
q0 13 -5 23t-11 10h-36v26h15zM244 762q-17 0 -28 11.5t-11 28.5t11.5 28.5t28.5 11.5t28.5 -11t11.5 -28t-11 -28t-28 -11zM430 760q-17 0 -28 11.5t-11 28.5t11.5 28.5t28.5 11.5t28.5 -11t11.5 -28t-11 -28t-28 -11z" />
    <glyph glyph-name="Zacute" unicode="&#x179;" horiz-adv-x="651" 
d="M307 770q32 35 63.5 68t63.5 64h21q14 -14 25.5 -28t18.5 -26h-6q-42 -23 -81 -43.5t-81 -40.5h-18zM595 1h-556v16l406 639h-336q-14 -2 -24 -16t-10 -34v-26h-21v143h21q9 -4 23.5 -8t31.5 -7t34.5 -5t31.5 -2h271q13 0 28.5 1.5t30.5 4.5t27.5 6t18.5 6h22v-22
l-413 -652h318q44 0 72 35t42 87h20z" />
    <glyph glyph-name="zacute" unicode="&#x17a;" horiz-adv-x="608" 
d="M283 670q32 35 63.5 68t63.5 64h21q14 -14 25.5 -28t18.5 -26h-6q-42 -23 -81 -43.5t-81 -40.5h-18zM593 158l-60 -157h-509v16l358 539h-299q-12 -2 -18.5 -13.5t-6.5 -28.5v-23h-19v130h20q8 -3 21.5 -6.5t29 -6.5t31.5 -5t29 -2h224q14 0 31 1.5t33 4t29.5 5.5t19.5 6
h21v-21l-364 -551h275q56 2 85.5 32t49.5 77z" />
    <glyph glyph-name="Zdotaccent" unicode="&#x17b;" horiz-adv-x="651" 
d="M323 765q-24 0 -41 12.5t-17 30.5t17 30.5t41 12.5t41 -12.5t17 -30.5t-17 -30.5t-41 -12.5zM595 1h-556v16l406 639h-301q-14 -2 -24 -16t-10 -34v-26h-56v143h21q9 -4 23.5 -8t31.5 -7t34.5 -5t31.5 -2h271q13 0 28.5 1.5t30.5 4.5t27.5 6t18.5 6h22v-22l-413 -652h283
q44 0 72 35t42 87h55z" />
    <glyph glyph-name="zdotaccent" unicode="&#x17c;" horiz-adv-x="608" 
d="M298 665q-24 0 -41 12.5t-17 30.5t17 30.5t41 12.5t41 -12.5t17 -30.5t-17 -30.5t-41 -12.5zM577 158h16l-60 -157h-509v16l358 539h-261q-12 -2 -18.5 -13.5t-6.5 -28.5v-23h-57v130h20q8 -3 21.5 -6.5t29 -6.5t31.5 -5t29 -2h224q14 0 31 1.5t33 4t29.5 5.5t19.5 6h21
v-21l-364 -551h238q56 2 85.5 32t49.5 77h12z" />
    <glyph glyph-name="Zcaron" unicode="&#x17d;" horiz-adv-x="651" 
d="M340 764h-32l-114 119l6 8h19l105 -61l98 61h19l6 -8zM595 1h-556v16l406 639h-336q-14 -2 -24 -16t-10 -34v-26h-21v143h21q9 -4 23.5 -8t31.5 -7t34.5 -5t31.5 -2h271q13 0 28.5 1.5t30.5 4.5t27.5 6t18.5 6h22v-22l-413 -652h318q44 0 72 35t42 87h20z" />
    <glyph glyph-name="zcaron" unicode="&#x17e;" horiz-adv-x="608" 
d="M316 664h-32l-114 119l6 8h19l105 -61l98 61h19l6 -8zM593 158l-60 -157h-509v16l358 539h-299q-12 -2 -18.5 -13.5t-6.5 -28.5v-23h-19v130h20q8 -3 21.5 -6.5t29 -6.5t31.5 -5t29 -2h224q14 0 31 1.5t33 4t29.5 5.5t19.5 6h21v-21l-364 -551h275q56 2 85.5 32t49.5 77z
" />
    <glyph glyph-name="florin" unicode="&#x192;" horiz-adv-x="493" 
d="M345 599q12 0 27 2t29 5t26.5 6.5t20.5 6.5h21v-131h-56v22q0 18 -7 30t-19 13h-161v-232h128q17 2 17 34v20h56v-153h-56v21q0 26 -14 33h-131v-271q0 -37 -15.5 -70t-42 -58t-61.5 -39.5t-74 -14.5h-15v23h10q18 6 34 22t28 37.5t19 47.5t7 52v527q-1 17 -9.5 29.5
t-19.5 12.5h-36v26h15z" />
    <glyph glyph-name="Scommaaccent" unicode="&#x218;" horiz-adv-x="472" 
d="M185 -202h8q15 5 21 17.5t6 26.5q0 11 -1.5 19t-4.5 11l-3 3q-9 9 -16.5 20t-1.5 24q4 8 15.5 12t26.5 4q16 0 29.5 -6t19.5 -18q9 -21 9 -37q0 -17 -7.5 -32t-20.5 -26t-29.5 -17.5t-34.5 -6.5h-13zM378 301q34 -32 45.5 -64t11.5 -61q0 -42 -14.5 -77.5t-41.5 -60.5
t-65 -39t-85 -14q-20 0 -46 3.5t-52.5 11t-50.5 19.5t-40 30q-3 13 -3 35q0 23 4.5 51.5t13.5 56.5h10q0 -3 -0.5 -6t-0.5 -5q-1 -5 -1 -9v-8q0 -30 15 -54.5t38 -42t49.5 -26.5t50.5 -9h7q22 1 42 10t35 25t24 38t9 50q0 57 -31 84l-187 174q-32 32 -46.5 65.5t-14.5 62.5
q0 32 12.5 63t37.5 55.5t61.5 39.5t83.5 15q22 0 45.5 -2.5t43.5 -7.5l58 -8v-128l-13 -1q0 32 -13.5 52t-33.5 31t-42.5 14.5t-40.5 3.5q-22 0 -40 -8.5t-30.5 -23t-19.5 -33t-7 -39.5q0 -20 6.5 -43t26.5 -41z" />
    <glyph glyph-name="scommaaccent" unicode="&#x219;" horiz-adv-x="462" 
d="M177 -201h8q15 5 21 17t6 26q0 24 -6 30l-10 11q-6 8 -11.5 15.5t0.5 20.5q4 8 15.5 12.5t26.5 4.5q14 0 28.5 -6.5t20.5 -18.5q9 -21 9 -37q0 -17 -7.5 -31t-20.5 -25t-29 -18t-34 -8h-15zM372 262q27 -23 39.5 -53.5t13.5 -58.5q0 -34 -15.5 -64t-42.5 -52.5
t-62.5 -35.5t-75.5 -13q-24 0 -50.5 3t-52.5 10t-48.5 17t-38.5 25q-4 15 -4 33q0 20 4 45.5t13 50.5h11q0 -3 -0.5 -6t-0.5 -5q-1 -5 -1 -8.5v-5.5q0 -27 15 -47.5t37.5 -35t49 -22t50.5 -7.5h6q51 2 79.5 27.5t28.5 71.5q0 47 -27 70l-195 150q-32 27 -43 56.5t-12 55.5
q0 31 14.5 59t39 48t58.5 32t73 12q34 0 58.5 -2.5t41.5 -6.5l51 -10l3 -112h-11q-2 28 -15.5 45t-33 26t-42.5 11.5t-44 2.5q-20 0 -37.5 -7t-30 -18t-20 -26t-7.5 -33q0 -19 5.5 -37t23.5 -33z" />
    <glyph glyph-name="uni021A" unicode="&#x21a;" horiz-adv-x="618" 
d="M261 -201h8q15 5 21 17t6 26q0 24 -6 30l-10 11q-6 8 -11.5 15.5t0.5 20.5q4 8 15.5 12.5t26.5 4.5q14 0 28.5 -6.5t20.5 -18.5q9 -21 9 -37q0 -17 -7.5 -31t-20.5 -25t-29 -18t-34 -8h-15zM487 701q14 0 31 2t33.5 5t31 7t22.5 8h15v-144h-19v26q0 20 -9 33.5t-23 15.5
h-200v-576q2 -22 12.5 -37.5t27.5 -15.5h36v-26h-261v26h36q15 0 26 15t12 37v577h-199q-14 -2 -23 -15.5t-9 -33.5v-26h-20v144h12q9 -4 23.5 -8t31 -7t34 -5t31.5 -2h348z" />
    <glyph glyph-name="uni021B" unicode="&#x21b;" horiz-adv-x="548" 
d="M237 -201h8q15 5 21 17t6 26q0 24 -6 30l-10 11q-6 8 -11.5 15.5t0.5 20.5q4 8 15.5 12.5t26.5 4.5q14 0 28.5 -6.5t20.5 -18.5q9 -21 9 -37q0 -17 -7.5 -31t-20.5 -25t-29 -18t-34 -8h-15zM446 601q13 0 29 2t32 5t29.5 6.5t21.5 6.5h20v-131h-21v23q0 17 -7.5 28.5
t-18.5 13.5h-188v-485q1 -18 10.5 -31t23.5 -13h35v-26h-247v26h35q14 0 23 13t11 32v484h-190q-12 -2 -18.5 -13.5t-6.5 -28.5v-23h-21v131h20q8 -3 21.5 -6.5t29.5 -6.5t32 -5t29 -2h316z" />
    <glyph glyph-name="circumflex" unicode="&#x2c6;" horiz-adv-x="600" 
d="M261 856h32l114 -119l-6 -8h-19l-106 61l-97 -61h-19l-6 8z" />
    <glyph glyph-name="caron" unicode="&#x2c7;" horiz-adv-x="600" 
d="M301 729h-32l-114 119l6 8h19l105 -61l98 61h19l6 -8z" />
    <glyph glyph-name="breve" unicode="&#x2d8;" horiz-adv-x="440" 
d="M336 854q0 -21 -9.5 -39.5t-25.5 -33t-37.5 -22.5t-45.5 -8t-45.5 8t-37.5 22.5t-25.5 33t-9.5 39.5h39q8 -20 29.5 -37t50.5 -17t50.5 17t29.5 37h37z" />
    <glyph glyph-name="dotaccent" unicode="&#x2d9;" horiz-adv-x="600" 
d="M301 701q-18 0 -30.5 12.5t-12.5 30.5t12.5 30.5t30.5 12.5t30.5 -12.5t12.5 -30.5t-12.5 -30.5t-30.5 -12.5z" />
    <glyph glyph-name="ring" unicode="&#x2da;" horiz-adv-x="600" 
d="M301 849q40 0 66.5 -20t26.5 -55q0 -33 -26.5 -54t-66.5 -21t-66.5 21t-26.5 54t26.5 54t66.5 21zM301 832q-21 0 -35 -15t-14 -43t14 -43t35 -15t35 15t14 43t-14 43t-35 15z" />
    <glyph glyph-name="ogonek" unicode="&#x2db;" horiz-adv-x="600" 
d="M443 -113h1q-10 -28 -38 -42.5t-61 -14.5q-20 0 -38.5 5.5t-32.5 17.5t-23 29.5t-9 41.5q0 20 10 37t28 29t41.5 19t50.5 7l10 -3h-2q-35 -8 -49 -27.5t-13 -50.5q2 -28 18 -47.5t36 -19.5q17 0 42 25h23z" />
    <glyph glyph-name="tilde" unicode="&#x2dc;" horiz-adv-x="600" 
d="M427 779q-5 -37 -26 -58t-55 -21q-21 0 -41 8.5t-36 16.5l-26 13t-17 6q-23 0 -40 -41h-39q5 40 26 62.5t52 22.5q24 0 41 -8t33 -16q14 -8 26.5 -13.5t19.5 -5.5q28 0 41 34h41z" />
    <glyph glyph-name="hungarumlaut" unicode="&#x2dd;" horiz-adv-x="600" 
d="M189 751q15 33 32 66t35 66h14q17 -1 34 -3.5t31 -8.5h5q-27 -30 -56.5 -60t-61.5 -60h-33zM313 749q14 31 29 63t38 69h13q18 0 34.5 -3.5t30.5 -8.5h6q-26 -28 -54 -58t-64 -62h-33z" />
    <glyph glyph-name="commaaccentcomb" unicode="&#x326;" horiz-adv-x="0" 
d="M16 -137h8q15 5 21 17t6 26q0 24 -6 30l-10 11q-6 8 -11.5 15.5t0.5 20.5q4 8 15.5 12.5t26.5 4.5q14 0 28.5 -6.5t20.5 -18.5q9 -21 9 -37q0 -17 -7.5 -31t-20.5 -25t-29 -18t-34 -8h-15z" />
    <glyph glyph-name="Delta" unicode="&#x394;" horiz-adv-x="652" 
d="M660 18v-18h-673v18l312 696h49zM305 553q-57 -128 -113.5 -253.5t-113.5 -253.5h446z" />
    <glyph glyph-name="Omega" unicode="&#x3a9;" horiz-adv-x="808" 
d="M772 155l-53 -154h-277v76h7q31 18 64.5 49.5t62 72t49 88t25.5 99.5v8q0 58 -18.5 108.5t-51 87.5t-77 58t-96.5 21t-97 -22t-78 -60t-52 -89.5t-19 -111.5q0 -56 17.5 -103.5t45.5 -86.5t63 -69t70 -51h7v-76h-274l-53 153h15q13 -23 23.5 -39t21.5 -25.5t23 -13.5
t29 -4h113q-57 29 -97.5 69.5t-67 84.5t-39 86.5t-13.5 74.5v10q0 67 28 125.5t76.5 101.5t115 67.5t143.5 24.5q75 0 140 -25.5t113 -70t75.5 -104.5t27.5 -129q0 -33 -15 -76.5t-43.5 -87.5t-69.5 -84t-94 -67h121q16 0 28 4t23 13.5t21.5 25.5t23.5 39z" />
    <glyph glyph-name="mu" unicode="&#x3bc;" horiz-adv-x="878" 
d="M488 89q0 2 -2 0h2zM794 72q4 -23 16.5 -35t27.5 -12h38v-26h-249v25h38q12 0 12 25v4q-6 47 -11.5 86.5t-10.5 77t-10 77.5l-11 88q-38 -74 -74 -147t-74 -146l-5 -11h1q-5 -14 -15 -39t-15 -54h-49l-202 389l-36 -322q1 -11 4.5 -19t8.5 -8h38v-25h-226v26h37
q17 0 29 12.5t15 35.5l76 540h50l239 -460l230 460h50z" />
    <glyph glyph-name="pi" unicode="&#x3c0;" horiz-adv-x="703" 
d="M664 0h-239v26h34q12 0 20.5 13t9.5 31v439q-1 19 -9.5 32.5t-19.5 13.5h-220q-11 0 -19 -13t-9 -31v-441q1 -18 9.5 -31t20.5 -13h34v-26h-238v26h34q12 0 20.5 13t9.5 31v459q-1 18 -9.5 31t-20.5 13h-34v27h624v-27h-34q-12 0 -20.5 -12.5t-9.5 -29.5v-461
q1 -18 9.5 -31t20.5 -13h33z" />
    <glyph glyph-name="uni0400" unicode="&#x400;" 
d="M348 765h-17q-43 20 -84 41t-79 43h-6q14 26 45 54h20q32 -31 63.5 -64t63.5 -68zM481 -2h-449v26h36q17 0 27.5 15.5t12.5 38.5v546q-2 20 -13.5 34t-25.5 14h-36v26h317q14 0 31 2t33.5 5t31 7t22.5 8h14v-144h-17v26q0 20 -9 33.5t-23 16.5h-214v-285h174
q11 1 18.5 12t7.5 29v22h22v-170h-22v23q0 17 -7 28t-17 12h-175v-277h150q32 0 56 9.5t42 26.5t31.5 40.5t24.5 51.5h21z" />
    <glyph glyph-name="uni0401" unicode="&#x401;" 
d="M181 762q-17 0 -28 11.5t-11 28.5t11.5 28.5t28.5 11.5t28.5 -11t11.5 -28t-11 -28t-28 -11zM367 760q-17 0 -28 11.5t-11 28.5t11.5 28.5t28.5 11.5t28.5 -11t11.5 -28t-11 -28t-28 -11zM481 -2h-449v26h36q17 0 27.5 15.5t12.5 38.5v546q-2 20 -13.5 34t-25.5 14h-36
v26h317q14 0 31 2t33.5 5t31 7t22.5 8h14v-144h-17v26q0 20 -9 33.5t-23 16.5h-214v-285h174q11 1 18.5 12t7.5 29v22h22v-170h-22v23q0 17 -7 28t-17 12h-175v-277h150q32 0 56 9.5t42 26.5t31.5 40.5t24.5 51.5h21z" />
    <glyph glyph-name="uni0402" unicode="&#x402;" horiz-adv-x="742" 
d="M456 703q13 0 29 2t32 5t29.5 6.5t21.5 6.5h20v-131h-14v23q0 17 -7.5 28.5t-18.5 13.5h-195v-273h152q106 -10 165 -62t59 -144q-4 -109 -67 -199q-49 -69 -128 -112q-35 -18 -68 -29t-66 -13h-16v15h10q7 3 29.5 17.5t48.5 32.5t50.5 49t49.5 72q19 36 30.5 79.5
t9.5 81.5q-4 78 -33.5 117t-77.5 49h-148v-338h-178v26h35q14 0 23 13t11 32v586h-193q-12 -2 -18.5 -13.5t-6.5 -28.5v-23h-18v131h20q8 -3 21.5 -6.5t29.5 -6.5t32 -5t29 -2h316z" />
    <glyph glyph-name="uni0403" unicode="&#x403;" horiz-adv-x="544" 
d="M505 526q-11 28 -24.5 51.5t-31.5 40.5t-42 26.5t-56 9.5h-148v-574q2 -22 12.5 -37.5t27.5 -15.5h36v-27h-261v27h36q17 0 27.5 15.5t12.5 37.5v541q-2 22 -12.5 37.5t-27.5 15.5h-36v26h449l62 -174h-24zM217 770q32 35 63.5 68t63.5 64h21q14 -14 25.5 -28t18.5 -26
h-6q-42 -23 -81 -43.5t-81 -40.5h-18z" />
    <glyph glyph-name="uni0404" unicode="&#x404;" horiz-adv-x="748" 
d="M708 141q-41 -67 -114 -111t-183 -44q-82 0 -150.5 26t-118 74t-77 115t-27.5 150q0 81 27 148t76.5 115t119 74t155.5 26q79 0 140.5 -20t107.5 -50h7l21 -151h-18q-11 43 -37.5 76t-62 55t-76.5 33t-81 11q-58 0 -105 -21.5t-80.5 -61t-52 -95t-20.5 -123.5h286
q11 1 18 12t7 29v22h19v-170h-19v23q0 17 -7 28t-17 12h-286q4 -64 25 -115.5t55 -89t78 -60t95 -26.5q46 1 94 15.5t89 46t70 83t38 125.5h17z" />
    <glyph glyph-name="uni0405" unicode="&#x405;" horiz-adv-x="475" 
d="M378 301q34 -32 45.5 -64t11.5 -61q0 -42 -14.5 -77.5t-41.5 -60.5t-65 -39t-85 -14q-20 0 -46 3.5t-52.5 11t-50.5 19.5t-40 30q-3 13 -3 35q0 23 4.5 51.5t13.5 56.5h10q0 -3 -0.5 -6t-0.5 -5q-1 -5 -1 -9v-8q0 -30 15 -54.5t38 -42t49.5 -26.5t50.5 -9h7q22 1 42 10
t35 25t24 38t9 50q0 57 -31 84l-187 174q-32 32 -46.5 65.5t-14.5 62.5q0 32 12.5 63t37.5 55.5t61.5 39.5t83.5 15q22 0 45.5 -2.5t43.5 -7.5l58 -8v-128l-13 -1q0 32 -13.5 52t-33.5 31t-42.5 14.5t-40.5 3.5q-22 0 -40 -8.5t-30.5 -23t-19.5 -33t-7 -39.5q0 -20 6.5 -43
t26.5 -41z" />
    <glyph glyph-name="uni0406" unicode="&#x406;" horiz-adv-x="338" 
d="M300 0h-261v26h36q17 0 27.5 15.5t12.5 37.5v542q-2 22 -12.5 38t-27.5 16h-36v26h261v-26h-36q-17 0 -27.5 -16t-12.5 -38v-542q2 -22 12.5 -37.5t27.5 -15.5h36v-26z" />
    <glyph glyph-name="uni0407" unicode="&#x407;" horiz-adv-x="338" 
d="M300 0h-261v26h36q17 0 27.5 15.5t12.5 37.5v542q-2 22 -12.5 38t-27.5 16h-36v26h261v-26h-36q-17 0 -27.5 -16t-12.5 -38v-542q2 -22 12.5 -37.5t27.5 -15.5h36v-26zM76 762q-17 0 -28 11.5t-11 28.5t11.5 28.5t28.5 11.5t28.5 -11t11.5 -28t-11 -28t-28 -11zM262 760
q-17 0 -28 11.5t-11 28.5t11.5 28.5t28.5 11.5t28.5 -11t11.5 -28t-11 -28t-28 -11z" />
    <glyph glyph-name="uni0408" unicode="&#x408;" horiz-adv-x="324" 
d="M301 675h-36q-15 0 -26.5 -16t-13.5 -38v-614q0 -44 -16 -81t-44.5 -64.5t-66.5 -43t-82 -15.5h-15v22h10q22 8 41 26.5t33 43t22 54.5t8 61v611q-1 22 -12 38t-27 16h-36v25h261v-25z" />
    <glyph glyph-name="uni0409" unicode="&#x409;" horiz-adv-x="966" 
d="M633 341v-271q0 -17 5 -24h80q51 0 78 38t29 104v8q0 27 -5 47h1q-11 33 -28.5 53.5t-37 32t-39.5 15t-36 3.5h-16.5t-13.5 -2zM248 205v-12t-1 -12q-5 -23 -8 -35t-7 -22q-14 -34 -42.5 -62t-68.5 -46q-35 -15 -105 -15h-15v26h12q37 7 58 25t36 42q7 11 12.5 24.5
t10.5 29.5q4 13 7 39v441q-1 18 -9.5 31t-20.5 13h-34v27h624v-27h-34q-12 0 -20.5 -12.5t-9.5 -29.5v-275q26 14 46.5 20.5t49.5 6.5q42 -2 80.5 -13.5t68.5 -34.5t48 -57t18 -80q0 -93 -59.5 -145t-165.5 -52h-259v26h34q12 0 20.5 13t9.5 31v538q-1 19 -9.5 32.5
t-19.5 13.5h-220q-11 0 -19 -13t-9 -31z" />
    <glyph glyph-name="uni040A" unicode="&#x40a;" horiz-adv-x="991" 
d="M668 332v-253q1 -12 3.5 -20t5.5 -13h75q51 0 78 38t29 104v8q0 18 -5 38h1q-11 33 -28.5 53.5t-37 32t-39.5 15t-36 3.5q-15 0 -25 -3h1l-11 -3h-11zM615 0l-117 1h-15v26h36q16 0 27 15.5t12 36.5v245h-353v-244q2 -22 12.5 -37.5t27.5 -15.5h36v-26h-261v26h36
q17 0 27.5 15.5t12.5 37.5v542q-2 22 -12.5 38t-27.5 16h-36v26h261v-26h-36q-17 0 -27.5 -16t-12.5 -38v-252h353v252q-1 21 -12 36.5t-27 15.5h-36v26h260v-26h-35q-17 0 -27.5 -16t-12.5 -38v-274q26 14 46 20.5t49 6.5q42 0 81 -14t66 -34q30 -23 49 -59t19 -69
q0 -93 -59.5 -145t-165.5 -52h-138z" />
    <glyph glyph-name="uni040B" unicode="&#x40b;" horiz-adv-x="742" 
d="M473 384q107 1 158.5 -50.5t51.5 -145.5v-109q2 -22 13 -37.5t28 -15.5h15v-26h-215v26h15q17 0 27.5 15.5t13.5 37.5q0 29 -0.5 59t-0.5 59q-2 65 -29 103.5t-78 37.5h-115v-338h-178v26h35q14 0 23 13t11 32v583h-190q-12 -1 -19 -12.5t-7 -29.5v-23h-20v131h20
q8 -3 21.5 -6.5t29.5 -6.5t32 -5t29 -2h316q13 0 29 2t32 5t29.5 6.5t21.5 6.5h20v-131h-15v23q0 18 -7.5 29.5t-19.5 12.5h-193v-269z" />
    <glyph glyph-name="uni040C" unicode="&#x40c;" horiz-adv-x="657" 
d="M203 79q2 -22 12.5 -37.5t27.5 -15.5h36v-26h-261v26h36q17 0 27.5 15.5t12.5 37.5v542q-2 22 -12.5 38t-27.5 16h-36v26h261v-26h-36q-17 0 -27.5 -16t-12.5 -38v-233q54 63 106 127t106 127h-1q3 4 3 14q0 19 -8 19h-33v25h253v-25h-27q-25 0 -48 -12t-40 -32
l-238 -260l276 -309q35 -35 82 -36h15v-26h-64q-11 0 -31.5 1.5t-44 7.5t-47.5 17.5t-42 31.5l-217 249v-228zM255 770q32 35 63.5 68t63.5 64h21q14 -14 25.5 -28t18.5 -26h-6q-42 -23 -81 -43.5t-81 -40.5h-18z" />
    <glyph glyph-name="uni040D" unicode="&#x40d;" horiz-adv-x="813" 
d="M238 700h15v-26h-41q-15 0 -25.5 -15t-12.5 -36v-436l495 528h49l-5 -40q-2 -18 -3.5 -41.5t-1.5 -48.5v-508q1 -22 11.5 -37t25.5 -15h41v-26h-248v26h41q14 0 24.5 15t12.5 36v437l-495 -528h-48q2 11 3 21.5t2 21.5q2 19 3.5 42.5t1.5 46.5v506q-1 20 -11.5 35
t-24.5 15h-41v26h15zM367 770q32 35 63.5 68t63.5 64h21q14 -14 25.5 -28t18.5 -26h-6q-42 -23 -81 -43.5t-81 -40.5h-18z" />
    <glyph glyph-name="uni040E" unicode="&#x40e;" horiz-adv-x="607" 
d="M426 868q0 -21 -9.5 -39.5t-25.5 -33t-37.5 -22.5t-45.5 -8t-45.5 8t-37.5 22.5t-25.5 33t-9.5 39.5h39q8 -20 29.5 -37t50.5 -17t50.5 17t29.5 37h37zM606 674h-36q-14 0 -26.5 -16.5t-21.5 -37.5q-33 -106 -68.5 -215t-68.5 -215q-9 -30 -25 -68t-45 -70
q-23 -25 -66 -43q-27 -10 -130 -10h-44v29h15q87 0 116 18q11 7 22 17t23 27q17 19 47 103h-1l3 13h1q-198 428 -218 447q-22 22 -34 22h-36v25h241v-24h-29q-14 1 -20 -6t-4 -19q6 -19 40 -98.5t99 -220.5q23 72 47.5 144t47.5 144h-1q-1 22 -12 38t-27 16h-30v26h241v-26z
" />
    <glyph glyph-name="uni040F" unicode="&#x40f;" horiz-adv-x="703" 
d="M380 0q2 -46 12.5 -62t27.5 -16h21v-26h-189v26h22q17 0 27.5 16t12.5 62h-276v27h34q12 0 20.5 13t9.5 31v558q-1 18 -9.5 31t-20.5 13h-34v26h238v-26h-34q-12 0 -20.5 -13t-9.5 -31v-540q1 -18 9 -31t19 -13h220q11 0 19.5 13.5t9.5 32.5v538q-1 18 -9.5 31t-20.5 13
h-34v26h239l-3 -26h-33q-12 0 -20.5 -13t-9.5 -31v-560q1 -17 9.5 -29.5t20.5 -12.5h34v-27h-282z" />
    <glyph glyph-name="uni0410" unicode="&#x410;" horiz-adv-x="712" 
d="M636 85q14 -30 31.5 -43.5t32.5 -13.5h32v-26h-267v26h32q7 0 12.5 8t5.5 24q0 10 -2 18q-15 39 -31 80.5t-30 80.5h-223q-16 -39 -32.5 -80.5t-31.5 -80.5q-2 -10 -2 -18q0 -16 5.5 -24.5t13.5 -8.5h32v-26h-243v26h32q15 0 32 13.5t31 42.5l222 525q10 22 18 42
q6 16 11.5 33t5.5 31h51zM435 285q-13 34 -24 63.5t-22.5 58.5t-22.5 59t-24 65l-96 -246h189z" />
    <glyph glyph-name="uni0411" unicode="&#x411;" 
d="M38 0v27h36q14 0 25.5 14t13.5 34v547q-1 20 -10 32h1l-4 4l-13 12h1q-4 2 -5.5 2.5t-6.5 1.5h-39v26h441l62 -174h-20q-11 28 -24.5 51.5t-31.5 40.5t-42 26.5t-56 9.5h-135q-3 -5 -5.5 -13.5t-3.5 -19.5v-575h121q51 0 78 38t29 104v8q0 27 -5 47h1q-11 33 -28.5 53.5
t-37 32t-39.5 15t-36 3.5q-15 0 -25 -3h1l-11 -3h-20v14h8q26 14 46.5 20.5t49.5 6.5q42 -2 80.5 -13.5t68.5 -34.5t48 -57t18 -80q0 -93 -59.5 -145t-165.5 -52h-306z" />
    <glyph glyph-name="uni0412" unicode="&#x412;" horiz-adv-x="586" 
d="M259 699q113 -2 174 -48t61 -124q0 -52 -28.5 -89t-66.5 -57h-3q75 -20 116.5 -71t41.5 -119q0 -88 -64.5 -140t-186.5 -52h-262v26h36q17 0 27.5 15.5t12.5 37.5v543q0 22 -11.5 37.5t-28.5 15.5h-35v26h15zM300 49q63 2 99 39.5t36 107.5q0 38 -11.5 65.5t-30 46
t-42 29.5t-47.5 16q-17 2 -32.5 3.5t-44.5 2.5v-309zM278 388q18 3 35 11.5t31 24t22.5 39t8.5 57.5q0 63 -30 96.5t-89 33.5h-29v-266q13 0 27.5 1t23.5 3z" />
    <glyph glyph-name="uni0413" unicode="&#x413;" horiz-adv-x="549" 
d="M506 526q-11 28 -24.5 51.5t-31.5 40.5t-42 26.5t-56 9.5h-150v-574q2 -22 12.5 -37.5t27.5 -15.5h36v-27h-261v27h36q17 0 27.5 15.5t12.5 37.5v541q-2 22 -12.5 37.5t-27.5 15.5h-36v26h449l62 -174h-22z" />
    <glyph glyph-name="uni0414" unicode="&#x414;" horiz-adv-x="767" 
d="M753 51l46 -179h-26q-12 30 -25.5 53t-24.5 39q-6 10 -14 17t-16 10q-22 7 -46 9h-538q-13 -1 -34 -9q-16 -5 -26.5 -20t-22.5 -35q-1 -2 -2 -4.5t-6 -7.5h1q-5 -10 -11 -22.5t-13 -29.5h-29l46 180h116q4 4 6 26l108 552q-2 17 -10.5 30.5t-19.5 13.5h-34v27h15l486 -2
h15v-27h-34q-12 0 -20.5 -12.5t-9.5 -29.5v-552q2 -20 7 -27h116zM521 608q-1 19 -9.5 32.5t-19.5 13.5l-125 2q-11 0 -19 -13t-9 -31l-108 -534q1 -8 2.5 -15.5t3.5 -10.5q72 0 138.5 -0.5t138.5 -0.5q5 7 7 27v530z" />
    <glyph glyph-name="uni0415" unicode="&#x415;" 
d="M481 -2h-449v26h36q17 0 27.5 15.5t12.5 38.5v546q-2 20 -13.5 34t-25.5 14h-36v26h317q14 0 31 2t33.5 5t31 7t22.5 8h14v-144h-17v26q0 20 -9 33.5t-23 16.5h-214v-285h174q11 1 18.5 12t7.5 29v22h22v-170h-22v23q0 17 -7 28t-17 12h-175v-277h150q32 0 56 9.5
t42 26.5t31.5 40.5t24.5 51.5h21z" />
    <glyph glyph-name="uni0416" unicode="&#x416;" horiz-adv-x="1024" 
d="M455 307l-217 -249h1q-15 -21 -36.5 -32.5t-44 -17t-43 -7t-33.5 -1.5h-64v26h15q25 1 45 10t37 26l276 309l-238 260q-17 20 -40 32t-48 12h-27v25h244v-25h-33q-8 0 -8 -19q0 -10 3 -14h-1l212 -232v211q-2 22 -12.5 38t-27.5 16h-36v26h261v-26h-36q-17 0 -27.5 -16
t-12.5 -38v-211l212 232h-1q3 4 3 14q0 19 -8 19h-33v25h243v-25h-27q-25 0 -48 -12t-40 -32l-238 -260l276 -309q35 -35 82 -36h15v-26h-64q-15 0 -33.5 1.5t-38.5 7t-41.5 17t-41.5 32.5l-217 249v-228q2 -22 12.5 -37.5t27.5 -15.5h36v-26h-261v26h36q17 0 27.5 15.5
t12.5 37.5v228z" />
    <glyph glyph-name="uni0417" unicode="&#x417;" horiz-adv-x="478" 
d="M38 636h4q26 29 65 51t106 25h16q46 0 83.5 -12t63.5 -33t40 -49t14 -60q0 -26 -10 -50.5t-26.5 -46t-37.5 -38.5t-44 -27q28 -12 53 -26t44 -33.5t30 -46.5t11 -63q0 -35 -26.5 -81t-68.5 -84q-42 -34 -102 -52t-128 -18q-84 9 -103 31h-4l20 108l22 1q-12 -30 -12 -55
q0 -9 8 -15.5t19.5 -11t23 -6.5t18.5 -2q33 5 65 16.5t58 27.5q48 32 67.5 68t22.5 76q0 41 -14 68.5t-39 44t-59.5 23.5t-75.5 8h-14l5 27h15q29 0 58 10t52.5 29t38 47t14.5 64q0 10 -1 12q-1 19 -7 38t-17.5 33t-29.5 23t-43 9q-24 0 -48 -8.5t-43.5 -23.5t-31.5 -36
t-12 -46v-9q0 -3 0.5 -5t0.5 -3h-21z" />
    <glyph glyph-name="uni0418" unicode="&#x418;" horiz-adv-x="813" 
d="M238 701h15v-26h-41q-15 0 -25.5 -15t-12.5 -36v-437l495 528h49l-5 -40q-2 -18 -3.5 -41.5t-1.5 -48.5v-508q1 -22 11.5 -37t25.5 -15h41v-26h-248v26h41q14 0 24.5 15t12.5 36v437l-495 -528h-48q2 11 3 21.5t2 21.5q2 19 3.5 42.5t1.5 46.5v507q-1 20 -11.5 35
t-24.5 15h-41v26h15z" />
    <glyph glyph-name="uni0419" unicode="&#x419;" horiz-adv-x="813" 
d="M238 700h15v-26h-41q-15 0 -25.5 -15t-12.5 -36v-436l495 528h49l-5 -40q-2 -18 -3.5 -41.5t-1.5 -48.5v-508q1 -22 11.5 -37t25.5 -15h41v-26h-248v26h41q14 0 24.5 15t12.5 36v437l-495 -528h-48q2 11 3 21.5t2 21.5q2 19 3.5 42.5t1.5 46.5v506q-1 20 -11.5 35
t-24.5 15h-41v26h15zM523 868q0 -21 -9.5 -39.5t-25.5 -33t-37.5 -22.5t-45.5 -8t-45.5 8t-37.5 22.5t-25.5 33t-9.5 39.5h39q8 -20 29.5 -37t50.5 -17t50.5 17t29.5 37h37z" />
    <glyph glyph-name="uni041A" unicode="&#x41a;" horiz-adv-x="657" 
d="M203 79q2 -22 12.5 -37.5t27.5 -15.5h36v-26h-261v26h36q17 0 27.5 15.5t12.5 37.5v542q-2 22 -12.5 38t-27.5 16h-36v26h261v-26h-36q-17 0 -27.5 -16t-12.5 -38v-233q54 63 106 127t106 127h-1q3 4 3 14q0 19 -8 19h-33v25h253v-25h-27q-25 0 -48 -12t-40 -32
l-238 -260l276 -309q35 -35 82 -36h15v-26h-64q-11 0 -31.5 1.5t-44 7.5t-47.5 17.5t-42 31.5l-217 249v-228z" />
    <glyph glyph-name="uni041F" unicode="&#x41b;" horiz-adv-x="732" 
d="M259 205q1 -10 -1 -22t-5 -24t-6 -21.5t-4 -13.5q-14 -34 -42.5 -62t-68.5 -46q-35 -15 -105 -15h-15v26h12q37 7 58 25t36 42q7 11 12.5 24.5t10.5 29.5q4 13 7 39v441q-1 18 -9.5 31t-20.5 13h-34v27h624v-27h-34q-12 0 -20.5 -12.5t-9.5 -29.5v-560q1 -18 9.5 -31
t20.5 -13h33l3 -26h-239v26h34q12 0 20.5 13t9.5 31v538q-1 19 -9.5 32.5t-19.5 13.5h-220q-11 0 -19 -13t-9 -31z" />
    <glyph glyph-name="uni041C" unicode="&#x41c;" horiz-adv-x="931" 
d="M834 80q5 -23 19 -38.5t30 -15.5h39v-26h-259v25h39q5 0 9.5 10.5t5.5 22.5l-36 406q-42 -94 -84.5 -186.5t-84.5 -186.5q-4 -8 -7.5 -17t-6.5 -18q-5 -14 -10 -32t-8 -38h-50l-216 466q-9 -100 -18 -198.5t-17 -197.5q1 -11 5 -21t10 -10h38v-25h-236v26h39
q16 0 30 15.5t19 38.5q17 153 37 317t37 317h50l253 -548q61 134 124.5 274t123.5 274h50z" />
    <glyph glyph-name="uni041D" unicode="&#x41d;" horiz-adv-x="813" 
d="M522 1h-15v26h36q16 0 27 15.5t12 36.5v245h-353v-244q2 -22 12.5 -37.5t27.5 -15.5h36v-26h-261v26h36q17 0 27.5 15.5t12.5 37.5v542q-2 22 -12.5 38t-27.5 16h-36v26h261v-26h-36q-17 0 -27.5 -16t-12.5 -38v-252h353v252q-1 21 -12 36.5t-27 15.5h-36v26h260v-26h-35
q-17 0 -27.5 -16t-12.5 -38v-541q2 -22 12.5 -37.5t27.5 -15.5h35v-26h-15z" />
    <glyph glyph-name="uni041E" unicode="&#x41e;" horiz-adv-x="838" 
d="M421 714q83 0 152 -26t118.5 -74t77 -115t27.5 -149t-27.5 -149t-77 -115t-118.5 -74t-152 -26t-152 26t-118.5 74t-77 115t-27.5 149t27.5 149t77 115t118.5 74t152 26zM421 32q57 0 104 23t80.5 64.5t51.5 100t18 130.5t-18 130.5t-51.5 100t-80.5 64.5t-104 23
t-103.5 -23t-80 -64.5t-51.5 -100t-18 -130.5t18 -130.5t51.5 -100t80 -64.5t103.5 -23z" />
    <glyph glyph-name="_31" unicode="&#x41f;" horiz-adv-x="703" 
d="M664 0h-239v26h34q12 0 20.5 13t9.5 31v538q-1 19 -9.5 32.5t-19.5 13.5h-220q-11 0 -19 -13t-9 -31v-540q1 -18 9.5 -31t20.5 -13h34v-26h-238v26h34q12 0 20.5 13t9.5 31v558q-1 18 -9.5 31t-20.5 13h-34v27h624v-27h-34q-12 0 -20.5 -12.5t-9.5 -29.5v-560
q1 -18 9.5 -31t20.5 -13h33z" />
    <glyph glyph-name="uni0420" unicode="&#x420;" horiz-adv-x="564" 
d="M222 359h17l11 -3h-1q10 -3 25 -3q16 0 36 3.5t39.5 15t37 31.5t28.5 53h-1q5 22 5 48v8q-2 66 -29 104t-78 38h-90v-295zM313 700q106 0 165.5 -52t59.5 -145q0 -46 -18 -80t-48 -57t-68.5 -35t-80.5 -13q-29 0 -49.5 6.5t-46.5 20.5h-5v-266q2 -22 12.5 -37.5
t27.5 -15.5h36v-26h-261v26h36q17 0 27.5 15.5t12.5 37.5v546q-2 20 -13.5 34t-25.5 14h-36v27h275z" />
    <glyph glyph-name="uni0421" unicode="&#x421;" horiz-adv-x="760" 
d="M708 141q-41 -67 -114 -111t-183 -44q-82 0 -150.5 26t-118 74t-77 115t-27.5 150q0 81 27 148t76.5 115t119 74t155.5 26q79 0 140.5 -20t107.5 -50h7l21 -151h-18q-11 43 -37.5 76t-62 55t-76.5 33t-81 11q-60 0 -107.5 -22.5t-81 -64t-51.5 -100t-18 -129.5
q0 -70 19.5 -127t54 -98t81 -65.5t99.5 -29.5q46 1 94 15.5t89 46t70 83t38 125.5h17z" />
    <glyph glyph-name="uni0422" unicode="&#x422;" horiz-adv-x="618" 
d="M487 701q14 0 31 2t33.5 5t31 7t22.5 8h15v-144h-19v26q0 20 -9 33.5t-23 15.5h-200v-576q2 -22 12.5 -37.5t27.5 -15.5h36v-26h-261v26h36q15 0 26 15t12 37v577h-199q-14 -2 -23 -15.5t-9 -33.5v-26h-20v144h12q9 -4 23.5 -8t31 -7t34 -5t31.5 -2h348z" />
    <glyph glyph-name="uni0423" unicode="&#x423;" horiz-adv-x="609" 
d="M606 674h-36q-14 0 -26.5 -16.5t-21.5 -37.5q-33 -106 -68.5 -215t-68.5 -215q-9 -30 -25 -68t-45 -70q-23 -25 -66 -43q-27 -10 -130 -10h-44v29h15q87 0 116 18q11 7 22 17t23 27q17 19 47 103h-1l3 13h1q-198 428 -218 447q-22 22 -34 22h-36v25h241v-24h-29
q-14 1 -20 -6t-4 -19q6 -19 40 -98.5t99 -220.5q23 72 47.5 144t47.5 144h-1q-1 22 -12 38t-27 16h-30v26h241v-26z" />
    <glyph glyph-name="uni0424" unicode="&#x424;" horiz-adv-x="763" 
d="M318 211h3v295h-88q-52 0 -79 -39t-29 -103v-8q0 -15 1.5 -28t3.5 -20q12 -32 29 -52.5t36.5 -31.5t39.5 -15t36 -4h14.5t11.5 2zM431 211h4l21 -4q5 -2 11.5 -2h14.5q16 0 35.5 4t39 15t37 31.5t29.5 52.5q2 7 3.5 19.5t1.5 28.5v8q-2 64 -29 103t-79 39h-89v-295z
M522 551q109 0 164 -52.5t55 -143.5q0 -44 -17.5 -80t-47 -61.5t-67.5 -39t-78 -13.5q-26 0 -51.5 5t-48.5 17v-104q1 -22 12 -37.5t27 -15.5h36v-26h-260v26h36q16 0 27 15.5t12 37.5v104q-23 -12 -48.5 -17t-50.5 -5q-41 0 -78.5 13.5t-67 39t-47 61.5t-17.5 80
q0 91 55 143.5t164 52.5h90v70q-1 22 -12 38t-27 16h-36v26h260v-26h-36q-16 0 -27 -16t-12 -38v-70h91z" />
    <glyph glyph-name="uni0425" unicode="&#x425;" horiz-adv-x="662" 
d="M690 26v-26h-284v26h35q7 0 11.5 9.5t4.5 23.5q0 8 -2 14h1l-131 205l-130 -205q-2 -6 -2 -15q0 -13 5 -22.5t11 -9.5h36v-26h-268v26h37q22 0 44 16.5t37 37.5h-1q20 31 41 61.5t42 61.5q26 38 50.5 75.5t49.5 75.5l-169 266h1q-14 21 -35.5 37t-44.5 16h-36v27h283v-27
h-36q-6 0 -11 -10t-5 -23q0 -6 0.5 -9t1.5 -5h-1l115 -179q26 42 56.5 89.5t56.5 88.5q2 4 2 16q0 13 -5 22.5t-10 9.5h-36v27h266v-27h-37q-23 0 -44.5 -16t-35.5 -37l-168 -248h1l187 -293h-1q14 -21 34.5 -37t43.5 -16h40z" />
    <glyph glyph-name="uni0426" unicode="&#x426;" horiz-adv-x="713" 
d="M639 673h-33q-12 0 -20.5 -13t-9.5 -31v-560q2 -22 6 -26h72l46 -171h-23q-12 30 -50 92q-11 17 -34 26.5t-54 9.5h-523v27h34q12 0 20.5 13t9.5 31v558q-1 18 -9.5 31t-20.5 13h-34v26h238v-26h-34q-12 0 -20.5 -13t-9.5 -31v-540q1 -18 9 -31t19 -13h220
q11 0 19.5 13.5t9.5 32.5v538q-1 18 -9.5 31t-20.5 13h-34v26h239z" />
    <glyph glyph-name="uni0427" unicode="&#x427;" horiz-adv-x="651" 
d="M70 624q-5 28 -13 36q-15 16 -27 16h-36v26h261v-26h-36q-12 0 -27 -16q-4 -4 -7.5 -14t-5.5 -21q-2 -32 -3 -61t-1 -52v-8q2 -66 29 -104t78 -38h167v259q-2 22 -12.5 38t-27.5 16h-36v26h261v-26h-36q-17 0 -27.5 -16t-12.5 -38v-542q2 -22 12.5 -37.5t27.5 -15.5h36
v-26h-261v26h36q17 0 27.5 15.5t12.5 37.5v237h-168q-110 0 -165 52q-49 47 -49 180q0 33 3 74v2z" />
    <glyph glyph-name="uni0428" unicode="&#x428;" horiz-adv-x="910" 
d="M518 656h1h-1zM520 656q0 -1 -0.5 -1t-0.5 1h1zM394 67q0 -2 1 0h-1zM51 675q2 -2 5 -2q-1 0 -5 2zM887 673h-33q-12 0 -20.5 -13t-9.5 -31v-560q1 -17 9.5 -29.5t20.5 -12.5h34v-27h-865v27h34q5 0 14 4h-3l13 11h-2l3 8l4 10q1 3 1 11v560q-1 20 -10 29l-7 6h6l-9 4h5
q-1 0 -1.5 0.5t-1.5 0.5h-6t-7 2h-33v26h238v-26h-34q-7 0 -20 -13l-4 -4h1q-5 -7 -7 -27v-543h-1q2 -5 2 -6v-2h-4q1 -1 2.5 -2t1.5 -2q2 -5 4 -9.5t4 -6.5q4 -4 8 -7.5t6 -5.5h156q-1 0 3 2q1 0 12 11l4 5l3 4h-3q0 1 2 5h-1q0 1 0.5 1.5t0.5 1.5q0 -3 0.5 -2.5t4.5 6.5
h-3v550q-2 23 -10 31h1q-14 12 -19 13h-36v26h241l-3 -26h-27q-1 -1 -11 -1l-11 -4h6l-10 -8l-4 -4h2q-2 -4 -4.5 -8t-4.5 -12h1v-556q2 -7 4 -13.5t4 -8.5q13 -13 19 -13h149q11 0 19.5 13.5t9.5 32.5v538q-1 18 -9.5 31t-20.5 13h-34v26h239z" />
    <glyph glyph-name="uni0429" unicode="&#x429;" horiz-adv-x="949" 
d="M518 656h1h-1zM520 656q0 -1 -0.5 -1t-0.5 1h1zM394 67q0 -2 1 0h-1zM51 675q2 -2 5 -2q-1 0 -5 2zM887 673h-33q-12 0 -20.5 -13t-9.5 -31v-560q2 -19 6 -25h66l46 -171h-26q-12 30 -25.5 53t-24.5 39q-6 10 -14 17t-16 10q-20 7 -35 8h-778v27h34q5 0 14 4h-3l13 11h-2
l3 8l4 10q1 3 1 11v560q-1 20 -10 29l-7 6h6l-9 4h5q-1 0 -1.5 0.5t-1.5 0.5h-6t-7 2h-33v26h238v-26h-34q-7 0 -20 -13l-4 -4h1q-5 -7 -7 -27v-543h-1q2 -5 2 -6v-2h-4q1 -1 2.5 -2t1.5 -2q2 -5 4 -9.5t4 -6.5q4 -4 8 -7.5t6 -5.5h156q-1 0 3 2q1 0 12 11l4 5l3 4h-3
q0 1 2 5h-1q0 1 0.5 1.5t0.5 1.5q0 -3 0.5 -2.5t4.5 6.5h-3v550q-2 23 -10 31h1q-13 13 -18 13h-37v26h241l-3 -26h-27q-2 -1 -5 -1h-6l-11 -4h6l-5 -4h-11l-3 -2h11l-6 -6h2q-2 -4 -4.5 -8t-4.5 -12h1v-556q2 -7 4 -13.5t4 -8.5q13 -13 19 -13h149q11 0 19.5 13.5t9.5 32.5
v538q-1 18 -9.5 31t-20.5 13h-34v26h239z" />
    <glyph glyph-name="uni042A" unicode="&#x42a;" horiz-adv-x="616" 
d="M292 341v-295h90q51 0 78 38t29 104v8q0 27 -5 47h1q-11 33 -28.5 53.5t-37 32t-39.5 15t-36 3.5q-15 0 -25 -3h1l-11 -3h-17zM108 0v27h36q14 0 25.5 14t13.5 34q0 146 0.5 289.5t0.5 289.5h-121q-12 -1 -19 -12.5t-7 -29.5v-23h-22v131h20q20 -7 50 -13q9 -2 18 -3
t19 -2q11 -1 38 -1.5t71 -0.5h137v-26h-36q-17 0 -27.5 -15.5t-12.5 -37.5v-266h5q26 14 46.5 20.5t49.5 6.5q42 -2 80.5 -13.5t68.5 -34.5t48 -57t18 -80q0 -93 -59.5 -145t-165.5 -52h-275z" />
    <glyph glyph-name="uni042B" unicode="&#x42b;" horiz-adv-x="805" 
d="M222 341v-295h90q51 0 78 38t29 104v8q0 27 -5 47h1q-11 33 -28.5 53.5t-37 32t-39.5 15t-36 3.5q-15 0 -25 -3h1l-11 -3h-17zM38 0v27h36q14 0 25.5 14t13.5 34v546q-2 22 -12.5 37.5t-27.5 15.5h-36v26h261v-26h-36q-17 0 -27.5 -15.5t-12.5 -37.5v-266h5
q26 14 46.5 20.5t49.5 6.5q42 -2 80.5 -13.5t68.5 -34.5t48 -57t18 -80q0 -93 -59.5 -145t-165.5 -52h-275zM777 1h-261v26h36q17 0 27.5 15.5t12.5 37.5v542q-2 22 -12.5 38t-27.5 16h-36v26h261v-26h-36q-17 0 -27.5 -16t-12.5 -38v-542q2 -22 12.5 -37.5t27.5 -15.5h36
v-26z" />
    <glyph glyph-name="uni042C" unicode="&#x42c;" 
d="M222 341v-295h90q51 0 78 38t29 104v8q0 27 -5 47h1q-11 33 -28.5 53.5t-37 32t-39.5 15t-36 3.5q-15 0 -25 -3h1l-11 -3h-17zM38 0v27h36q14 0 25.5 14t13.5 34v546q-2 22 -12.5 37.5t-27.5 15.5h-36v26h261v-26h-36q-17 0 -27.5 -15.5t-12.5 -37.5v-266h5
q26 14 46.5 20.5t49.5 6.5q42 -2 80.5 -13.5t68.5 -34.5t48 -57t18 -80q0 -93 -59.5 -145t-165.5 -52h-275z" />
    <glyph glyph-name="uni042D" unicode="&#x42d;" horiz-adv-x="748" 
d="M58 302q9 -74 37.5 -125.5t69 -83t87.5 -46t94 -15.5q80 7 143 56.5t92 134.5q8 20 12.5 45.5t6.5 54.5h-281q-10 -2 -16.5 -13t-6.5 -27v-23h-26v170h26v-22q0 -18 7 -29t18 -12h279q-1 30 -5.5 60.5t-12.5 53.5q-29 86 -90.5 136.5t-149.5 50.5q-40 0 -80.5 -11
t-75.5 -33t-61 -55t-37 -76h-21l21 151h7q46 30 107.5 50t140.5 20q86 0 155.5 -26t119 -74t76.5 -115t27 -148q0 -83 -27.5 -150t-77 -115t-118 -74t-150.5 -26q-55 0 -101 11.5t-82.5 32.5t-65 49.5t-48.5 61.5l-13 161h20z" />
    <glyph glyph-name="uni042E" unicode="&#x42e;" horiz-adv-x="1047" 
d="M283 1h-261v26h36q17 0 27.5 15.5t12.5 37.5v542q-2 22 -12.5 38t-27.5 16h-36v26h261v-26h-36q-17 0 -27.5 -16t-12.5 -38v-244h72q2 29 9 61t18 60q27 63 77 112t119 77q67 26 152 26q84 0 151 -26q51 -20 92.5 -52.5t70.5 -76t45 -96.5t16 -113q0 -82 -27.5 -149
t-77 -115t-118.5 -74t-152 -26q-128 0 -217.5 57.5t-130.5 157.5q-12 30 -18.5 64.5t-8.5 68.5h-72v-254q2 -22 12.5 -37.5t27.5 -15.5h36v-26zM654 32q57 0 104 23t80.5 64.5t51.5 100t18 130.5t-18 130.5t-51.5 100t-80.5 64.5t-104 23q-83 0 -144.5 -51.5t-90.5 -136.5
q-16 -49 -18 -116v-14q0 -72 18 -130.5t51.5 -100t80 -64.5t103.5 -23z" />
    <glyph glyph-name="uni042F" unicode="&#x42f;" horiz-adv-x="677" 
d="M650 700h15v-26h-36q-17 0 -27.5 -16t-12.5 -38v-542q2 -22 12.5 -37.5t27.5 -15.5h36v-26h-260v26h36q17 0 27.5 15.5t12.5 37.5v256q-22 -1 -31 -6l-17 -14h1l-17 -21q-8 -11 -15.5 -22.5t-15.5 -21.5l-45 -62l-70 -100q-12 -15 -28 -30.5t-38.5 -28.5t-52.5 -21.5
t-69 -8.5h-77v26h15q40 0 67.5 19.5t56.5 51.5q13 13 33.5 40.5t40.5 54.5l13 18l33 47q10 12 22.5 26.5t32.5 30.5h7q-35 5 -64.5 23.5t-51.5 44.5t-34.5 58.5t-12.5 66.5q0 89 58 139.5t156 52.5zM481 359v293h-6q-6 0 -13 0.5t-15 0.5q-15 0 -31 -0.5t-33 -1.5
q-44 -3 -70 -40t-28 -100v-9q0 -27 5 -47h-1q10 -31 26 -49.5t34.5 -28.5t37.5 -13.5t35 -3.5q5 -1 9.5 -1h8.5h41z" />
    <glyph glyph-name="uni0430" unicode="&#x430;" horiz-adv-x="663" 
d="M592 78q13 -27 27 -39.5t26 -12.5h31v-26h-246v26h31q5 0 10 8t5 23q0 10 -2 16q-13 30 -25.5 62t-25.5 62h-207l-52 -121q-2 -3 -2 -19q0 -15 4.5 -23t9.5 -8h31v-26h-232v26h31q12 0 27 12t29 40h-1l202 431q11 23 18 40q7 16 12 33.5t6 31.5h51zM404 243l-83 202
l-86 -202h169z" />
    <glyph glyph-name="uni0431" unicode="&#x431;" horiz-adv-x="553" 
d="M31 -1h-15v27h37q14 0 23.5 12.5t10.5 30.5v460q-1 23 -10 32h1q-14 12 -23 13h-37v26h435l59 -154l-22 -4q-20 48 -50 78t-85 32h-154q-4 -5 -4 -23v-483h92q62 0 96 32t34 87q0 14 -1.5 28t-3.5 22q-11 31 -27 50.5t-34 30t-36.5 14t-33.5 3.5q-21 0 -33 -3l-24 -5h-17
v15h8q29 14 58.5 23t59.5 9q40 0 76.5 -11.5t64.5 -34t44 -55.5t16 -76q0 -40 -18 -72t-50 -54.5t-77 -35t-100 -13.5z" />
    <glyph glyph-name="uni0432" unicode="&#x432;" horiz-adv-x="545" 
d="M244 600q29 0 68 -5t74 -21t59 -47t24 -82q0 -38 -27 -68t-64 -50h-3q68 -17 109.5 -59t41.5 -97q0 -50 -23 -82.5t-58 -52t-77.5 -27.5t-82.5 -8h-264v26h35q14 0 24 13t11 31v459q-1 19 -11 31t-24 12h-35v27h223zM285 46q50 0 86 32t38 93q-3 39 -21 65t-46 41.5
t-64.5 22.5t-77.5 8v-262h85zM253 337q19 3 37.5 9.5t32.5 19.5t22.5 32t8.5 47q0 57 -29 83t-82 26h-43v-220q17 0 28.5 0.5t25.5 2.5h-1z" />
    <glyph glyph-name="uni0433" unicode="&#x433;" horiz-adv-x="513" 
d="M483 441q-20 48 -50 78t-86 32h-166v-482q1 -18 11 -31t24 -13h35v-27h-248v27h35q14 0 24 13t11 31v459q-1 19 -9.5 32t-22.5 13h-37v26h438l59 -154z" />
    <glyph glyph-name="uni0434" unicode="&#x434;" horiz-adv-x="771" 
d="M754 51l46 -179h-23q-12 30 -25.5 53t-24.5 39q-6 10 -14 17t-16 10q-22 7 -46 9h-545q-13 -1 -34 -9q-16 -5 -26.5 -20t-22.5 -35q-1 -2 -2 -4.5t-6 -7.5h1q-5 -10 -11 -22.5t-13 -29.5h-25l46 180h116q4 4 6 26l108 465q-2 17 -10.5 30.5t-19.5 13.5h-34v27h15l486 -2
h15v-27h-34q-12 0 -20.5 -12.5t-9.5 -29.5v-465q2 -20 7 -27h116zM522 521q-1 19 -9.5 32.5t-19.5 13.5h-128q-11 0 -19 -13t-9 -31l-108 -445q1 -8 2.5 -15.5t3.5 -10.5q72 0 139.5 -0.5t140.5 -0.5q5 7 7 27v443z" />
    <glyph glyph-name="uni0435" unicode="&#x435;" horiz-adv-x="546" 
d="M457 -5h-438v26h37q14 0 22.5 13t9.5 32v462q0 18 -9 30.5t-23 12.5h-37v26h308q13 0 29 2t31.5 5t29 6.5t21.5 6.5h20v-131h-19v23q0 18 -7.5 29.5t-19.5 12.5h-215v-230h181q8 1 12.5 10t4.5 23v21h19v-153h-19v21q0 26 -15 33h-182v-230h165q29 1 50 9t36.5 22.5
t27.5 34t22 43.5h18z" />
    <glyph glyph-name="uni0436" unicode="&#x436;" horiz-adv-x="933" 
d="M348 321l-207 221h1q-16 15 -36 23.5t-42 8.5h-27v27h231v-27h-32q-4 0 -4 -14q0 -9 1 -10l178 -192v172q-1 18 -10.5 31t-23.5 13h-35v27h246v-27h-35q-14 0 -23.5 -12.5t-10.5 -29.5v-174q44 48 90 96.5t90 96.5q1 1 1 10q0 14 -4 14h-32v27h232v-27h-27
q-22 0 -42 -8.5t-36 -23.5h1l-207 -221q56 -62 117.5 -129t117.5 -129q17 -17 33.5 -26t43.5 -10h15v-26h-61q-13 0 -32 1.5t-40 6.5q-25 8 -42.5 19.5t-33.5 30.5l-184 202v-190q1 -19 10.5 -32t23.5 -13h35v-26h-246v26h35q14 0 23.5 13t10.5 32v187l-182 -200
q-16 -19 -33 -30.5t-43 -19.5q-20 -5 -39 -6.5t-32 -1.5h-61v26h15q27 1 43.5 10t33.5 26z" />
    <glyph glyph-name="uni0437" unicode="&#x437;" horiz-adv-x="465" 
d="M43 547q21 19 66 42q17 8 44 13.5t59 6.5q29 0 51 -1.5t41 -6t35.5 -11.5t33.5 -18q16 -12 27 -22t14 -18q15 -26 15 -49q0 -8 -2.5 -20t-7.5 -23q-11 -21 -21.5 -34.5t-24 -23t-30 -17t-38.5 -16.5l-12 -5q23 -7 42 -13.5t27 -11.5q26 -15 44 -29t31 -36q12 -29 12 -54
q0 -19 -7 -40t-19 -41q-20 -33 -69 -68q-19 -14 -46 -25t-57 -19q-56 -15 -126 -15q-88 9 -106 38l18 78h19q-5 -8 -6.5 -19t-1.5 -22q0 -9 7 -16t16.5 -11.5t20 -7t16.5 -2.5h9q67 4 122 37q46 26 69 62q8 14 13.5 32.5t7.5 40.5q0 41 -13 61q-20 32 -42 43.5t-54 17.5
q-17 4 -36.5 5.5t-40.5 1.5h-15l4 17h30q10 1 21 1t23 3q11 3 24.5 9t29.5 17q10 7 19.5 19.5t17 27.5t11.5 31.5t4 33.5q0 20 -6.5 35t-17.5 26q-9 9 -20 15t-21.5 9.5t-20 4.5t-14.5 1q-29 0 -54 -5t-44 -17t-30 -32.5t-11 -51.5q0 -5 1 -9l-17 -1z" />
    <glyph glyph-name="uni0438" unicode="&#x438;" horiz-adv-x="773" 
d="M230 606h15v-26h-40q-11 0 -20 -12t-11 -29v-366l469 441h49l-6 -41q-2 -18 -4 -42t-2 -47v-416q1 -18 10 -30.5t21 -12.5h40v-26h-230v26h40q11 0 20 12.5t11 30.5v363l-470 -446h-47q2 11 3 21.5t2 21.5q2 19 3.5 42.5t1.5 46.5v420q-2 17 -11 29t-21 12h-39v26h15z
" />
    <glyph glyph-name="uni0439" unicode="&#x439;" horiz-adv-x="773" 
d="M230 606h15v-26h-40q-11 0 -20 -12t-11 -29v-366l469 441h49l-6 -41q-2 -18 -4 -42t-2 -47v-416q1 -18 10 -30.5t21 -12.5h40v-26h-230v26h40q11 0 20 12.5t11 30.5v363l-470 -446h-47q2 11 3 21.5t2 21.5q2 19 3.5 42.5t1.5 46.5v420q-2 17 -11 29t-21 12h-39v26h15z
M507 768q0 -21 -9.5 -39.5t-25.5 -33t-37.5 -22.5t-45.5 -8t-45.5 8t-37.5 22.5t-25.5 33t-9.5 39.5h39q8 -20 29.5 -37t50.5 -17t50.5 17t29.5 37h37z" />
    <glyph glyph-name="uni043A" unicode="&#x43a;" horiz-adv-x="624" 
d="M528 62q17 -17 33.5 -26t43.5 -10h15v-26h-61q-12 0 -31.5 2t-42.5 8t-45.5 17.5t-40.5 30.5l-217 239l213 252q1 1 1 10q0 14 -4 14h-32v27h244v-27h-27q-22 0 -42 -8.5t-36 -23.5h1l-207 -221zM182 70q1 -19 10.5 -32t23.5 -13h35v-26h-246v26h35q14 0 23.5 13t10.5 32
v458q-1 18 -10.5 31t-23.5 13h-35v27h246v-27h-35q-14 0 -23.5 -12.5t-10.5 -29.5v-460z" />
    <glyph glyph-name="uni043B" unicode="&#x43b;" horiz-adv-x="703" 
d="M248 205v-12t-1 -12q-5 -23 -8 -35t-7 -22q-14 -34 -42.5 -62t-68.5 -46q-35 -15 -105 -15h-15v26h12q37 7 58 25t36 42q7 11 12.5 24.5t10.5 29.5q4 13 7 39v350q-1 18 -9.5 31t-20.5 13h-34v27h624v-27h-34q-12 0 -20.5 -12.5t-9.5 -29.5v-469q1 -18 9.5 -31t20.5 -13
h33l3 -26h-239v26h34q12 0 20.5 13t9.5 31v447q-1 19 -9.5 32.5t-19.5 13.5h-220q-11 0 -19 -13t-9 -31z" />
    <glyph glyph-name="uni043C" unicode="&#x43c;" horiz-adv-x="878" 
d="M488 89q0 2 -2 0h2zM794 72q4 -23 16.5 -35t27.5 -12h38v-26h-249v25h38q12 0 12 25v4q-6 47 -11.5 86.5t-10.5 77t-10 77.5l-11 88q-38 -74 -74 -147t-74 -146l-5 -11h1q-5 -14 -15 -39t-15 -54h-49l-202 389l-36 -322q1 -11 4.5 -19t8.5 -8h38v-25h-226v26h37
q17 0 29 12.5t15 35.5l76 540h50l239 -460l230 460h50z" />
    <glyph glyph-name="uni043D" unicode="&#x43d;" horiz-adv-x="746" 
d="M470 -1h-15v26h34q14 0 23.5 13t10.5 32v203h-312v-203q1 -19 10.5 -32t23.5 -13h34v-26h-245v26h34q14 0 23.5 13t10.5 32v458q-1 18 -10.5 31t-23.5 13h-34v27h245v-27h-35q-13 0 -22 -12.5t-10 -29.5v-211h312v210q-1 18 -10.5 31t-23.5 13h-34v27h245v-27h-34
q-12 0 -21.5 -13t-11.5 -30v-459q1 -19 10.5 -32t23.5 -13h34v-26h-15z" />
    <glyph glyph-name="uni043E" unicode="&#x43e;" horiz-adv-x="743" 
d="M370 614q73 0 137 -23t112 -64.5t75.5 -99t27.5 -127.5t-27.5 -127.5t-75.5 -99t-112 -64.5t-137 -23t-137.5 23t-112.5 64.5t-75.5 99t-27.5 127.5t27.5 127.5t75.5 99t112.5 64.5t137.5 23zM370 32q49 0 91.5 19.5t73.5 54.5t49 84.5t18 109.5t-18 109.5t-49 84.5
t-73.5 54.5t-91.5 19.5q-50 0 -92.5 -19.5t-73.5 -54.5t-49 -84.5t-18 -109.5t18 -109.5t49 -84.5t73.5 -54.5t92.5 -19.5z" />
    <glyph glyph-name="uni043F" unicode="&#x43f;" horiz-adv-x="703" 
d="M664 0h-239v26h34q12 0 20.5 13t9.5 31v439q-1 19 -9.5 32.5t-19.5 13.5h-220q-11 0 -19 -13t-9 -31v-441q1 -18 9.5 -31t20.5 -13h34v-26h-238v26h34q12 0 20.5 13t9.5 31v459q-1 18 -9.5 31t-20.5 13h-34v27h624v-27h-34q-12 0 -20.5 -12.5t-9.5 -29.5v-461
q1 -18 9.5 -31t20.5 -13h33z" />
    <glyph glyph-name="uni0440" unicode="&#x440;" horiz-adv-x="553" 
d="M206 294h8l24 -5q12 -3 33 -3q15 0 33.5 3.5t36.5 14t34 29.5t27 51q2 8 3.5 22t1.5 28q0 55 -34 87t-96 32h-71v-259zM279 599q55 -1 100 -13.5t77 -35t50 -54.5t18 -72q0 -43 -16 -76t-44 -55.5t-64.5 -34t-76.5 -11.5q-30 0 -59 8.5t-58 22.5v-208q1 -19 10 -32
t23 -13h37v-26h-249v26h37q14 0 22.5 13t9.5 32v460q-1 18 -10.5 30.5t-23.5 12.5h-37v27h15z" />
    <glyph glyph-name="uni0441" unicode="&#x441;" horiz-adv-x="705" 
d="M670 120q-20 -31 -50.5 -56t-68.5 -42t-81.5 -26.5t-90.5 -9.5q-80 0 -143.5 22t-108.5 62.5t-69 98.5t-24 131t24 131.5t69 99t108.5 62t143.5 21.5q66 0 130.5 -17t112.5 -46l31 -150h-17q-23 90 -81 128.5t-139 38.5q-52 0 -100 -18.5t-84.5 -53t-58.5 -84.5t-22 -112
q0 -60 22.5 -109t59.5 -83.5t85.5 -54t101.5 -20.5q49 0 91.5 13.5t75 41.5t53 71t24.5 103h17z" />
    <glyph glyph-name="uni0442" unicode="&#x442;" horiz-adv-x="578" 
d="M446 601q13 0 29 2t32 5t29.5 6.5t21.5 6.5h20v-131h-21v23q0 17 -7.5 28.5t-18.5 13.5h-188v-485q1 -18 10.5 -31t23.5 -13h35v-26h-247v26h35q14 0 23 13t11 32v484h-190q-12 -2 -18.5 -13.5t-6.5 -28.5v-23h-21v131h20q8 -3 21.5 -6.5t29.5 -6.5t32 -5t29 -2h316z" />
    <glyph glyph-name="uni0443" unicode="&#x443;" horiz-adv-x="616" 
d="M610 581h-36q-9 0 -27 -15q-8 -8 -21 -35q-34 -91 -68.5 -180.5t-68.5 -180.5q-8 -20 -19 -44t-27.5 -47t-38.5 -42t-52 -29q-14 -4 -51 -6t-87 -2h-46v29h15q33 1 55.5 2.5t39.5 6t33 14.5t37 27h-2q14 18 45 89h-1l4 15h2q-101 187 -155 279t-63 99q-26 21 -36 21h-36
v17h241v-16h-36q-17 0 -17 -22q0 -10 2 -12q2 -10 22.5 -49t59.5 -111l55 -102l95 241h-1q-1 16 -4 24.5t-8 13.5h1q-18 15 -28 15h-30v18h252v-18z" />
    <glyph glyph-name="uni0444" unicode="&#x444;" horiz-adv-x="760" 
d="M322 168h3v263h-88q-47 0 -79 -35q-28 -29 -29 -92v-7q0 -5 0.5 -11.5t1.5 -11.5l4 -19h-1q13 -37 26 -48t23 -19t18 -11q17 -9 35 -11q11 -2 21.5 -2.5t17.5 -0.5h15t16 2zM435 168h1l20 -2q8 -2 15.5 -2.5t14.5 -0.5q16 0 39 3q8 1 19 4t22 9q11 5 36 28h-1
q13 13 26 48h-1q0 1 0.5 1.5t0.5 1.5l3 16q1 5 1.5 11t0.5 12v7q-1 63 -29 92q-32 35 -79 35h-89v-263zM325 154q-22 -10 -46.5 -14t-52.5 -4q-42 0 -78 12q-20 7 -37.5 15.5t-28.5 16.5q-36 28 -47 51q-8 17 -13.5 34.5t-5.5 31.5q0 67 57 118q25 21 66 32.5t96 11.5h90v70
q-2 18 -14 31t-29 13h-36v27h267v-27h-36q-15 0 -27.5 -13t-14.5 -30v-71h91q113 0 163 -44q56 -50 56 -118q0 -16 -5 -34t-13 -32q-6 -11 -19 -24.5t-29 -26.5q-24 -19 -66 -32q-35 -12 -78 -12q-26 0 -51.5 4.5t-48.5 14.5v-85q1 -18 13 -31t29 -13h36v-26h-267v26h36
q17 0 29 13t14 31v84z" />
    <glyph glyph-name="uni0445" unicode="&#x445;" horiz-adv-x="626" 
d="M633 33h19v-29h-277v26h35q5 0 9.5 7.5t4.5 18.5q0 3 1 6t-1 5q-31 45 -58.5 83t-58.5 83l-119 -162q-4 -4 -4 -16q0 -11 4.5 -18.5t10.5 -7.5h35v-26h-259v26h36q20 0 39.5 13.5t33.5 30.5q44 55 88.5 113.5t88.5 113.5l-161 231q-14 17 -34 30.5t-41 13.5h-36v26h275
v-26h-35q-5 0 -9.5 -8t-4.5 -19q0 -4 -1 -6.5t1 -4.5q28 -39 51.5 -74.5t52.5 -75.5q24 35 51 74.5t50 74.5v11q0 11 -4 19t-9 8h-36v26h263v-26h-36q-21 0 -41 -13.5t-34 -32.5l-153 -213q42 -60 85.5 -122.5t85.5 -122.5q14 -17 32 -29.5t37 -14.5z" />
    <glyph glyph-name="uni0446" unicode="&#x446;" horiz-adv-x="713" 
d="M643 573h-33q-12 0 -20.5 -13t-9.5 -31v-460q2 -22 6 -26h72l46 -171h-27q-12 30 -25.5 53t-24.5 39q-11 17 -34 26.5t-54 9.5h-519v27h34q12 0 20.5 13t9.5 31v458q-1 18 -9.5 31t-20.5 13h-34v26h238v-26h-34q-12 0 -20.5 -13t-9.5 -31v-440q1 -18 9 -31t19 -13h220
q11 0 19.5 13.5t9.5 32.5v438q-1 18 -9.5 31t-20.5 13h-34v26h239z" />
    <glyph glyph-name="uni0447" unicode="&#x447;" horiz-adv-x="656" 
d="M77 527q-5 25 -13 34q-16 16 -27 16h-36v24h261v-24h-36q-11 0 -28 -16q-6 -6 -12 -33q-2 -27 -3 -45.5t-1 -38.5v-7q1 -63 29 -92q33 -35 78 -35h167v215q-2 28 -22 44q-7 7 -18 7h-36v24h261v-24h-36q-11 0 -27 -16q-10 -10 -13 -35v-452q2 -13 5 -22.5t6 -12.5
q16 -15 29 -15h36v-23h-261v23h36q10 0 28 15q10 7 12 35v209h-168q-113 0 -165 43q-48 40 -48 151v11v17t2 21v2z" />
    <glyph glyph-name="uni0448" unicode="&#x448;" horiz-adv-x="910" 
d="M518 559h1h-1zM520 559q0 -1 -0.5 -1t-0.5 1h1zM394 67q0 -2 1 0h-1zM51 578q2 -2 5 -2q-1 0 -5 2zM887 576h-33q-12 0 -20.5 -13t-9.5 -31v-463q1 -17 9.5 -29.5t20.5 -12.5h34v-27h-865v27h34q5 0 14 4h-3l13 11h-2l3 8l4 10q1 3 1 11v463q-1 20 -10 29l-7 6h6l-9 4h5
q-1 0 -1.5 0.5t-1.5 0.5h-6t-7 2h-33v26h238v-26h-34q-7 0 -20 -13l-4 -4h1q-5 -7 -7 -27v-446h-1q2 -5 2 -6v-2h-4q1 -1 2.5 -2t1.5 -2q2 -5 4 -9.5t4 -6.5q4 -4 8 -7.5t6 -5.5h156q-1 0 3 2q1 0 12 11l4 5l3 4h-3q0 1 2 5h-1q0 1 0.5 1.5t0.5 1.5q0 -3 0.5 -2.5t4.5 6.5
h-3v453q-2 23 -10 31h1q-14 12 -19 13h-36v26h241l-3 -26h-27q-1 -1 -11 -1l-11 -4h6l-10 -8l-4 -4h2q-2 -4 -4.5 -8t-4.5 -12h1v-459q2 -7 4 -13.5t4 -8.5q13 -13 19 -13h149q11 0 19.5 13.5t9.5 32.5v441q-1 18 -9.5 31t-20.5 13h-34v26h239z" />
    <glyph glyph-name="uni0449" unicode="&#x449;" horiz-adv-x="957" 
d="M518 559h1h-1zM520 559q0 -1 -0.5 -1t-0.5 1h1zM394 67q0 -2 1 0h-1zM51 578q2 -2 5 -2q-1 0 -5 2zM887 576h-33q-12 0 -20.5 -13t-9.5 -31v-463q2 -19 6 -25h69l46 -171h-27q-12 30 -25.5 53t-24.5 39q-6 10 -14 17t-16 10q-20 7 -35 8h-780v27h34q5 0 14 4h-3l13 11h-2
l3 8l4 10q1 3 1 11v463q-1 20 -10 29l-7 6h6l-9 4h5q-1 0 -1.5 0.5t-1.5 0.5h-6t-7 2h-33v26h238v-26h-34q-7 0 -20 -13l-4 -4h1q-5 -7 -7 -27v-446h-1q2 -5 2 -6v-2h-4q1 -1 2.5 -2t1.5 -2q2 -5 4 -9.5t4 -6.5q4 -4 8 -7.5t6 -5.5h156q-1 0 3 2q1 0 12 11l4 5l3 4h-3
q0 1 2 5h-1q0 1 0.5 1.5t0.5 1.5q0 -3 0.5 -2.5t4.5 6.5h-3v453q-2 23 -10 31h1q-13 13 -18 13h-37v26h241l-3 -26h-27q-2 -1 -5 -1h-6l-11 -4h6l-5 -4h-11l-3 -2h11l-6 -6h2q-2 -4 -4.5 -8t-4.5 -12h1v-459q2 -7 4 -13.5t4 -8.5q13 -13 19 -13h149q11 0 19.5 13.5t9.5 32.5
v441q-1 18 -9.5 31t-20.5 13h-34v26h239z" />
    <glyph glyph-name="uni044A" unicode="&#x44a;" horiz-adv-x="615" 
d="M286 305v-259h71q62 0 96 32t34 87q0 14 -1.5 28t-3.5 22q-11 31 -27 50.5t-34 30t-36.5 14t-33.5 3.5q-21 0 -33 -3l-24 -5h-8zM120 -1h-15v27h37q14 0 23.5 12.5t10.5 30.5q0 121 -0.5 242.5t-0.5 242.5h-117q-12 -1 -19 -12.5t-7 -29.5v-23h-19v131h20q8 -3 21 -6.5
t29 -6.5q9 -2 20 -3t23 -2q14 -1 42 -1.5t72 -0.5h116v-26h-37q-14 0 -23 -13t-10 -32v-209q29 14 58 23t59 9q40 0 76.5 -11.5t64.5 -34t44 -55.5t16 -76q0 -40 -18 -72t-50 -54.5t-77 -35t-100 -13.5z" />
    <glyph glyph-name="uni044B" unicode="&#x44b;" horiz-adv-x="769" 
d="M206 305v-259h71q62 0 96 32t34 87q0 14 -1.5 28t-3.5 22q-11 31 -27 50.5t-34 30t-36.5 14t-33.5 3.5q-21 0 -33 -3l-24 -5h-8zM40 -1h-15v27h37q14 0 23.5 12.5t10.5 30.5v460q-1 19 -9.5 32t-22.5 13h-37v26h249v-26h-37q-14 0 -23 -13t-10 -32v-209q29 14 58 23t59 9
q40 0 76.5 -11.5t64.5 -34t44 -55.5t16 -76q0 -40 -18 -72t-50 -54.5t-77 -35t-100 -13.5zM486 25h36q17 0 29 13t14 31v459q-2 18 -14 31t-29 13h-36v27h267v-27h-36q-15 0 -27.5 -13t-14.5 -30v-460q1 -18 13 -31t29 -13h36v-26h-267v26z" />
    <glyph glyph-name="uni044C" unicode="&#x44c;" horiz-adv-x="553" 
d="M206 305v-259h71q62 0 96 32t34 87q0 14 -1.5 28t-3.5 22q-11 31 -27 50.5t-34 30t-36.5 14t-33.5 3.5q-21 0 -33 -3l-24 -5h-8zM40 -1h-15v27h37q14 0 23.5 12.5t10.5 30.5v460q-1 19 -9.5 32t-22.5 13h-37v26h249v-26h-37q-14 0 -23 -13t-10 -32v-209q29 14 58 23t59 9
q40 0 76.5 -11.5t64.5 -34t44 -55.5t16 -76q0 -40 -18 -72t-50 -54.5t-77 -35t-100 -13.5z" />
    <glyph glyph-name="uni044D" unicode="&#x44d;" horiz-adv-x="705" 
d="M55 262q4 -60 30 -103t65 -71t87.5 -41.5t98.5 -13.5q36 1 68 13.5t59.5 34t49 50t35.5 60.5q6 18 10 40.5t6 47.5h-282q-10 -2 -16.5 -13t-6.5 -27v-23h-24v170h24v-22q0 -18 7.5 -29t18.5 -12h279q-2 25 -6 48t-10 41q-26 71 -81 113.5t-130 42.5q-41 0 -81 -9
t-74.5 -29.5t-60.5 -52t-38 -76.5h-21l24 150h7q48 29 112.5 46t130.5 17q79 0 143 -21.5t109 -62t69 -99t24 -131.5t-24 -131t-69 -98.5t-109 -62.5t-143 -22q-47 0 -90.5 9.5t-81.5 26.5t-68.5 42t-50.5 56l-11 142h21z" />
    <glyph glyph-name="uni044E" unicode="&#x44e;" horiz-adv-x="994" 
d="M11 25h36q17 0 29 13t14 31v459q-2 18 -14 31t-29 13h-36v27h267v-27h-36q-15 0 -27.5 -13t-14.5 -30v-207h74q2 26 9 53.5t18 51.5q27 54 75.5 97t113.5 67q63 23 137 23q73 0 136 -23q48 -18 87.5 -46t68 -65.5t44.5 -82.5t16 -97q0 -70 -27.5 -127.5t-75.5 -99
t-112 -64.5t-137 -23q-56 0 -106.5 13t-92.5 37.5t-74.5 59t-52.5 76.5q-12 26 -18.5 53t-8.5 53h-74v-209q1 -18 13 -31t29 -13h36v-26h-267v26zM627 32q49 0 91.5 19.5t73.5 54.5t49 84.5t18 109.5t-18 109.5t-49 84.5t-73.5 54.5t-91.5 19.5q-50 0 -92.5 -19.5
t-73.5 -54.5t-49 -84.5t-18 -109.5t18 -109.5t49 -84.5t73.5 -54.5t92.5 -19.5z" />
    <glyph glyph-name="uni044F" unicode="&#x44f;" horiz-adv-x="627" 
d="M604 600h15v-27h-36q-14 0 -22.5 -12t-9.5 -30v-461q1 -18 9.5 -30.5t22.5 -12.5h37v-26h-246v26h37q14 0 22.5 13t9.5 31v212q-35 -3 -52 -19q-8 -6 -18 -17.5t-21 -24.5l-44 -62l-30 -43q-6 -8 -12 -16.5t-11 -13.5q-12 -14 -27.5 -29.5t-38 -28.5t-54.5 -21.5
t-78 -8.5h-53v26h15q35 0 59 19.5t52 51.5q15 17 29.5 35t26.5 34l27 36q11 15 27.5 33.5t34.5 32.5h6q-33 7 -60 23t-47 38t-31 48.5t-11 56.5q0 78 60 121t161 45zM443 309v244h-49h-19t-19 -1q-48 -3 -76.5 -31t-29.5 -77q-1 -1 -1 -12q0 -26 6 -44q9 -30 24 -45.5
t32.5 -23t34.5 -8.5t31 -1h13t11 -1h42z" />
    <glyph glyph-name="uni0450" unicode="&#x450;" horiz-adv-x="546" 
d="M334 665h-17q-43 20 -84 41t-79 43h-6q14 26 45 54h20q32 -31 63.5 -64t63.5 -68zM457 -5h-438v26h37q14 0 22.5 13t9.5 32v462q0 18 -9 30.5t-23 12.5h-37v26h308q13 0 29 2t31.5 5t29 6.5t21.5 6.5h20v-131h-19v23q0 18 -7.5 29.5t-19.5 12.5h-215v-230h181
q8 1 12.5 10t4.5 23v21h19v-153h-19v21q0 26 -15 33h-182v-230h165q29 1 50 9t36.5 22.5t27.5 34t22 43.5h18z" />
    <glyph glyph-name="uni0451" unicode="&#x451;" horiz-adv-x="546" 
d="M164 662q-17 0 -28 11.5t-11 28.5t11.5 28.5t28.5 11.5t28.5 -11t11.5 -28t-11 -28t-28 -11zM350 660q-17 0 -28 11.5t-11 28.5t11.5 28.5t28.5 11.5t28.5 -11t11.5 -28t-11 -28t-28 -11zM457 -5h-438v26h37q14 0 22.5 13t9.5 32v462q0 18 -9 30.5t-23 12.5h-37v26h308
q13 0 29 2t31.5 5t29 6.5t21.5 6.5h20v-131h-19v23q0 18 -7.5 29.5t-19.5 12.5h-215v-230h181q8 1 12.5 10t4.5 23v21h19v-153h-19v21q0 26 -15 33h-182v-230h165q29 1 50 9t36.5 22.5t27.5 34t22 43.5h18z" />
    <glyph glyph-name="uni0452" unicode="&#x452;" horiz-adv-x="732" 
d="M449 601q13 0 29 2t32 5t29.5 6.5t21.5 6.5h20v-131h-22v23q0 18 -7.5 29.5t-19.5 12.5h-186v-180h151q106 0 165.5 -52t59.5 -145q-4 -109 -67 -199q-49 -69 -128 -112q-35 -18 -68 -29t-66 -13h-16v15h10q7 3 29.5 17.5t48.5 32.5t50.5 49t49.5 72q19 36 30.5 79.5
t9.5 81.5q-4 81 -31 119t-78 38h-150v-329h-178v26h35q14 0 23 13t11 32v484h-185q-12 -2 -18.5 -13.5t-6.5 -28.5v-23h-26v131h20q8 -3 21.5 -6.5t29.5 -6.5t32 -5t29 -2h316z" />
    <glyph glyph-name="uni0453" unicode="&#x453;" horiz-adv-x="536" 
d="M494 441q-20 48 -50 78t-86 32h-162v-482q1 -18 11 -31t24 -13h35v-27h-248v27h35q14 0 24 13t11 31v459q-1 19 -9.5 32t-22.5 13h-37v26h438l59 -154zM230 670q32 35 63.5 68t63.5 64h21q14 -14 25.5 -28t18.5 -26h-6q-42 -23 -81 -43.5t-81 -40.5h-18z" />
    <glyph glyph-name="uni0454" unicode="&#x454;" horiz-adv-x="705" 
d="M670 120q-20 -31 -50.5 -56t-68.5 -42t-81.5 -26.5t-90.5 -9.5q-80 0 -143.5 22t-108.5 62.5t-69 98.5t-24 131t24 131.5t69 99t108.5 62t143.5 21.5q66 0 130.5 -17t112.5 -46l31 -150h-17q-23 90 -81 128.5t-139 38.5q-50 0 -96 -17t-82 -48.5t-59 -77t-27 -102.5h277
q11 1 18 12t7 29v22h26v-170h-26v23q0 17 -7 28t-17 12h-278q4 -56 27.5 -100.5t60.5 -76.5t83.5 -50t96.5 -19q49 0 91.5 13.5t75 41.5t53 71t24.5 103h17z" />
    <glyph glyph-name="uni0455" unicode="&#x455;" horiz-adv-x="462" 
d="M372 262q27 -23 39.5 -53.5t13.5 -58.5q0 -34 -15.5 -64t-42.5 -52.5t-62.5 -35.5t-75.5 -13q-24 0 -50.5 3t-52.5 10t-48.5 17t-38.5 25q-4 15 -4 33q0 20 4 45.5t13 50.5h11q0 -3 -0.5 -6t-0.5 -5q-1 -5 -1 -8.5v-5.5q0 -27 15 -47.5t37.5 -35t49 -22t50.5 -7.5h6
q51 2 79.5 27.5t28.5 71.5q0 47 -27 70l-195 150q-32 27 -43 56.5t-12 55.5q0 31 14.5 59t39 48t58.5 32t73 12q34 0 58.5 -2.5t41.5 -6.5l51 -10l3 -112h-11q-2 28 -15.5 45t-33 26t-42.5 11.5t-44 2.5q-20 0 -37.5 -7t-30 -18t-20 -26t-7.5 -33q0 -19 5.5 -37t23.5 -33z
" />
    <glyph glyph-name="uni0456" unicode="&#x456;" horiz-adv-x="336" 
d="M29 26h36q17 0 29 13t14 31v459q-2 18 -14 31t-29 13h-36v27h267v-27h-36q-15 0 -27.5 -13t-14.5 -30v-460q1 -18 13 -31t29 -13h36v-26h-267v26z" />
    <glyph glyph-name="uni0457" unicode="&#x457;" horiz-adv-x="336" 
d="M29 26h36q17 0 29 13t14 31v459q-2 18 -14 31t-29 13h-36v27h267v-27h-36q-15 0 -27.5 -13t-14.5 -30v-460q1 -18 13 -31t29 -13h36v-26h-267v26zM74 662q-17 0 -28 11.5t-11 28.5t11.5 28.5t28.5 11.5t28.5 -11t11.5 -28t-11 -28t-28 -11zM260 660q-17 0 -28 11.5
t-11 28.5t11.5 28.5t28.5 11.5t28.5 -11t11.5 -28t-11 -28t-28 -11z" />
    <glyph glyph-name="uni0458" unicode="&#x458;" horiz-adv-x="309" 
d="M293 573h-36q-17 0 -28.5 -13t-12.5 -32v-524q0 -37 -17 -70t-46.5 -58t-67.5 -39.5t-80 -14.5h-15v24h11q21 6 40 22t33.5 37.5t23 47t8.5 51.5v528q-2 17 -13.5 29t-26.5 12h-36v27h263v-27z" />
    <glyph glyph-name="uni0459" unicode="&#x459;" horiz-adv-x="962" 
d="M633 304v-234q2 -18 5 -25h66q62 0 96 32t34 87q0 14 -1.5 28t-3.5 22q-11 31 -27 50.5t-34 30t-36.5 14t-33.5 3.5q-21 0 -33 -3l-24 -5h-8zM248 205v-12t-1 -12q-5 -23 -8 -35t-7 -22q-14 -34 -42.5 -62t-68.5 -46q-35 -15 -105 -15h-15v26h12q37 7 58 25t36 42
q7 11 12.5 24.5t10.5 29.5q4 13 7 39v350q-1 18 -9.5 31t-20.5 13h-34v27h624v-27h-34q-12 0 -20.5 -12.5t-9.5 -29.5v-220q29 14 58 23t59 9q40 0 76.5 -11.5t64.5 -34t44 -55.5t16 -76q0 -60 -39.5 -100.5t-108.5 -61.5q-16 -5 -47 -7.5t-72 -4.5q-11 -1 -27 -1t-28 1
h-169v26h34q12 0 20.5 13t9.5 31v447q-1 19 -9.5 32.5t-19.5 13.5h-220q-11 0 -19 -13t-9 -31z" />
    <glyph glyph-name="uni045A" unicode="&#x45a;" horiz-adv-x="964" 
d="M634 294v-223q1 -8 2.5 -15.5t3.5 -10.5h64q62 0 96 32t34 77q0 14 -1.5 28t-3.5 22q-11 31 -27 50.5t-34 30t-36.5 14t-33.5 3.5q-21 0 -33 -3l-24 -5h-7zM470 -1h-15v26h34q14 0 23.5 13t10.5 32v203h-312v-203q1 -19 10.5 -32t23.5 -13h34v-26h-245v26h34
q14 0 23.5 13t10.5 32v458q-1 18 -10.5 31t-23.5 13h-34v27h245v-27h-35q-13 0 -22 -12.5t-10 -29.5v-211h312v210q-1 18 -10.5 31t-23.5 13h-34v27h245v-27h-34q-12 0 -21.5 -13t-11.5 -30v-220q29 14 57.5 22.5t58.5 8.5q40 0 76.5 -11.5t64.5 -34t44 -55.5t16 -76
q0 -22 -11 -45t-30.5 -43.5t-46.5 -37t-60 -26.5q-31 -9 -116 -12h-3q-11 -1 -27 -1t-28 1z" />
    <glyph glyph-name="uni045B" unicode="&#x45b;" horiz-adv-x="734" 
d="M671 79h1q2 -22 13 -37.5t28 -15.5h15v-26h-215v26h15q17 0 27.5 15.5t13.5 37.5q0 27 -0.5 54t-0.5 54q-2 66 -29 104t-78 38l-113 -1v-328h-178v26h35q14 0 23 13t11 32v484h-187q-12 -2 -18.5 -13.5t-6.5 -28.5v-23h-24v131h20q8 -3 21.5 -6.5t29.5 -6.5t32 -5t29 -2
h316q13 0 29 2t32 5t29.5 6.5t21.5 6.5h20v-131h-19v23q0 17 -7.5 28.5t-18.5 13.5h-190v-180h114q107 0 158.5 -52t51.5 -145z" />
    <glyph glyph-name="uni045C" unicode="&#x45c;" horiz-adv-x="624" 
d="M528 62q17 -17 33.5 -26t43.5 -10h15v-26h-61q-12 0 -31.5 2t-42.5 8t-45.5 17.5t-40.5 30.5l-217 239l213 252q1 1 1 10q0 14 -4 14h-32v27h244v-27h-27q-22 0 -42 -8.5t-36 -23.5h1l-207 -221zM182 70q1 -19 10.5 -32t23.5 -13h35v-26h-246v26h35q14 0 23.5 13t10.5 32
v458q-1 18 -10.5 31t-23.5 13h-35v27h246v-27h-35q-14 0 -23.5 -12.5t-10.5 -29.5v-460zM230 670q32 35 63.5 68t63.5 64h21q14 -14 25.5 -28t18.5 -26h-6q-42 -23 -81 -43.5t-81 -40.5h-18z" />
    <glyph glyph-name="uni045D" unicode="&#x45d;" horiz-adv-x="773" 
d="M230 600h15v-26h-40q-11 0 -20 -12t-11 -29v-360l469 441h49l-6 -41q-2 -18 -4 -42t-2 -47v-416q1 -18 10 -30.5t21 -12.5h40v-26h-230v26h40q11 0 20 12.5t11 30.5v363l-470 -446h-47q2 11 3 21.5t2 21.5q2 19 3.5 42.5t1.5 46.5v414q-2 17 -11 29t-21 12h-39v26h15z
M352 670q32 35 63.5 68t63.5 64h21q14 -14 25.5 -28t18.5 -26h-6q-42 -23 -81 -43.5t-81 -40.5h-18z" />
    <glyph glyph-name="uni045E" unicode="&#x45e;" horiz-adv-x="598" 
d="M601 581h-36q-9 0 -27 -15q-8 -8 -21 -35q-34 -91 -68.5 -180.5t-68.5 -180.5q-8 -20 -19 -44t-27.5 -47t-38.5 -42t-52 -29q-14 -4 -51 -6t-87 -2h-46v29h15q33 1 55.5 2.5t39.5 6t33 14.5t37 27h-2q14 18 45 89h-1l4 15h2q-101 187 -155 279t-63 99q-26 21 -36 21h-36
v17h241v-16h-36q-17 0 -17 -22q0 -10 2 -12q2 -10 22.5 -49t59.5 -111l55 -102l95 241h-1q-1 16 -4 24.5t-8 13.5h1q-18 15 -28 15h-30v18h252v-18zM420 768q0 -21 -9.5 -39.5t-25.5 -33t-37.5 -22.5t-45.5 -8t-45.5 8t-37.5 22.5t-25.5 33t-9.5 39.5h39q8 -20 29.5 -37
t50.5 -17t50.5 17t29.5 37h37z" />
    <glyph glyph-name="uni045F" unicode="&#x45f;" horiz-adv-x="703" 
d="M390 0q2 -46 12.5 -62t27.5 -16h15v-26h-188v26h15q17 0 28 16t13 62h-275v27h34q12 0 20.5 13t9.5 31v459q-1 18 -9.5 31t-20.5 13h-34v26h238v-26h-34q-12 0 -20.5 -13t-9.5 -31v-441q1 -18 9 -31t19 -13h220q11 0 19.5 13.5t9.5 32.5v439q-1 18 -9.5 31t-20.5 13h-34
v26h239l-3 -26h-33q-12 0 -20.5 -13t-9.5 -31v-461q1 -17 9.5 -29.5t20.5 -12.5h34v-27h-272z" />
    <glyph glyph-name="Wgrave" unicode="&#x1e80;" horiz-adv-x="982" 
d="M519 765h-17q-43 20 -84 41t-79 43h-6q14 26 45 54h20q32 -31 63.5 -64t63.5 -68zM989 701h15v-26h-32q-15 0 -34.5 -13.5t-29.5 -41.5l-163 -517h1q0 1 -4 -12h1q-4 -16 -10 -45t-8 -58h-52l-178 500q-32 -98 -63.5 -193t-63.5 -193h1l-9 -36q-4 -17 -7 -37.5t-4 -40.5
h-52l-224 632q-11 28 -30 41t-34 13h-31v26h263v-26h-32q-7 0 -12.5 -8t-5.5 -25q0 -8 2 -16l126 -406q40 125 81 248.5t81 248.5h48l170 -478l112 389h-1q0 2 0.5 2.5t0.5 2.5q1 4 1 11q0 31 -16 31h-32v26h15z" />
    <glyph glyph-name="wgrave" unicode="&#x1e81;" horiz-adv-x="899" 
d="M475 667h-17q-43 20 -84 41t-79 43h-6q14 26 45 54h20q32 -31 63.5 -64t63.5 -68zM898 602h15v-26h-31q-19 0 -33.5 -15t-23.5 -38l-141 -419h1q0 -1 -1 -3q-1 -3 -3 -11q-5 -14 -10.5 -41.5t-7.5 -59.5h-53l-161 410l-105 -296h1q0 1 -2 -9q-4 -14 -10.5 -43.5
t-8.5 -61.5h-52l-207 538q-8 20 -22.5 33.5t-32.5 13.5h-31v26h247v-26h-31q-5 0 -8.5 -6.5t-3.5 -23.5q0 -5 0.5 -9t2.5 -9l107 -324l143 413h49l152 -389l90 299q3 9 3 21q0 28 -10 28h-32v26h15z" />
    <glyph glyph-name="Wacute" unicode="&#x1e82;" horiz-adv-x="982" 
d="M490 770q32 35 63.5 68t63.5 64h21q14 -14 25.5 -28t18.5 -26h-6q-42 -23 -81 -43.5t-81 -40.5h-18zM989 701h15v-26h-32q-15 0 -34.5 -13.5t-29.5 -41.5l-163 -517h1q0 1 -4 -12h1q-4 -16 -10 -45t-8 -58h-52l-178 500q-32 -98 -63.5 -193t-63.5 -193h1l-9 -36
q-4 -17 -7 -37.5t-4 -40.5h-52l-224 632q-11 28 -30 41t-34 13h-31v26h263v-26h-32q-7 0 -12.5 -8t-5.5 -25q0 -8 2 -16l126 -406q40 125 81 248.5t81 248.5h48l170 -478l112 389h-1q0 2 0.5 2.5t0.5 2.5q1 4 1 11q0 31 -16 31h-32v26h15z" />
    <glyph glyph-name="wacute" unicode="&#x1e83;" horiz-adv-x="899" 
d="M446 672q32 35 63.5 68t63.5 64h21q14 -14 25.5 -28t18.5 -26h-6q-42 -23 -81 -43.5t-81 -40.5h-18zM898 602h15v-26h-31q-19 0 -33.5 -15t-23.5 -38l-141 -419h1q0 -1 -1 -3q-1 -3 -3 -11q-5 -14 -10.5 -41.5t-7.5 -59.5h-53l-161 410l-105 -296h1q0 1 -2 -9
q-4 -14 -10.5 -43.5t-8.5 -61.5h-52l-207 538q-8 20 -22.5 33.5t-32.5 13.5h-31v26h247v-26h-31q-5 0 -8.5 -6.5t-3.5 -23.5q0 -5 0.5 -9t2.5 -9l107 -324l143 413h49l152 -389l90 299q3 9 3 21q0 28 -10 28h-32v26h15z" />
    <glyph glyph-name="Wdieresis" unicode="&#x1e84;" horiz-adv-x="982" 
d="M989 701h15v-26h-32q-15 0 -34.5 -13.5t-29.5 -41.5l-163 -517h1q0 1 -4 -12h1q-4 -16 -10 -45t-8 -58h-52l-178 500q-32 -98 -63.5 -193t-63.5 -193h1l-9 -36q-4 -17 -7 -37.5t-4 -40.5h-52l-224 632q-11 28 -30 41t-34 13h-31v26h263v-26h-32q-7 0 -12.5 -8t-5.5 -25
q0 -8 2 -16l126 -406q40 125 81 248.5t81 248.5h48l170 -478l112 389h-1q0 2 0.5 2.5t0.5 2.5q1 4 1 11q0 31 -16 31h-32v26h15zM411 762q-17 0 -28 11.5t-11 28.5t11.5 28.5t28.5 11.5t28.5 -11t11.5 -28t-11 -28t-28 -11zM597 760q-17 0 -28 11.5t-11 28.5t11.5 28.5
t28.5 11.5t28.5 -11t11.5 -28t-11 -28t-28 -11z" />
    <glyph glyph-name="wdieresis" unicode="&#x1e85;" horiz-adv-x="899" 
d="M898 602h15v-26h-31q-19 0 -33.5 -15t-23.5 -38l-141 -419h1q0 -1 -1 -3q-1 -3 -3 -11q-5 -14 -10.5 -41.5t-7.5 -59.5h-53l-161 410l-105 -296h1q0 1 -2 -9q-4 -14 -10.5 -43.5t-8.5 -61.5h-52l-207 538q-8 20 -22.5 33.5t-32.5 13.5h-31v26h247v-26h-31q-5 0 -8.5 -6.5
t-3.5 -23.5q0 -5 0.5 -9t2.5 -9l107 -324l143 413h49l152 -389l90 299q3 9 3 21q0 28 -10 28h-32v26h15zM367 664q-17 0 -28 11.5t-11 28.5t11.5 28.5t28.5 11.5t28.5 -11t11.5 -28t-11 -28t-28 -11zM553 662q-17 0 -28 11.5t-11 28.5t11.5 28.5t28.5 11.5t28.5 -11
t11.5 -28t-11 -28t-28 -11z" />
    <glyph glyph-name="Ygrave" unicode="&#x1ef2;" horiz-adv-x="661" 
d="M352 765h-17q-43 20 -84 41t-79 43h-6q14 26 45 54h20q32 -31 63.5 -64t63.5 -68zM669 699h15v-26h-36q-23 0 -44 -16t-35 -37h1l-192 -311h2v-231q1 -22 12 -37.5t27 -15.5h36v-26h-260v26h36q15 0 26 15.5t13 37.5v233h2l-184 309h1q-14 21 -35 37.5t-44 16.5h-37v26
h287v-26h-36q-7 0 -11 -10t-4 -23q0 -12 2 -16l126 -237l137 239q1 2 1 14q0 13 -5 23t-11 10h-36v26h15z" />
    <glyph glyph-name="ygrave" unicode="&#x1ef3;" horiz-adv-x="640" 
d="M345 665h-17q-43 20 -84 41t-79 43h-6q14 26 45 54h20q32 -31 63.5 -64t63.5 -68zM656 573h-36q-20 0 -38 -14t-32 -32h1l-185 -280h2v-177q1 -18 10.5 -31t23.5 -13h34v-26h-246v26h34q14 0 23 13t11 31v177h2l-179 280h1q-14 21 -31.5 33.5t-37.5 12.5h-35v27h272v-27
h-34q-6 0 -9.5 -7.5t-3.5 -18.5v-5q0 -2 0.5 -2.5t0.5 -1.5h-2q33 -59 61 -107.5t61 -107.5l130 217h-1v8q0 25 -13 25h-34v27h250v-27z" />
    <glyph glyph-name="endash" unicode="&#x2013;" horiz-adv-x="500" 
d="M-15 319h530v-48h-530v48z" />
    <glyph glyph-name="emdash" unicode="&#x2014;" horiz-adv-x="800" 
d="M-15 321h830v-50h-830v50z" />
    <glyph glyph-name="quoteleft" unicode="&#x2018;" horiz-adv-x="200" 
d="M153 777q-24 -8 -35 -21t-13.5 -27.5t2 -28t11.5 -21.5q5 -6 11 -13t10.5 -14.5t5.5 -16.5t-3 -19q-5 -12 -16.5 -18t-24 -5t-24.5 9t-19 24q-13 31 -10 59.5t17 50t36.5 34.5t48.5 14z" />
    <glyph glyph-name="quoteright" unicode="&#x2019;" horiz-adv-x="200" 
d="M50 606q23 7 33.5 20t12.5 26.5t-2 26t-10 20.5q-10 12 -20.5 26t-2.5 34q5 11 15.5 16.5t22.5 4.5t23.5 -8.5t17.5 -22.5q12 -30 9.5 -57t-16 -47.5t-34.5 -33t-46 -13.5z" />
    <glyph glyph-name="quotesinglbase" unicode="&#x201a;" horiz-adv-x="200" 
d="M47 -90q24 8 35 21t13 27.5t-2 28t-11 21.5q-5 6 -11 13t-10.5 14.5t-6 16.5t3.5 19q5 12 16.5 17.5t24 5t24.5 -8.5t19 -24q13 -31 10 -59.5t-17 -50t-36.5 -34.5t-48.5 -14z" />
    <glyph glyph-name="quotedblleft" unicode="&#x201c;" horiz-adv-x="340" 
d="M153 777q-24 -8 -35 -21t-13.5 -27.5t2 -28t11.5 -21.5q5 -6 11 -13t10.5 -14.5t5.5 -16.5t-3 -19q-5 -12 -16.5 -18t-24 -5t-24.5 9t-19 24q-13 31 -10 59.5t17 50t36.5 34.5t48.5 14zM293 779q-24 -8 -35 -21t-13.5 -27.5t2 -28t11.5 -21.5q5 -6 11 -13t10.5 -14.5
t5.5 -16.5t-3 -19q-5 -12 -16.5 -18t-24 -5t-24.5 9t-19 24q-13 31 -10 59.5t17 50t36.5 34.5t48.5 14z" />
    <glyph glyph-name="quotedblright" unicode="&#x201d;" horiz-adv-x="340" 
d="M50 606q23 7 33.5 20t12.5 26.5t-2 26t-10 20.5q-10 12 -20.5 26t-2.5 34q5 11 15.5 16.5t22.5 4.5t23.5 -8.5t17.5 -22.5q12 -30 9.5 -57t-16 -47.5t-34.5 -33t-46 -13.5zM189 606q23 7 33.5 20t12.5 26.5t-2 26t-10 20.5q-10 12 -20.5 26t-2.5 34q5 11 15.5 16.5
t22.5 4.5t23.5 -8.5t17.5 -22.5q12 -30 9.5 -57t-16 -47.5t-34.5 -33t-46 -13.5z" />
    <glyph glyph-name="quotedblbase" unicode="&#x201e;" horiz-adv-x="340" 
d="M46 -91q25 8 37 22t14.5 29t-2 28.5t-11.5 22.5q-5 6 -11.5 13t-11 15t-6.5 16.5t3 19.5q5 12 16.5 18t25 5.5t26 -9t19.5 -25.5q13 -33 10 -62.5t-17.5 -52.5t-38.5 -36.5t-51 -14.5zM179 -89q25 8 37 22t14.5 29t-2 28.5t-11.5 22.5q-5 6 -11.5 13t-11 15t-6.5 16.5
t3 19.5q5 12 16.5 18t25 5.5t26 -9t19.5 -25.5q13 -33 10 -62.5t-17.5 -52.5t-38.5 -36.5t-51 -14.5z" />
    <glyph glyph-name="dagger" unicode="&#x2020;" horiz-adv-x="517" 
d="M478 390h-15l-164 17l-7 2q2 -5 3.5 -11t3.5 -12l12 -229l-28 -337h-55l-27 337l13 229l8 24l-6 -2l-165 -18h-15l-17 45l17 46h16l164 -19l5 -1q-2 6 -3.5 12t-3.5 11l-19 214h11l53 19l47 -19h10l-17 -214l-9 -24l6 2l166 19h16l17 -46z" />
    <glyph glyph-name="daggerdbl" unicode="&#x2021;" horiz-adv-x="518" 
d="M499 98l-17 -46h-16l-164 19l-6 2l4 -10l4 -13l18 -214h-10l-52 -19l-49 19h-10l18 214l7 23l-7 -2l-163 -19h-16l-17 46l17 45h15l165 -17l6 -2l-8 22l-17 121l17 121l7 23l-5 -2l-165 -18h-15l-17 45l17 46h16l164 -19l5 -1q-2 6 -3.5 12t-3.5 11l-19 214h11l53 19
l47 -19h10l-17 -214l-9 -24l6 2l166 19h16l17 -46l-17 -45h-15l-165 17l-7 3l9 -23l17 -121l-17 -122l-8 -21l8 2l163 17h15z" />
    <glyph glyph-name="bullet" unicode="&#x2022;" horiz-adv-x="335" 
d="M270 314q-7 -20 -12.5 -32t-13.5 -19.5t-19.5 -13t-30.5 -11.5v-1q-12 -3 -19 -3q-6 0 -16 2q-21 7 -33.5 12.5t-20.5 13.5t-13.5 20.5t-12.5 33.5q-2 5 -2 8v8q0 10 2 15q7 21 12.5 33.5t13.5 20.5t20.5 13.5t33.5 12.5q5 2 8.5 2h7.5h7.5t8.5 -2q21 -7 33.5 -12.5
t20.5 -13.5t13.5 -20.5t12.5 -33.5q2 -10 2 -15q0 -8 -3 -18z" />
    <glyph glyph-name="ellipsis" unicode="&#x2026;" horiz-adv-x="570" 
d="M90 -4q-19 0 -32 13t-13 32t13 32t32 13t32 -13t13 -32t-13 -32t-32 -13zM290 -4q-19 0 -32 13t-13 32t13 32t32 13t32 -13t13 -32t-13 -32t-32 -13zM480 -4q-19 0 -32 13t-13 32t13 32t32 13t32 -13t13 -32t-13 -32t-32 -13z" />
    <glyph glyph-name="perthousand" unicode="&#x2030;" horiz-adv-x="1015" 
d="M559 696h7l-371 -709h-18l-41 17h-8l334 633q-15 -6 -32 -10t-39 -4h-14q-6 1 -9.5 1t-6 0.5l-5 1t-8.5 3.5q3 -13 5 -25.5t2 -23.5t-1 -24t-3 -24q-8 -40 -25.5 -73t-42 -57t-54.5 -37t-64 -13q-61 0 -96 35t-35 99q0 10 1.5 22t3.5 26q14 83 65 130t121 50
q13 0 23 -1.5t19 -3.5q21 -7 36 -13t25 -13h-1q14 -8 29 -15.5t28 -9.5h7q23 0 49 12.5t47 24.5l28 15h13zM532 348q61 0 95.5 -35.5t34.5 -98.5q0 -11 -1 -23.5t-3 -25.5q-8 -41 -25 -74t-41.5 -56.5t-55.5 -36.5t-65 -13q-61 0 -95.5 35.5t-34.5 98.5q0 11 1.5 23t3.5 26
q7 40 24.5 73.5t42 57t55.5 36.5t64 13zM867 348q61 0 95.5 -35.5t34.5 -98.5q0 -11 -1.5 -23t-3.5 -26q-8 -41 -25 -74t-41.5 -56.5t-55 -36.5t-64.5 -13q-61 0 -95.5 35.5t-34.5 98.5q0 11 1 23.5t3 25.5q8 41 25 74t41.5 56.5t55 36.5t65.5 13zM894 168q6 31 6 57
q0 42 -9 64t-28 22q-29 0 -51.5 -39.5t-34.5 -106.5q-2 -15 -3.5 -30.5t-1.5 -27.5q0 -85 37 -85q29 0 51 38.5t34 107.5zM560 168q2 16 3.5 30t1.5 27q0 42 -9 64t-28 22q-28 0 -50.5 -38.5t-34.5 -107.5q-6 -32 -6 -58q0 -85 37 -85q29 0 51.5 38.5t34.5 107.5zM253 534
q3 17 4 31t1 27q0 85 -37 85q-29 0 -51 -38.5t-34 -107.5q-6 -32 -6 -57q0 -85 37 -85q29 0 51.5 38t34.5 107z" />
    <glyph glyph-name="guilsinglleft" unicode="&#x2039;" horiz-adv-x="283" 
d="M204 490h13l18 -5h11l-118 -193l119 -197h-11l-19 -5h-13l-175 202z" />
    <glyph glyph-name="guilsinglright" unicode="&#x203a;" horiz-adv-x="283" 
d="M80 90h-13l-18 5h-11l119 197l-118 193h10l17 5h14l175 -198z" />
    <glyph glyph-name="fraction" unicode="&#x2044;" horiz-adv-x="542" 
d="M486 714h18l35 -17h6l-478 -711h-18l-36 16h-6z" />
    <glyph glyph-name="Euro" unicode="&#x20ac;" horiz-adv-x="733" 
d="M719 170l-1 -116h-4q-17 -17 -43.5 -29.5t-57.5 -20.5t-65.5 -11.5t-67.5 -3.5q-69 0 -131 22.5t-111.5 62t-84 92.5t-49.5 113h-113l16 46h91q-1 6 -1 13.5v13.5v12t1 12h-106l16 46h96q13 62 47 116t84 93.5t112.5 62t133.5 22.5q81 0 143.5 -15.5t91.5 -49.5l-33 -104
h-14q2 9 3 17.5t1 15.5q0 29 -16 46.5t-39 27t-49.5 12.5t-47.5 3q-47 0 -94.5 -19t-89 -52t-71.5 -78.5t-41 -98.5h416l-17 -46h-405q-1 -5 -1 -12v-12v-10.5t1 -8.5q0 -2 0.5 -4t0.5 -5h388l-17 -46h-365q11 -51 42 -95t72 -76.5t89 -50.5t94 -18q80 0 124.5 30t58.5 102z
" />
    <glyph glyph-name="trademark" unicode="&#x2122;" horiz-adv-x="446" 
d="M140 699q9 0 19 1.5t14 3.5v-41h-3v5q0 16 -16 16h-47v-162q0 -8 5 -13t13 -5h4v-3h-74v3h4q8 0 13 5t5 13v163h-47q-16 0 -16 -16v-5h-3v41q4 -2 14 -3.5t19 -1.5zM415 523q3 -17 20 -17h4v-3h-71v3h4q5 0 8.5 3.5t2.5 8.5l-18 122l-53 -112l-4 -10t-3.5 -9.5t-2.5 -9.5
h-3l-69 135l-8 -116q0 -5 3 -8.5t8 -3.5h4v-3h-61v3h4q8 0 13.5 5t6.5 13l21 180h3l83 -156l72 155h3z" />
    <glyph glyph-name="partialdiff" unicode="&#x2202;" horiz-adv-x="566" 
d="M50 576h-4q36 69 85.5 104t122.5 35q9 0 18.5 -0.5t17.5 -1.5q51 -8 93.5 -37.5t73 -76t47.5 -106t17 -126.5v-18t-1 -18q-11 -158 -78 -249.5t-182 -97.5h-17q-55 0 -94 16.5t-63.5 43.5t-36 62.5t-11.5 74.5t11 83q9 32 29.5 63t50.5 55.5t67.5 39.5t80.5 15
q32 0 64 -8t64 -28q-2 45 -10.5 86t-23.5 73t-38 53.5t-53 28.5q-12 3 -24.5 5t-24.5 2q-29 0 -64 -18.5t-73 -70.5h-21zM403 349h8q-35 19 -63 27.5t-51 8.5q-27 0 -49 -12.5t-39 -33.5t-29.5 -49t-20.5 -58q-8 -35 -8 -61q0 -29 6.5 -54.5t18.5 -44.5t29.5 -30t39.5 -11
q3 0 6 1q26 3 51 26.5t45 63.5t34.5 94t20.5 118z" />
    <glyph glyph-name="product" unicode="&#x220f;" horiz-adv-x="763" 
d="M725 -202h-240v25h34q11 0 20 13.5t11 32.5v738q-2 19 -10.5 32.5t-19.5 13.5h-281q-11 0 -19.5 -13t-9.5 -31v-740q1 -18 10 -31.5t21 -13.5h34v-25h-240v25h34q12 0 20.5 13.5t10.5 32.5v757q-2 19 -10.5 32.5t-20.5 13.5h-34v26h688v-26h-34q-12 0 -20.5 -13t-9.5 -31
v-759q1 -18 9.5 -31.5t20.5 -13.5h34z" />
    <glyph glyph-name="summation" unicode="&#x2211;" horiz-adv-x="635" 
d="M586 -179h-564v17l260 416l-255 430v17h418q15 0 32.5 2.5t34.5 5.5t32 7t24 7h20v-144h-56v26q0 21 -10.5 35t-24.5 15h-335l218 -376l-236 -380h312q40 3 67 38t40 85h56z" />
    <glyph glyph-name="minus" unicode="&#x2212;" horiz-adv-x="481" 
d="M25 332h432v-45h-432v45z" />
    <glyph glyph-name="radical" unicode="&#x221a;" horiz-adv-x="594" 
d="M-3 455h13l151 22h16l103 -366q60 190 118.5 376t117.5 376h15l46 -3h13l-314 -1007h-28l-161 566l-56 -9q-2 0 -6 -0.5t-6 -0.5h-15z" />
    <glyph glyph-name="infinity" unicode="&#x221e;" horiz-adv-x="593" 
d="M443 165q-45 0 -82.5 20.5t-63.5 49.5q-29 -31 -64.5 -50.5t-75.5 -19.5q-30 0 -55.5 10t-44 27.5t-28.5 41.5t-10 53q0 28 10.5 52.5t29.5 42.5t44 28t54 10q44 0 80 -20t63 -49q27 29 63 49t80 20q28 0 53 -10t44 -28t29.5 -42.5t10.5 -52.5q0 -29 -10.5 -53
t-28.5 -41.5t-43 -27.5t-55 -10zM350 297q20 -29 45 -50.5t49 -22.5q18 0 31.5 21.5t13.5 51.5q0 31 -13.5 52t-31.5 21q-12 0 -24 -6.5t-24.5 -17t-24 -23.5t-21.5 -26zM166 224h-4h4zM166 224q1 0 1.5 0.5t1.5 0.5h4zM112 298q0 -30 15 -51.5t35 -21.5h7q21 5 43.5 25.5
t39.5 46.5h1q-11 13 -23 26t-24 23.5t-24 17t-24 6.5q-19 0 -32.5 -21t-13.5 -51z" />
    <glyph glyph-name="integral" unicode="&#x222b;" horiz-adv-x="440" 
d="M313 792q13 1 29 0.5t30.5 -4.5t27 -11t18.5 -17q7 -11 5.5 -23.5t-10.5 -22.5q-17 -20 -39.5 -19.5t-38.5 16.5q-8 8 -11 12t-5 7q-5 9 -9.5 16.5t-5.5 7.5q-8 0 -13 -19t-7 -71q-1 -12 -3.5 -56.5t-5.5 -107t-7 -134.5t-7 -140l-12 -224q-2 -28 -9.5 -59.5t-23 -59.5
t-39.5 -48.5t-59 -25.5q-14 -1 -29.5 0t-30.5 4.5t-27 10t-18 17.5q-7 11 -5.5 23.5t10.5 22.5q17 20 39.5 19.5t38.5 -16.5q8 -8 11 -12t5 -7q5 -9 9.5 -16.5t5.5 -7.5q8 0 13 19t7 71q1 7 2 26.5t2.5 47.5t3 63.5t3.5 74.5q3 64 6.5 135.5t6.5 135t6 112t5 67.5
q2 28 9 60.5t22 61t39 48.5t61 23z" />
    <glyph glyph-name="approxequal" unicode="&#x2248;" horiz-adv-x="481" 
d="M31 207h-1q7 9 18.5 21t26.5 22t34 17t42 7h10t7 -1q29 -5 53 -14t44 -19l29 -14.5t23 -8.5h8q13 0 31 12.5t34 24.5h-2l5 4h22l38 -36l-13 -13q-7 -7 -17.5 -16t-24 -17.5t-31.5 -14t-40 -5.5h-9.5t-9.5 1q-28 5 -48 12.5t-36 15.5l-7 3h6q-2 0 -5 1t-4 1
q-17 8 -31.5 14.5t-27.5 8.5q-5 1 -12 1q-9 0 -19.5 -8.5t-22.5 -20.5l-13 -12h-21zM28 366h-1q7 9 18.5 21t26.5 22t34 17t42 7h10t7 -1q29 -5 53 -14t44 -19q34 -19 53 -23h-1q1 -1 3 -1h5q13 0 30.5 12t32.5 24h-2l7 6h22l38 -36l-13 -13q-7 -7 -17 -16t-24 -17.5
t-31.5 -14t-39.5 -5.5h-11t-9 1q-29 6 -50 14t-40 17h5q-2 0 -5 1t-4 1q-17 8 -32.5 14.5t-30.5 9.5h-8q-9 0 -19.5 -8.5t-22.5 -20.5l-13 -12h-21z" />
    <glyph glyph-name="notequal" unicode="&#x2260;" horiz-adv-x="481" 
d="M315 363q-16 -32 -31.5 -65t-31.5 -65h205v-45h-225l-59 -122h-20l-41 19h-8l50 104h-128v45h151q16 32 31.5 65t31.5 65h-214v45h235l53 110h20l40 -19h8l-44 -91h119v-45h-15z" />
    <glyph glyph-name="lessequal" unicode="&#x2264;" horiz-adv-x="481" 
d="M457 529h-9l-321 -155q77 -37 160.5 -78t160.5 -77h9v-65h-21l-407 193h-9v54h9l407 193h21v-65zM20 104h437v-61h-437v61z" />
    <glyph glyph-name="greaterequal" unicode="&#x2265;" horiz-adv-x="481" 
d="M449 401h9v-54h-9l-407 -193h-21v65h9l321 155q-77 37 -160.5 78t-160.5 77h-9v65h21zM21 104h437v-61h-437v61z" />
    <glyph glyph-name="lozenge" unicode="&#x25ca;" horiz-adv-x="530" 
d="M494 350l-222 -364h-26l-209 364l209 364h26zM106 350q40 -71 76.5 -135.5t77.5 -136.5l165 272q-22 36 -42.5 69.5t-40.5 66.5t-40.5 66.5t-42.5 69.5z" />
    <glyph glyph-name="uni2627" unicode="&#x2627;" horiz-adv-x="746" 
d="M432 474h17l11 -3h-1q10 -3 25 -3q16 0 36 3.5t39.5 15t37 31.5t28.5 53h-1q5 22 5 42q-2 66 -29 104t-78 38h-90v-281zM523 801q106 0 165.5 -52t59.5 -145q0 -29 -18.5 -64.5t-48.5 -63.5q-27 -25 -65.5 -38.5t-82.5 -13.5q-29 0 -49.5 6.5t-46.5 20.5h-5v-268
q51 34 101.5 67.5t101.5 66.5q18 12 32 36.5t14 55.5h57v-213h-57v21q0 10 -5 19t-10 12l-13 -3h4l-210 -136l202 -136l8 -4q7 0 12 9.5t5 20.5v21h57v-212h-57q0 32 -14 55.5t-33 36.5l-195 136v-151q2 -22 12.5 -37.5t27.5 -15.5h36v-26h-261v26h36q17 0 27.5 15.5
t12.5 37.5v154l-215 -138q-18 -12 -32 -35.5t-14 -57.5h-56v211h56v-20q0 -13 5 -22t13 -9q1 0 2 1l6 2h-2l221 138q-54 33 -110.5 67.5t-110.5 67.5q-4 2 -5 3t-2 1q-7 0 -12 -9.5t-5 -21.5v-21h-56v212h15l26 -1h15q0 -30 14.5 -54.5t33.5 -38.5h-1q15 -10 34 -22
t44.5 -27.5t58.5 -35.5t77 -46v543q-2 20 -13.5 34t-25.5 14h-36v27h275z" />
    <glyph glyph-name="died" unicode="&#x271d;" horiz-adv-x="618" 
d="M252 428q0 62 -1 113t-2.5 88t-4 58t-5.5 24q-15 15 -25 15h-36v26h261v-26h-36q-12 0 -27 -16q-3 -3 -5 -24t-3.5 -58t-3 -88t-1.5 -112h112q14 0 31 2t33.5 5t31 7t22.5 8h22v-144h-56v26q0 21 -9.5 34.5t-23.5 14.5h-162v-495q2 -22 12.5 -37.5t27.5 -15.5h36v-26
h-261v26h36q15 0 26 15t12 37v496h-162q-14 -2 -23 -15.5t-9 -33.5v-26h-57v144h21q9 -4 23.5 -8t31 -7t34 -5t31.5 -2h109z" />
    <glyph glyph-name="fi" unicode="&#xfb01;" horiz-adv-x="859" 
d="M345 596q13 0 29.5 2t32.5 4.5t30 6t22 6.5h20v-130h-22v23q0 18 -7 29.5t-19 12.5h-217v-230h181q8 1 12.5 10t4.5 23v21h21v-153h-21v21q0 26 -15 33h-183v-206q1 -19 10.5 -32t23.5 -13h37v-26h-250v26h37q14 0 23.5 13t10.5 32v461q-1 18 -10.5 31t-23.5 13h-37v26
h156zM543 22h36q17 0 29 13t14 32v458q-2 19 -14 32t-29 13h-36v26h267v-26h-36q-15 0 -27.5 -13t-14.5 -30v-460q1 -19 13 -32t29 -13h36v-26h-267v26z" />
    <glyph glyph-name="fl" unicode="&#xfb02;" horiz-adv-x="1059" 
d="M337 596q13 0 29.5 2t32.5 5t30 6.5t22 6.5h20v-131h-25v23q0 18 -7 29.5t-19 12.5h-214v-230h177q9 1 13.5 10t4.5 23v21h24v-153h-24v21q0 26 -15 33h-180v-206q1 -19 10.5 -32t23.5 -13h37v-26h-250v26h37q14 0 23.5 13t10.5 32v461q-1 18 -10.5 31t-23.5 13h-37v26
h156zM1035 148l-59 -154h-438v26h37q14 0 22.5 13t9.5 32v459q-1 19 -11 32t-24 13h-35v26h248v-26h-35q-14 0 -24 -13t-11 -32v-482h157q28 1 48.5 9.5t36.5 23t28 34t23 43.5z" />
    <glyph glyph-name="chi_rho.001" horiz-adv-x="0" 
 />
    <glyph glyph-name="_1" horiz-adv-x="500" 
d="M772 155l-53 -154h-277v76h7q31 18 64.5 49.5t62 72t49 88t25.5 99.5v8q0 58 -18.5 108.5t-51 87.5t-77 58t-96.5 21t-97 -22t-78 -60t-52 -89.5t-19 -111.5q0 -56 17.5 -103.5t45.5 -86.5t63 -69t70 -51h7v-76h-274l-53 153h17q13 -23 23.5 -39t21.5 -25.5t23 -13.5
t29 -4h111q-57 29 -97.5 69.5t-67 84.5t-39 86.5t-13.5 74.5v10q0 67 28 125.5t76.5 101.5t115 67.5t143.5 24.5q75 0 140 -25.5t113 -70t75.5 -104.5t27.5 -129q0 -33 -15 -76.5t-43.5 -87.5t-69.5 -84t-94 -67h114q16 0 28 4t23 13.5t21.5 25.5t23.5 39z" />
    </font>
</defs>
</svg>
