<?xml version="1.0" standalone="no"?>
<!DOCTYPE svg PUBLIC "-//W3C//DTD SVG 1.1//EN" "http://www.w3.org/Graphics/SVG/1.1/DTD/svg11.dtd" >
<svg xmlns="http://www.w3.org/2000/svg" xmlns:xlink="http://www.w3.org/1999/xlink" version="1.1">
<metadata>
Created by FontForge 20201107 at Mon May 26 15:15:41 2014
 By 
Copyright (c) 2014 Dukom Design (www.dukom.org), with Reserved Font Name "Constantine"
</metadata>
<defs>
<font id="Constantine" horiz-adv-x="577" >
  <font-face 
    font-family="Constantine"
    font-weight="400"
    font-stretch="normal"
    units-per-em="1000"
    panose-1="0 0 5 0 0 0 0 0 0 0"
    ascent="800"
    descent="-200"
    x-height="600"
    cap-height="699"
    bbox="-19 -239 1309 914"
    underline-thickness="50"
    underline-position="-100"
    unicode-range="U+000D-FB02"
  />
<missing-glyph horiz-adv-x="250" 
 />
    <glyph glyph-name=".notdef" horiz-adv-x="250" 
 />
    <glyph glyph-name=".null" horiz-adv-x="0" 
 />
    <glyph glyph-name="nonmarkingreturn" unicode="&#xd;" horiz-adv-x="250" 
 />
    <glyph glyph-name="NULL" horiz-adv-x="0" 
 />
    <glyph glyph-name="NULL" horiz-adv-x="0" 
 />
    <glyph glyph-name="space" unicode=" " horiz-adv-x="250" 
 />
    <glyph glyph-name="exclam" unicode="!" horiz-adv-x="230" 
d="M119 170h-10l-20 233l-12 299h75l-12 -299zM115 -4q-19 0 -32 13t-13 32t13 32t32 13t32 -13t13 -32t-13 -32t-32 -13z" />
    <glyph glyph-name="quotedbl" unicode="&#x22;" horiz-adv-x="315" 
d="M50 505q7 33 11 57.5t6 46t1.5 43t-2.5 48.5l70 14q1 -20 -2 -50.5t-12 -62.5t-24 -60t-39 -41zM180 505q7 33 11 57.5t6 46t1.5 43t-2.5 48.5l70 14q1 -20 -2 -50.5t-12 -62.5t-24 -60t-39 -41z" />
    <glyph glyph-name="numbersign" unicode="#" horiz-adv-x="536" 
d="M407 456q-9 -52 -17 -99.5t-18 -99.5h103v-45h-112l-37 -212h-48l38 212h-148l-37 -212h-48l37 212h-103v45h112l35 199h-103v45h112l35 199h48l-35 -199h147l35 199h48l-35 -199h103v-45h-112zM359 456h-147l-35 -199h147z" />
    <glyph glyph-name="dollar" unicode="$" horiz-adv-x="469" 
d="M370 304q29 -29 40 -61t11 -64q0 -90 -51 -140t-144 -53l-6 -87l-46 5l7 86q-38 5 -71 17.5t-55 35.5q-4 16 -4 41q0 24 4 53.5t13 55.5h23q-1 -10 -1 -17v-12q0 -53 25 -86.5t69 -42.5l24 302q-21 20 -42 39.5t-42 38.5q-31 29 -43 63t-12 65q0 36 12 67t34 54.5
t53 37.5t68 15l6 73l47 -2l-6 -73q14 -2 27.5 -3.5t24.5 -4.5h45v-137h-26q0 40 -20 65t-55 32l-20 -262zM229 33q49 5 83.5 37.5t34.5 83.5q0 25 -8 47t-27 40l-62 57zM215 446l18 225q-20 -3 -37 -12t-30 -23t-20 -31t-7 -36q0 -21 8.5 -44t28.5 -43z" />
    <glyph glyph-name="percent" unicode="%" horiz-adv-x="684" 
d="M544 696l-371 -709l-41 17l340 645q-19 -10 -41 -18t-49 -8h-11q-13 2 -25 5t-23 8q8 -26 8 -56q0 -11 -1 -23.5t-3 -25.5v1q-7 -42 -23 -75.5t-38.5 -56.5t-50.5 -35.5t-59 -12.5q-54 0 -85 35t-31 99q0 20 5 48q14 83 61 130.5t111 49.5q19 0 37 -5q17 -5 31 -11.5
t26 -14.5q15 -8 30.5 -15.5t33.5 -9.5h7q28 0 55 12.5t48 24.5q13 8 28 15zM523 348q54 0 84.5 -35.5t30.5 -98.5q0 -11 -1 -23.5t-3 -25.5q-16 -82 -63 -131t-109 -49q-54 0 -84.5 35.5t-30.5 98.5q0 21 5 49q7 41 23.5 74t39 56.5t50.5 36.5t58 13zM566 168q2 16 3.5 30
t1.5 27q0 41 -13 63.5t-39 22.5q-35 0 -61.5 -39t-38.5 -107q-6 -32 -6 -58q0 -41 13.5 -63t38.5 -22q35 0 62 38.5t39 107.5zM259 534q3 17 4 31t1 27q0 41 -13 63t-39 22q-35 0 -61.5 -38.5t-38.5 -107.5q-6 -32 -6 -57q0 -41 13.5 -63t38.5 -22q35 0 62 38.5t39 106.5z
" />
    <glyph glyph-name="ampersand" unicode="&#x26;" horiz-adv-x="646" 
d="M626 376q-22 0 -31.5 -12.5t-5.5 -32.5q12 -62 4.5 -118t-33.5 -101q20 -17 41 -34.5t43 -31.5t45 -23.5t47 -11.5v-10h-38.5t-52.5 4.5t-61 17t-64 37.5q-33 -32 -79 -50.5t-105 -18.5q-148 0 -227.5 61t-79.5 173q0 68 34.5 113.5t86.5 71.5q-19 30 -28.5 62.5
t-9.5 70.5q0 37 14 68.5t40.5 54.5t63.5 36t83 13q50 -1 97 -20t73 -51l-17 -113h-10q0 72 -39 113.5t-103 41.5q-29 0 -53 -10.5t-41.5 -29.5t-27.5 -45t-10 -57q0 -32 10.5 -60.5t30.5 -57t49.5 -58.5t68.5 -64q32 -28 75 -67t106 -92q20 45 20 94t-20 91
q-10 20 -25.5 32.5t-38.5 12.5h-16v10h200v-10zM336 24q49 0 87 18.5t64 48.5q-63 52 -108 90.5t-85 74.5q-41 37 -73 68.5t-55 62.5q-35 -32 -49.5 -73.5t-14.5 -87.5q0 -45 15.5 -82.5t45 -64.5t73 -42t99.5 -15z" />
    <glyph glyph-name="quotesingle" unicode="'" horiz-adv-x="170" 
d="M35 505q7 33 11 57.5t6 46t1.5 43t-2.5 48.5l70 14q1 -20 -2 -50.5t-12 -62.5t-24 -60t-39 -41z" />
    <glyph glyph-name="parenleft" unicode="(" horiz-adv-x="338" 
d="M303 715q-30 -14 -57 -48t-47.5 -82.5t-32.5 -108.5t-12 -126v-11q1 -72 14 -138.5t33 -122t46 -96.5t54 -60l-14 -22q-43 22 -82 66t-68.5 102t-47.5 126.5t-19 141.5v6q0 71 18 136t48 117t70 89t84 52z" />
    <glyph glyph-name="parenright" unicode=")" horiz-adv-x="338" 
d="M46 -79q28 19 54 60t46.5 96.5t33 122t13.5 138.5q1 3 1 11q0 66 -12 126t-33 108.5t-48 82.5t-57 49l15 20q44 -15 84 -52t70 -89t47.5 -117t17.5 -136v-6q-1 -73 -19 -141.5t-47.5 -126.5t-68.5 -101.5t-81 -65.5z" />
    <glyph glyph-name="asterisk" unicode="*" horiz-adv-x="386" 
d="M245 595l-14 1l11 -8l72 -76l-23 -38l-44 -10l-50 90l-3 12l-3 -12l-50 -91l-44 10l-23 38l71 77l12 8l-13 -1l-103 20l-4 45l30 34l93 -44l10 -8l-4 11l-13 103l41 18l41 -18l-13 -103l-4 -11l9 8l94 44l30 -33l-3 -45z" />
    <glyph glyph-name="plus" unicode="+" horiz-adv-x="481" 
d="M440 279h-170v-170h-61v170h-170v61h170v170h61v-170h170v-61z" />
    <glyph glyph-name="comma" unicode="," horiz-adv-x="185" 
d="M46 -82q22 7 32 19t12.5 25t-2 25t-10.5 20q-10 11 -20 24.5t-2 32.5q4 10 14.5 15.5t21.5 5t22 -7.5t17 -22q12 -28 9 -54t-16 -45.5t-33 -31.5t-44 -13z" />
    <glyph glyph-name="hyphen" unicode="-" horiz-adv-x="380" 
d="M40 312h300l6 -22l-6 -22h-300l-6 23z" />
    <glyph glyph-name="period" unicode="." horiz-adv-x="179" 
d="M90 -4q-19 0 -32 13t-13 32t13 32t32 13t32 -13t13 -32t-13 -32t-32 -13z" />
    <glyph glyph-name="slash" unicode="/" horiz-adv-x="406" 
d="M368 713l40 -17l-361 -710l-40 19z" />
    <glyph glyph-name="zero" unicode="0" horiz-adv-x="596" 
d="M298 714q55 0 99.5 -25t75 -72t47 -114.5t16.5 -152.5t-16.5 -152.5t-47 -114.5t-75 -72t-99.5 -25q-56 0 -100 25t-74.5 72t-47 114.5t-16.5 152.5t16.5 152.5t47 114.5t74.5 72t100 25zM298 668q-35 0 -63.5 -22t-48.5 -63t-30.5 -100t-10.5 -133t10.5 -133t30.5 -100
t48.5 -63t63.5 -22q36 0 64 22t48 63t30.5 100t10.5 133t-10.5 133t-30.5 100t-48 63t-64 22z" />
    <glyph glyph-name="one" unicode="1" horiz-adv-x="344" 
d="M64 0v15h21q23 0 39 15.5t16 38.5v516q0 49 -46 49h-38v16q19 3 38 6.5t37 10.5t34.5 18.5t31.5 28.5h23v-646q0 -23 16 -38.5t39 -15.5h21v-15z" />
    <glyph glyph-name="two" unicode="2" horiz-adv-x="553" 
d="M80 525l-18 121q15 15 36.5 27.5t46 22t50.5 14.5t50 5q51 0 92 -14t70 -40t44.5 -63.5t15.5 -84.5q0 -57 -27 -114.5t-67.5 -111.5t-87 -102.5t-86.5 -87.5l-24 -24h205q20 0 35 4t27 13.5t23 25.5t24 39h27l-53 -154h-415v21q29 26 64.5 62.5t72 78.5t71.5 87.5
t62 90.5t43.5 88t16.5 80q0 75 -34.5 117t-94.5 42h-4q-62 -2 -100.5 -35.5t-38.5 -97.5v-14z" />
    <glyph glyph-name="three" unicode="3" horiz-adv-x="503" 
d="M60 636q26 29 63.5 51t97.5 25h15q43 0 77.5 -12t58.5 -33t37 -49t13 -60q0 -27 -9 -52.5t-24 -47t-35 -37.5t-41 -25q26 -9 49.5 -24.5t41 -37.5t28 -51t10.5 -65q0 -52 -24 -98.5t-65.5 -81.5t-98 -55.5t-120.5 -20.5q-34 0 -75 7l5 25h16q55 0 104.5 17t86.5 47
t59 71.5t22 91.5q0 39 -15 68t-42 48t-64 28t-81 9l5 27q31 0 63 10t57.5 29t41.5 47t16 64q0 5 -1 8q-1 20 -7.5 39.5t-20 34.5t-34.5 24t-50 9q-55 0 -85.5 -31.5t-30.5 -82.5q0 -2 0.5 -8.5t0.5 -8.5h-25z" />
    <glyph glyph-name="four" unicode="4" horiz-adv-x="583" 
d="M424 243v-172q0 -19 13 -32t32 -13h19v-26h-209v26h19q18 0 31 12.5t15 30.5v174h-304v21l362 450h21v-401h34q25 0 33.5 4.5t16.5 15.5h25l-25 -90h-83zM344 313v255l-206 -255h206z" />
    <glyph glyph-name="five" unicode="5" horiz-adv-x="498" 
d="M402 611l-230 -15l-40 -136q42 9 82 9q46 0 87 -12.5t71 -38t47.5 -63t17.5 -88.5v-12q-2 -55 -21 -98t-48.5 -75t-66.5 -54t-74.5 -36t-73 -20t-61.5 -6q-8 0 -17.5 1t-20.5 3l5 25h10q20 0 48 7t57.5 20.5t59 34.5t54 49t40.5 63.5t19 78.5q1 5 1 13q0 66 -44 102
t-115 36q-24 0 -51.5 -4.5t-58.5 -15.5l-18 8l80 277l199 16q28 0 44.5 13t27.5 35h26z" />
    <glyph glyph-name="six" unicode="6" horiz-adv-x="560" 
d="M167 322q34 42 78 64t88 22q31 0 60.5 -12t52.5 -36t38.5 -60t19.5 -84q0 -4 0.5 -8t0.5 -8q0 -42 -14.5 -81t-42.5 -69t-67.5 -48.5t-89.5 -19.5h-4q-50 0 -92 19.5t-73 56t-48 89t-17 119.5v5q1 77 22 155t63 142.5t106 109t151 55.5l11 -21q-71 -23 -120.5 -66.5
t-81 -101.5t-46 -127.5t-14.5 -144.5q0 -54 9 -98.5t26.5 -76.5t44.5 -50t63 -18q32 0 55 14t38 37t22.5 53.5t7.5 62.5q0 2 -0.5 3t-0.5 3q-2 69 -33 112t-90 43q-29 0 -58 -14t-50 -42z" />
    <glyph glyph-name="seven" unicode="7" horiz-adv-x="502" 
d="M63 698h417l-108 -288q-9 -25 -27.5 -76.5t-39 -112t-39 -120.5t-28.5 -101h-97q15 38 37 92.5t45 112t44.5 113.5t37.5 97l88 225h-273q-30 0 -47 -15t-28 -45h-10z" />
    <glyph glyph-name="eight" unicode="8" horiz-adv-x="552" 
d="M460 541q0 -57 -27.5 -100t-80.5 -68q26 -14 52 -31t46.5 -40t33 -53t12.5 -69q0 -43 -15.5 -78.5t-44 -61t-69 -39.5t-90.5 -14q-49 0 -89.5 13.5t-69.5 38.5t-45 60t-16 78v9q3 62 36.5 106t97.5 76q-45 34 -72 77t-27 98q0 36 12.5 67t36.5 54t58 36t77 14h4
q39 0 72 -11.5t57 -34t37.5 -54.5t13.5 -73zM278 32q33 0 57.5 11.5t40 30t23 42.5t7.5 49q0 32 -10.5 54.5t-27.5 39t-37.5 28t-41.5 22.5l-21 10q-10 5 -16.5 9t-15.5 9q-37 -26 -62 -66t-27 -96q1 -65 35.5 -104t95.5 -39zM296 400q43 33 59 71t16 78q0 56 -25 88t-68 32
q-46 0 -71 -33.5t-25 -79.5q0 -47 25 -83t72 -63z" />
    <glyph glyph-name="nine" unicode="9" horiz-adv-x="560" 
d="M396 380q-33 -42 -76.5 -67t-87.5 -25q-33 0 -63.5 11.5t-54 35t-38.5 59.5t-16 84v9q0 52 16 93t44.5 70.5t67.5 45.5t85 17h4q52 0 94 -19.5t72 -56.5t46 -91t16 -123q0 -74 -20 -152.5t-62 -144t-106.5 -110.5t-152.5 -53l-12 21q70 19 120 62.5t81.5 102t46.5 127.5
t15 141q0 115 -36 182.5t-107 67.5q-32 0 -55.5 -13.5t-38.5 -36.5t-22.5 -53.5t-7.5 -64.5v-7q1 -33 9.5 -61t23.5 -48.5t37 -32t51 -11.5h3q28 1 57 14.5t51 42.5z" />
    <glyph glyph-name="colon" unicode=":" horiz-adv-x="170" 
d="M90 379q-19 0 -32 13t-13 32t13 32t32 13t32 -13t13 -32t-13 -32t-32 -13zM90 -4q-19 0 -32 13t-13 32t13 32t32 13t32 -13t13 -32t-13 -32t-32 -13z" />
    <glyph glyph-name="semicolon" unicode=";" horiz-adv-x="600" 
d="M90 407q-19 0 -32 13t-13 32t13 32t32 13t32 -13t13 -32t-13 -32t-32 -13zM46 -82q22 7 32 19t12.5 25t-2 25t-10.5 20q-10 11 -20 24.5t-2 32.5q4 10 14.5 15.5t21.5 5t22 -7.5t17 -22q12 -28 9 -54t-16 -45.5t-33 -31.5t-44 -13z" />
    <glyph glyph-name="less" unicode="&#x3c;" horiz-adv-x="481" 
d="M443 468l-317 -153l317 -153v-66l-403 192v54l403 191v-65z" />
    <glyph glyph-name="equal" unicode="=" horiz-adv-x="481" 
d="M49 409h384v-62h-384v62zM49 251h384v-62h-384v62z" />
    <glyph glyph-name="greater" unicode="&#x3e;" horiz-adv-x="481" 
d="M444 342v-54l-403 -192v66l316 153l-316 153v65z" />
    <glyph glyph-name="question" unicode="?" horiz-adv-x="413" 
d="M21 626q23 42 61 65.5t86 23.5q91 0 143 -45t52 -125q0 -51 -24 -87.5t-55 -67.5l-59.5 -59.5t-38.5 -63.5q-7 -24 -8 -45.5t18 -45.5l-6 -5q-26 24 -35.5 48t-9.5 48t10.5 45t26.5 41.5t34.5 41.5t34.5 43.5t26.5 49t10.5 57.5q0 66 -32 102.5t-89 36.5q-59 0 -94 -41
t-33 -113h-10zM181 -3q-19 0 -32 13t-13 32t13 32t32 13t32 -13t13 -32t-13 -32t-32 -13z" />
    <glyph glyph-name="at" unicode="@" horiz-adv-x="977" 
d="M382 227q-26 -36 -49.5 -65.5t-46.5 -50t-47 -32t-51 -11.5q-30 0 -55 13t-43.5 37t-28.5 57.5t-10 73.5q0 32 7.5 69.5t24.5 76.5q29 66 74.5 121t103.5 94t127 60.5t146 21.5q17 0 35.5 -1t37.5 -4q70 -9 125.5 -38t94.5 -73t60 -101t21 -122v-22.5t-2 -22.5
q-9 -83 -43.5 -160.5t-91.5 -137.5t-137 -96t-181 -36q-60 0 -126 14t-141 46l-12 30q66 -26 124 -38t108 -12q85 0 157.5 30t127 82.5t89.5 124t47 155.5q3 27 3 54q0 57 -15.5 105.5t-44.5 84.5t-70 58.5t-93 29.5q-15 2 -30 3t-29 1q-127 0 -228 -68t-157 -193
q-20 -45 -29.5 -86.5t-9.5 -77.5q0 -48 17 -77t49 -30q22 0 44.5 14.5t44.5 37t42 49.5t38 52q5 8 10 14.5t10 13.5l124 170q13 15 24 30q9 13 17.5 26t12.5 22h20l41 -403q2 -20 11.5 -29.5t20.5 -9.5h14l-3 -23h-171l3 23h14q8 0 19.5 7t12.5 21l-6 97zM410 266h119
q-2 43 -4 78t-5 80z" />
    <glyph glyph-name="A" unicode="A" horiz-adv-x="712" 
d="M622 84v1q14 -31 36 -44t42 -13h17v-26h-237v26h17q13 0 23 8t10 24q0 9 -3 18l-61 161h-251l-64 -162v1q-3 -11 -3 -18q0 -16 10.5 -24.5t23.5 -8.5h17v-26h-213v26h17q20 0 42 13t36 43h-1l222 525q10 22 18 42q7 17 12.5 35t5.5 29h22zM449 285l-106 282l-111 -282
h217z" />
    <glyph glyph-name="B" unicode="B" horiz-adv-x="563" 
d="M243 699q105 -2 162.5 -48.5t57.5 -123.5q0 -55 -26 -91.5t-61 -54.5q69 -19 108 -70t39 -120q0 -88 -61 -140t-175 -52h-247v26h21q23 0 38 15.5t17 37.5v543q0 22 -16 37.5t-39 15.5h-20v26zM284 49q70 2 110 40t40 107q0 52 -20.5 84.5t-52.5 49.5t-71 23q-36 5 -94 6
v-309zM265 388q28 5 52 19.5t40.5 41t16.5 71.5q0 62 -34 96t-100 34h-44v-266q44 0 69 4z" />
    <glyph glyph-name="C" unicode="C" horiz-adv-x="760" 
d="M706 302l-13 -165q-20 -33 -47 -60.5t-62 -47.5t-78 -31.5t-95 -11.5q-78 0 -144 26t-113.5 74t-74 115t-26.5 150q0 81 26 148t73 115t114 74t150 26q74 0 134 -20t106 -50l21 -151h-24q-22 87 -86 131t-150 44q-63 0 -113.5 -22.5t-86 -64t-54.5 -100t-19 -129.5
t20 -129t55.5 -99.5t84.5 -65t108 -26.5q50 0 95.5 14t81.5 45.5t60.5 83.5t33.5 127h23z" />
    <glyph glyph-name="D" unicode="D" horiz-adv-x="807" 
d="M393 700q80 0 146 -25t113.5 -71t73.5 -110.5t26 -143.5t-26 -143.5t-73.5 -110.5t-113.5 -71t-146 -25h-340v26h21q23 0 38 15.5t17 37.5v547q0 20 -17 33.5t-38 13.5h-21v27h340zM208 45h185q61 0 110.5 22t84.5 62t54.5 96t19.5 125q0 68 -19.5 124t-54.5 96t-85 62
t-110 22h-185v-609z" />
    <glyph glyph-name="E" unicode="E" 
d="M467 -2h-420v26h21q23 0 38 15.5t17 38.5v546q-2 20 -17.5 34t-36.5 14h-21v26h294q15 0 33.5 2t36 5t32.5 7t23 8v-144h-26v26q0 20 -13.5 34t-33.5 16h-190v-285h156q17 1 28.5 12.5t11.5 28.5v22h26v-170h-26v23q0 16 -11.5 27.5t-26.5 12.5h-157v-277h131
q37 0 63.5 9.5t46 26.5t33.5 40.5t25 51.5h27z" />
    <glyph glyph-name="F" unicode="F" horiz-adv-x="541" 
d="M481 588h-26v23q0 17 -11.5 28t-28.5 12h-198v-285h156q17 1 28.5 12.5t11.5 28.5v22h26v-170h-26v23q0 16 -11.5 27.5t-26.5 12.5h-157v-242q1 -23 16.5 -38.5t37.5 -15.5h21v-26h-231v26h21q23 0 38 15.5t17 38.5v546q0 20 -17 34t-38 14h-21v26h294q15 0 33.5 2t36 5
t32.5 7t23 8v-134z" />
    <glyph glyph-name="G" unicode="G" horiz-adv-x="798" 
d="M735 320q-40 0 -40 -35v-164q-18 -24 -44.5 -47.5t-62.5 -42t-81.5 -30.5t-101.5 -12q-80 0 -146.5 26.5t-114 74t-74 114.5t-26.5 149t26.5 149t74 115t113.5 74t146 26q82 0 140.5 -20.5t104.5 -49.5l21 -151h-23q-23 85 -85.5 129.5t-156.5 44.5q-60 0 -110 -23
t-85.5 -64.5t-55 -100t-19.5 -130.5q0 -71 20 -129t56 -99.5t86 -65.5t109 -25q60 1 116 22.5t96 56.5v172q0 35 -41 35h-15v23h187v-23z" />
    <glyph glyph-name="H" unicode="H" horiz-adv-x="813" 
d="M522 1v26h21q22 0 37.5 15.5t16.5 36.5v245h-383v-244q2 -22 17 -37.5t38 -15.5h21v-26h-231v26h21q23 0 38 15.5t17 37.5v542q-2 22 -17 38t-38 16h-21v26h231v-26h-21q-23 0 -38 -16t-17 -38v-252h383v252q-1 21 -16.5 36.5t-37.5 15.5h-21v26h230v-26h-20
q-23 0 -38 -16t-17 -38v-541q2 -22 17 -37.5t38 -15.5h20v-26z" />
    <glyph glyph-name="I" unicode="I" horiz-adv-x="338" 
d="M285 0h-231v26h21q23 0 38 15.5t17 37.5v542q-2 22 -17 38t-38 16h-21v26h231v-26h-21q-23 0 -38 -16t-17 -38v-542q2 -22 17 -37.5t38 -15.5h21v-26z" />
    <glyph glyph-name="J" unicode="J" horiz-adv-x="324" 
d="M286 699v-25h-21q-22 0 -37.5 -16t-17.5 -38v-616q0 -43 -15 -80.5t-41 -65t-61.5 -43t-76.5 -15.5v22q24 9 45 27.5t36 43.5t24 54.5t9 59.5v613q-1 22 -16.5 38t-37.5 16h-21v25h231z" />
    <glyph glyph-name="K" unicode="K" horiz-adv-x="657" 
d="M188 79q2 -22 17 -37.5t38 -15.5h21v-26h-231v26h21q23 0 38 15.5t17 37.5v542q-2 22 -17 38t-38 16h-21v26h231v-26h-21q-23 0 -38 -16t-17 -38v-263l238 284q6 7 6 14q0 8 -6 13.5t-17 5.5h-18v25h223v-25h-12q-30 0 -56 -12t-43 -32l-238 -260l276 -309
q18 -19 39.5 -27t53.5 -9v-26h-49q-11 0 -29.5 1.5t-40 7t-44 17t-40.5 32.5l-243 279v-258z" />
    <glyph glyph-name="L" unicode="L" horiz-adv-x="562" 
d="M528 174l-62 -174h-420v26h21q23 0 38 15.5t17 37.5v541q-2 22 -17 37.5t-38 15.5h-21v27h231v-27h-21q-23 0 -38 -15.5t-17 -37.5v-574h132q37 0 63.5 9.5t46 26.5t33.5 40.5t25 51.5h27z" />
    <glyph glyph-name="M" unicode="M" horiz-adv-x="931" 
d="M819 80q5 -25 23 -39.5t41 -14.5h24v-26h-229v25h24q12 0 21 9.5t9 21.5v2l-41 461l-193 -428q-8 -17 -14 -35q-6 -16 -11.5 -34.5t-7.5 -35.5h-21l-240 519l-40 -447v-2q0 -12 9 -21.5t21 -9.5h23v-25h-206v26h24q23 0 41 14.5t23 39.5l74 634h21l267 -578l262 578h21z
" />
    <glyph glyph-name="N" unicode="N" horiz-adv-x="841" 
d="M765 699v-26h-26q-20 0 -35 -15t-16 -35v-506q0 -23 1.5 -46.5t3.5 -42.5q2 -22 5 -43h-22l-521 556v-465q2 -21 16.5 -36t35.5 -15h26v-26h-218v26h26q21 0 36 15t16 37v508q0 25 -1.5 48.5t-3.5 41.5l-5 40h23l521 -556v464q-2 21 -16.5 36t-36.5 15h-26v26z" />
    <glyph glyph-name="O" unicode="O" horiz-adv-x="807" 
d="M401 714q80 0 146 -26t113.5 -74t74 -115t26.5 -149t-26.5 -149t-74 -115t-113.5 -74t-146 -26t-146 26t-113.5 74t-74 115t-26.5 149t26.5 149t74 115t113.5 74t146 26zM401 32q61 0 110.5 23t84.5 64.5t54.5 100t19.5 130.5t-19.5 130.5t-54.5 100t-84.5 64.5
t-110.5 23q-60 0 -109.5 -23t-85 -64.5t-54.5 -100t-19 -130.5t19 -130.5t54.5 -100t85 -64.5t109.5 -23z" />
    <glyph glyph-name="P" unicode="P" 
d="M313 700q99 0 154.5 -52.5t55.5 -144.5q0 -44 -17 -80t-44.5 -57t-63.5 -34.5t-75 -13.5q-24 0 -43.5 6.5t-45.5 20.5v14q5 -2 11 -3q10 -3 29 -3q18 0 40.5 3.5t44.5 15t40.5 32t29.5 53.5v-1q5 20 5 48v8q-2 65 -33 103.5t-89 38.5h-105v-575q2 -22 17 -37.5t38 -15.5
h21v-26h-231v26h21q23 0 38 15.5t17 37.5v546q-2 20 -17.5 34t-36.5 14h-21v27h260z" />
    <glyph glyph-name="Q" unicode="Q" horiz-adv-x="830" 
d="M1309 -109q-47 -45 -86 -70t-91.5 -42.5t-117.5 -17.5q-45 0 -95 10.5t-106 34.5q-29 12 -59.5 27t-63.5 32q-35 18 -72 36.5t-73.5 34.5t-72.5 28t-69 18q-78 2 -142.5 29.5t-110.5 75.5t-71.5 114t-25.5 147q0 82 26.5 149.5t74.5 115.5t114.5 74.5t146.5 26.5
t146 -26.5t113.5 -74.5t74 -115.5t26.5 -149.5q0 -66 -17.5 -123t-50 -102t-78 -77t-101.5 -48q58 -19 133.5 -49t165.5 -68q48 -20 102 -31.5t111 -11.5q72 0 140.5 22t115.5 44zM142 348q0 -72 19.5 -131t55.5 -101t86 -65t111 -23t110.5 23t85 65t55 101t19.5 131
t-19.5 131t-55 101t-85 65t-110.5 23t-111 -23t-86 -65t-55.5 -101t-19.5 -131z" />
    <glyph glyph-name="R" unicode="R" horiz-adv-x="677" 
d="M293 697q93 0 146 -51t53 -141q0 -34 -11.5 -66.5t-31.5 -59t-47.5 -44.5t-59.5 -23q14 -11 27.5 -27t24.5 -30q23 -34 46 -65q19 -26 40 -53t35 -42q29 -32 58.5 -51.5t76.5 -19.5v-26h-62q-35 0 -62.5 8.5t-49 21.5t-37 28.5t-27.5 30.5q-2 3 -9 12.5t-16.5 23.5
t-21 30.5t-23.5 33.5q-22 30 -45 62.5t-31.5 44t-18 20.5t-21 14.5t-51.5 5.5v-256q2 -22 17 -37.5t38 -15.5h21v-26h-230v26h21q23 0 38 15.5t17 37.5v542q-2 22 -17 38t-38 16h-21v26zM231 359q9 0 20 1q18 0 39 3.5t41.5 13.5t37.5 28.5t27 49.5q5 18 5 47v9
q-2 63 -31.5 100t-80.5 40q-17 1 -33.5 1.5t-31.5 0.5q-14 0 -25 -0.5t-19 -0.5h-5v-293h56z" />
    <glyph glyph-name="S" unicode="S" horiz-adv-x="475" 
d="M368 301q31 -29 41.5 -61.5t10.5 -63.5q0 -42 -13.5 -77.5t-38 -60.5t-60 -39t-79.5 -14q-19 0 -42.5 3t-47.5 10t-46 18t-37 27q-2 9 -3 19.5t-1 21.5q0 24 4.5 53t12.5 55h24q-1 -10 -1.5 -16.5t-0.5 -11.5q0 -61 35.5 -96.5t89.5 -35.5h8q25 1 48 10t39.5 25t26.5 38
t10 50q0 53 -36 84l-187 174q-30 29 -43 63.5t-13 64.5q0 32 12 63t34.5 55.5t56 39.5t77.5 15q20 0 42.5 -2.5t42.5 -7.5h47v-136h-26q0 47 -30 73.5t-72 26.5q-25 0 -45.5 -8.5t-35.5 -23t-23 -33t-8 -39.5q0 -18 7.5 -41t30.5 -43z" />
    <glyph glyph-name="T" unicode="T" horiz-adv-x="628" 
d="M480 701q15 0 33.5 2t36 5t32.5 7t23 8v-144h-26v26q0 20 -13.5 34t-33.5 15h-178v-576q2 -22 17 -37.5t38 -15.5h21v-26h-231v26h21q21 0 36.5 15t16.5 37v577h-177q-20 -1 -33.5 -15t-13.5 -34v-26h-27v144q9 -4 24 -8t32.5 -7t36 -5t33.5 -2h332z" />
    <glyph glyph-name="U" unicode="U" horiz-adv-x="785" 
d="M736 701v-26h-24q-17 0 -29 -11t-14 -28v-386q0 -59 -19.5 -108t-55.5 -83.5t-86 -53.5t-111 -19q-63 0 -114 19t-88 53.5t-57 82.5t-20 107v386q-1 17 -13.5 29t-29.5 12h-24v26h214v-26h-23q-17 0 -29.5 -11t-13.5 -28v-373q0 -52 14.5 -94t40.5 -72t62.5 -46.5
t81.5 -16.5q47 0 86 15.5t66.5 44t42.5 68t15 88.5v385q-2 17 -14 28t-29 11h-24v26z" />
    <glyph glyph-name="V" unicode="V" horiz-adv-x="740" 
d="M746 700v-26h-17q-20 0 -42 -13t-36 -43l-234 -526q-10 -23 -18 -43q-7 -17 -12 -34.5t-5 -28.5h-23l-277 631q-14 30 -36 43.5t-42 13.5h-16v26h236v-26h-17q-12 0 -22.5 -8t-10.5 -23q0 -10 4 -19v1l197 -494l206 494v-1q3 10 3 19q0 15 -10.5 23t-22.5 8h-17v26h212z
" />
    <glyph glyph-name="W" unicode="W" horiz-adv-x="982" 
d="M989 701v-26h-17q-21 0 -44.5 -13t-33.5 -42l-163 -517q0 -2 -3 -12.5t-7 -27t-7 -36.5t-4 -39h-23l-193 542l-140 -428q-5 -17 -9 -36q-4 -17 -7 -37.5t-4 -40.5h-23l-224 632q-11 29 -34 41.5t-44 12.5h-16v26h233v-26h-17q-12 0 -22.5 -8t-10.5 -25q0 -7 3 -16
l140 -451l176 542h20l186 -522l124 433q2 10 2 16q0 15 -9 23t-22 8h-17v26z" />
    <glyph glyph-name="X" unicode="X" horiz-adv-x="662" 
d="M675 26v-26h-254v26h20q13 0 22 9.5t9 23.5q0 6 -3 14l-144 226l-143 -226q-4 -7 -4 -15q0 -13 9.5 -22.5t21.5 -9.5h21v-26h-238v26h22q28 0 53 16.5t40 37.5q45 68 91.5 136.5t91.5 137.5l-169 266q-14 21 -38.5 37t-53.5 16h-21v27h253v-27h-21q-12 0 -21.5 -10
t-9.5 -23q0 -7 3 -14l128 -200l126 200v-1q4 7 4 16q0 13 -9.5 22.5t-20.5 9.5h-21v27h236v-27h-22q-29 0 -53.5 -16t-38.5 -37l-168 -248l187 -293q14 -21 37.5 -37t52.5 -16h25z" />
    <glyph glyph-name="Y" unicode="Y" horiz-adv-x="661" 
d="M669 699v-26h-21q-29 0 -53 -16t-38 -37l-192 -311v-231q1 -22 16.5 -37.5t37.5 -15.5h21v-26h-230v26h21q22 0 37 15.5t17 37.5v233l-184 309q-14 21 -38 37.5t-53 16.5h-22v26h257v-26h-21q-13 0 -21.5 -10t-8.5 -23q0 -9 4 -16l139 -260l149 261l1 1q3 6 3 14
q0 13 -9.5 23t-21.5 10h-21v26z" />
    <glyph glyph-name="Z" unicode="Z" horiz-adv-x="651" 
d="M580 1h-526v19l404 636h-314q-20 -1 -34.5 -15.5t-14.5 -34.5v-26h-26v143q9 -4 24 -8t33 -7t36.5 -5t33.5 -2h271q14 0 31 1.5t33 4.5t29 6t19 6v-25l-411 -649h296q52 0 83 35t45 87h26z" />
    <glyph glyph-name="bracketleft" unicode="[" horiz-adv-x="332" 
d="M85 722h182v-25l-102 -20v-723q26 -5 52.5 -10t52.5 -10v-24h-185v812z" />
    <glyph glyph-name="backslash" unicode="\" horiz-adv-x="406" 
d="M45 713l361 -709l-41 -19l-361 711z" />
    <glyph glyph-name="bracketright" unicode="]" horiz-adv-x="332" 
d="M235 722v-812h-185v24l105 20v723l-102 20v25h182z" />
    <glyph glyph-name="asciicircum" unicode="^" horiz-adv-x="523" 
d="M232 371h60l196 -189h-63l-163 154l-164 -154h-63z" />
    <glyph glyph-name="underscore" unicode="_" horiz-adv-x="500" 
d="M0 -60h500v-30h-500v30z" />
    <glyph glyph-name="grave" unicode="`" horiz-adv-x="439" 
d="M234 747q-81 37 -162 84q8 16 19 29.5t23 24.5q63 -62 126 -132z" />
    <glyph glyph-name="a" unicode="a" horiz-adv-x="663" 
d="M578 78q13 -28 31.5 -40t35.5 -12h16v-26h-216v26h16q11 0 20.5 8t9.5 23q0 7 -3 16l-51 124h-235l-51 -121q-4 -9 -4 -19q0 -15 9 -23t20 -8h16v-26h-202v26h16q17 0 36 12t33 40l202 431q10 21 18 40q7 17 12.5 35t6.5 30h22zM418 243l-97 236l-100 -236h197z" />
    <glyph glyph-name="b" unicode="b" horiz-adv-x="551" 
d="M247 600q27 0 63.5 -5t69 -21t55 -47t22.5 -82q0 -40 -24.5 -70.5t-58.5 -47.5q62 -16 101 -58t39 -98q0 -50 -21.5 -82.5t-54.5 -52t-73 -27.5t-77 -8h-249v26h20q21 0 35 13t15 31v459q-1 19 -15 31t-35 12h-20v27h208zM288 46q29 0 54.5 7.5t44 23t29.5 39t11 55.5
q0 44 -20.5 71t-53 41.5t-73 19.5t-92.5 5v-262h100zM258 337q30 4 55.5 15.5t42 33.5t16.5 59q0 57 -33 83t-93 26h-58v-220q40 0 70 3z" />
    <glyph glyph-name="c" unicode="c" horiz-adv-x="705" 
d="M666 262l-11 -145q-40 -61 -114 -96t-162 -35q-76 0 -137 22t-104 62.5t-66 98.5t-23 131t23 131.5t66 99t104 62t137 21.5q62 0 124.5 -17t110.5 -46l24 -150h-25q-23 90 -85 128.5t-150 38.5q-56 0 -100.5 -18.5t-76 -53t-48.5 -84.5t-17 -112q0 -60 17.5 -109
t49.5 -83.5t76.5 -54t99.5 -20.5h3q52 0 97.5 13.5t80 41.5t56 71t25.5 103h25z" />
    <glyph glyph-name="d" unicode="d" horiz-adv-x="760" 
d="M390 599q72 -1 131.5 -22.5t101.5 -60t65 -93.5t23 -124q0 -70 -22.5 -125.5t-64 -94.5t-101 -59.5t-133.5 -20.5h-333v26h21q20 0 33 13.5t14 32.5v458q-1 19 -14.5 31.5t-32.5 12.5h-20v27zM205 45h185q109 0 171.5 67t62.5 186q0 59 -16 106.5t-46.5 80.5t-74 50.5
t-97.5 17.5h-185v-508z" />
    <glyph glyph-name="e" unicode="e" horiz-adv-x="546" 
d="M443 -5h-409v26h22q20 0 33 13t14 32v462q0 18 -13.5 30.5t-33.5 12.5h-22v26h293q14 0 31 2t33.5 5t30 6.5t21.5 6.5v-131h-27v23q0 17 -11.5 29t-29.5 13h-193v-230h158q16 1 24 10.5t8 22.5v21h27v-153h-27v21q0 13 -7.5 22t-22.5 11h-159v-230h143q33 1 56.5 9.5
t40.5 22.5t29.5 34t22.5 43h28z" />
    <glyph glyph-name="f" unicode="f" horiz-adv-x="523" 
d="M341 596q15 0 32 2t33.5 4.5t31 6t22.5 6.5v-130h-28v23q0 17 -11 29t-29 13h-197v-230h160q16 1 24 10.5t8 22.5v21h27v-153h-27v21q0 13 -7.5 22t-22.5 11h-162v-206q1 -19 15 -32t34 -13h22v-26h-220v26h22q20 0 34 13t15 32v461q-1 18 -15 31t-34 13h-22v26h141z" />
    <glyph glyph-name="g" unicode="g" horiz-adv-x="742" 
d="M657 116q-18 -23 -45.5 -46t-63.5 -42t-80.5 -31t-96.5 -12q-74 0 -134.5 22t-103.5 62.5t-66.5 98.5t-23.5 131t23.5 131.5t66.5 99t103.5 62t134.5 21.5q69 0 125.5 -15t108.5 -47l24 -150h-25q-21 86 -78 126.5t-157 40.5q-54 0 -98.5 -18.5t-76 -53t-48.5 -84.5
t-17 -112t17 -111.5t48.5 -84.5t76 -53.5t98.5 -18.5q58 0 109.5 19t96.5 61q0 32 0.5 63t1.5 63q0 14 -10.5 21.5t-27.5 7.5h-14v22h179v-22h-14q-35 0 -35 -30z" />
    <glyph glyph-name="h" unicode="h" horiz-adv-x="746" 
d="M470 -1v26h19q20 0 34 13t15 32v203h-342v-203q1 -19 15 -32t34 -13h19v-26h-215v26h19q20 0 34 13t15 32v458q-1 18 -15 31t-34 13h-19v27h215v-27h-20q-19 0 -32.5 -12.5t-14.5 -29.5v-211h342v210q-1 18 -15 31t-34 13h-19v27h215v-27h-19q-19 0 -32.5 -13t-15.5 -30
v-459q1 -19 15 -32t34 -13h19v-26z" />
    <glyph glyph-name="i" unicode="i" horiz-adv-x="336" 
d="M44 0v26h21q23 0 39.5 13t18.5 31v459q-2 18 -18.5 31t-39.5 13h-21v27h237v-27h-21q-22 0 -38.5 -13t-18.5 -30v-460q1 -18 17.5 -31t39.5 -13h21v-26h-237z" />
    <glyph glyph-name="j" unicode="j" horiz-adv-x="309" 
d="M278 600v-27h-21q-23 0 -39 -13t-17 -32v-524q0 -37 -16 -70t-43 -58t-62.5 -39.5t-74.5 -14.5v24q23 7 44 23t37 37.5t25.5 46.5t9.5 51v528q-2 17 -18 29t-37 12h-21v27h233z" />
    <glyph glyph-name="k" unicode="k" horiz-adv-x="596" 
d="M167 70q1 -19 15 -32t34 -13h20v-26h-216v26h20q20 0 34 13t15 32v458q-1 18 -15 31t-34 13h-20v27h216v-27h-20q-20 0 -34 -12.5t-15 -29.5v-223l204 242q5 5 5 10q0 14 -19 14h-17v27h214v-27h-12q-26 0 -49 -8.5t-39 -23.5l-207 -221l235 -258q17 -18 35 -26.5
t53 -9.5v-26h-46q-11 0 -29 1.5t-38.5 7t-42 17t-39.5 32.5l-208 229v-217z" />
    <glyph glyph-name="l" unicode="l" horiz-adv-x="536" 
d="M502 152l-59 -154h-409v26h22q20 0 33 13t14 32v459q-1 18 -15.5 31t-34.5 13h-20v27h218v-27h-20q-20 0 -34.5 -13t-15.5 -31v-482h143q32 1 55.5 9.5t41 23t30 34t22.5 43.5z" />
    <glyph glyph-name="m" unicode="m" horiz-adv-x="878" 
d="M779 71v1q4 -23 21 -35t38 -12h23v-26h-219v25h23q11 0 19 7t8 18v4q-13 97 -24.5 186.5t-23.5 187.5l-171 -338q0 -1 -4.5 -11t-10.5 -25t-12 -33t-9 -35h-21l-225 433l-41 -364h1q-1 -1 -1 -2q0 -11 8.5 -19t19.5 -8h23v-25h-196v26h22q23 0 39.5 12.5t19.5 35.5
l76 540h22l252 -485l243 485h22z" />
    <glyph glyph-name="n" unicode="n" horiz-adv-x="779" 
d="M736 598v-26h-24q-19 0 -32 -12t-15 -29v-414q0 -23 1.5 -46.5t3.5 -42.5q2 -22 5 -43h-22l-495 469v-386q2 -18 15 -30.5t31 -12.5h25v-26h-200v26h25q18 0 31.5 12.5t14.5 30.5v416q0 24 -2 47.5t-4 41.5q-3 21 -6 41h24l494 -465v384q-2 17 -15 29t-31 12h-25v26z" />
    <glyph glyph-name="o" unicode="o" horiz-adv-x="746" 
d="M367 614q70 0 131 -23t107 -64.5t72.5 -99t26.5 -127.5t-26.5 -127.5t-72.5 -99t-107 -64.5t-131 -23t-131.5 23t-107.5 64.5t-72.5 99t-26.5 127.5t26.5 127.5t72.5 99t107.5 64.5t131.5 23zM367 32q52 0 97 19.5t78.5 54.5t52.5 84.5t19 109.5t-19 109.5t-52.5 84.5
t-78.5 54.5t-97 19.5t-97.5 -19.5t-79 -54.5t-52.5 -84.5t-19 -109.5t19 -109.5t52.5 -84.5t79 -54.5t97.5 -19.5z" />
    <glyph glyph-name="p" unicode="p" horiz-adv-x="553" 
d="M279 599q51 -1 93.5 -13.5t73 -35t47 -54.5t16.5 -72q0 -43 -15 -77t-40.5 -54.5t-59 -33t-71.5 -12.5q-26 0 -54 9t-57 23v15q9 -2 19 -4q8 -2 18.5 -3t21.5 -1q18 0 38.5 3.5t40.5 14t37.5 30t28.5 50.5q3 10 4.5 24t1.5 26q0 55 -38.5 87t-106.5 32h-86v-483
q1 -19 14.5 -32t33.5 -13h22v-26h-219v26h22q20 0 33 13t14 32v460q-1 18 -15 30.5t-34 12.5h-22v27z" />
    <glyph glyph-name="q" unicode="q" horiz-adv-x="766" 
d="M1192 -90q-52 -45 -87 -67.5t-82.5 -38.5t-105.5 -16q-39 0 -82.5 9t-91.5 29q-27 11 -56.5 26t-61.5 31q-29 15 -60 30t-62 28.5t-61 24.5t-56 16q-71 0 -132 23.5t-106.5 65t-71.5 99.5t-26 128t26 128t71 100t105.5 65t129.5 23t129.5 -23t106 -65t71.5 -100t26 -128
q0 -56 -16.5 -104t-46.5 -86.5t-71 -66.5t-90 -43q51 -17 118.5 -42t145.5 -56q43 -17 92 -27t100 -10q63 0 123 18.5t111 42.5zM139 298q0 -60 19 -110t51.5 -85.5t77 -55t95.5 -19.5t95.5 19.5t77.5 55t52 85.5t19 110t-19 110t-52 85.5t-77.5 55t-95.5 19.5t-95.5 -19.5
t-77 -55t-51.5 -85.5t-19 -110z" />
    <glyph glyph-name="r" unicode="r" horiz-adv-x="627" 
d="M271 599q94 -2 150 -45.5t56 -120.5q0 -30 -10 -57t-28.5 -49t-43.5 -37.5t-55 -22.5q15 -12 31 -30.5t28 -35.5v1q13 -19 27 -37q12 -16 27 -34t30 -35q14 -16 27 -29t27 -22.5t30.5 -14.5t37.5 -5v-26h-38q-42 0 -72 8.5t-52 21.5t-36.5 28.5t-26.5 29.5q-5 5 -20 27.5
t-32 45.5l-44 62q-18 23 -41 42t-77 19v-212q1 -18 14 -31t33 -13h22v-26h-216v26h22q20 0 33 12.5t14 30.5v461q-1 18 -14 30t-33 12h-21v27zM225 309q11 0 26.5 0.5t35.5 2t38 9t33 23t25 44.5q7 19 7 44q0 6 -1 8q-1 51 -33 80t-87 32q-20 1 -39 1h-64v-244h59z" />
    <glyph glyph-name="s" unicode="s" horiz-adv-x="462" 
d="M363 262q24 -20 35 -51t12 -61q0 -34 -14.5 -64t-39 -52.5t-57.5 -35.5t-70 -13q-22 0 -47 3t-48.5 9t-44.5 15.5t-35 22.5q-2 8 -3 17.5t-1 20.5q0 21 4 47t12 49h27q-1 -9 -1.5 -15t-0.5 -10q0 -53 34 -82.5t88 -29.5h7q57 2 89.5 28t32.5 71q0 20 -7.5 37.5
t-25.5 32.5h1l-195 150q-29 25 -39 55t-11 57q0 31 13 59t36 48t54 32t67 12q33 0 56.5 -2.5t40.5 -6.5h39l3 -122h-28q0 40 -25 62.5t-78 22.5q-23 0 -43 -6.5t-35 -18t-23.5 -26.5t-8.5 -33q0 -17 7 -35t28 -35z" />
    <glyph glyph-name="t" unicode="t" horiz-adv-x="578" 
d="M446 601q14 0 31 2t33.5 5t30.5 6.5t22 6.5v-131h-27v23q0 17 -11.5 29t-29.5 13h-167v-485q1 -18 15 -31t34 -13h20v-26h-217v26h20q20 0 33.5 13t15.5 32v484h-168q-18 -1 -29 -13t-11 -29v-23h-28v131q8 -3 22 -6.5t30.5 -6.5t33.5 -5t31 -2h316z" />
    <glyph glyph-name="u" unicode="u" horiz-adv-x="700" 
d="M652 602v-27h-23q-15 0 -26 -9t-12 -23v-328q0 -53 -17.5 -95t-50 -71.5t-79 -45.5t-104.5 -16q-117 0 -184 60t-67 166v328q-2 14 -12.5 24t-26.5 10h-22v27h201v-27h-23q-15 0 -26 -10t-12 -24v-315q0 -91 45.5 -143.5t125.5 -52.5q89 0 139 49t50 135v327
q-1 14 -12 23.5t-26 9.5h-23v26z" />
    <glyph glyph-name="v" unicode="v" horiz-adv-x="684" 
d="M677 600v-26h-16q-17 0 -35.5 -12.5t-32.5 -39.5l-202 -431q-10 -22 -18 -41q-7 -17 -12.5 -35t-6.5 -29h-22l-243 536q-14 27 -32 39.5t-35 12.5h-16v26h216v-26h-16q-11 0 -20 -8t-9 -24q0 -8 3 -17l-1 1l167 -406l170 404q4 8 4 18q0 15 -9 23.5t-20 8.5h-16v26h202z
" />
    <glyph glyph-name="w" unicode="w" horiz-adv-x="899" 
d="M898 602v-26h-16q-26 0 -44 -15t-27 -38l-141 -419q0 -2 -3.5 -13t-7 -27t-7 -36t-4.5 -39h-24l-175 448l-119 -334q0 -1 -3 -11.5t-7 -26.5t-7 -36t-4 -40h-23l-207 538q-8 21 -25.5 34t-43.5 13h-16v26h217v-26h-16q-10 0 -18.5 -6.5t-8.5 -21.5v-6.5t2 -7.5l122 -372
l158 455h21l168 -428l102 338q2 6 3 11t1 10q0 15 -8 21.5t-17 6.5h-17v26z" />
    <glyph glyph-name="x" unicode="x" horiz-adv-x="626" 
d="M637 33v-29h-247v26h20q11 0 20 7.5t9 18.5q0 6 -3 11l-128 183l-135 -183q-4 -5 -4 -12q0 -11 9.5 -18.5t20.5 -7.5h20v-26h-229v26h21q26 0 48.5 13.5t36.5 31.5v-1l177 227l-161 231q-14 17 -37 30.5t-50 13.5h-21v26h245v-26h-20q-11 0 -20 -8t-9 -19q0 -7 3 -11
l117 -167l112 166q3 4 3 11q0 11 -8.5 19t-19.5 8h-21v26h233v-26h-21q-27 0 -50 -13.5t-37 -32.5l-153 -213l171 -245q14 -17 36 -30.5t49 -13.5z" />
    <glyph glyph-name="y" unicode="y" horiz-adv-x="640" 
d="M641 600v-27h-21q-26 0 -47 -14t-35 -32l-185 -280v-177q1 -18 15 -31t34 -13h19v-26h-216v26h19q20 0 33.5 13t15.5 31v177l-179 280q-14 21 -34.5 33.5t-46.5 12.5h-20v27h242v-27h-19q-13 0 -20.5 -7.5t-7.5 -18.5q0 -2 0.5 -4.5t0.5 -4.5l134 -238l143 238q2 6 2 10
q0 11 -7.5 18t-20.5 7h-19v27h220z" />
    <glyph glyph-name="z" unicode="z" horiz-adv-x="608" 
d="M579 158l-60 -157h-480v19l356 536h-274q-18 -1 -29 -13t-11 -29v-23h-27v130q8 -3 22 -6.5t30 -6.5t33 -5t31 -2h224q15 0 33.5 1.5t35 4t30.5 5.5t20 6v-24l-362 -548h252q32 1 55.5 9.5t40.5 22.5t29.5 34t22.5 43z" />
    <glyph glyph-name="braceleft" unicode="{" horiz-adv-x="337" 
d="M42 332q14 0 31.5 1t22.5 9q2 6 2 15q0 11 -2 27t-4 33q-4 21 -6.5 45.5t-2.5 45.5v4q0 46 10.5 86t32.5 70t56.5 47t82.5 17l5 -22q-35 -9 -55.5 -26.5t-32 -43t-15.5 -58t-5 -70.5v-7q0 -11 0.5 -21.5t0.5 -21.5q1 -10 1 -20v-19q0 -36 -6 -64.5t-31 -42.5
q23 -14 30 -42.5t7 -63.5v-21t-1 -21q0 -11 -0.5 -21.5t-0.5 -21.5v-6q1 -38 5 -70.5t15.5 -58t32 -43t55.5 -26.5l-5 -22q-48 0 -82.5 17t-56.5 47t-32.5 70t-10.5 86v4q0 20 2.5 43.5t4.5 44.5q2 17 3.5 32.5t1.5 26.5q0 14 -2 18q-4 10 -20 13.5t-29 5.5z" />
    <glyph glyph-name="bar" unicode="|" horiz-adv-x="245" 
d="M100 700h45v-880h-45v880z" />
    <glyph glyph-name="braceright" unicode="}" horiz-adv-x="337" 
d="M45 733q48 0 82.5 -17t57 -47t33 -70t10.5 -86v-4q0 -22 -3 -45.5t-6 -45.5q-2 -17 -4.5 -33t-2.5 -27q0 -9 2 -15q5 -8 22.5 -9t31.5 -1v-25q-14 -2 -29.5 -5.5t-20.5 -13.5q-2 -8 -2 -18q0 -11 2 -26.5t4 -32.5q2 -21 4.5 -44t2.5 -44v-4q0 -46 -10.5 -86t-32.5 -70
t-56.5 -47t-82.5 -17l-5 22q34 9 55 26.5t32.5 43t15.5 58t4 70.5v6v21.5t-1 21.5q0 11 -0.5 21t-0.5 21q0 35 7 63.5t30 42.5q-24 14 -30.5 42.5t-6.5 63.5q0 10 0.5 19.5t0.5 20.5q1 11 1 21.5v21.5v7q0 38 -4 70.5t-15.5 58t-32.5 43t-55 26.5z" />
    <glyph glyph-name="asciitilde" unicode="~" horiz-adv-x="493" 
d="M425 354q7 -27 7 -44q0 -24 -9 -42t-23.5 -30t-33.5 -17.5t-39 -5.5q-24 0 -50 14.5t-49 30.5q-17 12 -36 23.5t-33 12.5h-2q-13 0 -22 -9.5t-9 -30.5q0 -5 1.5 -14t3.5 -23h-64q-2 14 -3.5 23.5t-1.5 16.5q0 25 8 43.5t21.5 31t31 19t36.5 6.5q27 1 53.5 -14.5
t51.5 -33.5q18 -12 34.5 -22t28.5 -11q15 0 27.5 9.5t12.5 28.5q0 8 -9 38h67z" />
    <glyph glyph-name="exclamdown" unicode="&#xa1;" horiz-adv-x="230" 
d="M115 706q19 0 32 -13t13 -32t-13 -32t-32 -13t-32 13t-13 32t13 32t32 13zM111 529h10l20 -230l12 -299h-75l12 299z" />
    <glyph glyph-name="cent" unicode="&#xa2;" horiz-adv-x="602" 
d="M563 314l-9 -126q-32 -54 -91 -83.5t-137 -31.5l-7 -83l-45 5l7 81q-54 7 -97.5 28.5t-74 56.5t-47.5 82t-17 104q0 63 19.5 113.5t55.5 85.5t88 54t117 20l7 82l46 -1l-7 -83q42 -5 80.5 -18.5t70.5 -33.5l18 -132h-23q-16 66 -55 98t-94 39l-38 -452q42 1 79 13t65 36
t45 60t20 86h24zM321 574q-91 -3 -139 -62t-48 -165q0 -94 39.5 -152t112.5 -72z" />
    <glyph glyph-name="sterling" unicode="&#xa3;" 
d="M547 168l-49 -144q-41 -19 -82.5 -27.5t-77.5 -8.5q-9 0 -18.5 0.5t-17.5 1.5q-26 4 -47.5 9.5t-40.5 10.5q-22 5 -40.5 9.5t-38.5 4.5q-12 0 -27 -3q-5 -1 -17 -7.5t-21 -15.5h-21v22q18 15 35.5 41.5t31.5 64.5t22.5 86.5t9.5 106.5h-111l18 52h92q-1 8 -1 17v17
q0 65 11 119t35 94t63 64.5t96 29.5q5 1 9 1h9q44 0 77.5 -18.5t54.5 -44.5l-30 -99h-25q3 22 3 33q0 45 -24 64.5t-58 19.5h-6.5t-6.5 -1q-38 -4 -61.5 -22t-37 -48.5t-18.5 -74t-5 -97.5v-25.5t1 -27.5h183l-17 -52h-165q-1 -54 -8.5 -93t-19 -68t-26.5 -49t-30 -36
q6 1 12 1h13q17 0 35.5 -2t38.5 -4q14 -2 28.5 -3.5t30.5 -3.5q7 -1 13.5 -1h13.5q26 0 52.5 5t51 18t46.5 34t38 53z" />
    <glyph glyph-name="currency" unicode="&#xa4;" horiz-adv-x="541" 
d="M458 131l-59 59q-29 -25 -64 -37t-70 -12q-36 0 -70.5 12t-63.5 36l-57 -58l-32 33l57 57q-24 29 -35.5 64t-11.5 70t12 70.5t36 64.5l-58 58l32 32l58 -58q29 23 63.5 34.5t69.5 11.5t69.5 -11.5t63.5 -35.5l59 59l33 -32l-59 -59q23 -29 34.5 -63t11.5 -70
q0 -35 -11 -69t-34 -63l57 -58zM146 236q24 -24 54.5 -36t62.5 -12t63 12t55 36q49 51 49 118t-49 118q-24 24 -55 36t-63 12t-62.5 -12t-54.5 -36q-25 -25 -37 -55.5t-12 -62.5t12 -62.5t37 -55.5z" />
    <glyph glyph-name="yen" unicode="&#xa5;" horiz-adv-x="661" 
d="M664 699v-26h-21q-29 0 -53 -16t-38 -37q-33 -54 -62 -100t-61 -100h117v-45h-145l-40 -66v-6h185v-45h-185v-180q1 -22 16.5 -37.5t37.5 -15.5h21v-26h-230v26h21q22 0 37 15.5t17 37.5v180h-186v45h186v7l-39 65h-147v45h120l-119 200q-14 21 -38 37.5t-53 16.5h-22v26
h257v-26h-21q-13 0 -21.5 -10t-8.5 -23q0 -9 4 -16l139 -260l149 261l1 1q3 6 3 14q0 13 -9.5 23t-21.5 10h-21v26z" />
    <glyph glyph-name="brokenbar" unicode="&#xa6;" horiz-adv-x="245" 
d="M100 700h45v-350h-45v350zM100 170h45v-350h-45v350z" />
    <glyph glyph-name="section" unicode="&#xa7;" horiz-adv-x="511" 
d="M278 709q46 7 77 -2.5t47.5 -27t17 -36.5t-14.5 -31q-10 -7 -21.5 -2t-25 15.5t-29.5 23t-34.5 19.5t-39 6t-43.5 -18q-25 -18 -33.5 -40.5t4.5 -55.5t50 -79.5t103 -113.5q55 -56 81 -114.5t29.5 -114t-13 -105t-45.5 -88.5t-67 -64t-79 -32q-46 -8 -77.5 2t-48 27
t-17.5 36.5t15 31.5q9 7 21 2t25.5 -15.5t29.5 -22.5t34 -19t39 -6t44 17q26 18 33 43.5t-8 61t-52.5 82.5t-100.5 108q-58 56 -84.5 114t-28.5 112.5t16 103.5t48.5 87t69.5 62.5t78 31.5v1zM140 583q-16 -30 -27.5 -66t-6.5 -77.5t31.5 -89t86.5 -102.5
q95 -87 128.5 -150.5t19.5 -112.5q19 30 29 65.5t4 77t-33 89t-83 101.5q-48 46 -79 82.5t-47.5 67.5t-21.5 59t-2 57z" />
    <glyph glyph-name="dieresis" unicode="&#xa8;" horiz-adv-x="600" 
d="M184 698q-17 0 -28 11.5t-11 28.5t11.5 28.5t28.5 11.5t28.5 -11t11.5 -28t-11 -28t-28 -11zM370 696q-17 0 -28 11.5t-11 28.5t11.5 28.5t28.5 11.5t28.5 -11t11.5 -28t-11 -28t-28 -11z" />
    <glyph glyph-name="copyright" unicode="&#xa9;" horiz-adv-x="848" 
d="M423 714q75 0 141.5 -28.5t116 -78t78 -116t28.5 -141.5t-28.5 -141.5t-78 -116t-116 -78t-141.5 -28.5t-141.5 28.5t-116 78t-78 116t-28.5 141.5t28.5 141.5t78 116t116 78t141.5 28.5zM423 661q-65 0 -121.5 -24.5t-99 -66.5t-67 -99t-24.5 -122t24.5 -121.5t67 -99
t99 -67t121.5 -24.5t122 24.5t99.5 67t67 99t24.5 121.5t-24.5 122t-67 99t-99.5 66.5t-122 24.5zM625 319l-8 -103q-27 -45 -77.5 -70t-111.5 -25q-50 0 -92 17.5t-73.5 48t-49 72t-17.5 89.5q0 49 17.5 90.5t49 72t73.5 47.5t92 17q43 0 86.5 -12t75.5 -33l16 -111h-22
q-13 54 -54.5 84.5t-101.5 30.5q-32 0 -60 -14t-48 -38.5t-31.5 -58t-11.5 -73.5q0 -39 12 -72t32 -57.5t47.5 -39t59.5 -15.5q36 0 66.5 9t54 28.5t38 50t17.5 74.5z" />
    <glyph glyph-name="guillemotleft" unicode="&#xab;" horiz-adv-x="453" 
d="M215 490l8 -5l-118 -193l119 -197l-9 -5l-175 202zM385 490l8 -5l-118 -193l119 -197l-9 -5l-175 202z" />
    <glyph glyph-name="logicalnot" unicode="&#xac;" horiz-adv-x="601" 
d="M545 397v-203h-62v141h-425v62h487z" />
    <glyph glyph-name="softhyphen" unicode="&#xad;" horiz-adv-x="380" 
d="M40 332h300l6 -33l-6 -31h-300l-6 32z" />
    <glyph glyph-name="registered" unicode="&#xae;" horiz-adv-x="245" 
d="M123 701q23 0 43.5 -9t36 -24.5t24.5 -36t9 -43.5t-9 -43.5t-24.5 -36t-36 -24.5t-43.5 -9t-43.5 9t-36 24.5t-24.5 36t-9 43.5t9 43.5t24.5 36t36 24.5t43.5 9zM123 495q19 0 36 7.5t29.5 20t20 29.5t7.5 36t-7.5 36t-20 29.5t-29.5 20t-36 7.5t-36 -7.5t-29.5 -20
t-20 -29.5t-7.5 -36t7.5 -36t20 -29.5t29.5 -20t36 -7.5zM124 652q18 0 30 -8.5t12 -23.5q0 -13 -8 -22t-21 -11q7 -2 15 -13.5t14 -19.5q2 -3 6.5 -9.5t14.5 -9.5v-2h-13q-13 0 -21 4t-13.5 10.5t-10 14.5t-8.5 15q-3 5 -5.5 9.5t-5.5 4.5v2h11q1 0 7.5 2t10.5 15q2 6 2 11
q0 22 -24 22h-12v-98q0 -11 11 -11h3v-2h-50v2h3q10 0 10 11v95q0 10 -11 10h-3v2h37h19z" />
    <glyph glyph-name="macron" unicode="&#xaf;" horiz-adv-x="600" 
d="M170 738h250v-35h-250v35z" />
    <glyph glyph-name="degree" unicode="&#xb0;" horiz-adv-x="257" 
d="M129 664q41 0 69.5 -28.5t28.5 -69.5t-28.5 -69.5t-69.5 -28.5t-69.5 28.5t-28.5 69.5t28.5 69.5t69.5 28.5zM129 625q-25 0 -42 -17t-17 -42t17 -42t42 -17t42 17t17 42t-17 42t-42 17z" />
    <glyph glyph-name="plusminus" unicode="&#xb1;" horiz-adv-x="481" 
d="M444 407v-60h-172v-172h-61v172h-172v60h172v172h61v-172h172zM38 120h406v-60h-406v60z" />
    <glyph glyph-name="acute" unicode="&#xb4;" horiz-adv-x="439" 
d="M202 752q32 35 63 68t63 64q12 -12 23 -25.5t19 -28.5q-41 -23 -81 -43.5t-81 -40.5z" />
    <glyph glyph-name="paragraph" unicode="&#xb6;" horiz-adv-x="520" 
d="M511 736q-13 -27 -37 -46t-69 -20h-13v-523q0 -29 -2 -51t-7.5 -40t-14.5 -34.5t-24 -34.5l-9 8q11 18 16.5 34.5t8 33.5t2.5 36.5v44.5v526h-83v-670q0 -29 -2 -57.5t-10 -54.5t-25 -48.5t-48 -38.5l-7 9q21 22 33.5 40.5t18.5 39.5t7.5 47.5t0.5 62.5v333
q-42 0 -78 12.5t-62.5 36.5t-41.5 58t-15 77q0 42 15.5 76t42 58t62 37t76.5 13h161h18.5t22.5 3.5t26 12t29 26.5z" />
    <glyph glyph-name="periodcentered" unicode="&#xb7;" horiz-adv-x="170" 
d="M85 305q-19 0 -32 13t-13 32t13 32t32 13t32 -13t13 -32t-13 -32t-32 -13z" />
    <glyph glyph-name="cedilla" unicode="&#xb8;" horiz-adv-x="600" 
d="M296 1h28l-42 -49q13 4 31 5.5t34 -4t27.5 -19.5t12.5 -40q1 -24 -11.5 -41t-33 -27t-46 -11.5t-50.5 6.5l1 10q15 0 31.5 3t29.5 10.5t21.5 20t7.5 30.5q0 16 -8.5 25t-20.5 13t-27 2.5t-28 -7.5l-5 10z" />
    <glyph glyph-name="guillemotright" unicode="&#xbb;" horiz-adv-x="453" 
d="M69 90l-9 5l119 197l-118 193l8 5l175 -198zM239 90l-9 5l119 197l-118 193l8 5l175 -198z" />
    <glyph glyph-name="questiondown" unicode="&#xbf;" horiz-adv-x="433" 
d="M233 704q19 0 32 -13t13 -32t-13 -32t-32 -13t-32 13t-13 32t13 32t32 13zM392 74q-23 -42 -61 -65.5t-86 -23.5q-91 0 -143 45t-52 125q0 34 11.5 61.5t29 50.5t38.5 43t40.5 39.5t35 40t22.5 43.5q7 24 8 45.5t-18 45.5l6 5q26 -24 35.5 -48t9.5 -48t-10.5 -45
t-26.5 -41.5t-34.5 -41.5t-34.5 -43.5t-26.5 -49t-10.5 -57.5q0 -66 32 -102.5t89 -36.5q59 0 93.5 41t33.5 113h10z" />
    <glyph glyph-name="Agrave" unicode="&#xc0;" horiz-adv-x="712" 
d="M358 765q-81 37 -162 84q8 16 19 29.5t23 24.5q63 -62 126 -132zM622 84v1q14 -31 36 -44t42 -13h17v-26h-237v26h17q13 0 23 8t10 24q0 9 -3 18l-61 161h-251l-64 -162v1q-3 -11 -3 -18q0 -16 10.5 -24.5t23.5 -8.5h17v-26h-213v26h17q20 0 42 13t36 43h-1l222 525
q10 22 18 42q7 17 12.5 35t5.5 29h22zM449 285l-106 282l-111 -282h217z" />
    <glyph glyph-name="Aacute" unicode="&#xc1;" horiz-adv-x="712" 
d="M351 770q32 35 63 68t63 64q12 -12 23 -25.5t19 -28.5q-41 -23 -81 -43.5t-81 -40.5zM622 84v1q14 -31 36 -44t42 -13h17v-26h-237v26h17q13 0 23 8t10 24q0 9 -3 18l-61 161h-251l-64 -162v1q-3 -11 -3 -18q0 -16 10.5 -24.5t23.5 -8.5h17v-26h-213v26h17q20 0 42 13
t36 43h-1l222 525q10 22 18 42q7 17 12.5 35t5.5 29h22zM449 285l-106 282l-111 -282h217z" />
    <glyph glyph-name="Acircumflex" unicode="&#xc2;" horiz-adv-x="712" 
d="M351 890h10l114 -119l-6 -8l-114 66l-105 -66l-6 8zM622 84v1q14 -31 36 -44t42 -13h17v-26h-237v26h17q13 0 23 8t10 24q0 9 -3 18l-61 161h-251l-64 -162v1q-3 -11 -3 -18q0 -16 10.5 -24.5t23.5 -8.5h17v-26h-213v26h17q20 0 42 13t36 43h-1l222 525q10 22 18 42
q7 17 12.5 35t5.5 29h22zM449 285l-106 282l-111 -282h217z" />
    <glyph glyph-name="Atilde" unicode="&#xc3;" horiz-adv-x="712" 
d="M492 843q-5 -37 -22.5 -58t-43.5 -21q-16 0 -32.5 7t-32 15t-29.5 15t-26 7q-38 0 -54 -41h-10q5 40 22 62.5t41 22.5q17 0 33 -6.5t31 -15t29 -15t27 -6.5q42 0 55 34h12zM622 84v1q14 -31 36 -44t42 -13h17v-26h-237v26h17q13 0 23 8t10 24q0 9 -3 18l-61 161h-251
l-64 -162v1q-3 -11 -3 -18q0 -16 10.5 -24.5t23.5 -8.5h17v-26h-213v26h17q20 0 42 13t36 43h-1l222 525q10 22 18 42q7 17 12.5 35t5.5 29h22zM449 285l-106 282l-111 -282h217z" />
    <glyph glyph-name="Adieresis" unicode="&#xc4;" horiz-adv-x="712" 
d="M260 762q-17 0 -28 11.5t-11 28.5t11.5 28.5t28.5 11.5t28.5 -11t11.5 -28t-11 -28t-28 -11zM446 760q-17 0 -28 11.5t-11 28.5t11.5 28.5t28.5 11.5t28.5 -11t11.5 -28t-11 -28t-28 -11zM622 84v1q14 -31 36 -44t42 -13h17v-26h-237v26h17q13 0 23 8t10 24q0 9 -3 18
l-61 161h-251l-64 -162v1q-3 -11 -3 -18q0 -16 10.5 -24.5t23.5 -8.5h17v-26h-213v26h17q20 0 42 13t36 43h-1l222 525q10 22 18 42q7 17 12.5 35t5.5 29h22zM449 285l-106 282l-111 -282h217z" />
    <glyph glyph-name="Aring" unicode="&#xc5;" horiz-adv-x="712" 
d="M622 84v1q14 -31 36 -44t42 -13h17v-26h-237v26h17q13 0 23 8t10 24q0 9 -3 18l-61 161h-251l-64 -162v1q-3 -11 -3 -18q0 -16 10.5 -24.5t23.5 -8.5h17v-26h-213v26h17q20 0 42 13t36 43h-1l222 525q8 18 15 35q6 14 11.5 30t7.5 29q-29 5 -47 23t-18 44q0 30 24.5 49
t60.5 19t60.5 -18t24.5 -50q0 -28 -21.5 -46.5t-54.5 -20.5zM449 285l-106 282l-111 -282h217zM311 770q0 -26 12.5 -39.5t31.5 -13.5t31.5 13.5t12.5 39.5t-12.5 39.5t-31.5 13.5t-31.5 -13.5t-12.5 -39.5z" />
    <glyph glyph-name="AE" unicode="&#xc6;" horiz-adv-x="902" 
d="M804 -3h-400v26h18q17 0 28.5 11.5t12.5 28.5v247h-147q-36 -60 -72 -121t-71 -122q-7 -10 -7 -21q0 -10 6.5 -16.5t18.5 -5.5h17v-26h-211v26h15q22 0 45.5 17t37.5 40l365 570q2 4 2 7q0 14 -16 14h-12v26h246q16 0 34.5 2t36 5t32 7t23.5 8v-131h-26v23q0 17 -12 28
t-28 12h-199v-295h157q16 1 28 12.5t12 28.5v23h26v-171h-26v23q0 16 -11.5 27.5t-26.5 12.5h-158v-267h152q54 2 89.5 31.5t54.5 74.5h27zM461 355v203l-120 -203h120z" />
    <glyph glyph-name="Ccedilla" unicode="&#xc7;" horiz-adv-x="760" 
d="M706 302l-13 -165q-39 -63 -104 -105t-163 -46l-33 -37q13 4 31 5.5t34 -4t27.5 -19.5t12.5 -40q1 -24 -11.5 -41t-33 -27t-46 -11.5t-50.5 6.5l1 10q15 0 31.5 3t29.5 10.5t21.5 20t7.5 30.5q0 16 -8.5 25t-20.5 13t-27 2.5t-28 -7.5l-5 10l39 52q-76 2 -139.5 29
t-109 74t-71 113.5t-25.5 147.5t26 148t73 115t114 74t150 26q74 0 134 -20t106 -50l21 -151h-24q-22 87 -86 131t-150 44q-63 0 -113.5 -22.5t-86 -64t-54.5 -100t-19 -129.5t20 -129t55.5 -99.5t84.5 -65t108 -26.5q50 0 95.5 14t81.5 45.5t60.5 83.5t33.5 127h23z" />
    <glyph glyph-name="Egrave" unicode="&#xc8;" 
d="M299 765q-81 37 -162 84q8 16 19 29.5t23 24.5q63 -62 126 -132zM469 -2h-420v26h21q23 0 38 15.5t17 38.5v546q-2 20 -17.5 34t-36.5 14h-21v26h294q15 0 33.5 2t36 5t32.5 7t23 8v-144h-26v26q0 20 -13.5 34t-33.5 16h-190v-285h156q17 1 28.5 12.5t11.5 28.5v22h26
v-170h-26v23q0 16 -11.5 27.5t-26.5 12.5h-157v-277h131q37 0 63.5 9.5t46 26.5t33.5 40.5t25 51.5h27z" />
    <glyph glyph-name="Eacute" unicode="&#xc9;" 
d="M292 770q32 35 63 68t63 64q12 -12 23 -25.5t19 -28.5q-41 -23 -81 -43.5t-81 -40.5zM469 -2h-420v26h21q23 0 38 15.5t17 38.5v546q-2 20 -17.5 34t-36.5 14h-21v26h294q15 0 33.5 2t36 5t32.5 7t23 8v-144h-26v26q0 20 -13.5 34t-33.5 16h-190v-285h156q17 1 28.5 12.5
t11.5 28.5v22h26v-170h-26v23q0 16 -11.5 27.5t-26.5 12.5h-157v-277h131q37 0 63.5 9.5t46 26.5t33.5 40.5t25 51.5h27z" />
    <glyph glyph-name="Ecircumflex" unicode="&#xca;" 
d="M293 890h10l114 -119l-6 -8l-114 66l-105 -66l-6 8zM469 -2h-420v26h21q23 0 38 15.5t17 38.5v546q-2 20 -17.5 34t-36.5 14h-21v26h294q15 0 33.5 2t36 5t32.5 7t23 8v-144h-26v26q0 20 -13.5 34t-33.5 16h-190v-285h156q17 1 28.5 12.5t11.5 28.5v22h26v-170h-26v23
q0 16 -11.5 27.5t-26.5 12.5h-157v-277h131q37 0 63.5 9.5t46 26.5t33.5 40.5t25 51.5h27z" />
    <glyph glyph-name="Edieresis" unicode="&#xcb;" 
d="M202 762q-17 0 -28 11.5t-11 28.5t11.5 28.5t28.5 11.5t28.5 -11t11.5 -28t-11 -28t-28 -11zM388 760q-17 0 -28 11.5t-11 28.5t11.5 28.5t28.5 11.5t28.5 -11t11.5 -28t-11 -28t-28 -11zM469 -2h-420v26h21q23 0 38 15.5t17 38.5v546q-2 20 -17.5 34t-36.5 14h-21v26
h294q15 0 33.5 2t36 5t32.5 7t23 8v-144h-26v26q0 20 -13.5 34t-33.5 16h-190v-285h156q17 1 28.5 12.5t11.5 28.5v22h26v-170h-26v23q0 16 -11.5 27.5t-26.5 12.5h-157v-277h131q37 0 63.5 9.5t46 26.5t33.5 40.5t25 51.5h27z" />
    <glyph glyph-name="Igrave" unicode="&#xcc;" horiz-adv-x="338" 
d="M170 765q-81 37 -162 84q8 16 19 29.5t23 24.5q63 -62 126 -132zM285 0h-231v26h21q23 0 38 15.5t17 37.5v542q-2 22 -17 38t-38 16h-21v26h231v-26h-21q-23 0 -38 -16t-17 -38v-542q2 -22 17 -37.5t38 -15.5h21v-26z" />
    <glyph glyph-name="Iacute" unicode="&#xcd;" horiz-adv-x="338" 
d="M163 770q32 35 63 68t63 64q12 -12 23 -25.5t19 -28.5q-41 -23 -81 -43.5t-81 -40.5zM285 0h-231v26h21q23 0 38 15.5t17 37.5v542q-2 22 -17 38t-38 16h-21v26h231v-26h-21q-23 0 -38 -16t-17 -38v-542q2 -22 17 -37.5t38 -15.5h21v-26z" />
    <glyph glyph-name="Icircumflex" unicode="&#xce;" horiz-adv-x="338" 
d="M164 890h10l114 -119l-6 -8l-114 66l-105 -66l-6 8zM285 0h-231v26h21q23 0 38 15.5t17 37.5v542q-2 22 -17 38t-38 16h-21v26h231v-26h-21q-23 0 -38 -16t-17 -38v-542q2 -22 17 -37.5t38 -15.5h21v-26z" />
    <glyph glyph-name="Idieresis" unicode="&#xcf;" horiz-adv-x="338" 
d="M73 762q-17 0 -28 11.5t-11 28.5t11.5 28.5t28.5 11.5t28.5 -11t11.5 -28t-11 -28t-28 -11zM259 760q-17 0 -28 11.5t-11 28.5t11.5 28.5t28.5 11.5t28.5 -11t11.5 -28t-11 -28t-28 -11zM285 0h-231v26h21q23 0 38 15.5t17 37.5v542q-2 22 -17 38t-38 16h-21v26h231v-26
h-21q-23 0 -38 -16t-17 -38v-542q2 -22 17 -37.5t38 -15.5h21v-26z" />
    <glyph glyph-name="Eth" unicode="&#xd0;" horiz-adv-x="807" 
d="M397 700q80 0 145.5 -25t112 -71t72 -110.5t25.5 -143.5t-25.5 -143.5t-72 -110.5t-112 -71t-145.5 -25h-339v26h21q22 0 37.5 15.5t16.5 37.5v248h-80v46h80v253q0 20 -16.5 33.5t-37.5 13.5h-21v27h339zM213 45h184q61 0 110.5 22t85 62t55 96t19.5 125q0 68 -19.5 124
t-55 96t-85 62t-110.5 22h-184v-281h159v-46h-159v-282z" />
    <glyph glyph-name="Ntilde" unicode="&#xd1;" horiz-adv-x="841" 
d="M562 843q-5 -37 -22.5 -58t-43.5 -21q-16 0 -32.5 7t-32 15t-29.5 15t-26 7q-38 0 -54 -41h-10q5 40 22 62.5t41 22.5q17 0 33 -6.5t31 -15t29 -15t27 -6.5q42 0 55 34h12zM765 699v-26h-26q-20 0 -35 -15t-16 -35v-506q0 -23 1.5 -46.5t3.5 -42.5q2 -22 5 -43h-22
l-521 556v-465q2 -21 16.5 -36t35.5 -15h26v-26h-218v26h26q21 0 36 15t16 37v508q0 25 -1.5 48.5t-3.5 41.5l-5 40h23l521 -556v464q-2 21 -16.5 36t-36.5 15h-26v26z" />
    <glyph glyph-name="Ograve" unicode="&#xd2;" horiz-adv-x="838" 
d="M420 765q-81 37 -162 84q8 16 19 29.5t23 24.5q63 -62 126 -132zM421 714q80 0 146 -26t113.5 -74t74 -115t26.5 -149t-26.5 -149t-74 -115t-113.5 -74t-146 -26t-146 26t-113.5 74t-74 115t-26.5 149t26.5 149t74 115t113.5 74t146 26zM421 32q61 0 110.5 23t84.5 64.5
t54.5 100t19.5 130.5t-19.5 130.5t-54.5 100t-84.5 64.5t-110.5 23q-60 0 -109.5 -23t-85 -64.5t-54.5 -100t-19 -130.5t19 -130.5t54.5 -100t85 -64.5t109.5 -23z" />
    <glyph glyph-name="Oacute" unicode="&#xd3;" horiz-adv-x="838" 
d="M423 770q32 35 63 68t63 64q12 -12 23 -25.5t19 -28.5q-41 -23 -81 -43.5t-81 -40.5zM421 714q80 0 146 -26t113.5 -74t74 -115t26.5 -149t-26.5 -149t-74 -115t-113.5 -74t-146 -26t-146 26t-113.5 74t-74 115t-26.5 149t26.5 149t74 115t113.5 74t146 26zM421 32
q61 0 110.5 23t84.5 64.5t54.5 100t19.5 130.5t-19.5 130.5t-54.5 100t-84.5 64.5t-110.5 23q-60 0 -109.5 -23t-85 -64.5t-54.5 -100t-19 -130.5t19 -130.5t54.5 -100t85 -64.5t109.5 -23z" />
    <glyph glyph-name="Ocircumflex" unicode="&#xd4;" horiz-adv-x="838" 
d="M424 890h10l114 -119l-6 -8l-114 66l-105 -66l-6 8zM421 714q80 0 146 -26t113.5 -74t74 -115t26.5 -149t-26.5 -149t-74 -115t-113.5 -74t-146 -26t-146 26t-113.5 74t-74 115t-26.5 149t26.5 149t74 115t113.5 74t146 26zM421 32q61 0 110.5 23t84.5 64.5t54.5 100
t19.5 130.5t-19.5 130.5t-54.5 100t-84.5 64.5t-110.5 23q-60 0 -109.5 -23t-85 -64.5t-54.5 -100t-19 -130.5t19 -130.5t54.5 -100t85 -64.5t109.5 -23z" />
    <glyph glyph-name="Otilde" unicode="&#xd5;" horiz-adv-x="838" 
d="M565 843q-5 -37 -22.5 -58t-43.5 -21q-16 0 -32.5 7t-32 15t-29.5 15t-26 7q-38 0 -54 -41h-10q5 40 22 62.5t41 22.5q17 0 33 -6.5t31 -15t29 -15t27 -6.5q42 0 55 34h12zM421 714q80 0 146 -26t113.5 -74t74 -115t26.5 -149t-26.5 -149t-74 -115t-113.5 -74t-146 -26
t-146 26t-113.5 74t-74 115t-26.5 149t26.5 149t74 115t113.5 74t146 26zM421 32q61 0 110.5 23t84.5 64.5t54.5 100t19.5 130.5t-19.5 130.5t-54.5 100t-84.5 64.5t-110.5 23q-60 0 -109.5 -23t-85 -64.5t-54.5 -100t-19 -130.5t19 -130.5t54.5 -100t85 -64.5t109.5 -23z
" />
    <glyph glyph-name="Odieresis" unicode="&#xd6;" horiz-adv-x="838" 
d="M333 762q-17 0 -28 11.5t-11 28.5t11.5 28.5t28.5 11.5t28.5 -11t11.5 -28t-11 -28t-28 -11zM519 760q-17 0 -28 11.5t-11 28.5t11.5 28.5t28.5 11.5t28.5 -11t11.5 -28t-11 -28t-28 -11zM421 714q80 0 146 -26t113.5 -74t74 -115t26.5 -149t-26.5 -149t-74 -115
t-113.5 -74t-146 -26t-146 26t-113.5 74t-74 115t-26.5 149t26.5 149t74 115t113.5 74t146 26zM421 32q61 0 110.5 23t84.5 64.5t54.5 100t19.5 130.5t-19.5 130.5t-54.5 100t-84.5 64.5t-110.5 23q-60 0 -109.5 -23t-85 -64.5t-54.5 -100t-19 -130.5t19 -130.5t54.5 -100
t85 -64.5t109.5 -23z" />
    <glyph glyph-name="multiply" unicode="&#xd7;" horiz-adv-x="415" 
d="M251 313l118 -118l-43 -43l-118 118l-119 -118l-43 43l118 118l-118 119l43 43l119 -118l118 118l43 -43z" />
    <glyph glyph-name="Oslash" unicode="&#xd8;" horiz-adv-x="828" 
d="M669 622q48 -48 74.5 -116t26.5 -153q0 -82 -25.5 -149t-72 -115t-112 -74t-145.5 -26q-65 0 -120 17.5t-99 49.5l-66 -78l-37 32l66 79q-48 48 -73.5 115.5t-25.5 149.5t25.5 149t72.5 115t112.5 74t145.5 26q63 0 116.5 -16.5t97.5 -47.5l63 76l36 -34zM591 607
q-33 32 -77 49t-97 17q-61 0 -110.5 -23t-85 -65t-54.5 -100.5t-19 -130.5q0 -63 15 -116.5t43 -94.5zM239 105q35 -32 79.5 -50.5t98.5 -18.5q60 0 109.5 23t85 65t54.5 100.5t19 129.5q0 67 -14.5 120t-45.5 95z" />
    <glyph glyph-name="Ugrave" unicode="&#xd9;" horiz-adv-x="785" 
d="M403 765q-81 37 -162 84q8 16 19 29.5t23 24.5q63 -62 126 -132zM736 701v-26h-24q-17 0 -29 -11t-14 -28v-386q0 -59 -19.5 -108t-55.5 -83.5t-86 -53.5t-111 -19q-63 0 -114 19t-88 53.5t-57 82.5t-20 107v386q-1 17 -13.5 29t-29.5 12h-24v26h214v-26h-23
q-17 0 -29.5 -11t-13.5 -28v-373q0 -52 14.5 -94t40.5 -72t62.5 -46.5t81.5 -16.5q47 0 86 15.5t66.5 44t42.5 68t15 88.5v385q-2 17 -14 28t-29 11h-24v26z" />
    <glyph glyph-name="Uacute" unicode="&#xda;" horiz-adv-x="785" 
d="M396 770q32 35 63 68t63 64q12 -12 23 -25.5t19 -28.5q-41 -23 -81 -43.5t-81 -40.5zM736 701v-26h-24q-17 0 -29 -11t-14 -28v-386q0 -59 -19.5 -108t-55.5 -83.5t-86 -53.5t-111 -19q-63 0 -114 19t-88 53.5t-57 82.5t-20 107v386q-1 17 -13.5 29t-29.5 12h-24v26h214
v-26h-23q-17 0 -29.5 -11t-13.5 -28v-373q0 -52 14.5 -94t40.5 -72t62.5 -46.5t81.5 -16.5q47 0 86 15.5t66.5 44t42.5 68t15 88.5v385q-2 17 -14 28t-29 11h-24v26z" />
    <glyph glyph-name="Ucircumflex" unicode="&#xdb;" horiz-adv-x="785" 
d="M396 890h10l114 -119l-6 -8l-114 66l-105 -66l-6 8zM736 701v-26h-24q-17 0 -29 -11t-14 -28v-386q0 -59 -19.5 -108t-55.5 -83.5t-86 -53.5t-111 -19q-63 0 -114 19t-88 53.5t-57 82.5t-20 107v386q-1 17 -13.5 29t-29.5 12h-24v26h214v-26h-23q-17 0 -29.5 -11
t-13.5 -28v-373q0 -52 14.5 -94t40.5 -72t62.5 -46.5t81.5 -16.5q47 0 86 15.5t66.5 44t42.5 68t15 88.5v385q-2 17 -14 28t-29 11h-24v26z" />
    <glyph glyph-name="Udieresis" unicode="&#xdc;" horiz-adv-x="785" 
d="M305 762q-17 0 -28 11.5t-11 28.5t11.5 28.5t28.5 11.5t28.5 -11t11.5 -28t-11 -28t-28 -11zM491 760q-17 0 -28 11.5t-11 28.5t11.5 28.5t28.5 11.5t28.5 -11t11.5 -28t-11 -28t-28 -11zM736 701v-26h-24q-17 0 -29 -11t-14 -28v-386q0 -59 -19.5 -108t-55.5 -83.5
t-86 -53.5t-111 -19q-63 0 -114 19t-88 53.5t-57 82.5t-20 107v386q-1 17 -13.5 29t-29.5 12h-24v26h214v-26h-23q-17 0 -29.5 -11t-13.5 -28v-373q0 -52 14.5 -94t40.5 -72t62.5 -46.5t81.5 -16.5q47 0 86 15.5t66.5 44t42.5 68t15 88.5v385q-2 17 -14 28t-29 11h-24v26z
" />
    <glyph glyph-name="Yacute" unicode="&#xdd;" horiz-adv-x="661" 
d="M334 770q32 35 63 68t63 64q12 -12 23 -25.5t19 -28.5q-41 -23 -81 -43.5t-81 -40.5zM669 699v-26h-21q-29 0 -53 -16t-38 -37l-192 -311v-231q1 -22 16.5 -37.5t37.5 -15.5h21v-26h-230v26h21q22 0 37 15.5t17 37.5v233l-184 309q-14 21 -38 37.5t-53 16.5h-22v26h257
v-26h-21q-13 0 -21.5 -10t-8.5 -23q0 -9 4 -16l139 -260l149 261l1 1q3 6 3 14q0 13 -9.5 23t-21.5 10h-21v26z" />
    <glyph glyph-name="Thorn" unicode="&#xde;" horiz-adv-x="554" 
d="M296 551q101 0 152.5 -52.5t51.5 -143.5q0 -44 -16.5 -80t-43.5 -61.5t-62 -39t-73 -13.5q-24 0 -49 6t-50 20v24q7 -2 16 -3q7 -2 16 -2.5t18 -0.5q18 0 41 3.5t44.5 14.5t40 31.5t29.5 53.5q2 8 4 21t2 27v8q-2 64 -33 103t-90 39h-104v-427q1 -22 16.5 -37.5
t37.5 -15.5h21v-26h-230v26h21q22 0 37.5 15.5t16.5 37.5v542q-1 22 -16.5 38t-37.5 16h-21v26h230v-26h-21q-22 0 -37.5 -16t-16.5 -38v-70h106z" />
    <glyph glyph-name="germandbls" unicode="&#xdf;" horiz-adv-x="924" 
d="M373 262q24 -20 35 -51t12 -61q0 -34 -14.5 -64t-39 -52.5t-57.5 -35.5t-70 -13q-22 0 -47 3t-48.5 9t-44.5 15.5t-35 22.5q-2 8 -3 17.5t-1 20.5q0 21 4 47t12 49h27q-1 -9 -1.5 -15t-0.5 -10q0 -53 34 -82.5t88 -29.5h7q57 2 89.5 28t32.5 71q0 20 -7.5 37.5
t-25.5 32.5h1l-195 150q-29 25 -39 55t-11 57q0 31 13 59t36 48t54 32t67 12q33 0 56.5 -2.5t40.5 -6.5h39l3 -122h-28q0 40 -25 62.5t-78 22.5q-23 0 -43 -6.5t-35 -18t-23.5 -26.5t-8.5 -33q0 -17 7 -35t28 -35zM820 262q24 -20 35.5 -51t11.5 -61q0 -34 -14.5 -64
t-39 -52.5t-57 -35.5t-69.5 -13q-22 0 -47 3t-48.5 9t-44.5 15.5t-35 22.5q-4 15 -4 38q0 21 4 47t12 49h27q-1 -9 -1.5 -15t-0.5 -10q0 -53 34 -82.5t88 -29.5h7q57 2 89.5 28t32.5 71q0 41 -33 70l-195 150q-29 25 -38.5 55t-10.5 57q0 31 13 59t36 48t54 32t67 12
q33 0 56.5 -2.5t40.5 -6.5h39l2 -122h-27q0 40 -25 62.5t-79 22.5q-23 0 -42.5 -6.5t-34.5 -18t-23.5 -26.5t-8.5 -33q0 -17 7 -35t28 -35z" />
    <glyph glyph-name="agrave" unicode="&#xe0;" horiz-adv-x="663" 
d="M333 665q-81 37 -162 84q8 16 19 29.5t23 24.5q63 -62 126 -132zM578 78q13 -28 31.5 -40t35.5 -12h16v-26h-216v26h16q11 0 20.5 8t9.5 23q0 7 -3 16l-51 124h-235l-51 -121q-4 -9 -4 -19q0 -15 9 -23t20 -8h16v-26h-202v26h16q17 0 36 12t33 40l202 431q10 21 18 40
q7 17 12.5 35t6.5 30h22zM418 243l-97 236l-100 -236h197z" />
    <glyph glyph-name="aacute" unicode="&#xe1;" horiz-adv-x="663" 
d="M326 670q32 35 63 68t63 64q12 -12 23 -25.5t19 -28.5q-41 -23 -81 -43.5t-81 -40.5zM578 78q13 -28 31.5 -40t35.5 -12h16v-26h-216v26h16q11 0 20.5 8t9.5 23q0 7 -3 16l-51 124h-235l-51 -121q-4 -9 -4 -19q0 -15 9 -23t20 -8h16v-26h-202v26h16q17 0 36 12t33 40
l202 431q10 21 18 40q7 17 12.5 35t6.5 30h22zM418 243l-97 236l-100 -236h197z" />
    <glyph glyph-name="acircumflex" unicode="&#xe2;" horiz-adv-x="663" 
d="M327 790h10l114 -119l-6 -8l-114 66l-105 -66l-6 8zM578 78q13 -28 31.5 -40t35.5 -12h16v-26h-216v26h16q11 0 20.5 8t9.5 23q0 7 -3 16l-51 124h-235l-51 -121q-4 -9 -4 -19q0 -15 9 -23t20 -8h16v-26h-202v26h16q17 0 36 12t33 40l202 431q10 21 18 40q7 17 12.5 35
t6.5 30h22zM418 243l-97 236l-100 -236h197z" />
    <glyph glyph-name="atilde" unicode="&#xe3;" horiz-adv-x="663" 
d="M468 743q-5 -37 -22.5 -58t-43.5 -21q-16 0 -32.5 7t-32 15t-29.5 15t-26 7q-38 0 -54 -41h-10q5 40 22 62.5t41 22.5q17 0 33 -6.5t31 -15t29 -15t27 -6.5q42 0 55 34h12zM578 78q13 -28 31.5 -40t35.5 -12h16v-26h-216v26h16q11 0 20.5 8t9.5 23q0 7 -3 16l-51 124
h-235l-51 -121q-4 -9 -4 -19q0 -15 9 -23t20 -8h16v-26h-202v26h16q17 0 36 12t33 40l202 431q10 21 18 40q7 17 12.5 35t6.5 30h22zM418 243l-97 236l-100 -236h197z" />
    <glyph glyph-name="adieresis" unicode="&#xe4;" horiz-adv-x="663" 
d="M236 662q-17 0 -28 11.5t-11 28.5t11.5 28.5t28.5 11.5t28.5 -11t11.5 -28t-11 -28t-28 -11zM422 660q-17 0 -28 11.5t-11 28.5t11.5 28.5t28.5 11.5t28.5 -11t11.5 -28t-11 -28t-28 -11zM578 78q13 -28 31.5 -40t35.5 -12h16v-26h-216v26h16q11 0 20.5 8t9.5 23
q0 7 -3 16l-51 124h-235l-51 -121q-4 -9 -4 -19q0 -15 9 -23t20 -8h16v-26h-202v26h16q17 0 36 12t33 40l202 431q10 21 18 40q7 17 12.5 35t6.5 30h22zM418 243l-97 236l-100 -236h197z" />
    <glyph glyph-name="aring" unicode="&#xe5;" horiz-adv-x="663" 
d="M332 814q40 0 66.5 -20t26.5 -55q0 -33 -26.5 -54t-66.5 -21t-66.5 21t-26.5 54t26.5 54t66.5 21zM332 797q-21 0 -35 -15t-14 -43t14 -43t35 -15t35 15t14 43t-14 43t-35 15zM578 78q13 -28 31.5 -40t35.5 -12h16v-26h-216v26h16q11 0 20.5 8t9.5 23q0 7 -3 16l-51 124
h-235l-51 -121q-4 -9 -4 -19q0 -15 9 -23t20 -8h16v-26h-202v26h16q17 0 36 12t33 40l202 431q10 21 18 40q7 17 12.5 35t6.5 30h22zM418 243l-97 236l-100 -236h197z" />
    <glyph glyph-name="ae" unicode="&#xe6;" horiz-adv-x="834" 
d="M755 -2h-374v26h16q14 0 23.5 8.5t9.5 22.5v206h-136l-133 -209q-2 -4 -2 -10q0 -8 5.5 -13t15.5 -5h16v-26h-191v26h14q19 0 40 15t33 35h1l337 483q1 2 1 6q0 11 -11 11h-11v25h240q13 0 29 2t31.5 5t28 6.5t20.5 6.5v-121h-26v21q0 14 -9.5 23t-23.5 9h-186v-242h153
q14 0 23 9.5t9 23.5v21h27v-151h-27v18q0 14 -9 23t-22 10h-154v-217h149q46 1 75 26.5t45 64.5h29zM431 308v166l-106 -166h106z" />
    <glyph glyph-name="ccedilla" unicode="&#xe7;" horiz-adv-x="705" 
d="M666 262l-11 -145q-38 -58 -107.5 -92.5t-152.5 -37.5l-39 -47q13 4 31 5.5t34 -4t27.5 -19.5t12.5 -40q1 -24 -11.5 -41t-33 -27t-46 -11.5t-50.5 6.5l1 10q15 0 31.5 3t29.5 10.5t21.5 20t7.5 30.5q0 16 -8.5 25t-20.5 13t-27 2.5t-28 -7.5l-5 10l46 61q-74 2 -133 24
t-100.5 62.5t-63.5 97.5t-22 129q0 73 23 131.5t66 99t104 62t137 21.5q62 0 124.5 -17t110.5 -46l24 -150h-25q-23 90 -85 128.5t-150 38.5q-56 0 -100.5 -18.5t-76 -53t-48.5 -84.5t-17 -112q0 -60 17.5 -109t49.5 -83.5t76.5 -54t99.5 -20.5h3q52 0 97.5 13.5t80 41.5
t56 71t25.5 103h25z" />
    <glyph glyph-name="egrave" unicode="&#xe8;" horiz-adv-x="546" 
d="M298 665q-81 37 -162 84q8 16 19 29.5t23 24.5q63 -62 126 -132zM443 -5h-409v26h22q20 0 33 13t14 32v462q0 18 -13.5 30.5t-33.5 12.5h-22v26h293q14 0 31 2t33.5 5t30 6.5t21.5 6.5v-131h-27v23q0 17 -11.5 29t-29.5 13h-193v-230h158q16 1 24 10.5t8 22.5v21h27v-153
h-27v21q0 13 -7.5 22t-22.5 11h-159v-230h143q33 1 56.5 9.5t40.5 22.5t29.5 34t22.5 43h28z" />
    <glyph glyph-name="eacute" unicode="&#xe9;" horiz-adv-x="546" 
d="M291 670q32 35 63 68t63 64q12 -12 23 -25.5t19 -28.5q-41 -23 -81 -43.5t-81 -40.5zM443 -5h-409v26h22q20 0 33 13t14 32v462q0 18 -13.5 30.5t-33.5 12.5h-22v26h293q14 0 31 2t33.5 5t30 6.5t21.5 6.5v-131h-27v23q0 17 -11.5 29t-29.5 13h-193v-230h158
q16 1 24 10.5t8 22.5v21h27v-153h-27v21q0 13 -7.5 22t-22.5 11h-159v-230h143q33 1 56.5 9.5t40.5 22.5t29.5 34t22.5 43h28z" />
    <glyph glyph-name="ecircumflex" unicode="&#xea;" horiz-adv-x="546" 
d="M292 790h10l114 -119l-6 -8l-114 66l-105 -66l-6 8zM443 -5h-409v26h22q20 0 33 13t14 32v462q0 18 -13.5 30.5t-33.5 12.5h-22v26h293q14 0 31 2t33.5 5t30 6.5t21.5 6.5v-131h-27v23q0 17 -11.5 29t-29.5 13h-193v-230h158q16 1 24 10.5t8 22.5v21h27v-153h-27v21
q0 13 -7.5 22t-22.5 11h-159v-230h143q33 1 56.5 9.5t40.5 22.5t29.5 34t22.5 43h28z" />
    <glyph glyph-name="edieresis" unicode="&#xeb;" horiz-adv-x="546" 
d="M201 662q-17 0 -28 11.5t-11 28.5t11.5 28.5t28.5 11.5t28.5 -11t11.5 -28t-11 -28t-28 -11zM387 660q-17 0 -28 11.5t-11 28.5t11.5 28.5t28.5 11.5t28.5 -11t11.5 -28t-11 -28t-28 -11zM443 -5h-409v26h22q20 0 33 13t14 32v462q0 18 -13.5 30.5t-33.5 12.5h-22v26h293
q14 0 31 2t33.5 5t30 6.5t21.5 6.5v-131h-27v23q0 17 -11.5 29t-29.5 13h-193v-230h158q16 1 24 10.5t8 22.5v21h27v-153h-27v21q0 13 -7.5 22t-22.5 11h-159v-230h143q33 1 56.5 9.5t40.5 22.5t29.5 34t22.5 43h28z" />
    <glyph glyph-name="igrave" unicode="&#xec;" horiz-adv-x="306" 
d="M155 665q-83 39 -161 84q8 16 18.5 29.5t22.5 24.5q63 -62 126 -132zM44 0v26h21q23 0 39.5 13t18.5 31v459q-2 18 -18.5 31t-39.5 13h-21v27h237v-27h-21q-22 0 -38.5 -13t-18.5 -30v-460q1 -18 17.5 -31t39.5 -13h21v-26h-237z" />
    <glyph glyph-name="iacute" unicode="&#xed;" horiz-adv-x="306" 
d="M148 670q32 35 63 68t63 64q12 -12 23 -25.5t19 -28.5q-41 -23 -81 -43.5t-81 -40.5zM44 0v26h21q23 0 39.5 13t18.5 31v459q-2 18 -18.5 31t-39.5 13h-21v27h237v-27h-21q-22 0 -38.5 -13t-18.5 -30v-460q1 -18 17.5 -31t39.5 -13h21v-26h-237z" />
    <glyph glyph-name="icircumflex" unicode="&#xee;" horiz-adv-x="306" 
d="M148 790h10l114 -119l-6 -8l-114 66l-105 -66l-6 8zM44 0v26h21q23 0 39.5 13t18.5 31v459q-2 18 -18.5 31t-39.5 13h-21v27h237v-27h-21q-22 0 -38.5 -13t-18.5 -30v-460q1 -18 17.5 -31t39.5 -13h21v-26h-237z" />
    <glyph glyph-name="idieresis" unicode="&#xef;" horiz-adv-x="306" 
d="M57 662q-17 0 -28 11.5t-11 28.5t11.5 28.5t28.5 11.5t28.5 -11t11.5 -28t-11 -28t-28 -11zM243 660q-17 0 -28 11.5t-11 28.5t11.5 28.5t28.5 11.5t28.5 -11t11.5 -28t-11 -28t-28 -11zM44 0v26h21q23 0 39.5 13t18.5 31v459q-2 18 -18.5 31t-39.5 13h-21v27h237v-27
h-21q-22 0 -38.5 -13t-18.5 -30v-460q1 -18 17.5 -31t39.5 -13h21v-26h-237z" />
    <glyph glyph-name="eth" unicode="&#xf0;" horiz-adv-x="760" 
d="M385 599q72 -1 131.5 -22.5t101.5 -60t65 -93.5t23 -124q0 -70 -22.5 -125.5t-64 -94.5t-101 -59.5t-133.5 -20.5h-333v26h21q20 0 33 13.5t14 32.5v206h-61v46h61v206q-1 19 -14.5 31.5t-32.5 12.5h-20v27zM200 45h185q109 0 171.5 67t62.5 186q0 59 -16 106.5
t-46.5 80.5t-74 50.5t-97.5 17.5h-185v-231h153v-46h-153v-231z" />
    <glyph glyph-name="ntilde" unicode="&#xf1;" horiz-adv-x="779" 
d="M524 743q-5 -37 -22.5 -58t-43.5 -21q-16 0 -32.5 7t-32 15t-29.5 15t-26 7q-38 0 -54 -41h-10q5 40 22 62.5t41 22.5q17 0 33 -6.5t31 -15t29 -15t27 -6.5q42 0 55 34h12zM736 598v-26h-24q-19 0 -32 -12t-15 -29v-414q0 -23 1.5 -46.5t3.5 -42.5q2 -22 5 -43h-22
l-495 469v-386q2 -18 15 -30.5t31 -12.5h25v-26h-200v26h25q18 0 31.5 12.5t14.5 30.5v416q0 24 -2 47.5t-4 41.5q-3 21 -6 41h24l494 -465v384q-2 17 -15 29t-31 12h-25v26z" />
    <glyph glyph-name="ograve" unicode="&#xf2;" horiz-adv-x="774" 
d="M388 665q-81 37 -162 84q8 16 19 29.5t23 24.5q63 -62 126 -132zM388 614q70 0 131 -23t107 -64.5t72.5 -99t26.5 -127.5t-26.5 -127.5t-72.5 -99t-107 -64.5t-131 -23t-131.5 23t-107.5 64.5t-72.5 99t-26.5 127.5t26.5 127.5t72.5 99t107.5 64.5t131.5 23zM388 32
q52 0 97 19.5t78.5 54.5t52.5 84.5t19 109.5t-19 109.5t-52.5 84.5t-78.5 54.5t-97 19.5t-97.5 -19.5t-79 -54.5t-52.5 -84.5t-19 -109.5t19 -109.5t52.5 -84.5t79 -54.5t97.5 -19.5z" />
    <glyph glyph-name="oacute" unicode="&#xf3;" horiz-adv-x="774" 
d="M381 670q32 35 63 68t63 64q12 -12 23 -25.5t19 -28.5q-41 -23 -81 -43.5t-81 -40.5zM388 614q70 0 131 -23t107 -64.5t72.5 -99t26.5 -127.5t-26.5 -127.5t-72.5 -99t-107 -64.5t-131 -23t-131.5 23t-107.5 64.5t-72.5 99t-26.5 127.5t26.5 127.5t72.5 99t107.5 64.5
t131.5 23zM388 32q52 0 97 19.5t78.5 54.5t52.5 84.5t19 109.5t-19 109.5t-52.5 84.5t-78.5 54.5t-97 19.5t-97.5 -19.5t-79 -54.5t-52.5 -84.5t-19 -109.5t19 -109.5t52.5 -84.5t79 -54.5t97.5 -19.5z" />
    <glyph glyph-name="ocircumflex" unicode="&#xf4;" horiz-adv-x="774" 
d="M382 790h10l114 -119l-6 -8l-114 66l-105 -66l-6 8zM388 614q70 0 131 -23t107 -64.5t72.5 -99t26.5 -127.5t-26.5 -127.5t-72.5 -99t-107 -64.5t-131 -23t-131.5 23t-107.5 64.5t-72.5 99t-26.5 127.5t26.5 127.5t72.5 99t107.5 64.5t131.5 23zM388 32q52 0 97 19.5
t78.5 54.5t52.5 84.5t19 109.5t-19 109.5t-52.5 84.5t-78.5 54.5t-97 19.5t-97.5 -19.5t-79 -54.5t-52.5 -84.5t-19 -109.5t19 -109.5t52.5 -84.5t79 -54.5t97.5 -19.5z" />
    <glyph glyph-name="otilde" unicode="&#xf5;" horiz-adv-x="774" 
d="M523 743q-5 -37 -22.5 -58t-43.5 -21q-16 0 -32.5 7t-32 15t-29.5 15t-26 7q-38 0 -54 -41h-10q5 40 22 62.5t41 22.5q17 0 33 -6.5t31 -15t29 -15t27 -6.5q42 0 55 34h12zM389 614q70 0 131 -23t107 -64.5t72.5 -99t26.5 -127.5t-26.5 -127.5t-72.5 -99t-107 -64.5
t-131 -23t-131.5 23t-107.5 64.5t-72.5 99t-26.5 127.5t26.5 127.5t72.5 99t107.5 64.5t131.5 23zM389 32q52 0 97 19.5t78.5 54.5t52.5 84.5t19 109.5t-19 109.5t-52.5 84.5t-78.5 54.5t-97 19.5t-97.5 -19.5t-79 -54.5t-52.5 -84.5t-19 -109.5t19 -109.5t52.5 -84.5
t79 -54.5t97.5 -19.5z" />
    <glyph glyph-name="odieresis" unicode="&#xf6;" horiz-adv-x="774" 
d="M291 662q-17 0 -28 11.5t-11 28.5t11.5 28.5t28.5 11.5t28.5 -11t11.5 -28t-11 -28t-28 -11zM477 660q-17 0 -28 11.5t-11 28.5t11.5 28.5t28.5 11.5t28.5 -11t11.5 -28t-11 -28t-28 -11zM388 614q70 0 131 -23t107 -64.5t72.5 -99t26.5 -127.5t-26.5 -127.5t-72.5 -99
t-107 -64.5t-131 -23t-131.5 23t-107.5 64.5t-72.5 99t-26.5 127.5t26.5 127.5t72.5 99t107.5 64.5t131.5 23zM388 32q52 0 97 19.5t78.5 54.5t52.5 84.5t19 109.5t-19 109.5t-52.5 84.5t-78.5 54.5t-97 19.5t-97.5 -19.5t-79 -54.5t-52.5 -84.5t-19 -109.5t19 -109.5
t52.5 -84.5t79 -54.5t97.5 -19.5z" />
    <glyph glyph-name="divide" unicode="&#xf7;" horiz-adv-x="481" 
d="M240 433q-14 0 -24.5 10.5t-10.5 24.5t10.5 24.5t24.5 10.5t24.5 -10.5t10.5 -24.5t-10.5 -24.5t-24.5 -10.5zM39 332h402v-45h-402v45zM239 117q-14 0 -24.5 10.5t-10.5 24.5t10.5 24.5t24.5 10.5t24.5 -10.5t10.5 -24.5t-10.5 -24.5t-24.5 -10.5z" />
    <glyph glyph-name="oslash" unicode="&#xf8;" horiz-adv-x="774" 
d="M600 551q57 -42 91 -105t34 -143q0 -70 -26.5 -127.5t-72.5 -99t-107.5 -64.5t-131.5 -23q-58 0 -110 16t-95 45l-61 -73l-37 32l60 72q-44 42 -69 98t-25 124q0 70 26.5 128t72.5 99.5t107.5 64.5t131.5 23q93 0 170 -40l50 60l36 -34zM520 534q-29 18 -62.5 28
t-69.5 10q-52 0 -97 -19.5t-78.5 -55t-53 -85t-19.5 -109.5q0 -50 13.5 -92t36.5 -76zM221 99q33 -30 75.5 -46.5t90.5 -16.5q52 0 97.5 19.5t79 55t52.5 84.5t19 109q0 63 -20.5 113.5t-56.5 86.5z" />
    <glyph glyph-name="ugrave" unicode="&#xf9;" horiz-adv-x="700" 
d="M352 665q-81 37 -162 84q8 16 19 29.5t23 24.5q63 -62 126 -132zM660 602v-27h-23q-15 0 -26 -9t-12 -23v-328q0 -53 -17.5 -95t-50 -71.5t-79 -45.5t-104.5 -16q-117 0 -184 60t-67 166v328q-2 14 -12.5 24t-26.5 10h-22v27h201v-27h-23q-15 0 -26 -10t-12 -24v-315
q0 -91 45.5 -143.5t125.5 -52.5q89 0 139 49t50 135v327q-1 14 -12 23.5t-26 9.5h-23v26z" />
    <glyph glyph-name="uacute" unicode="&#xfa;" horiz-adv-x="700" 
d="M344 670q32 35 63 68t63 64q12 -12 23 -25.5t19 -28.5q-41 -23 -81 -43.5t-81 -40.5zM660 602v-27h-23q-15 0 -26 -9t-12 -23v-328q0 -53 -17.5 -95t-50 -71.5t-79 -45.5t-104.5 -16q-117 0 -184 60t-67 166v328q-2 14 -12.5 24t-26.5 10h-22v27h201v-27h-23
q-15 0 -26 -10t-12 -24v-315q0 -91 45.5 -143.5t125.5 -52.5q89 0 139 49t50 135v327q-1 14 -12 23.5t-26 9.5h-23v26z" />
    <glyph glyph-name="ucircumflex" unicode="&#xfb;" horiz-adv-x="700" 
d="M345 790h10l114 -119l-6 -8l-114 66l-105 -66l-6 8zM660 602v-27h-23q-15 0 -26 -9t-12 -23v-328q0 -53 -17.5 -95t-50 -71.5t-79 -45.5t-104.5 -16q-117 0 -184 60t-67 166v328q-2 14 -12.5 24t-26.5 10h-22v27h201v-27h-23q-15 0 -26 -10t-12 -24v-315
q0 -91 45.5 -143.5t125.5 -52.5q89 0 139 49t50 135v327q-1 14 -12 23.5t-26 9.5h-23v26z" />
    <glyph glyph-name="udieresis" unicode="&#xfc;" horiz-adv-x="700" 
d="M254 662q-17 0 -28 11.5t-11 28.5t11.5 28.5t28.5 11.5t28.5 -11t11.5 -28t-11 -28t-28 -11zM440 660q-17 0 -28 11.5t-11 28.5t11.5 28.5t28.5 11.5t28.5 -11t11.5 -28t-11 -28t-28 -11zM660 602v-27h-23q-15 0 -26 -9t-12 -23v-328q0 -53 -17.5 -95t-50 -71.5
t-79 -45.5t-104.5 -16q-117 0 -184 60t-67 166v328q-2 14 -12.5 24t-26.5 10h-22v27h201v-27h-23q-15 0 -26 -10t-12 -24v-315q0 -91 45.5 -143.5t125.5 -52.5q89 0 139 49t50 135v327q-1 14 -12 23.5t-26 9.5h-23v26z" />
    <glyph glyph-name="yacute" unicode="&#xfd;" horiz-adv-x="640" 
d="M327 670q32 35 63 68t63 64q12 -12 23 -25.5t19 -28.5q-41 -23 -81 -43.5t-81 -40.5zM641 600v-27h-21q-26 0 -47 -14t-35 -32l-185 -280v-177q1 -18 15 -31t34 -13h19v-26h-216v26h19q20 0 33.5 13t15.5 31v177l-179 280q-14 21 -34.5 33.5t-46.5 12.5h-20v27h242v-27
h-19q-13 0 -20.5 -7.5t-7.5 -18.5q0 -2 0.5 -4.5t0.5 -4.5l134 -238l143 238q2 6 2 10q0 11 -7.5 18t-20.5 7h-19v27h220z" />
    <glyph glyph-name="thorn" unicode="&#xfe;" horiz-adv-x="527" 
d="M273 477q97 -2 154 -48t57 -126q0 -43 -13.5 -77t-36.5 -57.5t-54 -36t-65 -12.5q-50 0 -103 28v25q9 -3 18 -5q8 -2 17 -3t19 -1q16 0 34.5 4t36.5 14.5t33.5 29.5t25.5 50q3 10 4.5 24t1.5 26q0 56 -35 87.5t-97 31.5h-85v-362q1 -19 13.5 -32t30.5 -13h21v-26h-207v26
h21q18 0 30.5 13t13.5 32v460q-1 18 -13.5 30.5t-30.5 12.5h-21v27h207v-27h-21q-18 0 -30 -12t-13 -29v-53z" />
    <glyph glyph-name="ydieresis" unicode="&#xff;" horiz-adv-x="640" 
d="M237 662q-17 0 -28 11.5t-11 28.5t11.5 28.5t28.5 11.5t28.5 -11t11.5 -28t-11 -28t-28 -11zM423 660q-17 0 -28 11.5t-11 28.5t11.5 28.5t28.5 11.5t28.5 -11t11.5 -28t-11 -28t-28 -11zM641 600v-27h-21q-26 0 -47 -14t-35 -32l-185 -280v-177q1 -18 15 -31t34 -13h19
v-26h-216v26h19q20 0 33.5 13t15.5 31v177l-179 280q-14 21 -34.5 33.5t-46.5 12.5h-20v27h242v-27h-19q-13 0 -20.5 -7.5t-7.5 -18.5q0 -2 0.5 -4.5t0.5 -4.5l134 -238l143 238q2 6 2 10q0 11 -7.5 18t-20.5 7h-19v27h220z" />
    <glyph glyph-name="Amacron" unicode="&#x100;" horiz-adv-x="712" 
d="M622 84v1q14 -31 36 -44t42 -13h17v-26h-237v26h17q13 0 23 8t10 24q0 9 -3 18l-61 161h-251l-64 -162v1q-3 -11 -3 -18q0 -16 10.5 -24.5t23.5 -8.5h17v-26h-213v26h17q20 0 42 13t36 43h-1l222 525q10 22 18 42q7 17 12.5 35t5.5 29h22zM449 285l-106 282l-111 -282
h217zM207 830h261v-51h-261v51z" />
    <glyph glyph-name="amacron" unicode="&#x101;" horiz-adv-x="663" 
d="M582 78q14 -28 32.5 -40t35.5 -12h16v-26h-217v26h16q11 0 21 8t10 23q0 8 -3 17v-1l-52 125h-236l-52 -122q-3 -11 -3 -19q0 -15 9 -23t20 -8h16v-26h-203v26h16q17 0 36.5 12.5t33.5 39.5l202 433q10 22 18 41q7 17 13 34.5t7 29.5h22zM422 244l-97 238l-101 -238h198z
M203 730h261v-51h-261v51z" />
    <glyph glyph-name="Abreve" unicode="&#x102;" horiz-adv-x="712" 
d="M458 868q0 -21 -8 -39.5t-22.5 -33t-33 -22.5t-39.5 -8t-39.5 8t-33 22.5t-22.5 33t-8 39.5h10q8 -20 33.5 -37t60.5 -17t60.5 17t33.5 37h8zM622 84v1q14 -31 36 -44t42 -13h17v-26h-237v26h17q13 0 23 8t10 24q0 9 -3 18l-61 161h-251l-64 -162v1q-3 -11 -3 -18
q0 -16 10.5 -24.5t23.5 -8.5h17v-26h-213v26h17q20 0 42 13t36 43h-1l222 525q10 22 18 42q7 17 12.5 35t5.5 29h22zM449 285l-106 282l-111 -282h217z" />
    <glyph glyph-name="abreve" unicode="&#x103;" horiz-adv-x="663" 
d="M433 768q0 -21 -8 -39.5t-22.5 -33t-33 -22.5t-39.5 -8t-39.5 8t-33 22.5t-22.5 33t-8 39.5h10q8 -20 33.5 -37t60.5 -17t60.5 17t33.5 37h8zM578 78q13 -28 31.5 -40t35.5 -12h16v-26h-216v26h16q11 0 20.5 8t9.5 23q0 7 -3 16l-51 124h-235l-51 -121q-4 -9 -4 -19
q0 -15 9 -23t20 -8h16v-26h-202v26h16q17 0 36 12t33 40l202 431q10 21 18 40q7 17 12.5 35t6.5 30h22zM418 243l-97 236l-100 -236h197z" />
    <glyph glyph-name="Aogonek" unicode="&#x104;" horiz-adv-x="737" 
d="M622 84v1q14 -31 36 -44t42 -13h17v-19h2l-2 -5v-2h-1l-1 -2q-27 0 -41 0.5t-22 1.5h-32l-12 -2q-32 -5 -47 -26.5t-15 -44.5q0 -21 12.5 -37.5t31 -24t40.5 -3.5t40 23l6 -6q-11 -31 -40 -45.5t-59 -11t-53.5 25.5t-23.5 66q0 26 15.5 45.5t34.5 30.5q5 2 7.5 5t5.5 5
h-83v26h17q13 0 23 8t10 24q0 9 -3 18l-61 161h-251l-64 -162v1q-3 -11 -3 -18q0 -16 10.5 -24.5t23.5 -8.5h17v-26h-213v26h17q20 0 42 13t36 43h-1l222 525q10 22 18 42q7 17 12.5 35t5.5 29h22zM449 285l-106 282l-111 -282h217z" />
    <glyph glyph-name="aogonek" unicode="&#x105;" horiz-adv-x="633" 
d="M582 78q14 -28 32.5 -40t35.5 -12h16v-26h-174q-29 -8 -40.5 -27.5t-10.5 -43.5q1 -21 13 -37.5t30 -24t39.5 -3.5t39.5 23l6 -6q-11 -31 -39.5 -45.5t-58 -10.5t-52.5 26.5t-23 66.5q0 25 14 46.5t40 35.5h-1v26h16q11 0 21 8t10 23q0 8 -3 17v-1l-52 125h-236l-52 -122
q-3 -11 -3 -19q0 -15 9 -23t20 -8h16v-26h-203v26h16q17 0 36.5 12.5t33.5 39.5l202 433q10 22 18 41q7 17 13 34.5t7 29.5h22zM422 244l-97 238l-101 -238h198z" />
    <glyph glyph-name="Cacute" unicode="&#x106;" horiz-adv-x="760" 
d="M411 770q32 35 63 68t63 64q12 -12 23 -25.5t19 -28.5q-41 -23 -81 -43.5t-81 -40.5zM706 302l-13 -165q-20 -33 -47 -60.5t-62 -47.5t-78 -31.5t-95 -11.5q-78 0 -144 26t-113.5 74t-74 115t-26.5 150q0 81 26 148t73 115t114 74t150 26q74 0 134 -20t106 -50l21 -151
h-24q-22 87 -86 131t-150 44q-63 0 -113.5 -22.5t-86 -64t-54.5 -100t-19 -129.5t20 -129t55.5 -99.5t84.5 -65t108 -26.5q50 0 95.5 14t81.5 45.5t60.5 83.5t33.5 127h23z" />
    <glyph glyph-name="cacute" unicode="&#x107;" horiz-adv-x="705" 
d="M374 670q32 35 63 68t63 64q12 -12 23 -25.5t19 -28.5q-41 -23 -81 -43.5t-81 -40.5zM666 262l-11 -145q-40 -61 -114 -96t-162 -35q-76 0 -137 22t-104 62.5t-66 98.5t-23 131t23 131.5t66 99t104 62t137 21.5q62 0 124.5 -17t110.5 -46l24 -150h-25q-23 90 -85 128.5
t-150 38.5q-56 0 -100.5 -18.5t-76 -53t-48.5 -84.5t-17 -112q0 -60 17.5 -109t49.5 -83.5t76.5 -54t99.5 -20.5h3q52 0 97.5 13.5t80 41.5t56 71t25.5 103h25z" />
    <glyph glyph-name="Cdotaccent" unicode="&#x10a;" horiz-adv-x="760" 
d="M416 765q-18 0 -30.5 12.5t-12.5 30.5t12.5 30.5t30.5 12.5t30.5 -12.5t12.5 -30.5t-12.5 -30.5t-30.5 -12.5zM707 302l-13 -165q-20 -33 -47 -60.5t-62 -47.5t-78 -31.5t-95 -11.5q-78 0 -144 26t-113.5 74t-74 115t-26.5 150q0 81 26 148t73 115t114 74t150 26
q74 0 134 -20t106 -50l21 -151h-24q-22 87 -86 131t-150 44q-63 0 -113.5 -22.5t-86 -64t-54.5 -100t-19 -129.5t20 -129t55.5 -99.5t84.5 -65t108 -26.5q50 0 95.5 14t81.5 45.5t60.5 83.5t33.5 127h23z" />
    <glyph glyph-name="cdotaccent" unicode="&#x10b;" horiz-adv-x="705" 
d="M379 665q-18 0 -30.5 12.5t-12.5 30.5t12.5 30.5t30.5 12.5t30.5 -12.5t12.5 -30.5t-12.5 -30.5t-30.5 -12.5zM666 262l-11 -145q-40 -61 -114 -96t-162 -35q-76 0 -137 22t-104 62.5t-66 98.5t-23 131t23 131.5t66 99t104 62t137 21.5q62 0 124.5 -17t110.5 -46l24 -150
h-25q-23 90 -85 128.5t-150 38.5q-56 0 -100.5 -18.5t-76 -53t-48.5 -84.5t-17 -112q0 -60 17.5 -109t49.5 -83.5t76.5 -54t99.5 -20.5h3q52 0 97.5 13.5t80 41.5t56 71t25.5 103h25z" />
    <glyph glyph-name="Ccaron" unicode="&#x10c;" horiz-adv-x="760" 
d="M422 764h-10l-114 119l6 8l114 -66l105 66l6 -8zM706 302l-13 -165q-20 -33 -47 -60.5t-62 -47.5t-78 -31.5t-95 -11.5q-78 0 -144 26t-113.5 74t-74 115t-26.5 150q0 81 26 148t73 115t114 74t150 26q74 0 134 -20t106 -50l21 -151h-24q-22 87 -86 131t-150 44
q-63 0 -113.5 -22.5t-86 -64t-54.5 -100t-19 -129.5t20 -129t55.5 -99.5t84.5 -65t108 -26.5q50 0 95.5 14t81.5 45.5t60.5 83.5t33.5 127h23z" />
    <glyph glyph-name="ccaron" unicode="&#x10d;" horiz-adv-x="705" 
d="M385 664h-10l-114 119l6 8l114 -66l105 66l6 -8zM666 262l-11 -145q-40 -61 -114 -96t-162 -35q-76 0 -137 22t-104 62.5t-66 98.5t-23 131t23 131.5t66 99t104 62t137 21.5q62 0 124.5 -17t110.5 -46l24 -150h-25q-23 90 -85 128.5t-150 38.5q-56 0 -100.5 -18.5
t-76 -53t-48.5 -84.5t-17 -112q0 -60 17.5 -109t49.5 -83.5t76.5 -54t99.5 -20.5h3q52 0 97.5 13.5t80 41.5t56 71t25.5 103h25z" />
    <glyph glyph-name="Dcaron" unicode="&#x10e;" horiz-adv-x="807" 
d="M404 764h-10l-114 119l6 8l114 -66l105 66l6 -8zM391 700q80 0 146 -25t113.5 -71t73.5 -110.5t26 -143.5t-26 -143.5t-73.5 -110.5t-113.5 -71t-146 -25h-340v26h21q23 0 38 15.5t17 37.5v547q0 20 -17 33.5t-38 13.5h-21v27h340zM206 45h185q61 0 110.5 22t84.5 62
t54.5 96t19.5 125q0 68 -19.5 124t-54.5 96t-85 62t-110 22h-185v-609z" />
    <glyph glyph-name="dcaron" unicode="&#x10f;" horiz-adv-x="760" 
d="M393 665h-10l-114 119l6 8l114 -66l105 66l6 -8zM384 599q72 -1 131.5 -22.5t101.5 -60t65 -93.5t23 -124q0 -70 -22.5 -125.5t-64 -94.5t-101 -59.5t-133.5 -20.5h-333v26h21q20 0 33 13.5t14 32.5v458q-1 19 -14.5 31.5t-32.5 12.5h-20v27zM199 45h185q109 0 171.5 67
t62.5 186q0 59 -16 106.5t-46.5 80.5t-74 50.5t-97.5 17.5h-185v-508z" />
    <glyph glyph-name="Dcroat" unicode="&#x110;" horiz-adv-x="807" 
d="M258 830h261v-51h-261v51zM385 702q81 0 147.5 -25t114 -71t73.5 -111t26 -144t-26 -144t-73.5 -111t-114 -71t-147.5 -25h-340v26h21q22 0 37.5 15.5t16.5 38.5v549q0 20 -16.5 33.5t-37.5 13.5h-21v26h340zM200 45h185q61 0 111 22t85.5 62.5t55 96.5t19.5 125
t-19.5 125.5t-55 96.5t-85.5 62t-111 22h-185v-612z" />
    <glyph glyph-name="dcroat" unicode="&#x111;" horiz-adv-x="760" 
d="M256 731h261v-51h-261v51zM383 602q73 -1 132.5 -22.5t101.5 -60.5t65 -94.5t23 -124.5q0 -70 -22.5 -126t-64.5 -95t-101.5 -59.5t-133.5 -20.5h-334v26h20q20 0 33.5 13.5t14.5 32.5v461q-1 20 -14.5 32.5t-33.5 12.5h-19v26zM197 45h186q110 0 172.5 67.5t62.5 186.5
q0 60 -16 107.5t-46.5 80.5t-74 51t-98.5 18h-186v-511z" />
    <glyph glyph-name="Emacron" unicode="&#x112;" 
d="M471 -3h-420v26h21q22 0 37.5 15.5t16.5 38.5v548q-2 20 -17.5 34.5t-35.5 14.5h-21v25h294q15 0 33.5 2t36 5t32.5 7t24 8v-144h-26v26q0 20 -14 34.5t-33 16.5h-192v-287h157q17 1 29 12.5t12 28.5v23h26v-171h-26v23q0 16 -11.5 27.5t-27.5 13.5h-158v-279h132
q37 0 64 9.5t46.5 27t33.5 41t25 51.5h27zM167 830h261v-51h-261v51z" />
    <glyph glyph-name="emacron" unicode="&#x113;" horiz-adv-x="546" 
d="M153 730h261v-51h-261v51zM447 -5h-410v26h21q20 0 33.5 13t14.5 32v464q0 19 -14 31.5t-34 12.5h-21v26h293q14 0 31 2t33.5 5t30.5 6.5t22 6.5v-131h-27v22q0 17 -11.5 29.5t-29.5 13.5h-194v-232h159q16 1 24 10.5t8 23.5v21h27v-153h-27v21q0 13 -7.5 22t-22.5 10
h-160v-231h144q33 1 56.5 9.5t40.5 23t29.5 34t22.5 43.5h28z" />
    <glyph glyph-name="Edotaccent" unicode="&#x116;" 
d="M297 765q-18 0 -30.5 12.5t-12.5 30.5t12.5 30.5t30.5 12.5t30.5 -12.5t12.5 -30.5t-12.5 -30.5t-30.5 -12.5zM469 -2h-420v26h21q23 0 38 15.5t17 38.5v546q-2 20 -17.5 34t-36.5 14h-21v26h294q15 0 33.5 2t36 5t32.5 7t23 8v-144h-26v26q0 20 -13.5 34t-33.5 16h-190
v-285h156q17 1 28.5 12.5t11.5 28.5v22h26v-170h-26v23q0 16 -11.5 27.5t-26.5 12.5h-157v-277h131q37 0 63.5 9.5t46 26.5t33.5 40.5t25 51.5h27z" />
    <glyph glyph-name="edotaccent" unicode="&#x117;" horiz-adv-x="546" 
d="M296 665q-18 0 -30.5 12.5t-12.5 30.5t12.5 30.5t30.5 12.5t30.5 -12.5t12.5 -30.5t-12.5 -30.5t-30.5 -12.5zM443 -5h-409v26h22q20 0 33 13t14 32v462q0 18 -13.5 30.5t-33.5 12.5h-22v26h293q14 0 31 2t33.5 5t30 6.5t21.5 6.5v-131h-27v23q0 17 -11.5 29t-29.5 13
h-193v-230h158q16 1 24 10.5t8 22.5v21h27v-153h-27v21q0 13 -7.5 22t-22.5 11h-159v-230h143q33 1 56.5 9.5t40.5 22.5t29.5 34t22.5 43h28z" />
    <glyph glyph-name="Eogonek" unicode="&#x118;" 
d="M467 -2h4q-42 -10 -58.5 -29.5t-15.5 -48.5q1 -21 13 -37.5t30 -24t39.5 -3.5t39.5 23l6 -6q-11 -31 -39.5 -45.5t-58 -10.5t-52.5 26.5t-23 66.5q-1 33 23 57t59 32h-387v26h21q23 0 38 15.5t17 38.5v546q-2 20 -17.5 34t-36.5 14h-21v26h294q15 0 33.5 2t36 5t32.5 7
t23 8v-144h-26v26q0 20 -13.5 34t-33.5 16h-190v-285h156q17 1 28.5 12.5t11.5 28.5v22h26v-170h-26v23q0 16 -11.5 27.5t-26.5 12.5h-157v-277h131q37 0 63.5 9.5t46 26.5t33.5 40.5t25 51.5h27z" />
    <glyph glyph-name="eogonek" unicode="&#x119;" horiz-adv-x="546" 
d="M448 -1l13 1l-10 -5q-42 -10 -58.5 -29.5t-15.5 -48.5q1 -21 13 -37.5t30 -24t39.5 -3.5t39.5 23l6 -6q-11 -31 -39.5 -45.5t-58 -10.5t-52.5 26.5t-23 66.5q-1 33 23 57t59 32h-377v26h21q20 0 33.5 13t14.5 32v464q0 19 -14 31.5t-34 12.5h-21v26h293q14 0 31 2t33.5 5
t30.5 6.5t22 6.5v-131h-27v22q0 17 -11.5 29.5t-29.5 13.5h-194v-232h159q16 1 24 10.5t8 23.5v21h27v-153h-27v21q0 13 -7.5 22t-22.5 10h-160v-231h144q33 1 56.5 9.5t40.5 23t29.5 34t22.5 43.5h28z" />
    <glyph glyph-name="Ecaron" unicode="&#x11a;" 
d="M303 764h-10l-114 119l6 8l114 -66l105 66l6 -8zM469 -2h-420v26h21q23 0 38 15.5t17 38.5v546q-2 20 -17.5 34t-36.5 14h-21v26h294q15 0 33.5 2t36 5t32.5 7t23 8v-144h-26v26q0 20 -13.5 34t-33.5 16h-190v-285h156q17 1 28.5 12.5t11.5 28.5v22h26v-170h-26v23
q0 16 -11.5 27.5t-26.5 12.5h-157v-277h131q37 0 63.5 9.5t46 26.5t33.5 40.5t25 51.5h27z" />
    <glyph glyph-name="ecaron" unicode="&#x11b;" horiz-adv-x="546" 
d="M302 664h-10l-114 119l6 8l114 -66l105 66l6 -8zM443 -5h-409v26h22q20 0 33 13t14 32v462q0 18 -13.5 30.5t-33.5 12.5h-22v26h293q14 0 31 2t33.5 5t30 6.5t21.5 6.5v-131h-27v23q0 17 -11.5 29t-29.5 13h-193v-230h158q16 1 24 10.5t8 22.5v21h27v-153h-27v21
q0 13 -7.5 22t-22.5 11h-159v-230h143q33 1 56.5 9.5t40.5 22.5t29.5 34t22.5 43h28z" />
    <glyph glyph-name="Gbreve" unicode="&#x11e;" horiz-adv-x="798" 
d="M521 868q0 -21 -8 -39.5t-22.5 -33t-33 -22.5t-39.5 -8t-39.5 8t-33 22.5t-22.5 33t-8 39.5h10q8 -20 33.5 -37t60.5 -17t60.5 17t33.5 37h8zM735 320q-40 0 -40 -35v-164q-18 -24 -44.5 -47.5t-62.5 -42t-81.5 -30.5t-101.5 -12q-80 0 -146.5 26.5t-114 74t-74 114.5
t-26.5 149t26.5 149t74 115t113.5 74t146 26q82 0 140.5 -20.5t104.5 -49.5l21 -151h-23q-23 85 -85.5 129.5t-156.5 44.5q-60 0 -110 -23t-85.5 -64.5t-55 -100t-19.5 -130.5q0 -71 20 -129t56 -99.5t86 -65.5t109 -25q60 1 116 22.5t96 56.5v170q0 35 -41 35h-24v27h208
v-28z" />
    <glyph glyph-name="gbreve" unicode="&#x11f;" horiz-adv-x="742" 
d="M479 768q0 -21 -8 -39.5t-22.5 -33t-33 -22.5t-39.5 -8t-39.5 8t-33 22.5t-22.5 33t-8 39.5h10q8 -20 33.5 -37t60.5 -17t60.5 17t33.5 37h8zM657 116q-18 -23 -45.5 -46t-63.5 -42t-80.5 -31t-96.5 -12q-74 0 -134.5 22t-103.5 62.5t-66.5 98.5t-23.5 131t23.5 131.5
t66.5 99t103.5 62t134.5 21.5q69 0 125.5 -15t108.5 -47l24 -150h-25q-21 86 -78 126.5t-157 40.5q-54 0 -98.5 -18.5t-76 -53t-48.5 -84.5t-17 -112t17 -111.5t48.5 -84.5t76 -53.5t98.5 -18.5q58 0 109.5 19t96.5 61q0 32 0.5 63t1.5 63q0 14 -10.5 21.5t-27.5 7.5h-22v27
h195v-27h-22q-35 0 -35 -30z" />
    <glyph glyph-name="Gdotaccent" unicode="&#x120;" horiz-adv-x="798" 
d="M418 765q-18 0 -30.5 12.5t-12.5 30.5t12.5 30.5t30.5 12.5t30.5 -12.5t12.5 -30.5t-12.5 -30.5t-30.5 -12.5zM735 320q-40 0 -40 -35v-164q-18 -24 -44.5 -47.5t-62.5 -42t-81.5 -30.5t-101.5 -12q-80 0 -146.5 26.5t-114 74t-74 114.5t-26.5 149t26.5 149t74 115
t113.5 74t146 26q82 0 140.5 -20.5t104.5 -49.5l21 -151h-23q-23 85 -85.5 129.5t-156.5 44.5q-60 0 -110 -23t-85.5 -64.5t-55 -100t-19.5 -130.5q0 -71 20 -129t56 -99.5t86 -65.5t109 -25q60 1 116 22.5t96 56.5v170q0 35 -41 35h-24v27h208v-28z" />
    <glyph glyph-name="gdotaccent" unicode="&#x121;" horiz-adv-x="742" 
d="M377 665q-18 0 -30.5 12.5t-12.5 30.5t12.5 30.5t30.5 12.5t30.5 -12.5t12.5 -30.5t-12.5 -30.5t-30.5 -12.5zM657 116q-18 -23 -45.5 -46t-63.5 -42t-80.5 -31t-96.5 -12q-74 0 -134.5 22t-103.5 62.5t-66.5 98.5t-23.5 131t23.5 131.5t66.5 99t103.5 62t134.5 21.5
q69 0 125.5 -15t108.5 -47l24 -150h-25q-21 86 -78 126.5t-157 40.5q-54 0 -98.5 -18.5t-76 -53t-48.5 -84.5t-17 -112t17 -111.5t48.5 -84.5t76 -53.5t98.5 -18.5q58 0 109.5 19t96.5 61q0 32 0.5 63t1.5 63q0 14 -10.5 21.5t-27.5 7.5h-22v27h195v-27h-22q-35 0 -35 -30z
" />
    <glyph glyph-name="Gcommaaccent" unicode="&#x122;" horiz-adv-x="798" 
d="M381 -198q18 6 26.5 15.5t10.5 20.5t-1.5 21t-8.5 16q-8 10 -16.5 21t-1.5 26q4 9 12 13.5t18 3.5t19 -7t14 -18q10 -23 7.5 -44.5t-13 -37.5t-27.5 -26t-36 -11zM735 320q-40 0 -40 -35v-164q-18 -24 -44.5 -47.5t-62.5 -42t-81.5 -30.5t-101.5 -12q-80 0 -146.5 26.5
t-114 74t-74 114.5t-26.5 149t26.5 149t74 115t113.5 74t146 26q82 0 140.5 -20.5t104.5 -49.5l21 -151h-23q-23 85 -85.5 129.5t-156.5 44.5q-60 0 -110 -23t-85.5 -64.5t-55 -100t-19.5 -130.5q0 -71 20 -129t56 -99.5t86 -65.5t109 -25q60 1 116 22.5t96 56.5v170
q0 35 -41 35h-24v27h208v-28z" />
    <glyph glyph-name="gcommaaccent" unicode="&#x123;" horiz-adv-x="742" 
d="M341 -202q18 6 26.5 15.5t10.5 20.5t-1.5 21t-8.5 16q-8 10 -16.5 21t-1.5 26q4 9 12 13.5t18 3.5t19 -7t14 -18q10 -23 7.5 -44.5t-13 -37.5t-27.5 -26t-36 -11zM657 116q-18 -23 -45.5 -46t-63.5 -42t-80.5 -31t-96.5 -12q-74 0 -134.5 22t-103.5 62.5t-66.5 98.5
t-23.5 131t23.5 131.5t66.5 99t103.5 62t134.5 21.5q69 0 125.5 -15t108.5 -47l24 -150h-25q-21 86 -78 126.5t-157 40.5q-54 0 -98.5 -18.5t-76 -53t-48.5 -84.5t-17 -112t17 -111.5t48.5 -84.5t76 -53.5t98.5 -18.5q58 0 109.5 19t96.5 61q0 32 0.5 63t1.5 63
q0 14 -10.5 21.5t-27.5 7.5h-22v27h195v-27h-22q-35 0 -35 -30z" />
    <glyph glyph-name="Hbar" unicode="&#x126;" horiz-adv-x="778" 
d="M498 1v26h21q22 0 37 15.5t17 36.5v245h-383v-244q1 -22 16.5 -37.5t37.5 -15.5h21v-26h-230v26h21q22 0 37.5 15.5t16.5 37.5v407h-62v46h62v89q-1 22 -16.5 38t-37.5 16h-21v26h230v-26h-21q-22 0 -37.5 -16t-16.5 -38v-89h383v89q-2 21 -17 36.5t-37 15.5h-21v26h230
v-26h-21q-22 0 -37.5 -16t-16.5 -38v-88h64v-46h-64v-407q1 -22 16.5 -37.5t37.5 -15.5h21v-26zM573 370v117h-383v-117h383z" />
    <glyph glyph-name="hbar" unicode="&#x127;" horiz-adv-x="748" 
d="M626 414v-344q1 -18 15 -31t34 -13h19v-26h-215v26h19q20 0 34 13t15 31v204h-342v-204q1 -18 15 -31t34 -13h19v-26h-215v26h19q20 0 34 13t15 31v343h-64v46h64v70q-1 18 -15 31t-34 13h-19v27h215v-27h-20q-19 0 -32.5 -12.5t-14.5 -29.5v-72h342v70q-1 18 -15 31
t-34 13h-19v27h215v-27h-19q-19 0 -32.5 -13t-15.5 -30v-71h70v-46zM547 414h-342v-94h342v94z" />
    <glyph glyph-name="Imacron" unicode="&#x12a;" horiz-adv-x="338" 
d="M40 830h261v-51h-261v51zM283 0h-231v26h21q22 0 37.5 15.5t16.5 38.5v543q-1 23 -16.5 38.5t-37.5 15.5h-21v26h231v-26h-21q-23 0 -38 -15.5t-17 -38.5v-543q2 -23 17 -38.5t38 -15.5h21v-26z" />
    <glyph glyph-name="imacron" unicode="&#x12b;" horiz-adv-x="306" 
d="M23 730h261v-51h-261v51zM255 0h-209v26h19q18 0 31 13t14 32v461q-1 18 -14 31t-31 13h-19v27h209v-27h-19q-19 0 -32 -12.5t-14 -29.5v-463q1 -19 14 -32t32 -13h19v-26z" />
    <glyph glyph-name="Iogonek" unicode="&#x12e;" horiz-adv-x="338" 
d="M285 0h-99q-42 -10 -58.5 -29.5t-15.5 -48.5q1 -21 13 -37.5t30 -24t39.5 -3.5t39.5 23l6 -6q-11 -31 -39.5 -45.5t-58 -10.5t-52.5 26.5t-23 66.5q-1 33 23 57t59 32h-95v26h21q23 0 38 15.5t17 37.5v542q-2 22 -17 38t-38 16h-21v26h231v-26h-21q-23 0 -38 -16t-17 -38
v-542q2 -22 17 -37.5t38 -15.5h21v-26z" />
    <glyph glyph-name="iogonek" unicode="&#x12f;" horiz-adv-x="307" 
d="M255 0h-81q-42 -10 -58.5 -29.5t-15.5 -48.5q1 -21 13 -37.5t30 -24t39.5 -3.5t39.5 23l6 -6q-11 -31 -39.5 -45.5t-58 -10.5t-52.5 26.5t-23 66.5q-1 33 23 57t59 32h-91v26h19q18 0 31 13t14 32v461q-1 18 -14 31t-31 13h-19v27h209v-27h-19q-19 0 -32 -12.5t-14 -29.5
v-463q1 -19 14 -32t32 -13h19v-26z" />
    <glyph glyph-name="Idotaccent" unicode="&#x130;" horiz-adv-x="338" 
d="M168 765q-18 0 -30.5 12.5t-12.5 30.5t12.5 30.5t30.5 12.5t30.5 -12.5t12.5 -30.5t-12.5 -30.5t-30.5 -12.5zM285 0h-231v26h21q23 0 38 15.5t17 37.5v542q-2 22 -17 38t-38 16h-21v26h231v-26h-21q-23 0 -38 -16t-17 -38v-542q2 -22 17 -37.5t38 -15.5h21v-26z" />
    <glyph glyph-name="dotlessi" unicode="&#x131;" horiz-adv-x="306" 
d="M251 0h-197v10h11q23 0 38.5 15.5t16.5 38.5v472q-1 23 -16.5 38.5t-38.5 15.5h-11v10h197v-10h-11q-23 0 -38.5 -15t-16.5 -37v-474q1 -23 16.5 -38.5t38.5 -15.5h11v-10z" />
    <glyph glyph-name="IJ" unicode="&#x132;" horiz-adv-x="662" 
d="M273 -4h-231v26h21q22 0 37.5 15.5t16.5 38.5v545q-1 22 -16.5 38t-37.5 16h-21v25h231v-25h-21q-22 0 -37.5 -16t-17.5 -38v-545q2 -23 17.5 -38.5t37.5 -15.5h21v-26zM605 699v-25h-21q-22 0 -37.5 -16t-17.5 -38v-616q0 -43 -15 -80.5t-41 -65t-61.5 -43t-76.5 -15.5
v22q24 9 45 27.5t36 43.5t24 54.5t9 59.5v613q-1 22 -16.5 38t-37.5 16h-21v25h231z" />
    <glyph glyph-name="ij" unicode="&#x133;" horiz-adv-x="645" 
d="M40 -4v26h21q23 0 40 13t18 32v461q-1 19 -18 32t-40 13h-21v27h238v-27h-21q-23 0 -39.5 -13t-18.5 -30v-463q1 -19 18 -32t40 -13h21v-26h-238zM601 600v-27h-21q-23 0 -39 -13t-17 -32v-524q0 -37 -16 -70t-43 -58t-62.5 -39.5t-74.5 -14.5v24q23 7 44 23t37 37.5
t25.5 46.5t9.5 51v528q-2 17 -18 29t-37 12h-21v27h233z" />
    <glyph glyph-name="Kcommaaccent" unicode="&#x136;" horiz-adv-x="643" 
d="M183 79q2 -22 17 -37.5t38 -15.5h21v-26h-231v26h21q23 0 38 15.5t17 37.5v542q-2 22 -17 38t-38 16h-21v26h231v-26h-21q-23 0 -38 -16t-17 -38v-256l220 277q6 7 6 14q0 8 -6 13.5t-17 5.5h-18v25h223v-25h-12q-30 0 -56 -12t-43 -32l-226 -260l264 -309
q18 -19 39.5 -27t53.5 -9v-26h-49q-11 0 -29.5 1.5t-40 7t-44 17t-40.5 32.5l-225 273v-252zM317 -202q18 6 26.5 15.5t10.5 20.5t-1.5 21t-8.5 16q-8 10 -16.5 21t-1.5 26q4 9 12 13.5t18 3.5t19 -7t14 -18q10 -23 7.5 -44.5t-13 -37.5t-27.5 -26t-36 -11z" />
    <glyph glyph-name="kcommaaccent" unicode="&#x137;" horiz-adv-x="624" 
d="M167 70q1 -19 15 -32t34 -13h20v-26h-216v26h20q20 0 34 13t15 32v458q-1 18 -15 31t-34 13h-20v27h216v-27h-20q-20 0 -34 -12.5t-15 -29.5v-220l202 239q5 5 5 10q0 14 -19 14h-17v27h214v-27h-12q-26 0 -49 -8.5t-39 -23.5l-207 -221l235 -258q17 -18 35 -26.5
t53 -9.5v-26h-46q-11 0 -29 1.5t-38.5 7t-42 17t-39.5 32.5l-206 227v-215zM287 -202q18 6 26.5 15.5t10.5 20.5t-1.5 21t-8.5 16q-8 10 -16.5 21t-1.5 26q4 9 12 13.5t18 3.5t19 -7t14 -18q10 -23 7.5 -44.5t-13 -37.5t-27.5 -26t-36 -11z" />
    <glyph glyph-name="Lacute" unicode="&#x139;" horiz-adv-x="562" 
d="M163 770q32 35 63 68t63 64q12 -12 23 -25.5t19 -28.5q-41 -23 -81 -43.5t-81 -40.5zM528 174l-62 -174h-420v26h21q23 0 38 15.5t17 37.5v541q-2 22 -17 37.5t-38 15.5h-21v27h231v-27h-21q-23 0 -38 -15.5t-17 -37.5v-574h132q37 0 63.5 9.5t46 26.5t33.5 40.5t25 51.5
h27z" />
    <glyph glyph-name="lacute" unicode="&#x13a;" horiz-adv-x="536" 
d="M151 670q32 35 63 68t63 64q12 -12 23 -25.5t19 -28.5q-41 -23 -81 -43.5t-81 -40.5zM502 152l-59 -154h-409v26h22q20 0 33 13t14 32v459q-1 18 -15.5 31t-34.5 13h-20v27h218v-27h-20q-20 0 -34.5 -13t-15.5 -31v-482h143q32 1 55.5 9.5t41 23t30 34t22.5 43.5z" />
    <glyph glyph-name="Lcommaaccent" unicode="&#x13b;" horiz-adv-x="562" 
d="M271 -187q18 6 26.5 15.5t10.5 20.5t-1.5 21t-8.5 16q-8 10 -16.5 21t-1.5 26q4 9 12 13.5t18 3.5t19 -7t14 -18q10 -23 7.5 -44.5t-13 -37.5t-27.5 -26t-36 -11zM528 174l-62 -174h-420v26h21q23 0 38 15.5t17 37.5v541q-2 22 -17 37.5t-38 15.5h-21v27h231v-27h-21
q-23 0 -38 -15.5t-17 -37.5v-574h132q37 0 63.5 9.5t46 26.5t33.5 40.5t25 51.5h27z" />
    <glyph glyph-name="lcommaaccent" unicode="&#x13c;" horiz-adv-x="536" 
d="M294 -203q18 6 26.5 15.5t10.5 20.5t-1.5 21t-8.5 16q-8 10 -16.5 21t-1.5 26q4 9 12 13.5t18 3.5t19 -7t14 -18q10 -23 7.5 -44.5t-13 -37.5t-27.5 -26t-36 -11zM502 152l-59 -154h-409v26h22q20 0 33 13t14 32v459q-1 18 -15.5 31t-34.5 13h-20v27h218v-27h-20
q-20 0 -34.5 -13t-15.5 -31v-482h143q32 1 55.5 9.5t41 23t30 34t22.5 43.5z" />
    <glyph glyph-name="Lcaron" unicode="&#x13d;" horiz-adv-x="562" 
d="M361 569q18 6 26.5 16t10.5 20.5t-1.5 20.5t-8.5 16q-8 9 -16.5 20t-1.5 26q4 9 12 13.5t18 4t19 -6.5t14 -18q10 -23 7.5 -44.5t-13 -37.5t-27.5 -26t-36 -11zM528 174l-62 -174h-420v26h21q23 0 38 15.5t17 37.5v541q-2 22 -17 37.5t-38 15.5h-21v27h231v-27h-21
q-23 0 -38 -15.5t-17 -37.5v-574h132q37 0 63.5 9.5t46 26.5t33.5 40.5t25 51.5h27z" />
    <glyph glyph-name="lcaron" unicode="&#x13e;" horiz-adv-x="536" 
d="M353 466q18 6 26.5 16t10.5 20.5t-1.5 20.5t-8.5 16q-8 9 -16.5 20t-1.5 26q4 9 12 13.5t18 4t19 -6.5t14 -18q10 -23 7.5 -44.5t-13 -37.5t-27.5 -26t-36 -11zM502 152l-59 -154h-409v26h22q20 0 33 13t14 32v459q-1 18 -15.5 31t-34.5 13h-20v27h218v-27h-20
q-20 0 -34.5 -13t-15.5 -31v-482h143q32 1 55.5 9.5t41 23t30 34t22.5 43.5z" />
    <glyph glyph-name="Ldot" unicode="&#x13f;" horiz-adv-x="562" 
d="M335 403q-19 0 -32 13t-13 32t13 32t32 13t32 -13t13 -32t-13 -32t-32 -13zM528 174l-62 -174h-420v26h21q23 0 38 15.5t17 37.5v541q-2 22 -17 37.5t-38 15.5h-21v27h231v-27h-21q-23 0 -38 -15.5t-17 -37.5v-574h132q37 0 63.5 9.5t46 26.5t33.5 40.5t25 51.5h27z" />
    <glyph glyph-name="ldot" unicode="&#x140;" horiz-adv-x="536" 
d="M317 341q-19 0 -32 13t-13 32t13 32t32 13t32 -13t13 -32t-13 -32t-32 -13zM502 152l-59 -154h-409v26h22q20 0 33 13t14 32v459q-1 18 -15.5 31t-34.5 13h-20v27h218v-27h-20q-20 0 -34.5 -13t-15.5 -31v-482h143q32 1 55.5 9.5t41 23t30 34t22.5 43.5z" />
    <glyph glyph-name="Lslash" unicode="&#x141;" horiz-adv-x="562" 
d="M534 177l-62 -176h-420v26h21q23 0 38 15.5t17 37.5v215l-97 -55l-23 39l120 70v272q-2 22 -17 37.5t-38 15.5h-21v27h231v-27h-21q-23 0 -38 -15.5t-17 -37.5v-227l116 68l23 -40l-139 -81v-295h132q37 0 63.5 9.5t46 26.5t33.5 40.5t25 51.5z" />
    <glyph glyph-name="lslash" unicode="&#x142;" horiz-adv-x="536" 
d="M506 154l-59 -155h-409v26h22q20 0 33 13t14 32v172q-14 -8 -29 -16t-27 -16l-22 39l78 45v235q-1 18 -15.5 31t-34.5 13h-20v27h218v-27h-20q-20 0 -34.5 -13t-15.5 -31v-191l132 77l24 -38l-156 -90v-241h143q32 1 55.5 9.5t41 23t29.5 34t22 43.5z" />
    <glyph glyph-name="Nacute" unicode="&#x143;" horiz-adv-x="841" 
d="M420 770q32 35 63 68t63 64q12 -12 23 -25.5t19 -28.5q-41 -23 -81 -43.5t-81 -40.5zM765 699v-26h-26q-20 0 -35 -15t-16 -35v-506q0 -23 1.5 -46.5t3.5 -42.5q2 -22 5 -43h-22l-521 556v-465q2 -21 16.5 -36t35.5 -15h26v-26h-218v26h26q21 0 36 15t16 37v508
q0 25 -1.5 48.5t-3.5 41.5l-5 40h23l521 -556v464q-2 21 -16.5 36t-36.5 15h-26v26z" />
    <glyph glyph-name="nacute" unicode="&#x144;" horiz-adv-x="779" 
d="M382 670q32 35 63 68t63 64q12 -12 23 -25.5t19 -28.5q-41 -23 -81 -43.5t-81 -40.5zM736 598v-26h-24q-19 0 -32 -12t-15 -29v-414q0 -23 1.5 -46.5t3.5 -42.5q2 -22 5 -43h-22l-495 469v-386q2 -18 15 -30.5t31 -12.5h25v-26h-200v26h25q18 0 31.5 12.5t14.5 30.5v416
q0 24 -2 47.5t-4 41.5q-3 21 -6 41h24l494 -465v384q-2 17 -15 29t-31 12h-25v26z" />
    <glyph glyph-name="Ncommaaccent" unicode="&#x145;" horiz-adv-x="841" 
d="M388 -202q18 6 26.5 15.5t10.5 20.5t-1.5 21t-8.5 16q-8 10 -16.5 21t-1.5 26q4 9 12 13.5t18 3.5t19 -7t14 -18q10 -23 7.5 -44.5t-13 -37.5t-27.5 -26t-36 -11zM765 699v-26h-26q-20 0 -35 -15t-16 -35v-506q0 -23 1.5 -46.5t3.5 -42.5q2 -22 5 -43h-22l-521 556v-465
q2 -21 16.5 -36t35.5 -15h26v-26h-218v26h26q21 0 36 15t16 37v508q0 25 -1.5 48.5t-3.5 41.5l-5 40h23l521 -556v464q-2 21 -16.5 36t-36.5 15h-26v26z" />
    <glyph glyph-name="ncommaaccent" unicode="&#x146;" horiz-adv-x="779" 
d="M362 -203q18 6 26.5 15.5t10.5 20.5t-1.5 21t-8.5 16q-8 10 -16.5 21t-1.5 26q4 9 12 13.5t18 3.5t19 -7t14 -18q10 -23 7.5 -44.5t-13 -37.5t-27.5 -26t-36 -11zM736 598v-26h-24q-19 0 -32 -12t-15 -29v-414q0 -23 1.5 -46.5t3.5 -42.5q2 -22 5 -43h-22l-495 469v-386
q2 -18 15 -30.5t31 -12.5h25v-26h-200v26h25q18 0 31.5 12.5t14.5 30.5v416q0 24 -2 47.5t-4 41.5q-3 21 -6 41h24l494 -465v384q-2 17 -15 29t-31 12h-25v26z" />
    <glyph glyph-name="Ncaron" unicode="&#x147;" horiz-adv-x="841" 
d="M431 764h-10l-114 119l6 8l114 -66l105 66l6 -8zM765 699v-26h-26q-20 0 -35 -15t-16 -35v-506q0 -23 1.5 -46.5t3.5 -42.5q2 -22 5 -43h-22l-521 556v-465q2 -21 16.5 -36t35.5 -15h26v-26h-218v26h26q21 0 36 15t16 37v508q0 25 -1.5 48.5t-3.5 41.5l-5 40h23l521 -556
v464q-2 21 -16.5 36t-36.5 15h-26v26z" />
    <glyph glyph-name="ncaron" unicode="&#x148;" horiz-adv-x="779" 
d="M393 664h-10l-114 119l6 8l114 -66l105 66l6 -8zM736 598v-26h-24q-19 0 -32 -12t-15 -29v-414q0 -23 1.5 -46.5t3.5 -42.5q2 -22 5 -43h-22l-495 469v-386q2 -18 15 -30.5t31 -12.5h25v-26h-200v26h25q18 0 31.5 12.5t14.5 30.5v416q0 24 -2 47.5t-4 41.5q-3 21 -6 41
h24l494 -465v384q-2 17 -15 29t-31 12h-25v26z" />
    <glyph glyph-name="Eng" unicode="&#x14a;" horiz-adv-x="817" 
d="M764 704v-29h-23q-18 0 -31 -13t-14 -31v-654q0 -42 -11.5 -72.5t-30.5 -51.5t-44 -33.5t-52 -18.5l-13 21q16 7 32 19.5t29 31.5t21 45t8 60v59l-475 508v-474q2 -18 14.5 -30.5t30.5 -12.5h24v-29h-197v29h24q18 0 31 12.5t14 30.5v516q0 25 -1.5 48.5t-3.5 41.5l-5 40
h23l523 -558v470q-1 18 -14 31t-31 13h-23v29z" />
    <glyph glyph-name="eng" unicode="&#x14b;" horiz-adv-x="839" 
d="M761 599v-26h-24q-17 0 -29.5 -12t-14.5 -29v-546q0 -37 -10.5 -65t-27.5 -48t-40.5 -32.5t-48.5 -17.5l-13 20q32 15 56 52t24 93v37l-452 429v-389q1 -18 14.5 -30.5t32.5 -12.5h25v-26h-202v26h25q19 0 32 12.5t15 30.5v419q0 25 -2 48.5t-4 41.5q-3 21 -6 40h24
l499 -470v390q0 17 -13.5 29t-30.5 12h-24v26z" />
    <glyph glyph-name="Omacron" unicode="&#x14c;" horiz-adv-x="838" 
d="M291 830h261v-50h-261v50zM420 716q80 0 146.5 -26t114 -74t74 -115.5t26.5 -149.5t-26.5 -149t-74 -115t-114 -74.5t-146.5 -26.5t-146.5 26.5t-114 74.5t-74 115t-26.5 149t26.5 149.5t74 115.5t114 74t146.5 26zM420 32q61 0 110.5 23t84.5 65t54.5 100.5t19.5 130.5
t-19.5 131t-54.5 101t-84.5 65t-110.5 23t-110.5 -23t-85 -65t-55 -101t-19.5 -131t19.5 -130.5t55 -100.5t85 -65t110.5 -23z" />
    <glyph glyph-name="omacron" unicode="&#x14d;" horiz-adv-x="774" 
d="M388 614q70 0 131 -23t107 -64.5t72.5 -99t26.5 -127.5t-26.5 -127.5t-72.5 -99t-107 -64.5t-131 -23t-131.5 23t-107.5 64.5t-72.5 99t-26.5 127.5t26.5 127.5t72.5 99t107.5 64.5t131.5 23zM388 32q52 0 97 19.5t78.5 54.5t52.5 84.5t19 109.5t-19 109.5t-52.5 84.5
t-78.5 54.5t-97 19.5t-97.5 -19.5t-79 -54.5t-52.5 -84.5t-19 -109.5t19 -109.5t52.5 -84.5t79 -54.5t97.5 -19.5zM250 730h261v-51h-261v51z" />
    <glyph glyph-name="Ohungarumlaut" unicode="&#x150;" horiz-adv-x="838" 
d="M363 768q30 66 66 132q15 -1 30.5 -3.5t29.5 -8.5q-54 -60 -117 -120h-9zM487 766q14 33 30 66t36 66q15 0 30.5 -3.5t29.5 -8.5q-27 -30 -56 -60.5t-61 -59.5h-9zM421 714q80 0 146 -26t113.5 -74t74 -115t26.5 -149t-26.5 -149t-74 -115t-113.5 -74t-146 -26t-146 26
t-113.5 74t-74 115t-26.5 149t26.5 149t74 115t113.5 74t146 26zM421 32q61 0 110.5 23t84.5 64.5t54.5 100t19.5 130.5t-19.5 130.5t-54.5 100t-84.5 64.5t-110.5 23q-60 0 -109.5 -23t-85 -64.5t-54.5 -100t-19 -130.5t19 -130.5t54.5 -100t85 -64.5t109.5 -23z" />
    <glyph glyph-name="ohungarumlaut" unicode="&#x151;" horiz-adv-x="774" 
d="M321 668q30 66 66 132q15 -1 30.5 -3.5t29.5 -8.5q-54 -60 -117 -120h-9zM445 666q14 33 30 66t36 66q15 0 30.5 -3.5t29.5 -8.5q-27 -30 -56 -60.5t-61 -59.5h-9zM388 614q70 0 131 -23t107 -64.5t72.5 -99t26.5 -127.5t-26.5 -127.5t-72.5 -99t-107 -64.5t-131 -23
t-131.5 23t-107.5 64.5t-72.5 99t-26.5 127.5t26.5 127.5t72.5 99t107.5 64.5t131.5 23zM388 32q52 0 97 19.5t78.5 54.5t52.5 84.5t19 109.5t-19 109.5t-52.5 84.5t-78.5 54.5t-97 19.5t-97.5 -19.5t-79 -54.5t-52.5 -84.5t-19 -109.5t19 -109.5t52.5 -84.5t79 -54.5
t97.5 -19.5z" />
    <glyph glyph-name="OE" unicode="&#x152;" horiz-adv-x="962" 
d="M855 -2h-278h-20.5t-31.5 -2l-38 -4q-22 -3 -45.5 -5.5t-40.5 -2.5q-80 0 -145.5 26t-112.5 74t-72.5 115t-25.5 149t25.5 149t72.5 115t112.5 74t145.5 26q21 0 52.5 -2.5t56.5 -6.5q15 -2 29 -3t36 -1h154q15 0 33.5 2t36 5t32.5 7t24 7v-143h-29v25q0 20 -13.5 34.5
t-33.5 16.5h-192v-286h160q17 1 28.5 12.5t11.5 28.5v23h27v-171h-27v23q0 16 -11 27.5t-27 12.5h-161v-276h135q37 0 63.5 9.5t46 26.5t33.5 40.5t26 51.5h27zM511 627q0 11 -10.5 18.5t-27 12t-36 6t-37.5 1.5q-61 0 -110.5 -23t-85 -64.5t-54.5 -100t-19 -130.5
q0 -71 19 -129.5t54.5 -100.5t85 -65t110.5 -23q18 0 37.5 2.5t36 7.5t27 12.5t10.5 17.5v558z" />
    <glyph glyph-name="oe" unicode="&#x153;" horiz-adv-x="885" 
d="M788 -3h-266h-20.5t-30.5 -2l-36 -4q-18 -3 -39 -5.5t-38 -2.5q-71 0 -129 21.5t-99.5 62t-64 99t-22.5 131.5t22.5 131.5t64 99t99.5 62t129 21.5q15 0 43 -2t56 -6q14 -2 28 -3.5t36 -1.5h158q13 0 29 2t31 5t27.5 6.5t20.5 6.5v-131h-26v23q0 17 -11 29t-29 14h-189
v-232h156q15 1 23 10.5t8 23.5v20h26v-153h-26v21q0 13 -8 22.5t-23 10.5h-157v-231h145q30 1 51.5 9.5t37.5 23t28 34.5t21 43h27zM456 526q0 11 -8.5 18.5t-23 12t-32 6.5t-35.5 2q-51 0 -93 -18.5t-72 -53.5t-46.5 -85t-16.5 -112t16.5 -112t46.5 -85t72 -53.5t93 -18.5
q18 0 35.5 2.5t32 8t23 13t8.5 17.5v458z" />
    <glyph glyph-name="Racute" unicode="&#x154;" horiz-adv-x="677" 
d="M293 697q93 0 146 -51t53 -141q0 -34 -11.5 -66.5t-31.5 -59t-47.5 -44.5t-59.5 -23q14 -11 27.5 -27t24.5 -30q23 -34 46 -65q19 -26 40 -53t35 -42q29 -32 58.5 -51.5t76.5 -19.5v-26h-62q-35 0 -62.5 8.5t-49 21.5t-37 28.5t-27.5 30.5q-2 3 -9 12.5t-16.5 23.5
t-21 30.5t-23.5 33.5q-22 30 -39 55t-20 28q-9 12 -17.5 23.5t-18 20.5t-21 14.5t-51.5 5.5v-256q2 -22 17 -37.5t38 -15.5h21v-26h-230v26h21q23 0 38 15.5t17 37.5v542q-2 22 -17 38t-38 16h-21v26zM231 359q9 0 23.5 0.5t35.5 4t41.5 13.5t37.5 28.5t27 49.5q5 18 5 47v9
q-2 63 -31.5 100t-80.5 40q-17 1 -33.5 1.5t-31.5 0.5q-14 0 -25 -0.5t-19 -0.5h-5v-293h56zM318 770q32 35 63 68t63 64q12 -12 23 -25.5t19 -28.5q-41 -23 -81 -43.5t-81 -40.5z" />
    <glyph glyph-name="racute" unicode="&#x155;" horiz-adv-x="627" 
d="M296 670q32 35 63 68t63 64q12 -12 23 -25.5t19 -28.5q-41 -23 -81 -43.5t-81 -40.5zM271 599q94 -2 150 -45.5t56 -120.5q0 -30 -10 -57t-28.5 -49t-43.5 -37.5t-55 -22.5q15 -12 31 -30.5t28 -35.5v1q13 -19 27 -37q12 -16 27 -34t30 -35q14 -16 27 -29t27 -22.5
t30.5 -14.5t37.5 -5v-26h-38q-42 0 -72 8.5t-52 21.5t-36.5 28.5t-26.5 29.5q-5 5 -20 27.5t-32 45.5l-44 62q-18 23 -41 42t-77 19v-212q1 -18 14 -31t33 -13h22v-26h-216v26h22q20 0 33 12.5t14 30.5v461q-1 18 -14 30t-33 12h-21v27zM225 309q11 0 23 1q19 0 39 1.5t38 9
t33 23t25 44.5q7 19 7 44q0 6 -1 8q-1 51 -33 80t-87 32q-20 1 -39 1h-64v-244h59z" />
    <glyph glyph-name="Rcommaaccent" unicode="&#x156;" horiz-adv-x="677" 
d="M341 -190q18 6 26.5 15.5t10.5 20.5t-1.5 21t-8.5 16q-8 10 -16.5 21t-1.5 26q4 9 12 13.5t18 3.5t19 -7t14 -18q10 -23 7.5 -44.5t-13 -37.5t-27.5 -26t-36 -11zM293 697q93 0 146 -51t53 -141q0 -34 -11.5 -66.5t-31.5 -59t-47.5 -44.5t-59.5 -23q14 -11 27.5 -27
t24.5 -30q23 -34 46 -65q19 -26 40 -53t35 -42q29 -32 58.5 -51.5t76.5 -19.5v-26h-62q-35 0 -62.5 8.5t-49 21.5t-37 28.5t-27.5 30.5q-2 3 -9 12.5t-16.5 23.5t-21 30.5t-23.5 33.5q-22 30 -39 55t-20 28q-9 12 -17.5 23.5t-18 20.5t-21 14.5t-51.5 5.5v-256
q2 -22 17 -37.5t38 -15.5h21v-26h-230v26h21q23 0 38 15.5t17 37.5v542q-2 22 -17 38t-38 16h-21v26zM231 359q9 0 20 1q18 0 39 3.5t41.5 13.5t37.5 28.5t27 49.5q5 18 5 47v9q-2 63 -31.5 100t-80.5 40q-17 1 -33.5 1.5t-31.5 0.5q-14 0 -25 -0.5t-19 -0.5h-5v-293h56z
" />
    <glyph glyph-name="rcommaaccent" unicode="&#x157;" horiz-adv-x="627" 
d="M330 -202q18 6 26.5 15.5t10.5 20.5t-1.5 21t-8.5 16q-8 10 -16.5 21t-1.5 26q4 9 12 13.5t18 3.5t19 -7t14 -18q10 -23 7.5 -44.5t-13 -37.5t-27.5 -26t-36 -11zM271 599q94 -2 150 -45.5t56 -120.5q0 -30 -10 -57t-28.5 -49t-43.5 -37.5t-55 -22.5q15 -12 31 -30.5
t28 -35.5v1q13 -19 27 -37q12 -16 27 -34t30 -35q14 -16 27 -29t27 -22.5t30.5 -14.5t37.5 -5v-26h-38q-42 0 -72 8.5t-52 21.5t-36.5 28.5t-26.5 29.5q-5 5 -20 27.5t-32 45.5l-44 62q-18 23 -41 42t-77 19v-212q1 -18 14 -31t33 -13h22v-26h-216v26h22q20 0 33 12.5
t14 30.5v461q-1 18 -14 30t-33 12h-21v27zM225 309q11 0 26.5 0.5t35.5 2t38 9t33 23t25 44.5q7 19 7 44q0 6 -1 8q-1 51 -33 80t-87 32q-20 1 -39 1h-64v-244h59z" />
    <glyph glyph-name="Rcaron" unicode="&#x158;" horiz-adv-x="677" 
d="M329 764h-10l-114 119l6 8l114 -66l105 66l6 -8zM293 697q93 0 146 -51t53 -141q0 -34 -11.5 -66.5t-31.5 -59t-47.5 -44.5t-59.5 -23q14 -11 27.5 -27t24.5 -30q23 -34 46 -65q19 -26 40 -53t35 -42q29 -32 58.5 -51.5t76.5 -19.5v-26h-62q-35 0 -62.5 8.5t-49 21.5
t-37 28.5t-27.5 30.5q-2 3 -9 12.5t-16.5 23.5t-21 30.5t-23.5 33.5q-22 30 -39 55t-20 28q-9 12 -17.5 23.5t-18 20.5t-21 14.5t-51.5 5.5v-256q2 -22 17 -37.5t38 -15.5h21v-26h-230v26h21q23 0 38 15.5t17 37.5v542q-2 22 -17 38t-38 16h-21v26zM175 359h56q9 0 20 1
q18 0 39 3.5t41.5 13.5t37.5 28.5t27 49.5q5 18 5 47v9q-2 63 -31.5 100t-80.5 40q-17 1 -33.5 1.5t-31.5 0.5q-14 0 -25 -0.5t-19 -0.5h-5v-293z" />
    <glyph glyph-name="rcaron" unicode="&#x159;" horiz-adv-x="627" 
d="M307 664h-10l-114 119l6 8l114 -66l105 66l6 -8zM271 599q94 -2 150 -45.5t56 -120.5q0 -30 -10 -57t-28.5 -49t-43.5 -37.5t-55 -22.5q15 -12 31 -30.5t28 -35.5v1q13 -19 27 -37q12 -16 27 -34t30 -35q14 -16 27 -29t27 -22.5t30.5 -14.5t37.5 -5v-26h-38
q-42 0 -72 8.5t-52 21.5t-36.5 28.5t-26.5 29.5q-5 5 -20 27.5t-32 45.5l-44 62q-18 23 -41 42t-77 19v-212q1 -18 14 -31t33 -13h22v-26h-216v26h22q20 0 33 12.5t14 30.5v461q-1 18 -14 30t-33 12h-21v27zM166 309h59q11 0 26.5 0.5t35.5 2t38 9t33 23t25 44.5q7 19 7 44
q0 6 -1 8q-1 51 -33 80t-87 32q-20 1 -39 1h-64v-244z" />
    <glyph glyph-name="Sacute" unicode="&#x15a;" horiz-adv-x="475" 
d="M233 770q32 35 63 68t63 64q12 -12 23 -25.5t19 -28.5q-41 -23 -81 -43.5t-81 -40.5zM368 301q31 -29 41.5 -61.5t10.5 -63.5q0 -42 -13.5 -77.5t-38 -60.5t-60 -39t-79.5 -14q-19 0 -42.5 3t-47.5 10t-46 18t-37 27q-2 9 -3 19.5t-1 21.5q0 24 4.5 53t12.5 55h24
q-1 -10 -1.5 -16.5t-0.5 -11.5q0 -61 35.5 -96.5t89.5 -35.5h8q25 1 48 10t39.5 25t26.5 38t10 50q0 53 -36 84l-187 174q-30 29 -43 63.5t-13 64.5q0 32 12 63t34.5 55.5t56 39.5t77.5 15q20 0 42.5 -2.5t42.5 -7.5h47v-136h-26q0 47 -30 73.5t-72 26.5q-25 0 -45.5 -8.5
t-35.5 -23t-23 -33t-8 -39.5q0 -18 7.5 -41t30.5 -43z" />
    <glyph glyph-name="sacute" unicode="&#x15b;" horiz-adv-x="462" 
d="M226 670q32 35 63 68t63 64q12 -12 23 -25.5t19 -28.5q-41 -23 -81 -43.5t-81 -40.5zM363 262q24 -20 35 -51t12 -61q0 -34 -14.5 -64t-39 -52.5t-57.5 -35.5t-70 -13q-22 0 -47 3t-48.5 9t-44.5 15.5t-35 22.5q-2 8 -3 17.5t-1 20.5q0 21 4 47t12 49h27q-1 -9 -1.5 -15
t-0.5 -10q0 -53 34 -82.5t88 -29.5h7q57 2 89.5 28t32.5 71q0 20 -7.5 37.5t-25.5 32.5h1l-195 150q-29 25 -39 55t-11 57q0 31 13 59t36 48t54 32t67 12q33 0 56.5 -2.5t40.5 -6.5h39l3 -122h-28q0 40 -25 62.5t-78 22.5q-23 0 -43 -6.5t-35 -18t-23.5 -26.5t-8.5 -33
q0 -17 7 -35t28 -35z" />
    <glyph glyph-name="Scedilla" unicode="&#x15e;" horiz-adv-x="475" 
d="M368 301q31 -29 41.5 -61.5t10.5 -63.5q0 -80 -46 -131.5t-124 -58.5l-40 -46q13 4 31 5.5t34 -4t27.5 -19.5t12.5 -40q1 -24 -11.5 -41t-33 -27t-46 -11.5t-50.5 6.5l1 10q15 0 31.5 3t29.5 10.5t21.5 20t7.5 30.5q0 16 -8.5 25t-20.5 13t-27 2.5t-28 -7.5l-5 10l45 59
q-19 1 -42 4.5t-45.5 10t-42.5 17.5t-35 26q-2 9 -3 19.5t-1 21.5q0 24 4.5 53t12.5 55h24q-1 -10 -1.5 -16.5t-0.5 -11.5q0 -61 35.5 -96.5t89.5 -35.5h8q25 1 48 10t39.5 25t26.5 38t10 50q0 53 -36 84l-187 174q-30 29 -43 63.5t-13 64.5q0 32 12 63t34.5 55.5t56 39.5
t77.5 15q20 0 42.5 -2.5t42.5 -7.5h47v-136h-26q0 47 -30 73.5t-72 26.5q-25 0 -45.5 -8.5t-35.5 -23t-23 -33t-8 -39.5q0 -18 7.5 -41t30.5 -43z" />
    <glyph glyph-name="scedilla" unicode="&#x15f;" horiz-adv-x="412" 
d="M363 262q24 -20 35 -51t12 -61q0 -34 -14.5 -64t-39 -52.5t-57.5 -35.5t-70 -13h-1l-41 -47q13 4 31 5.5t34 -4t27.5 -19.5t12.5 -40q1 -24 -11.5 -41t-33 -27t-46 -11.5t-50.5 6.5l1 10q15 0 31.5 3t29.5 10.5t21.5 20t7.5 30.5q0 16 -8.5 25t-20.5 13t-27 2.5t-28 -7.5
l-5 10l47 61q-43 2 -81.5 13.5t-64.5 36.5q-2 8 -3 17.5t-1 20.5q0 21 4 47t12 49h27q-1 -9 -1.5 -15t-0.5 -10q0 -53 34 -82.5t88 -29.5h7q57 2 89.5 28t32.5 71q0 20 -7.5 37.5t-25.5 32.5h1l-195 150q-29 25 -39 55t-11 57q0 31 13 59t36 48t54 32t67 12q33 0 56.5 -2.5
t40.5 -6.5h39l3 -122h-28q0 40 -25 62.5t-78 22.5q-23 0 -43 -6.5t-35 -18t-23.5 -26.5t-8.5 -33q0 -17 7 -35t28 -35z" />
    <glyph glyph-name="Scaron" unicode="&#x160;" horiz-adv-x="475" 
d="M244 764h-10l-114 119l6 8l114 -66l105 66l6 -8zM368 301q31 -29 41.5 -61.5t10.5 -63.5q0 -42 -13.5 -77.5t-38 -60.5t-60 -39t-79.5 -14q-19 0 -42.5 3t-47.5 10t-46 18t-37 27q-2 9 -3 19.5t-1 21.5q0 24 4.5 53t12.5 55h24q-1 -10 -1.5 -16.5t-0.5 -11.5
q0 -61 35.5 -96.5t89.5 -35.5h8q25 1 48 10t39.5 25t26.5 38t10 50q0 53 -36 84l-187 174q-30 29 -43 63.5t-13 64.5q0 32 12 63t34.5 55.5t56 39.5t77.5 15q20 0 42.5 -2.5t42.5 -7.5h47v-136h-26q0 47 -30 73.5t-72 26.5q-25 0 -45.5 -8.5t-35.5 -23t-23 -33t-8 -39.5
q0 -18 7.5 -41t30.5 -43z" />
    <glyph glyph-name="scaron" unicode="&#x161;" horiz-adv-x="462" 
d="M237 664h-10l-114 119l6 8l114 -66l105 66l6 -8zM363 262q24 -20 35 -51t12 -61q0 -34 -14.5 -64t-39 -52.5t-57.5 -35.5t-70 -13q-22 0 -47 3t-48.5 9t-44.5 15.5t-35 22.5q-2 8 -3 17.5t-1 20.5q0 21 4 47t12 49h27q-1 -9 -1.5 -15t-0.5 -10q0 -53 34 -82.5t88 -29.5h7
q57 2 89.5 28t32.5 71q0 20 -7.5 37.5t-25.5 32.5h1l-195 150q-29 25 -39 55t-11 57q0 31 13 59t36 48t54 32t67 12q33 0 56.5 -2.5t40.5 -6.5h39l3 -122h-28q0 40 -25 62.5t-78 22.5q-23 0 -43 -6.5t-35 -18t-23.5 -26.5t-8.5 -33q0 -17 7 -35t28 -35z" />
    <glyph glyph-name="Tcedilla" unicode="&#x162;" horiz-adv-x="618" 
d="M475 701q15 0 33.5 2t36 5t32.5 7t23 8v-144h-26v26q0 20 -13.5 34t-33.5 15h-178v-576q2 -22 17 -37.5t38 -15.5h21v-26h-97l-41 -48q13 4 31 5.5t34 -4t27.5 -19.5t12.5 -40q1 -24 -11.5 -41t-33 -27t-46 -11.5t-50.5 6.5l1 10q15 0 31.5 3t29.5 10.5t21.5 20t7.5 30.5
q0 16 -8.5 25t-20.5 13t-27 2.5t-28 -7.5l-5 10l47 62h-106v26h21q21 0 36.5 15t16.5 37v577h-177q-20 -1 -33.5 -15t-13.5 -34v-26h-27v144q9 -4 24 -8t32.5 -7t36 -5t33.5 -2h332z" />
    <glyph glyph-name="tcedilla" unicode="&#x163;" horiz-adv-x="578" 
d="M446 601q14 0 31 2t33.5 5t30.5 6.5t22 6.5v-131h-27v23q0 17 -11.5 29t-29.5 13h-167v-485q1 -18 15 -31t34 -13h20v-26h-93l-41 -48q13 4 31 5.5t34 -4t27.5 -19.5t12.5 -40q1 -24 -11.5 -41t-33 -27t-46 -11.5t-50.5 6.5l1 10q15 0 31.5 3t29.5 10.5t21.5 20t7.5 30.5
q0 16 -8.5 25t-20.5 13t-27 2.5t-28 -7.5l-5 10l47 62h-96v26h20q20 0 33.5 13t15.5 32v484h-168q-18 -1 -29 -13t-11 -29v-23h-28v131q8 -3 22 -6.5t30.5 -6.5t33.5 -5t31 -2h316z" />
    <glyph glyph-name="Tcaron" unicode="&#x164;" horiz-adv-x="618" 
d="M314 764h-10l-114 119l6 8l114 -66l105 66l6 -8zM475 701q15 0 33.5 2t36 5t32.5 7t23 8v-144h-26v26q0 20 -13.5 34t-33.5 15h-178v-576q2 -22 17 -37.5t38 -15.5h21v-26h-231v26h21q21 0 36.5 15t16.5 37v577h-177q-20 -1 -33.5 -15t-13.5 -34v-26h-27v144q9 -4 24 -8
t32.5 -7t36 -5t33.5 -2h332z" />
    <glyph glyph-name="tcaron" unicode="&#x165;" horiz-adv-x="578" 
d="M284 665l-114 119l6 8l114 -66l105 66l6 -8l-106 -119h-11zM446 601q14 0 31 2t33.5 5t30.5 6.5t22 6.5v-131h-27v23q0 17 -11.5 29t-29.5 13h-167v-485q1 -18 15 -31t34 -13h20v-26h-217v26h20q20 0 33.5 13t15.5 32v484h-168q-18 -1 -29 -13t-11 -29v-23h-28v131
q8 -3 22 -6.5t30.5 -6.5t33.5 -5t31 -2h316z" />
    <glyph glyph-name="Tbar" unicode="&#x166;" horiz-adv-x="618" 
d="M475 701q15 0 33.5 2t36 5t32.5 7t23 8v-144h-26v26q0 20 -13.5 34t-33.5 15h-178v-247h159v-46h-159v-283q2 -22 17 -37.5t38 -15.5h21v-26h-231v26h21q21 0 36.5 15t16.5 37v284h-156v46h156v247h-177q-20 -1 -33.5 -15t-13.5 -34v-26h-27v144q9 -4 24 -8t32.5 -7
t36 -5t33.5 -2h332z" />
    <glyph glyph-name="tbar" unicode="&#x167;" horiz-adv-x="578" 
d="M446 601q14 0 31 2t33.5 5t30.5 6.5t22 6.5v-131h-27v23q0 17 -11.5 29t-29.5 13h-167v-210h144v-46h-144v-229q1 -18 15 -31t34 -13h20v-26h-217v26h20q20 0 34.5 13t14.5 31v229h-140v46h140v210h-168q-18 -1 -29 -13t-11 -29v-23h-28v131q8 -3 22 -6.5t30.5 -6.5
t33.5 -5t31 -2h316z" />
    <glyph glyph-name="Umacron" unicode="&#x16a;" horiz-adv-x="785" 
d="M736 701v-26h-24q-17 0 -29 -11t-14 -28v-386q0 -59 -19.5 -108t-55.5 -83.5t-86 -53.5t-111 -19q-63 0 -114 19t-88 53.5t-57 82.5t-20 107v386q-1 17 -13.5 29t-29.5 12h-24v26h214v-26h-23q-17 0 -29.5 -11t-13.5 -28v-373q0 -52 14.5 -94t40.5 -72t62.5 -46.5
t81.5 -16.5q47 0 86 15.5t66.5 44t42.5 68t15 88.5v385q-2 17 -14 28t-29 11h-24v26zM274 830h261v-50h-261v50z" />
    <glyph glyph-name="umacron" unicode="&#x16b;" horiz-adv-x="700" 
d="M218 730h261v-51h-261v51zM662 605v-26h-22q-16 0 -27 -9.5t-12 -23.5v-330q0 -53 -17.5 -95.5t-50 -72t-79.5 -45.5t-105 -16q-59 0 -105.5 15.5t-79.5 45t-50.5 71.5t-17.5 95v330q-1 14 -12 24.5t-26 10.5h-23v26h202v-26h-23q-15 0 -26 -10.5t-13 -24.5v-317
q0 -92 46 -144.5t127 -52.5q89 0 139.5 49t50.5 136v329q-1 14 -12 23.5t-26 9.5h-23v26z" />
    <glyph glyph-name="Uring" unicode="&#x16e;" horiz-adv-x="785" 
d="M402 914q40 0 66.5 -20t26.5 -55q0 -33 -26.5 -54t-66.5 -21t-66.5 21t-26.5 54t26.5 54t66.5 21zM402 897q-21 0 -35 -15t-14 -43t14 -43t35 -15t35 15t14 43t-14 43t-35 15zM736 701v-26h-24q-17 0 -29 -11t-14 -28v-386q0 -59 -19.5 -108t-55.5 -83.5t-86 -53.5
t-111 -19q-63 0 -114 19t-88 53.5t-57 82.5t-20 107v386q-1 17 -13.5 29t-29.5 12h-24v26h214v-26h-23q-17 0 -29.5 -11t-13.5 -28v-373q0 -52 14.5 -94t40.5 -72t62.5 -46.5t81.5 -16.5q47 0 86 15.5t66.5 44t42.5 68t15 88.5v385q-2 17 -14 28t-29 11h-24v26z" />
    <glyph glyph-name="uring" unicode="&#x16f;" horiz-adv-x="700" 
d="M351 814q40 0 66.5 -20t26.5 -55q0 -33 -26.5 -54t-66.5 -21t-66.5 21t-26.5 54t26.5 54t66.5 21zM351 797q-21 0 -35 -15t-14 -43t14 -43t35 -15t35 15t14 43t-14 43t-35 15zM660 602v-27h-23q-15 0 -26 -9t-12 -23v-328q0 -53 -17.5 -95t-50 -71.5t-79 -45.5
t-104.5 -16q-117 0 -184 60t-67 166v328q-2 14 -12.5 24t-26.5 10h-22v27h201v-27h-23q-15 0 -26 -10t-12 -24v-315q0 -91 45.5 -143.5t125.5 -52.5q89 0 139 49t50 135v327q-1 14 -12 23.5t-26 9.5h-23v26z" />
    <glyph glyph-name="Uhungarumlaut" unicode="&#x170;" horiz-adv-x="785" 
d="M336 768q30 66 66 132q15 -1 30.5 -3.5t29.5 -8.5q-54 -60 -117 -120h-9zM460 766q14 33 30 66t36 66q15 0 30.5 -3.5t29.5 -8.5q-27 -30 -56 -60.5t-61 -59.5h-9zM736 701v-26h-24q-17 0 -29 -11t-14 -28v-386q0 -59 -19.5 -108t-55.5 -83.5t-86 -53.5t-111 -19
q-63 0 -114 19t-88 53.5t-57 82.5t-20 107v386q-1 17 -13.5 29t-29.5 12h-24v26h214v-26h-23q-17 0 -29.5 -11t-13.5 -28v-373q0 -52 14.5 -94t40.5 -72t62.5 -46.5t81.5 -16.5q47 0 86 15.5t66.5 44t42.5 68t15 88.5v385q-2 17 -14 28t-29 11h-24v26z" />
    <glyph glyph-name="uhungarumlaut" unicode="&#x171;" horiz-adv-x="700" 
d="M284 668q30 66 66 132q15 -1 30.5 -3.5t29.5 -8.5q-54 -60 -117 -120h-9zM408 666q14 33 30 66t36 66q15 0 30.5 -3.5t29.5 -8.5q-27 -30 -56 -60.5t-61 -59.5h-9zM660 602v-27h-23q-15 0 -26 -9t-12 -23v-328q0 -53 -17.5 -95t-50 -71.5t-79 -45.5t-104.5 -16
q-117 0 -184 60t-67 166v328q-2 14 -12.5 24t-26.5 10h-22v27h201v-27h-23q-15 0 -26 -10t-12 -24v-315q0 -91 45.5 -143.5t125.5 -52.5q89 0 139 49t50 135v327q-1 14 -12 23.5t-26 9.5h-23v26z" />
    <glyph glyph-name="Uogonek" unicode="&#x172;" horiz-adv-x="785" 
d="M736 701v-26h-24q-17 0 -29 -11t-14 -28v-386q0 -54 -16.5 -99.5t-47 -79.5t-73.5 -55t-96 -27q-38 -10 -53 -29.5t-14 -47.5q1 -21 13 -37.5t30 -24t39.5 -3.5t39.5 23l6 -6q-11 -31 -39.5 -45.5t-58 -10.5t-52.5 26.5t-23 66.5q0 30 19 52.5t49 32.5q-62 1 -112.5 20
t-86.5 53.5t-55.5 82t-19.5 106.5v386q-1 17 -13.5 29t-29.5 12h-24v26h214v-26h-23q-17 0 -29.5 -11t-13.5 -28v-373q0 -52 14.5 -94t40.5 -72t62.5 -46.5t81.5 -16.5q47 0 86 15.5t66.5 44t42.5 68t15 88.5v385q-2 17 -14 28t-29 11h-24v26z" />
    <glyph glyph-name="uogonek" unicode="&#x173;" horiz-adv-x="700" 
d="M660 602v-27h-23q-15 0 -26 -9t-12 -23v-328q0 -98 -57 -157t-157 -69h1q-42 -11 -58.5 -30.5t-15.5 -48.5q1 -21 13 -37.5t30 -24t39.5 -3.5t39.5 23l6 -6q-11 -31 -39.5 -45.5t-58 -10.5t-52.5 26.5t-23 66.5q0 32 21.5 55.5t53.5 32.5q-57 1 -102 16.5t-77 45t-49 71
t-17 93.5v328q-2 14 -12.5 24t-26.5 10h-22v27h201v-27h-23q-15 0 -26 -10t-12 -24v-315q0 -91 45.5 -143.5t125.5 -52.5q89 0 139 49t50 135v327q-1 14 -12 23.5t-26 9.5h-23v26z" />
    <glyph glyph-name="Wcircumflex" unicode="&#x174;" horiz-adv-x="982" 
d="M502 890h10l114 -119l-6 -8l-114 66l-105 -66l-6 8zM989 701v-26h-17q-21 0 -44.5 -13t-33.5 -42l-163 -517q0 -2 -3 -12.5t-7 -27t-7 -36.5t-4 -39h-23l-193 542l-140 -428q-5 -17 -9 -36q-4 -17 -7 -37.5t-4 -40.5h-23l-224 632q-11 29 -34 41.5t-44 12.5h-16v26h233
v-26h-17q-12 0 -22.5 -8t-10.5 -25q0 -7 3 -16l140 -451l176 542h20l186 -522l124 433q2 10 2 16q0 15 -9 23t-22 8h-17v26z" />
    <glyph glyph-name="wcircumflex" unicode="&#x175;" horiz-adv-x="899" 
d="M458 791h10l114 -119l-6 -8l-114 66l-105 -66l-6 8zM898 602v-26h-16q-26 0 -44 -15t-27 -38l-141 -419q0 -2 -3.5 -13t-7 -27t-7 -36t-4.5 -39h-24l-175 448l-119 -334q0 -1 -3 -11.5t-7 -26.5t-7 -36t-4 -40h-23l-207 538q-8 21 -25.5 34t-43.5 13h-16v26h217v-26h-16
q-10 0 -18.5 -6.5t-8.5 -21.5v-6.5t2 -7.5l122 -372l158 455h21l168 -428l102 338q2 6 3 11t1 10q0 15 -8 21.5t-17 6.5h-17v26z" />
    <glyph glyph-name="Ycircumflex" unicode="&#x176;" horiz-adv-x="661" 
d="M335 890h10l114 -119l-6 -8l-114 66l-105 -66l-6 8zM669 699v-26h-21q-29 0 -53 -16t-38 -37l-192 -311v-231q1 -22 16.5 -37.5t37.5 -15.5h21v-26h-230v26h21q22 0 37 15.5t17 37.5v233l-184 309q-14 21 -38 37.5t-53 16.5h-22v26h257v-26h-21q-13 0 -21.5 -10t-8.5 -23
q0 -9 4 -16l139 -260l149 261l1 1q3 6 3 14q0 13 -9.5 23t-21.5 10h-21v26z" />
    <glyph glyph-name="ycircumflex" unicode="&#x177;" horiz-adv-x="640" 
d="M328 790h10l114 -119l-6 -8l-114 66l-105 -66l-6 8zM641 600v-27h-21q-26 0 -47 -14t-35 -32l-185 -280v-177q1 -18 15 -31t34 -13h19v-26h-216v26h19q20 0 33.5 13t15.5 31v177l-179 280q-14 21 -34.5 33.5t-46.5 12.5h-20v27h242v-27h-19q-13 0 -20.5 -7.5t-7.5 -18.5
q0 -2 0.5 -4.5t0.5 -4.5l134 -238l143 238q2 6 2 10q0 11 -7.5 18t-20.5 7h-19v27h220z" />
    <glyph glyph-name="Ydieresis" unicode="&#x178;" horiz-adv-x="661" 
d="M244 762q-17 0 -28 11.5t-11 28.5t11.5 28.5t28.5 11.5t28.5 -11t11.5 -28t-11 -28t-28 -11zM430 760q-17 0 -28 11.5t-11 28.5t11.5 28.5t28.5 11.5t28.5 -11t11.5 -28t-11 -28t-28 -11zM669 699v-26h-21q-29 0 -53 -16t-38 -37l-192 -311v-231q1 -22 16.5 -37.5
t37.5 -15.5h21v-26h-230v26h21q22 0 37 15.5t17 37.5v233l-184 309q-14 21 -38 37.5t-53 16.5h-22v26h257v-26h-21q-13 0 -21.5 -10t-8.5 -23q0 -9 4 -16l139 -260l149 261l1 1q3 6 3 14q0 13 -9.5 23t-21.5 10h-21v26z" />
    <glyph glyph-name="Zacute" unicode="&#x179;" horiz-adv-x="651" 
d="M318 770q32 35 63 68t63 64q12 -12 23 -25.5t19 -28.5q-41 -23 -81 -43.5t-81 -40.5zM580 1h-526v19l404 636h-314q-20 -1 -34.5 -15.5t-14.5 -34.5v-26h-26v143q9 -4 24 -8t33 -7t36.5 -5t33.5 -2h271q14 0 31 1.5t33 4.5t29 6t19 6v-25l-411 -649h296q52 0 83 35t45 87
h26z" />
    <glyph glyph-name="zacute" unicode="&#x17a;" horiz-adv-x="608" 
d="M294 670q32 35 63 68t63 64q12 -12 23 -25.5t19 -28.5q-41 -23 -81 -43.5t-81 -40.5zM579 158l-60 -157h-480v19l356 536h-274q-18 -1 -29 -13t-11 -29v-23h-27v130q8 -3 22 -6.5t30 -6.5t33 -5t31 -2h224q15 0 33.5 1.5t35 4t30.5 5.5t20 6v-24l-362 -548h252
q32 1 55.5 9.5t40.5 22.5t29.5 34t22.5 43z" />
    <glyph glyph-name="Zdotaccent" unicode="&#x17b;" horiz-adv-x="651" 
d="M323 765q-18 0 -30.5 12.5t-12.5 30.5t12.5 30.5t30.5 12.5t30.5 -12.5t12.5 -30.5t-12.5 -30.5t-30.5 -12.5zM580 1h-526v19l404 636h-314q-20 -1 -34.5 -15.5t-14.5 -34.5v-26h-26v143q9 -4 24 -8t33 -7t36.5 -5t33.5 -2h271q14 0 31 1.5t33 4.5t29 6t19 6v-25
l-411 -649h296q52 0 83 35t45 87h26z" />
    <glyph glyph-name="zdotaccent" unicode="&#x17c;" horiz-adv-x="608" 
d="M298 665q-18 0 -30.5 12.5t-12.5 30.5t12.5 30.5t30.5 12.5t30.5 -12.5t12.5 -30.5t-12.5 -30.5t-30.5 -12.5zM579 158l-60 -157h-480v19l356 536h-274q-18 -1 -29 -13t-11 -29v-23h-27v130q8 -3 22 -6.5t30 -6.5t33 -5t31 -2h224q15 0 33.5 1.5t35 4t30.5 5.5t20 6v-24
l-362 -548h252q32 1 55.5 9.5t40.5 22.5t29.5 34t22.5 43z" />
    <glyph glyph-name="Zcaron" unicode="&#x17d;" horiz-adv-x="651" 
d="M329 764h-10l-114 119l6 8l114 -66l105 66l6 -8zM580 1h-526v19l404 636h-314q-20 -1 -34.5 -15.5t-14.5 -34.5v-26h-26v143q9 -4 24 -8t33 -7t36.5 -5t33.5 -2h271q14 0 31 1.5t33 4.5t29 6t19 6v-25l-411 -649h296q52 0 83 35t45 87h26z" />
    <glyph glyph-name="zcaron" unicode="&#x17e;" horiz-adv-x="608" 
d="M305 664h-10l-114 119l6 8l114 -66l105 66l6 -8zM579 158l-60 -157h-480v19l356 536h-274q-18 -1 -29 -13t-11 -29v-23h-27v130q8 -3 22 -6.5t30 -6.5t33 -5t31 -2h224q15 0 33.5 1.5t35 4t30.5 5.5t20 6v-24l-362 -548h252q32 1 55.5 9.5t40.5 22.5t29.5 34t22.5 43z
" />
    <glyph glyph-name="florin" unicode="&#x192;" horiz-adv-x="493" 
d="M345 599q13 0 29 2t31.5 5t28 6.5t20.5 6.5v-131h-26v22q0 17 -11 29.5t-29 13.5h-177v-232h144q15 1 23 10.5t8 23.5v20h26v-153h-26v21q0 13 -7.5 22t-21.5 11h-146v-271q0 -37 -14.5 -70t-39 -58t-56.5 -39.5t-68 -14.5v23q21 7 38.5 23.5t31 38t21 46.5t7.5 51v527
q-1 17 -13.5 29.5t-30.5 12.5h-21v26z" />
    <glyph glyph-name="Scommaaccent" unicode="&#x218;" horiz-adv-x="472" 
d="M198 -202q18 6 26.5 16t10.5 20.5t-1.5 21t-8.5 16.5q-8 9 -16.5 20t-1.5 27q4 9 12 13t18 3.5t19 -6.5t14 -18q10 -23 7.5 -44.5t-13 -38t-27.5 -26.5t-36 -10zM368 301q31 -29 41.5 -61.5t10.5 -63.5q0 -42 -13.5 -77.5t-38 -60.5t-60 -39t-79.5 -14q-19 0 -42.5 3
t-47.5 10t-46 18t-37 27q-2 9 -3 19.5t-1 21.5q0 24 4.5 53t12.5 55h24q-1 -10 -1.5 -16.5t-0.5 -11.5q0 -61 35.5 -96.5t89.5 -35.5h8q25 1 48 10t39.5 25t26.5 38t10 50q0 53 -36 84l-187 174q-30 29 -43 63.5t-13 64.5q0 32 12 63t34.5 55.5t56 39.5t77.5 15
q20 0 42.5 -2.5t42.5 -7.5h47v-136h-26q0 47 -30 73.5t-72 26.5q-25 0 -45.5 -8.5t-35.5 -23t-23 -33t-8 -39.5q0 -18 7.5 -41t30.5 -43z" />
    <glyph glyph-name="scommaaccent" unicode="&#x219;" horiz-adv-x="462" 
d="M190 -201q18 6 26.5 15.5t10.5 20.5t-1.5 21t-8.5 16q-8 10 -16.5 21t-1.5 26q4 9 12 13.5t18 3.5t19 -7t14 -18q10 -23 7.5 -44.5t-13 -37.5t-27.5 -26t-36 -11zM363 262q24 -20 35 -51t12 -61q0 -34 -14.5 -64t-39 -52.5t-57.5 -35.5t-70 -13q-22 0 -47 3t-48.5 9
t-44.5 15.5t-35 22.5q-2 8 -3 17.5t-1 20.5q0 21 4 47t12 49h27q-1 -9 -1.5 -15t-0.5 -10q0 -53 34 -82.5t88 -29.5h7q57 2 89.5 28t32.5 71q0 20 -7.5 37.5t-25.5 32.5h1l-195 150q-29 25 -39 55t-11 57q0 31 13 59t36 48t54 32t67 12q33 0 56.5 -2.5t40.5 -6.5h39l3 -122
h-28q0 40 -25 62.5t-78 22.5q-23 0 -43 -6.5t-35 -18t-23.5 -26.5t-8.5 -33q0 -17 7 -35t28 -35z" />
    <glyph glyph-name="uni021A" unicode="&#x21a;" horiz-adv-x="618" 
d="M274 -201q18 6 26.5 15.5t10.5 20.5t-1.5 21t-8.5 16q-8 10 -16.5 21t-1.5 26q4 9 12 13.5t18 3.5t19 -7t14 -18q10 -23 7.5 -44.5t-13 -37.5t-27.5 -26t-36 -11zM475 701q15 0 33.5 2t36 5t32.5 7t23 8v-144h-26v26q0 20 -13.5 34t-33.5 15h-178v-576q2 -22 17 -37.5
t38 -15.5h21v-26h-231v26h21q21 0 36.5 15t16.5 37v577h-177q-20 -1 -33.5 -15t-13.5 -34v-26h-27v144q9 -4 24 -8t32.5 -7t36 -5t33.5 -2h332z" />
    <glyph glyph-name="uni021B" unicode="&#x21b;" horiz-adv-x="548" 
d="M250 -201q18 6 26.5 15.5t10.5 20.5t-1.5 21t-8.5 16q-8 10 -16.5 21t-1.5 26q4 9 12 13.5t18 3.5t19 -7t14 -18q10 -23 7.5 -44.5t-13 -37.5t-27.5 -26t-36 -11zM446 601q14 0 31 2t33.5 5t30.5 6.5t22 6.5v-131h-27v23q0 17 -11.5 29t-29.5 13h-167v-485q1 -18 15 -31
t34 -13h20v-26h-217v26h20q20 0 33.5 13t15.5 32v484h-168q-18 -1 -29 -13t-11 -29v-23h-28v131q8 -3 22 -6.5t30.5 -6.5t33.5 -5t31 -2h316z" />
    <glyph glyph-name="circumflex" unicode="&#x2c6;" horiz-adv-x="600" 
d="M272 856h10l114 -119l-6 -8l-114 66l-105 -66l-6 8z" />
    <glyph glyph-name="caron" unicode="&#x2c7;" horiz-adv-x="600" 
d="M290 729h-10l-114 119l6 8l114 -66l105 66l6 -8z" />
    <glyph glyph-name="breve" unicode="&#x2d8;" horiz-adv-x="440" 
d="M321 854q0 -21 -8 -39.5t-22.5 -33t-33 -22.5t-39.5 -8t-39.5 8t-33 22.5t-22.5 33t-8 39.5h10q8 -20 33.5 -37t60.5 -17t60.5 17t33.5 37h8z" />
    <glyph glyph-name="dotaccent" unicode="&#x2d9;" horiz-adv-x="600" 
d="M301 701q-18 0 -30.5 12.5t-12.5 30.5t12.5 30.5t30.5 12.5t30.5 -12.5t12.5 -30.5t-12.5 -30.5t-30.5 -12.5z" />
    <glyph glyph-name="ring" unicode="&#x2da;" horiz-adv-x="600" 
d="M301 849q40 0 66.5 -20t26.5 -55q0 -33 -26.5 -54t-66.5 -21t-66.5 21t-26.5 54t26.5 54t66.5 21zM301 832q-21 0 -35 -15t-14 -43t14 -43t35 -15t35 15t14 43t-14 43t-35 15z" />
    <glyph glyph-name="ogonek" unicode="&#x2db;" horiz-adv-x="600" 
d="M430 -113q-11 -31 -39.5 -45.5t-58 -10.5t-52.5 26.5t-23 66.5q0 20 8.5 37t23.5 29t35 19t43 7l10 -3q-42 -10 -58.5 -29.5t-15.5 -48.5q1 -21 13 -37.5t30 -24t39.5 -3.5t39.5 23z" />
    <glyph glyph-name="tilde" unicode="&#x2dc;" horiz-adv-x="600" 
d="M412 779q-5 -37 -22.5 -58t-43.5 -21q-16 0 -32.5 7t-32 15t-29.5 15t-26 7q-38 0 -54 -41h-10q5 40 22 62.5t41 22.5q17 0 33 -6.5t31 -15t29 -15t27 -6.5q42 0 55 34h12z" />
    <glyph glyph-name="hungarumlaut" unicode="&#x2dd;" horiz-adv-x="600" 
d="M203 751q30 66 66 132q15 -1 30.5 -3.5t29.5 -8.5q-54 -60 -117 -120h-9zM327 749q14 33 30 66t36 66q15 0 30.5 -3.5t29.5 -8.5q-27 -30 -56 -60.5t-61 -59.5h-9z" />
    <glyph glyph-name="commaaccentcomb" unicode="&#x326;" horiz-adv-x="0" 
d="M29 -137q18 6 26.5 15.5t10.5 20.5t-1.5 21t-8.5 16q-8 10 -16.5 21t-1.5 26q4 9 12 13.5t18 3.5t19 -7t14 -18q10 -23 7.5 -44.5t-13 -37.5t-27.5 -26t-36 -11z" />
    <glyph glyph-name="Delta" unicode="&#x394;" horiz-adv-x="652" 
d="M334 714l311 -694v-20h-643v20l311 694h21zM305 585l-241 -539h474z" />
    <glyph glyph-name="Omega" unicode="&#x3a9;" horiz-adv-x="808" 
d="M758 155l-53 -154h-248v76q34 20 70.5 50t66.5 69.5t49.5 87t21.5 102.5v8q0 58 -20 108.5t-54.5 87.5t-81.5 58t-102 21t-102.5 -22t-83 -60t-55.5 -89.5t-20 -111.5q0 -55 18 -102t47 -86t65.5 -70t72.5 -52v-76h-245l-53 153h26q13 -23 24 -39t23.5 -25.5t27.5 -13.5
t35 -4h81q-60 27 -99.5 67t-63.5 83.5t-34 86.5t-11 78v10q0 67 26.5 125.5t73.5 101.5t110.5 67.5t137.5 24.5q72 0 134 -25.5t108 -70t72.5 -104.5t26.5 -129q0 -34 -14 -78.5t-41 -88.5t-67 -83.5t-92 -64.5h86q20 0 34.5 4t27 13.5t23.5 25.5t24 39z" />
    <glyph glyph-name="mu" unicode="&#x3bc;" horiz-adv-x="878" 
d="M779 71v1q4 -23 21 -35t38 -12h23v-26h-219v25h23q11 0 19 7t8 18v4q-13 97 -24.5 186.5t-23.5 187.5l-171 -338q0 -1 -4.5 -11t-10.5 -25t-12 -33t-9 -35h-21l-225 433l-41 -364h1q-1 -1 -1 -2q0 -11 8.5 -19t19.5 -8h23v-25h-196v26h22q23 0 39.5 12.5t19.5 35.5
l76 540h22l252 -485l243 485h22z" />
    <glyph glyph-name="pi" unicode="&#x3c0;" horiz-adv-x="703" 
d="M649 0h-209v26h19q18 0 31 13t14 31v439q-1 19 -14 32.5t-30 13.5h-220q-17 0 -29.5 -13t-13.5 -31v-441q1 -18 14 -31t31 -13h19v-26h-208v26h19q18 0 31 13t14 31v459q-1 18 -14 31t-31 13h-19v27h594v-27h-19q-18 0 -31 -12.5t-14 -29.5v-461q1 -18 14 -31t31 -13h18z
" />
    <glyph glyph-name="uni0400" unicode="&#x400;" 
d="M467 -2h-420v26h21q23 0 38 15.5t17 38.5v546q-2 20 -17.5 34t-36.5 14h-21v26h294q15 0 33.5 2t36 5t32.5 7t23 8v-144h-26v26q0 20 -13.5 34t-33.5 16h-190v-285h156q17 1 28.5 12.5t11.5 28.5v22h26v-170h-26v23q0 16 -11.5 27.5t-26.5 12.5h-157v-277h131
q37 0 63.5 9.5t46 26.5t33.5 40.5t25 51.5h27zM337 765q-81 37 -162 84q8 16 19 29.5t23 24.5q63 -62 126 -132z" />
    <glyph glyph-name="uni0401" unicode="&#x401;" 
d="M467 -2h-420v26h21q23 0 38 15.5t17 38.5v546q-2 20 -17.5 34t-36.5 14h-21v26h294q15 0 33.5 2t36 5t32.5 7t23 8v-144h-26v26q0 20 -13.5 34t-33.5 16h-190v-285h156q17 1 28.5 12.5t11.5 28.5v22h26v-170h-26v23q0 16 -11.5 27.5t-26.5 12.5h-157v-277h131
q37 0 63.5 9.5t46 26.5t33.5 40.5t25 51.5h27zM181 762q-17 0 -28 11.5t-11 28.5t11.5 28.5t28.5 11.5t28.5 -11t11.5 -28t-11 -28t-28 -11zM367 760q-17 0 -28 11.5t-11 28.5t11.5 28.5t28.5 11.5t28.5 -11t11.5 -28t-11 -28t-28 -11z" />
    <glyph glyph-name="uni0402" unicode="&#x402;" horiz-adv-x="742" 
d="M456 703q14 0 31 2t33.5 5t30.5 6.5t22 6.5v-131h-27v23q0 17 -11.5 29t-29.5 13h-167v-273h166q99 -9 154.5 -61.5t55.5 -144.5q-5 -115 -64 -199q-53 -75 -123 -112.5t-128 -41.5v15q24 9 82 50t104.5 121.5t42 160.5t-35.5 118.5t-89 47.5h-165v-338h-148v26h20
q20 0 33.5 13t15.5 32v586h-168q-18 -1 -29 -13t-11 -29v-23h-28v131q8 -3 22 -6.5t30.5 -6.5t33.5 -5t31 -2h316z" />
    <glyph glyph-name="uni0403" unicode="&#x403;" horiz-adv-x="544" 
d="M488 526q-11 28 -25 51.5t-33.5 40.5t-46 26.5t-63.5 9.5h-132v-574q2 -22 17 -37.5t38 -15.5h21v-27h-231v27h21q23 0 38 15.5t17 37.5v541q-2 22 -17 37.5t-38 15.5h-21v26h420l62 -174h-27zM228 770q32 35 63 68t63 64q12 -12 23 -25.5t19 -28.5q-41 -23 -81 -43.5
t-81 -40.5z" />
    <glyph glyph-name="uni0404" unicode="&#x404;" horiz-adv-x="748" 
d="M706 302l-13 -165q-20 -33 -47 -60.5t-62 -47.5t-78 -31.5t-95 -11.5q-78 0 -144 26t-113.5 74t-74 115t-26.5 150q0 81 26 148t73 115t114 74t150 26q74 0 134 -20t106 -50l21 -151h-24q-22 87 -86 131t-150 44q-63 0 -113.5 -22.5t-86 -64t-54.5 -100.5
q-17 -52 -19 -114h264q17 1 28.5 12.5t11.5 28.5v22h26v-170h-26v23q0 16 -11.5 27.5t-26.5 12.5h-266q4 -54 20 -100q20 -58 55.5 -99.5t84.5 -65t108 -26.5q50 0 95.5 14t81.5 45.5t60.5 83.5t33.5 127h23z" />
    <glyph glyph-name="uni0405" unicode="&#x405;" horiz-adv-x="475" 
d="M368 301q31 -29 41.5 -61.5t10.5 -63.5q0 -42 -13.5 -77.5t-38 -60.5t-60 -39t-79.5 -14q-19 0 -42.5 3t-47.5 10t-46 18t-37 27q-2 9 -3 19.5t-1 21.5q0 24 4.5 53t12.5 55h24q-1 -10 -1.5 -16.5t-0.5 -11.5q0 -61 35.5 -96.5t89.5 -35.5h8q25 1 48 10t39.5 25t26.5 38
t10 50q0 53 -36 84l-187 174q-30 29 -43 63.5t-13 64.5q0 32 12 63t34.5 55.5t56 39.5t77.5 15q20 0 42.5 -2.5t42.5 -7.5h47v-136h-26q0 47 -30 73.5t-72 26.5q-25 0 -45.5 -8.5t-35.5 -23t-23 -33t-8 -39.5q0 -18 7.5 -41t30.5 -43z" />
    <glyph glyph-name="uni0406" unicode="&#x406;" horiz-adv-x="338" 
d="M285 0h-231v26h21q23 0 38 15.5t17 37.5v542q-2 22 -17 38t-38 16h-21v26h231v-26h-21q-23 0 -38 -16t-17 -38v-542q2 -22 17 -37.5t38 -15.5h21v-26z" />
    <glyph glyph-name="uni0407" unicode="&#x407;" horiz-adv-x="338" 
d="M285 0h-231v26h21q23 0 38 15.5t17 37.5v542q-2 22 -17 38t-38 16h-21v26h231v-26h-21q-23 0 -38 -16t-17 -38v-542q2 -22 17 -37.5t38 -15.5h21v-26zM76 762q-17 0 -28 11.5t-11 28.5t11.5 28.5t28.5 11.5t28.5 -11t11.5 -28t-11 -28t-28 -11zM262 760q-17 0 -28 11.5
t-11 28.5t11.5 28.5t28.5 11.5t28.5 -11t11.5 -28t-11 -28t-28 -11z" />
    <glyph glyph-name="uni0408" unicode="&#x408;" horiz-adv-x="324" 
d="M286 700v-25h-21q-22 0 -37.5 -16t-17.5 -38v-614q0 -43 -15 -80.5t-41 -65t-61.5 -43t-76.5 -15.5v22q24 9 45 27.5t36 43.5t24 54.5t9 59.5v611q-1 22 -16.5 38t-37.5 16h-21v25h231z" />
    <glyph glyph-name="uni0409" unicode="&#x409;" horiz-adv-x="966" 
d="M233 205q0 -12 -1 -24v-18l-4 -4q-3 -18 -10 -35q-15 -37 -41 -64.5t-61.5 -43t-99.5 -15.5v26q47 9 68 25.5t36 41.5t24 54q6 19 8 39v441q-1 18 -14 31t-31 13h-19v27h594v-27h-19q-18 0 -31 -12.5t-14 -29.5v-560q0 -14 8 -24h92q58 0 89 38.5t33 103.5v8q0 28 -5 48
v-1q-11 33 -29.5 53.5t-40.5 32t-44.5 15t-40.5 3.5q-19 0 -29 -3q-6 -1 -11 -3v14q26 14 45.5 20.5t43.5 6.5q39 0 75 -13.5t63.5 -34.5t44.5 -57t17 -80q0 -92 -55.5 -144.5t-154.5 -52.5h-244v26h19q18 0 31 13t14 31v538q-1 19 -14 32.5t-30 13.5h-220q-17 0 -29.5 -13
t-13.5 -31z" />
    <glyph glyph-name="uni040A" unicode="&#x40a;" horiz-adv-x="991" 
d="M615 0l-117 1v26h21q22 0 37.5 15.5t16.5 36.5v245h-383v-244q2 -22 17 -37.5t38 -15.5h21v-26h-231v26h21q23 0 38 15.5t17 37.5v542q-2 22 -17 38t-38 16h-21v26h231v-26h-21q-23 0 -38 -16t-17 -38v-252h383v252q-1 21 -16.5 36.5t-37.5 15.5h-21v26h230v-26h-20
q-23 0 -38 -16t-17 -38v-541q1 -19 12 -33h87q58 0 89 38.5t33 103.5v8q0 19 -5 39v-1q-11 33 -29.5 53.5t-40.5 32t-44.5 15t-40.5 3.5q-19 0 -29 -3q-6 -1 -11 -3v14q26 14 45.5 20.5t43.5 6.5q39 0 75 -13.5t63.5 -34.5t44.5 -57t17 -71q0 -92 -55.5 -144.5t-154.5 -52.5
h-138z" />
    <glyph glyph-name="uni040B" unicode="&#x40b;" horiz-adv-x="742" 
d="M473 384q99 1 147 -51.5t48 -144.5l-1 -109h1q2 -22 17 -37.5t38 -15.5h1v-26h-185v26q23 0 38 15.5t17 37.5h1l-1 118q-2 65 -33 103.5t-89 37.5h-130v-338h-148v26h20q20 0 33.5 13t15.5 32v583h-168q-18 -1 -29 -13t-11 -29v-23h-28v131q8 -3 22 -6.5t30.5 -6.5
t33.5 -5t31 -2h316q14 0 31 2t33.5 5t30.5 6.5t22 6.5v-131h-27v23q0 17 -11.5 29t-29.5 13h-167v-269z" />
    <glyph glyph-name="uni040C" unicode="&#x40c;" horiz-adv-x="657" 
d="M188 79q2 -22 17 -37.5t38 -15.5h21v-26h-231v26h21q23 0 38 15.5t17 37.5v542q-2 22 -17 38t-38 16h-21v26h231v-26h-21q-23 0 -38 -16t-17 -38v-263l238 284q6 7 6 14q0 8 -6 13.5t-17 5.5h-18v25h223v-25h-12q-30 0 -56 -12t-43 -32l-238 -260l276 -309
q18 -19 39.5 -27t53.5 -9v-26h-49q-11 0 -29.5 1.5t-40 7t-44 17t-40.5 32.5l-243 279v-258zM266 770q32 35 63 68t63 64q12 -12 23 -25.5t19 -28.5q-41 -23 -81 -43.5t-81 -40.5z" />
    <glyph glyph-name="uni040D" unicode="&#x40d;" horiz-adv-x="813" 
d="M238 700v-26h-26q-22 0 -36.5 -15t-16.5 -36v-464l521 556h23l-5 -40q-2 -18 -3.5 -41.5t-1.5 -48.5v-508q1 -22 16 -37t36 -15h26v-26h-218v26h26q21 0 35.5 15t16.5 36v465l-521 -556h-22q3 21 5 43q2 19 3.5 42.5t1.5 46.5v506q-1 20 -16 35t-35 15h-26v26zM378 770
q32 35 63 68t63 64q12 -12 23 -25.5t19 -28.5q-41 -23 -81 -43.5t-81 -40.5z" />
    <glyph glyph-name="uni040E" unicode="&#x40e;" horiz-adv-x="607" 
d="M411 868q0 -21 -8 -39.5t-22.5 -33t-33 -22.5t-39.5 -8t-39.5 8t-33 22.5t-22.5 33t-8 39.5h10q8 -20 33.5 -37t60.5 -17t60.5 17t33.5 37h8zM591 700v-26h-21q-22 0 -37.5 -16t-24.5 -38l-137 -430q-10 -32 -25 -69.5t-42 -68t-60 -43t-154 -10.5v29q95 0 124 18.5
t49.5 43.5t48.5 103l3 13q-197 425 -220.5 447t-45.5 22h-21v25h211v-24h-13q-46 3 -39.5 -25t156.5 -355l106 324q-1 22 -16.5 38t-37.5 16h-15v26h211z" />
    <glyph glyph-name="uni040F" unicode="&#x40f;" horiz-adv-x="703" 
d="M371 0q2 -47 17 -62.5t38 -15.5v-26h-159v26q23 0 38 15.5t17 62.5h-269v27h19q18 0 31 13t14 31v558q-1 18 -14 31t-31 13h-19v26h208v-26h-19q-18 0 -31 -13t-14 -31v-540q1 -18 13.5 -31t29.5 -13h220q17 0 30 13.5t14 32.5v538q-1 18 -14 31t-31 13h-19v26h209
l-3 -26h-18q-18 0 -31 -13t-14 -31v-560q1 -17 14 -29.5t31 -12.5h19v-27h-276z" />
    <glyph glyph-name="uni0410" unicode="&#x410;" horiz-adv-x="712" 
d="M622 84v1q14 -31 36 -44t42 -13h17v-26h-237v26h17q13 0 23 8t10 24q0 9 -3 18l-61 161h-251l-64 -162v1q-3 -11 -3 -18q0 -16 10.5 -24.5t23.5 -8.5h17v-26h-213v26h17q20 0 42 13t36 43h-1l222 525q10 22 18 42q7 17 12.5 35t5.5 29h22zM449 285l-106 282l-111 -282
h217z" />
    <glyph glyph-name="uni0411" unicode="&#x411;" 
d="M53 0v27h21q21 0 36.5 14t17.5 34v546v1q-2 18 -13 32l-4 4q-8 8 -17 12q-7 3 -16 4h-5h-21v26h412l62 -174h-27q-11 28 -25 51.5t-33.5 40.5t-46 26.5t-63.5 9.5h-111q-12 -14 -13 -33v-575h136q58 0 89 38.5t33 103.5v8q0 28 -5 48v-1q-11 33 -29.5 53.5t-40.5 32
t-44.5 15t-40.5 3.5q-19 0 -29 -3q-6 -1 -11 -3v14q26 14 45.5 20.5t43.5 6.5q39 0 75 -13.5t63.5 -34.5t44.5 -57t17 -80q0 -92 -55.5 -144.5t-154.5 -52.5h-291z" />
    <glyph glyph-name="uni0412" unicode="&#x412;" horiz-adv-x="586" 
d="M259 699q105 -2 162.5 -48.5t57.5 -123.5q0 -55 -26 -91.5t-61 -54.5q69 -19 108 -70t39 -120q0 -88 -61 -140t-175 -52h-247v26h21q23 0 38 15.5t17 37.5v543q0 22 -16 37.5t-39 15.5h-20v26zM300 49q70 2 110 40t40 107q0 52 -20.5 84.5t-52.5 49.5t-71 23q-36 5 -94 6
v-309zM281 388q28 5 52 19.5t40.5 41t16.5 71.5q0 62 -34 96t-100 34h-44v-266q44 0 69 4z" />
    <glyph glyph-name="uni0413" unicode="&#x413;" horiz-adv-x="549" 
d="M487 526q-11 28 -25 51.5t-33.5 40.5t-46 26.5t-63.5 9.5h-132v-574q2 -22 17 -37.5t38 -15.5h21v-27h-231v27h21q23 0 38 15.5t17 37.5v541q-2 22 -17 37.5t-38 15.5h-21v26h420l62 -174h-27z" />
    <glyph glyph-name="uni0414" unicode="&#x414;" horiz-adv-x="767" 
d="M738 51l46 -179h-27q-11 28 -25 51.5t-25.5 40.5t-38.5 27q-22 8 -51 9h-482q-19 -2 -38 -9q-27 -10 -38.5 -27t-25.5 -40.5t-25 -51.5h-27l46 180h112q9 11 10 26l108 552q-1 18 -14 31t-31 13h-19v27l486 -2v-27h-19q-18 0 -31 -12.5t-14 -29.5v-552q1 -15 10 -27h113z
M536 78v530q-1 19 -14 32.5t-30 13.5l-125 2q-17 0 -29.5 -13t-13.5 -31l-108 -534q1 -15 9 -26l301 -1q9 12 10 27z" />
    <glyph glyph-name="uni0415" unicode="&#x415;" 
d="M467 -2h-420v26h21q23 0 38 15.5t17 38.5v546q-2 20 -17.5 34t-36.5 14h-21v26h294q15 0 33.5 2t36 5t32.5 7t23 8v-144h-26v26q0 20 -13.5 34t-33.5 16h-190v-285h156q17 1 28.5 12.5t11.5 28.5v22h26v-170h-26v23q0 16 -11.5 27.5t-26.5 12.5h-157v-277h131
q37 0 63.5 9.5t46 26.5t33.5 40.5t25 51.5h27z" />
    <glyph glyph-name="uni0416" unicode="&#x416;" horiz-adv-x="1024" 
d="M470 337l-243 -279q-18 -21 -36 -32.5t-39.5 -17t-40 -7t-29.5 -1.5h-49v26q32 1 53.5 9t39.5 27l276 309l-238 260q-17 20 -43 32t-56 12h-12v25h214v-25h-18q-11 0 -17 -5.5t-6 -13.5q0 -7 6 -14l238 -260v239q-2 22 -17 38t-38 16h-21v26h231v-26h-21q-23 0 -38 -16
t-17 -38v-239l238 260q6 7 6 14q0 8 -6 13.5t-17 5.5h-18v25h213v-25h-12q-30 0 -56 -12t-43 -32l-238 -260l276 -309q18 -19 39.5 -27t53.5 -9v-26h-49q-11 0 -29.5 1.5t-35 7t-39 17t-40.5 32.5l-243 279v-258q2 -22 17 -37.5t38 -15.5h21v-26h-231v26h21q23 0 38 15.5
t17 37.5v258z" />
    <glyph glyph-name="uni0417" unicode="&#x417;" horiz-adv-x="478" 
d="M53 636q26 29 63.5 51t97.5 25h15q43 0 77.5 -12t58.5 -33t37 -49t13 -60q0 -27 -9 -52.5t-24 -47t-35 -37.5t-41 -25q26 -9 49.5 -24.5t41 -33t28 -46.5t10.5 -65q0 -37 -24 -83.5t-65.5 -81.5t-98 -52.5t-120.5 -17.5q-74 8 -94 31l20 108l29 1q-39 -99 37 -89.5
t129 44t73.5 70t23.5 73.5q0 39 -15 68t-42 43.5t-64 23.5t-81 9l5 27q31 0 63 10t57.5 29t41.5 47t16 64q0 5 -1 8q-1 20 -7.5 39.5t-20 34.5t-34.5 24t-50 9q-55 0 -85.5 -31.5t-30.5 -82.5q0 -2 0.5 -8.5t0.5 -8.5h-25z" />
    <glyph glyph-name="uni0418" unicode="&#x418;" horiz-adv-x="813" 
d="M238 701v-26h-26q-22 0 -36.5 -15t-16.5 -36v-465l521 556h23l-5 -40q-2 -18 -3.5 -41.5t-1.5 -48.5v-508q1 -22 16 -37t36 -15h26v-26h-218v26h26q21 0 35.5 15t16.5 36v465l-521 -556h-22q3 21 5 43q2 19 3.5 42.5t1.5 46.5v507q-1 20 -16 35t-35 15h-26v26z" />
    <glyph glyph-name="uni0419" unicode="&#x419;" horiz-adv-x="813" 
d="M238 700v-26h-26q-22 0 -36.5 -15t-16.5 -36v-464l521 556h23l-5 -40q-2 -18 -3.5 -41.5t-1.5 -48.5v-508q1 -22 16 -37t36 -15h26v-26h-218v26h26q21 0 35.5 15t16.5 36v465l-521 -556h-22q3 21 5 43q2 19 3.5 42.5t1.5 46.5v506q-1 20 -16 35t-35 15h-26v26zM508 868
q0 -21 -8 -39.5t-22.5 -33t-33 -22.5t-39.5 -8t-39.5 8t-33 22.5t-22.5 33t-8 39.5h10q8 -20 33.5 -37t60.5 -17t60.5 17t33.5 37h8z" />
    <glyph glyph-name="uni041A" unicode="&#x41a;" horiz-adv-x="657" 
d="M188 79q2 -22 17 -37.5t38 -15.5h21v-26h-231v26h21q23 0 38 15.5t17 37.5v542q-2 22 -17 38t-38 16h-21v26h231v-26h-21q-23 0 -38 -16t-17 -38v-263l238 284q6 7 6 14q0 8 -6 13.5t-17 5.5h-18v25h223v-25h-12q-30 0 -56 -12t-43 -32l-238 -260l276 -309
q18 -19 39.5 -27t53.5 -9v-26h-49q-11 0 -29.5 1.5t-40 7t-44 17t-40.5 32.5l-243 279v-258z" />
    <glyph glyph-name="uni041F" unicode="&#x41b;" horiz-adv-x="732" 
d="M244 205q0 -12 -1 -24v-18l-4 -4q-3 -18 -10 -35q-15 -37 -41 -64.5t-61.5 -43t-99.5 -15.5v26q47 9 68 25.5t36 41.5t24 54q6 19 8 39v441q-1 18 -14 31t-31 13h-19v27h594v-27h-19q-18 0 -31 -12.5t-14 -29.5v-560q1 -18 14 -31t31 -13h18l3 -26h-209v26h19q18 0 31 13
t14 31v538q-1 19 -14 32.5t-30 13.5h-220q-17 0 -29.5 -13t-13.5 -31z" />
    <glyph glyph-name="uni041C" unicode="&#x41c;" horiz-adv-x="931" 
d="M819 80q5 -25 23 -39.5t41 -14.5h24v-26h-229v25h24q12 0 21 9.5t9 21.5v2l-41 461l-193 -428q-8 -17 -14 -35q-6 -16 -11.5 -34.5t-7.5 -35.5h-21l-240 519l-40 -447v-2q0 -12 9 -21.5t21 -9.5h23v-25h-206v26h24q23 0 41 14.5t23 39.5l74 634h21l267 -578l262 578h21z
" />
    <glyph glyph-name="uni041D" unicode="&#x41d;" horiz-adv-x="813" 
d="M522 1v26h21q22 0 37.5 15.5t16.5 36.5v245h-383v-244q2 -22 17 -37.5t38 -15.5h21v-26h-231v26h21q23 0 38 15.5t17 37.5v542q-2 22 -17 38t-38 16h-21v26h231v-26h-21q-23 0 -38 -16t-17 -38v-252h383v252q-1 21 -16.5 36.5t-37.5 15.5h-21v26h230v-26h-20
q-23 0 -38 -16t-17 -38v-541q2 -22 17 -37.5t38 -15.5h20v-26z" />
    <glyph glyph-name="uni041E" unicode="&#x41e;" horiz-adv-x="838" 
d="M421 714q80 0 146 -26t113.5 -74t74 -115t26.5 -149t-26.5 -149t-74 -115t-113.5 -74t-146 -26t-146 26t-113.5 74t-74 115t-26.5 149t26.5 149t74 115t113.5 74t146 26zM421 32q61 0 110.5 23t84.5 64.5t54.5 100t19.5 130.5t-19.5 130.5t-54.5 100t-84.5 64.5
t-110.5 23q-60 0 -109.5 -23t-85 -64.5t-54.5 -100t-19 -130.5t19 -130.5t54.5 -100t85 -64.5t109.5 -23z" />
    <glyph glyph-name="_31" unicode="&#x41f;" horiz-adv-x="703" 
d="M649 0h-209v26h19q18 0 31 13t14 31v538q-1 19 -14 32.5t-30 13.5h-220q-17 0 -29.5 -13t-13.5 -31v-540q1 -18 14 -31t31 -13h19v-26h-208v26h19q18 0 31 13t14 31v558q-1 18 -14 31t-31 13h-19v27h594v-27h-19q-18 0 -31 -12.5t-14 -29.5v-560q1 -18 14 -31t31 -13h18z
" />
    <glyph glyph-name="uni0420" unicode="&#x420;" horiz-adv-x="564" 
d="M313 700q99 0 154.5 -52.5t55.5 -144.5q0 -44 -17 -80t-44.5 -57t-63.5 -34.5t-75 -13.5q-24 0 -43.5 6.5t-45.5 20.5v14q5 -2 11 -3q10 -3 29 -3q18 0 40.5 3.5t44.5 15t40.5 32t29.5 53.5v-1q5 20 5 48v8q-2 65 -33 103.5t-89 38.5h-105v-575q2 -22 17 -37.5t38 -15.5
h21v-26h-231v26h21q23 0 38 15.5t17 37.5v546q-2 20 -17.5 34t-36.5 14h-21v27h260z" />
    <glyph glyph-name="uni0421" unicode="&#x421;" horiz-adv-x="760" 
d="M706 302l-13 -165q-20 -33 -47 -60.5t-62 -47.5t-78 -31.5t-95 -11.5q-78 0 -144 26t-113.5 74t-74 115t-26.5 150q0 81 26 148t73 115t114 74t150 26q74 0 134 -20t106 -50l21 -151h-24q-22 87 -86 131t-150 44q-63 0 -113.5 -22.5t-86 -64t-54.5 -100t-19 -129.5
t20 -129t55.5 -99.5t84.5 -65t108 -26.5q50 0 95.5 14t81.5 45.5t60.5 83.5t33.5 127h23z" />
    <glyph glyph-name="uni0422" unicode="&#x422;" horiz-adv-x="618" 
d="M475 701q15 0 33.5 2t36 5t32.5 7t23 8v-144h-26v26q0 20 -13.5 34t-33.5 15h-178v-576q2 -22 17 -37.5t38 -15.5h21v-26h-231v26h21q21 0 36.5 15t16.5 37v577h-177q-20 -1 -33.5 -15t-13.5 -34v-26h-27v144q9 -4 24 -8t32.5 -7t36 -5t33.5 -2h332z" />
    <glyph glyph-name="uni0423" unicode="&#x423;" horiz-adv-x="609" 
d="M591 700v-26h-21q-22 0 -37.5 -16t-24.5 -38l-137 -430q-10 -32 -25 -69.5t-42 -68t-60 -43t-154 -10.5v29q95 0 124 18.5t49.5 43.5t48.5 103l3 13q-197 425 -220.5 447t-45.5 22h-21v25h211v-24h-13q-46 3 -39.5 -25t156.5 -355l106 324q-1 22 -16.5 38t-37.5 16h-15
v26h211z" />
    <glyph glyph-name="uni0424" unicode="&#x424;" horiz-adv-x="763" 
d="M522 551q101 0 152.5 -52.5t51.5 -143.5q0 -44 -16.5 -80t-43.5 -61.5t-62 -39t-73 -13.5q-24 0 -49 6t-50 20v24q7 -2 16 -3q7 -2 16 -2.5t18 -0.5q18 0 41 3.5t44.5 14.5t40 31.5t29.5 53.5q2 8 4 21t2 27v8q-2 64 -33 103t-90 39h-104v-427q1 -22 16.5 -37.5
t37.5 -15.5h21v-26h-230v26h21q22 0 37.5 15.5t16.5 37.5v427h-103q-59 0 -90 -39t-33 -103v-8q0 -14 2 -27t4 -21q11 -33 29.5 -53.5t40 -31.5t44.5 -14.5t41 -3.5q9 0 18 0.5t16 2.5q9 1 16 3v-24q-25 -14 -50 -20t-49 -6q-38 0 -73 13.5t-62 39t-43.5 61.5t-16.5 80
q0 91 51.5 143.5t152.5 52.5h105v70q-1 22 -16.5 38t-37.5 16h-21v26h230v-26h-21q-22 0 -37.5 -16t-16.5 -38v-70h106z" />
    <glyph glyph-name="uni0425" unicode="&#x425;" horiz-adv-x="662" 
d="M675 26v-26h-254v26h20q13 0 22 9.5t9 23.5q0 6 -3 14l-144 226l-143 -226q-4 -7 -4 -15q0 -13 9.5 -22.5t21.5 -9.5h21v-26h-238v26h22q28 0 53 16.5t40 37.5q45 68 91.5 136.5t91.5 137.5l-169 266q-14 21 -38.5 37t-53.5 16h-21v27h253v-27h-21q-12 0 -21.5 -10
t-9.5 -23q0 -7 3 -14l128 -200l126 200v-1q4 7 4 16q0 13 -9.5 22.5t-20.5 9.5h-21v27h236v-27h-22q-29 0 -53.5 -16t-38.5 -37l-168 -248l187 -293q14 -21 37.5 -37t52.5 -16h25z" />
    <glyph glyph-name="uni0426" unicode="&#x426;" horiz-adv-x="713" 
d="M624 673h-18q-18 0 -31 -13t-14 -31v-560q1 -15 10 -26h68l46 -171h-27q-11 28 -25 51.5t-25.5 40.5t-38 26.5t-63.5 9.5h-475v27h19q18 0 31 13t14 31v558q-1 18 -14 31t-31 13h-19v26h208v-26h-19q-18 0 -31 -13t-14 -31v-540q1 -18 13.5 -31t29.5 -13h220
q17 0 30 13.5t14 32.5v538q-1 18 -14 31t-31 13h-19v26h209z" />
    <glyph glyph-name="uni0427" unicode="&#x427;" horiz-adv-x="651" 
d="M85 622v1v1q-3 21 -17 36q-15 16 -38 16h-21v26h231v-26h-21q-23 0 -38 -16q-13 -14 -17 -32v-3q-4 -67 -4 -113v-8q2 -65 33 -103.5t89 -38.5h182v259q-2 22 -17 38t-38 16h-21v26h231v-26h-21q-23 0 -38 -16t-17 -38v-542q2 -22 17 -37.5t38 -15.5h21v-26h-231v26h21
q23 0 38 15.5t17 37.5v237h-183q-99 0 -155 52q-54 52 -41 254z" />
    <glyph glyph-name="uni0428" unicode="&#x428;" horiz-adv-x="910" 
d="M872 673h-18q-18 0 -31 -13t-14 -31v-560q1 -17 14 -29.5t31 -12.5h19v-27h-835v27h19q10 0 19 4h1q6 4 11 9l2 2q4 4 6 8l4 10l1 3q1 4 1 8v558v2q-2 17 -14 29q-4 3 -7 6q-4 2 -9 4q-3 1 -5 2h-2q-2 1 -4 1h-4h-19v26h208v-26h-19q-18 0 -31 -13l-4 -4q-9 -12 -10 -27
v-540v-3q1 -4 1 -8q1 -2 1 -4q3 -7 9 -14l2 -2q10 -10 22 -13h8h147h4h3q3 1 5 2q10 3 18 11q2 3 4 5t3 4q1 3 2 5q1 3 2 5l1 2v550q-1 18 -14 31q-12 11 -27 13h-2h-21v26h211l-3 -26h-18h-1h-4q-2 -1 -5 -1q-6 -2 -11 -4q-2 -2 -5 -4q-1 -1 -3 -2l-2 -2l-4 -4q-1 -2 -2 -3
q-5 -7 -7 -15q0 -1 -1 -2v-7v-549q3 -13 12 -22q13 -13 30 -13h149q17 0 30 13.5t14 32.5v538q-1 18 -14 31t-31 13h-19v26h209z" />
    <glyph glyph-name="uni0429" unicode="&#x429;" horiz-adv-x="949" 
d="M872 673h-18q-18 0 -31 -13t-14 -31v-560q1 -14 9 -25h63l46 -171h-27q-11 28 -25 51.5t-25.5 40.5t-38.5 27q-17 6 -39 8h-734v27h19q10 0 19 4h1q6 4 11 9l2 2q4 4 6 8l4 10l1 3q1 4 1 8v560q-2 17 -14 29q-4 3 -7 6q-4 2 -9 4q-3 1 -5 2h-2q-2 1 -4 1h-23v26h208v-26
h-19q-18 0 -31 -13l-4 -4q-9 -12 -10 -27v-543q1 -4 1 -8q1 -2 1 -4q3 -7 9 -14l2 -2q10 -10 22 -13h162q3 1 5 2q10 3 18 11q2 3 4 5t3 4q1 3 2 5q1 3 2 5l1 2v550q-1 18 -14 31q-12 11 -27 13h-23v26h211l-3 -26h-23q-2 -1 -5 -1q-6 -2 -11 -4q-2 -2 -5 -4q-1 -1 -3 -2
l-6 -6q-1 -2 -2 -3q-5 -7 -7 -15q0 -1 -1 -2v-556q3 -13 12 -22q13 -13 30 -13h149q17 0 30 13.5t14 32.5v538q-1 18 -14 31t-31 13h-19v26h209z" />
    <glyph glyph-name="uni042A" unicode="&#x42a;" horiz-adv-x="616" 
d="M123 0v27h21q21 0 36.5 14t17.5 34l1 579h-101q-18 -1 -29 -13t-11 -29v-23h-28v131q8 -3 22 -6.5t30.5 -6.5t39 -5t109.5 -2h122v-26h-21q-23 0 -38 -15.5t-17 -37.5v-575h105q58 0 89 38.5t33 103.5v8q0 28 -5 48v-1q-11 33 -29.5 53.5t-40.5 32t-44.5 15t-40.5 3.5
q-19 0 -29 -3q-6 -1 -11 -3v14q26 14 45.5 20.5t43.5 6.5q39 0 75 -13.5t63.5 -34.5t44.5 -57t17 -80q0 -92 -55.5 -144.5t-154.5 -52.5h-260z" />
    <glyph glyph-name="uni042B" unicode="&#x42b;" horiz-adv-x="805" 
d="M53 0v27h21q21 0 36.5 14t17.5 34v546q-2 22 -17 37.5t-38 15.5h-21v26h231v-26h-21q-23 0 -38 -15.5t-17 -37.5v-575h105q58 0 89 38.5t33 103.5v8q0 28 -5 48v-1q-11 33 -29.5 53.5t-40.5 32t-44.5 15t-40.5 3.5q-19 0 -29 -3q-6 -1 -11 -3v14q26 14 45.5 20.5
t43.5 6.5q39 0 75 -13.5t63.5 -34.5t44.5 -57t17 -80q0 -92 -55.5 -144.5t-154.5 -52.5h-260zM762 1h-231v26h21q23 0 38 15.5t17 37.5v542q-2 22 -17 38t-38 16h-21v26h231v-26h-21q-23 0 -38 -16t-17 -38v-542q2 -22 17 -37.5t38 -15.5h21v-26z" />
    <glyph glyph-name="uni042C" unicode="&#x42c;" 
d="M53 0v27h21q21 0 36.5 14t17.5 34v546q-2 22 -17 37.5t-38 15.5h-21v26h231v-26h-21q-23 0 -38 -15.5t-17 -37.5v-575h105q58 0 89 38.5t33 103.5v8q0 28 -5 48v-1q-11 33 -29.5 53.5t-40.5 32t-44.5 15t-40.5 3.5q-19 0 -29 -3q-6 -1 -11 -3v14q26 14 45.5 20.5
t43.5 6.5q39 0 75 -13.5t63.5 -34.5t44.5 -57t17 -80q0 -92 -55.5 -144.5t-154.5 -52.5h-260z" />
    <glyph glyph-name="uni042D" unicode="&#x42d;" horiz-adv-x="748" 
d="M76 302q9 -75 33.5 -127t60.5 -83.5t81.5 -45.5t95.5 -14q59 3 108 26.5t84.5 65t55.5 99.5q16 46 20 100h-266q-15 -1 -26.5 -12.5t-11.5 -27.5v-23h-26v170h26v-22q0 -17 11.5 -28.5t28.5 -12.5h264q-2 62 -19 114q-19 59 -54.5 100.5t-86 64t-113.5 22.5
q-86 0 -150 -44t-86 -131h-24l21 151q46 30 106 50t134 20q83 0 150 -26t114 -74t73 -115t26 -148q0 -83 -26.5 -150t-74 -115t-113.5 -74t-144 -26q-52 0 -95 11.5t-78 31.5t-62 47.5t-47 60.5l-13 165h23z" />
    <glyph glyph-name="uni042E" unicode="&#x42e;" horiz-adv-x="1047" 
d="M268 1h-231v26h21q23 0 38 15.5t17 37.5v542q-2 22 -17 38t-38 16h-21v26h231v-26h-21q-23 0 -38 -16t-17 -38v-244h102q4 65 26 121q27 67 74.5 115t113.5 74t146 26t146 -26t113.5 -74t74 -115t26.5 -149t-26.5 -149t-74 -115t-113.5 -74t-146 -26t-146 26t-113.5 74
t-74.5 115q-24 60 -26 133h-102v-254q2 -22 17 -37.5t38 -15.5h21v-26zM654 32q61 0 110.5 23t84.5 64.5t54.5 100t19.5 130.5t-19.5 130.5t-54.5 100t-84.5 64.5t-110.5 23q-60 0 -109.5 -23t-85 -64.5t-54.5 -100.5q-17 -52 -19 -116v-14q0 -72 19 -130.5t54.5 -100
t85 -64.5t109.5 -23z" />
    <glyph glyph-name="uni042F" unicode="&#x42f;" horiz-adv-x="677" 
d="M650 700v-26h-21q-23 0 -38 -16t-17 -38v-542q2 -22 17 -37.5t38 -15.5h21v-26h-230v26h21q23 0 38 15.5t17 37.5v256q-40 0 -51.5 -5.5t-21 -14.5t-18 -20.5t-31.5 -44t-45 -62.5q-12 -17 -23.5 -33.5t-21 -30.5t-16.5 -23.5t-9 -12.5q-12 -15 -27.5 -30.5t-37 -28.5
t-49 -21.5t-62.5 -8.5h-62v26q47 0 76.5 19.5t58.5 51.5q14 15 35 42t40 53q23 31 46 65q11 14 24.5 30t27.5 27q-32 5 -59.5 23t-47.5 44.5t-31.5 59t-11.5 66.5q0 90 53 141t146 51zM496 359v293h-5q-8 0 -19 0.5t-25 0.5q-15 0 -31.5 -0.5t-33.5 -1.5q-51 -3 -80.5 -40
t-31.5 -100v-9q0 -29 5 -47q10 -31 27 -49.5t37.5 -28.5t41.5 -13.5t39 -3.5q11 -1 20 -1h56z" />
    <glyph glyph-name="uni0430" unicode="&#x430;" horiz-adv-x="663" 
d="M578 78q13 -28 31.5 -40t35.5 -12h16v-26h-216v26h16q11 0 20.5 8t9.5 23q0 7 -3 16l-51 124h-235l-51 -121q-4 -9 -4 -19q0 -15 9 -23t20 -8h16v-26h-202v26h16q17 0 36 12t33 40l202 431q10 21 18 40q7 17 12.5 35t6.5 30h22zM418 243l-97 236l-100 -236h197z" />
    <glyph glyph-name="uni0431" unicode="&#x431;" horiz-adv-x="553" 
d="M31 -1v27h22q20 0 34 12.5t15 30.5v460q-1 19 -14 32q-13 12 -32 13h-23v26h406l59 -154l-29 -4q-10 24 -22.5 43.5t-30 34t-41 23t-55.5 9.5h-131q-7 -10 -7 -23v-483h107q68 0 106.5 32t38.5 87q0 12 -1.5 26t-4.5 24q-11 31 -28.5 50.5t-37.5 30t-40.5 14t-38.5 3.5
q-11 0 -21.5 -1t-18.5 -3q-10 -2 -19 -4v15q29 14 57 23t54 9q38 0 71.5 -12.5t59 -33t40.5 -54.5t15 -77q0 -40 -16.5 -72t-47 -54.5t-73 -35t-93.5 -13.5z" />
    <glyph glyph-name="uni0432" unicode="&#x432;" horiz-adv-x="545" 
d="M244 600q27 0 63.5 -5t69 -21t55 -47t22.5 -82q0 -40 -24.5 -70.5t-58.5 -47.5q62 -16 101 -58t39 -98q0 -50 -21.5 -82.5t-54.5 -52t-73 -27.5t-77 -8h-249v26h20q21 0 35 13t15 31v459q-1 19 -15 31t-35 12h-20v27h208zM285 46q29 0 54.5 7.5t44 23t29.5 39t11 55.5
q0 44 -20.5 71t-53 41.5t-73 19.5t-92.5 5v-262h100zM255 337q30 4 55.5 15.5t42 33.5t16.5 59q0 57 -33 83t-93 26h-58v-220q40 0 70 3z" />
    <glyph glyph-name="uni0433" unicode="&#x433;" horiz-adv-x="513" 
d="M458 441q-10 24 -22.5 43.5t-30 34t-41 23t-55.5 9.5h-143v-482q1 -18 15.5 -31t34.5 -13h20v-27h-218v27h20q20 0 34.5 13t15.5 31v459q-1 19 -14 32t-33 13h-22v26h409l59 -154z" />
    <glyph glyph-name="uni0434" unicode="&#x434;" horiz-adv-x="771" 
d="M739 51l46 -179h-27q-11 28 -25 51.5t-25.5 40.5t-38.5 27q-22 8 -51 9h-482q-19 -2 -38 -9q-27 -10 -38.5 -27t-25.5 -40.5t-25 -51.5h-27l46 180h112q9 11 10 26l108 465q-1 18 -14 31t-31 13h-19v27l486 -2v-27h-19q-18 0 -31 -12.5t-14 -29.5v-465q1 -15 10 -27h113z
M537 78v443q-1 19 -14 32.5t-30 13.5h-128q-17 0 -29.5 -13t-13.5 -31l-108 -445q1 -15 9 -26l304 -1q9 12 10 27z" />
    <glyph glyph-name="uni0435" unicode="&#x435;" horiz-adv-x="546" 
d="M443 -5h-409v26h22q20 0 33 13t14 32v462q0 18 -13.5 30.5t-33.5 12.5h-22v26h293q14 0 31 2t33.5 5t30 6.5t21.5 6.5v-131h-27v23q0 17 -11.5 29t-29.5 13h-193v-230h158q16 1 24 10.5t8 22.5v21h27v-153h-27v21q0 13 -7.5 22t-22.5 11h-159v-230h143q33 1 56.5 9.5
t40.5 22.5t29.5 34t22.5 43h28z" />
    <glyph glyph-name="uni0436" unicode="&#x436;" horiz-adv-x="933" 
d="M359 321l-207 221q-16 15 -39 23.5t-49 8.5h-12v27h201v-27h-17q-19 0 -19 -14q0 -5 5 -10l204 -220v200q-1 18 -15 31t-34 13h-20v27h216v-27h-20q-20 0 -34 -12.5t-15 -29.5v-203l206 222q5 5 5 10q0 14 -19 14h-17v27h202v-27h-12q-26 0 -49 -8.5t-39 -23.5l-207 -221
l235 -258q17 -18 35 -26.5t53 -9.5v-26h-46q-11 0 -29 1.5t-38.5 7t-36 17t-33.5 32.5l-210 231v-219q1 -19 15 -32t34 -13h20v-26h-216v26h20q20 0 34 13t15 32v216l-208 -229q-18 -21 -33 -32.5t-35.5 -17t-38.5 -7t-29 -1.5h-46v26q35 1 53 9.5t35 26.5z" />
    <glyph glyph-name="uni0437" unicode="&#x437;" horiz-adv-x="465" 
d="M53 547q24 23 63 42q17 8 42.5 13t54.5 7h15q45 0 78 -10q38 -11 58 -27q13 -10 22.5 -19.5t14.5 -20.5q13 -23 13 -49q0 -21 -9 -43q-8 -20 -24 -39q-7 -8 -15.5 -15.5t-19.5 -15.5q-8 -6 -22.5 -12t-34.5 -14q44 -13 66 -25q24 -14 41 -28q16 -14 28 -37q10 -24 10 -54
q0 -42 -24 -81q-22 -37 -65 -68q-42 -30 -98 -44q-56 -15 -121 -15q-75 8 -93 36l19 85v-5h26q-10 -21 -10 -41q0 -37 40 -37h10q75 6 129 37q26 14 44.5 29.5t29.5 32.5q20 31 23 73q0 37 -15 61q-16 28 -42 40q-28 13 -64 21q-35 7 -80 7l4 17v-5q30 0 63 9q28 7 58 26
q19 13 34 35.5t21 48t0.5 50t-26.5 39.5q-9 7 -17.5 12.5t-17.5 9.5q-24 8 -50 8q-55 0 -85 -29q-31 -25 -31 -74q0 -4 1 -8v-1h-25v-4z" />
    <glyph glyph-name="uni0438" unicode="&#x438;" horiz-adv-x="773" 
d="M230 606v-26h-25q-18 0 -31 -12t-15 -29v-390l494 465h24q-3 -20 -6 -41q-2 -18 -4 -41.5t-2 -47.5v-416q1 -18 14.5 -30.5t31.5 -12.5h25v-26h-200v26h25q18 0 31 12.5t15 30.5v386l-495 -469h-22q3 21 5 43q2 19 3.5 42.5t1.5 46.5v420q-2 17 -15 29t-32 12h-24v26z
" />
    <glyph glyph-name="uni0439" unicode="&#x439;" horiz-adv-x="773" 
d="M230 606v-26h-25q-18 0 -31 -12t-15 -29v-390l494 465h24q-3 -20 -6 -41q-2 -18 -4 -41.5t-2 -47.5v-416q1 -18 14.5 -30.5t31.5 -12.5h25v-26h-200v26h25q18 0 31 12.5t15 30.5v386l-495 -469h-22q3 21 5 43q2 19 3.5 42.5t1.5 46.5v420q-2 17 -15 29t-32 12h-24v26z
M492 768q0 -21 -8 -39.5t-22.5 -33t-33 -22.5t-39.5 -8t-39.5 8t-33 22.5t-22.5 33t-8 39.5h10q8 -20 33.5 -37t60.5 -17t60.5 17t33.5 37h8z" />
    <glyph glyph-name="uni043A" unicode="&#x43a;" horiz-adv-x="624" 
d="M517 62q17 -18 35 -26.5t53 -9.5v-26h-46q-11 0 -29 1.5t-38.5 7t-42 17t-39.5 32.5l-217 239l213 252q5 5 5 10q0 14 -19 14h-17v27h214v-27h-12q-26 0 -49 -8.5t-39 -23.5l-207 -221zM167 70q1 -19 15 -32t34 -13h20v-26h-216v26h20q20 0 34 13t15 32v458q-1 18 -15 31
t-34 13h-20v27h216v-27h-20q-20 0 -34 -12.5t-15 -29.5v-460z" />
    <glyph glyph-name="uni043B" unicode="&#x43b;" horiz-adv-x="703" 
d="M233 205q0 -12 -1 -24v-18l-4 -4q-3 -18 -10 -35q-15 -37 -41 -64.5t-61.5 -43t-99.5 -15.5v26q47 9 68 25.5t36 41.5t24 54q6 19 8 39v350q-1 18 -14 31t-31 13h-19v27h594v-27h-19q-18 0 -31 -12.5t-14 -29.5v-469q1 -18 14 -31t31 -13h18l3 -26h-209v26h19q18 0 31 13
t14 31v447q-1 19 -14 32.5t-30 13.5h-220q-17 0 -29.5 -13t-13.5 -31z" />
    <glyph glyph-name="uni043C" unicode="&#x43c;" horiz-adv-x="878" 
d="M779 71v1q4 -23 21 -35t38 -12h23v-26h-219v25h23q11 0 19 7t8 18v4q-13 97 -24.5 186.5t-23.5 187.5l-171 -338q0 -1 -4.5 -11t-10.5 -25t-12 -33t-9 -35h-21l-225 433l-41 -364h1q-1 -1 -1 -2q0 -11 8.5 -19t19.5 -8h23v-25h-196v26h22q23 0 39.5 12.5t19.5 35.5
l76 540h22l252 -485l243 485h22z" />
    <glyph glyph-name="uni043D" unicode="&#x43d;" horiz-adv-x="746" 
d="M470 -1v26h19q20 0 34 13t15 32v203h-342v-203q1 -19 15 -32t34 -13h19v-26h-215v26h19q20 0 34 13t15 32v458q-1 18 -15 31t-34 13h-19v27h215v-27h-20q-19 0 -32.5 -12.5t-14.5 -29.5v-211h342v210q-1 18 -15 31t-34 13h-19v27h215v-27h-19q-19 0 -32.5 -13t-15.5 -30
v-459q1 -19 15 -32t34 -13h19v-26z" />
    <glyph glyph-name="uni043E" unicode="&#x43e;" horiz-adv-x="743" 
d="M370 614q70 0 131 -23t107 -64.5t72.5 -99t26.5 -127.5t-26.5 -127.5t-72.5 -99t-107 -64.5t-131 -23t-131.5 23t-107.5 64.5t-72.5 99t-26.5 127.5t26.5 127.5t72.5 99t107.5 64.5t131.5 23zM370 32q52 0 97 19.5t78.5 54.5t52.5 84.5t19 109.5t-19 109.5t-52.5 84.5
t-78.5 54.5t-97 19.5t-97.5 -19.5t-79 -54.5t-52.5 -84.5t-19 -109.5t19 -109.5t52.5 -84.5t79 -54.5t97.5 -19.5z" />
    <glyph glyph-name="uni043F" unicode="&#x43f;" horiz-adv-x="703" 
d="M649 0h-209v26h19q18 0 31 13t14 31v439q-1 19 -14 32.5t-30 13.5h-220q-17 0 -29.5 -13t-13.5 -31v-441q1 -18 14 -31t31 -13h19v-26h-208v26h19q18 0 31 13t14 31v459q-1 18 -14 31t-31 13h-19v27h594v-27h-19q-18 0 -31 -12.5t-14 -29.5v-461q1 -18 14 -31t31 -13h18z
" />
    <glyph glyph-name="uni0440" unicode="&#x440;" horiz-adv-x="553" 
d="M279 599q51 -1 93.5 -13.5t73 -35t47 -54.5t16.5 -72q0 -43 -15 -77t-40.5 -54.5t-59 -33t-71.5 -12.5q-26 0 -54 9t-57 23v15q9 -2 19 -4q8 -2 18.5 -3t21.5 -1q18 0 38.5 3.5t40.5 14t37.5 30t28.5 50.5q3 10 4.5 24t1.5 26q0 55 -38.5 87t-106.5 32h-86v-483
q1 -19 14.5 -32t33.5 -13h22v-26h-219v26h22q20 0 33 13t14 32v460q-1 18 -15 30.5t-34 12.5h-22v27z" />
    <glyph glyph-name="uni0441" unicode="&#x441;" horiz-adv-x="705" 
d="M666 262l-11 -145q-40 -61 -114 -96t-162 -35q-76 0 -137 22t-104 62.5t-66 98.5t-23 131t23 131.5t66 99t104 62t137 21.5q62 0 124.5 -17t110.5 -46l24 -150h-25q-23 90 -85 128.5t-150 38.5q-56 0 -100.5 -18.5t-76 -53t-48.5 -84.5t-17 -112q0 -60 17.5 -109
t49.5 -83.5t76.5 -54t99.5 -20.5h3q52 0 97.5 13.5t80 41.5t56 71t25.5 103h25z" />
    <glyph glyph-name="uni0442" unicode="&#x442;" horiz-adv-x="578" 
d="M446 601q14 0 31 2t33.5 5t30.5 6.5t22 6.5v-131h-27v23q0 17 -11.5 29t-29.5 13h-167v-485q1 -18 15 -31t34 -13h20v-26h-217v26h20q20 0 33.5 13t15.5 32v484h-168q-18 -1 -29 -13t-11 -29v-23h-28v131q8 -3 22 -6.5t30.5 -6.5t33.5 -5t31 -2h316z" />
    <glyph glyph-name="uni0443" unicode="&#x443;" horiz-adv-x="616" 
d="M595 599v-18h-21q-21 0 -37 -15q-15 -13 -25 -35l-137 -361q-8 -21 -19 -45.5t-26.5 -48t-36 -42t-45.5 -26.5q-14 -4 -50 -6t-84 -2h-31v29q36 1 60 3t42 6.5t34.5 14t37.5 26.5q19 22 48 89l4 15q-100 185 -155 277.5t-66 100.5q-26 21 -46 21h-21v17h211v-16h-21
q-32 0 -32 -22q0 -5 1 -7q3 -13 42 -85t114 -212l106 271q-2 25 -16 38q-18 15 -38 15h-15v18h222z" />
    <glyph glyph-name="uni0444" unicode="&#x444;" horiz-adv-x="760" 
d="M340 431h-103q-58 0 -90 -35q-31 -33 -33 -92v-7q0 -6 0.5 -12t1.5 -11l4 -19q12 -32 30 -48q11 -10 20.5 -17t19.5 -11q21 -10 44 -13q24 -3 41 -3q8 0 17 0.5t17 2.5v-1l16 3v-10q-47 -22 -99 -22q-39 0 -73 12q-37 12 -62 32q-30 24 -43 51q-17 31 -17 66q0 73 52 118
q50 44 152 44h105v70q-2 18 -18.5 31t-39.5 13h-21v27h237v-27h-21q-22 0 -38.5 -13t-18.5 -30v-71h106q103 0 153 -44q51 -45 51 -118q0 -37 -16 -66q-15 -28 -44 -51q-25 -20 -62 -32q-35 -12 -73 -12q-24 0 -49.5 5.5t-49.5 16.5v10l16 -3v1q8 -2 17 -2.5t17 -0.5
q17 0 41 3q23 3 45 13q18 7 40 28q17 17 29 48q1 3 2 7.5t2 11.5q1 5 1.5 11t0.5 12v7q-2 59 -33 92q-32 35 -90 35h-104v-361q1 -18 17.5 -31t39.5 -13h21v-26h-237v26h21q23 0 39.5 13t18.5 31v361z" />
    <glyph glyph-name="uni0445" unicode="&#x445;" horiz-adv-x="626" 
d="M637 33v-29h-247v26h20q11 0 20 7.5t9 18.5q0 6 -3 11l-128 183l-135 -183q-4 -5 -4 -12q0 -11 9.5 -18.5t20.5 -7.5h20v-26h-229v26h21q26 0 48.5 13.5t36.5 31.5v-1l177 227l-161 231q-14 17 -37 30.5t-50 13.5h-21v26h245v-26h-20q-11 0 -20 -8t-9 -19q0 -7 3 -11
l117 -167l112 166q3 4 3 11q0 11 -8.5 19t-19.5 8h-21v26h233v-26h-21q-27 0 -50 -13.5t-37 -32.5l-153 -213l171 -245q14 -17 36 -30.5t49 -13.5z" />
    <glyph glyph-name="uni0446" unicode="&#x446;" horiz-adv-x="713" 
d="M628 573h-18q-18 0 -31 -13t-14 -31v-460q1 -15 10 -26h68l46 -171h-27q-11 28 -25 51.5t-25.5 40.5t-38 26.5t-63.5 9.5h-475v27h19q18 0 31 13t14 31v458q-1 18 -14 31t-31 13h-19v26h208v-26h-19q-18 0 -31 -13t-14 -31v-440q1 -18 13.5 -31t29.5 -13h220
q17 0 30 13.5t14 32.5v438q-1 18 -14 31t-31 13h-19v26h209z" />
    <glyph glyph-name="uni0447" unicode="&#x447;" horiz-adv-x="656" 
d="M92 525v2q-3 21 -17 34q-16 16 -38 16h-21v24h231v-24h-21q-20 0 -38 -16q-12 -11 -17 -30v-3q-2 -29 -3 -46.5t-1 -37.5v-7q1 -59 33 -92q33 -35 89 -35h182v215q-1 21 -17 35q-16 16 -38 16h-21v24h231v-24h-21q-22 0 -38 -16q-14 -13 -17 -35v-452q3 -24 17 -35
q16 -15 38 -15h21v-23h-231v23h21q21 0 38 15q15 12 17 35v209h-183q-102 0 -155 43q-43 36 -43 151v23t2 26z" />
    <glyph glyph-name="uni0448" unicode="&#x448;" horiz-adv-x="910" 
d="M872 576h-18q-18 0 -31 -13t-14 -31v-463q1 -17 14 -29.5t31 -12.5h19v-27h-835v27h19q10 0 19 4h1q6 4 11 9l2 2q4 4 6 8l4 10l1 3q1 4 1 8v461v2q-2 17 -14 29q-4 3 -7 6q-4 2 -9 4q-3 1 -5 2h-2q-2 1 -4 1h-4h-19v26h208v-26h-19q-18 0 -31 -13l-4 -4q-9 -12 -10 -27
v-443v-3q1 -4 1 -8q1 -2 1 -4q3 -7 9 -14l2 -2q10 -10 22 -13h8h147h4h3q3 1 5 2q10 3 18 11q2 3 4 5t3 4q1 3 2 5q1 3 2 5l1 2v453q-1 18 -14 31q-12 11 -27 13h-2h-21v26h211l-3 -26h-18h-1h-4q-2 -1 -5 -1q-6 -2 -11 -4q-2 -2 -5 -4q-1 -1 -3 -2l-2 -2l-4 -4q-1 -2 -2 -3
q-5 -7 -7 -15q0 -1 -1 -2v-7v-452q3 -13 12 -22q13 -13 30 -13h149q17 0 30 13.5t14 32.5v441q-1 18 -14 31t-31 13h-19v26h209z" />
    <glyph glyph-name="uni0449" unicode="&#x449;" horiz-adv-x="957" 
d="M872 576h-18q-18 0 -31 -13t-14 -31v-463q1 -14 9 -25h66l46 -171h-27q-11 28 -25 51.5t-25.5 40.5t-38.5 27q-17 6 -39 8h-737v27h19q10 0 19 4h1q6 4 11 9l2 2q4 4 6 8l4 10l1 3q1 4 1 8v463q-2 17 -14 29q-4 3 -7 6q-4 2 -9 4q-3 1 -5 2h-2q-2 1 -4 1h-23v26h208v-26
h-19q-18 0 -31 -13l-4 -4q-9 -12 -10 -27v-446q1 -4 1 -8q1 -2 1 -4q3 -7 9 -14l2 -2q10 -10 22 -13h162q3 1 5 2q10 3 18 11q2 3 4 5t3 4q1 3 2 5q1 3 2 5l1 2v453q-1 18 -14 31q-12 11 -27 13h-23v26h211l-3 -26h-23q-2 -1 -5 -1q-6 -2 -11 -4q-2 -2 -5 -4q-1 -1 -3 -2
l-6 -6q-1 -2 -2 -3q-5 -7 -7 -15q0 -1 -1 -2v-459q3 -13 12 -22q13 -13 30 -13h149q17 0 30 13.5t14 32.5v441q-1 18 -14 31t-31 13h-19v26h209z" />
    <glyph glyph-name="uni044A" unicode="&#x44a;" horiz-adv-x="615" 
d="M120 -1v27h22q20 0 34 12.5t15 30.5l-1 485h-94q-18 -1 -29 -13t-11 -29v-23h-28v131q8 -3 22 -6.5t30.5 -6.5t44.5 -5t115 -2h101v-26h-22q-20 0 -33.5 -13t-14.5 -32v-483h86q68 0 106.5 32t38.5 87q0 12 -1.5 26t-4.5 24q-11 31 -28.5 50.5t-37.5 30t-40.5 14
t-38.5 3.5q-11 0 -21.5 -1t-18.5 -3q-10 -2 -19 -4v15q29 14 57 23t54 9q38 0 71.5 -12.5t59 -33t40.5 -54.5t15 -77q0 -40 -16.5 -72t-47 -54.5t-73 -35t-93.5 -13.5z" />
    <glyph glyph-name="uni044B" unicode="&#x44b;" horiz-adv-x="769" 
d="M40 -1v27h22q20 0 34 12.5t15 30.5v460q-1 19 -14 32t-33 13h-22v26h219v-26h-22q-20 0 -33.5 -13t-14.5 -32v-483h86q68 0 106.5 32t38.5 87q0 12 -1.5 26t-4.5 24q-11 31 -28.5 50.5t-37.5 30t-40.5 14t-38.5 3.5q-11 0 -21.5 -1t-18.5 -3q-10 -2 -19 -4v15
q29 14 57 23t54 9q38 0 71.5 -12.5t59 -33t40.5 -54.5t15 -77q0 -40 -16.5 -72t-47 -54.5t-73 -35t-93.5 -13.5zM501 -1v26h21q23 0 39.5 13t18.5 31v459q-2 18 -18.5 31t-39.5 13h-21v27h237v-27h-21q-22 0 -38.5 -13t-18.5 -30v-460q1 -18 17.5 -31t39.5 -13h21v-26h-237z
" />
    <glyph glyph-name="uni044C" unicode="&#x44c;" horiz-adv-x="553" 
d="M40 -1v27h22q20 0 34 12.5t15 30.5v460q-1 19 -14 32t-33 13h-22v26h219v-26h-22q-20 0 -33.5 -13t-14.5 -32v-483h86q68 0 106.5 32t38.5 87q0 12 -1.5 26t-4.5 24q-11 31 -28.5 50.5t-37.5 30t-40.5 14t-38.5 3.5q-11 0 -21.5 -1t-18.5 -3q-10 -2 -19 -4v15
q29 14 57 23t54 9q38 0 71.5 -12.5t59 -33t40.5 -54.5t15 -77q0 -40 -16.5 -72t-47 -54.5t-73 -35t-93.5 -13.5z" />
    <glyph glyph-name="uni044D" unicode="&#x44d;" horiz-adv-x="705" 
d="M74 262q4 -60 25.5 -103t56 -71t80 -41.5t97.5 -13.5h3q55 1 99.5 20.5t76.5 54t50 83.5q14 40 17 88h-265q-15 -1 -26.5 -12.5t-11.5 -27.5v-23h-26v170h26v-22q0 -17 11.5 -28.5t28.5 -12.5h263q-3 48 -17 89q-17 50 -48.5 84.5t-76 53t-100.5 18.5q-88 0 -150 -38.5
t-85 -128.5h-25l24 150q48 29 110.5 46t124.5 17q76 0 137 -21.5t104 -62t66 -99t23 -131.5t-23 -131t-66 -98.5t-104 -62.5t-137 -22q-88 0 -162 35t-114 96l-11 145h25z" />
    <glyph glyph-name="uni044E" unicode="&#x44e;" horiz-adv-x="994" 
d="M26 -1v26h21q23 0 39.5 13t18.5 31v459q-2 18 -18.5 31t-39.5 13h-21v27h237v-27h-21q-22 0 -38.5 -13t-18.5 -30v-207h104q4 57 26 105q27 58 73 99.5t107.5 64.5t131.5 23t131 -23t107 -64.5t72.5 -99t26.5 -127.5t-26.5 -127.5t-72.5 -99t-107 -64.5t-131 -23
t-131.5 23t-107.5 64.5t-73 98.5q-22 49 -26 106h-104v-209q1 -18 17.5 -31t39.5 -13h21v-26h-237zM627 32q52 0 97 19.5t78.5 54.5t52.5 84.5t19 109.5t-19 109.5t-52.5 84.5t-78.5 54.5t-97 19.5t-97.5 -19.5t-79 -54.5t-52.5 -84.5t-19 -109.5t19 -109.5t52.5 -84.5
t79 -54.5t97.5 -19.5z" />
    <glyph glyph-name="uni044F" unicode="&#x44f;" horiz-adv-x="627" 
d="M604 600v-27h-21q-20 0 -33 -12t-14 -30v-461q1 -18 14 -30.5t33 -12.5h22v-26h-216v26h22q20 0 33 13t14 31v212q-54 0 -77 -19t-41 -42l-44 -62q-17 -23 -32 -45.5t-20 -27.5q-12 -14 -26.5 -29.5t-36.5 -28.5t-52 -21.5t-72 -8.5h-38v26q21 0 37.5 5t30.5 14.5
t27 22.5t27 29q15 17 30 35t27 34q14 18 27 37v-1q12 17 28 35.5t31 30.5q-30 7 -55 22.5t-43.5 37.5t-28.5 49t-10 57q0 77 56 120.5t150 45.5zM458 309v244h-64q-19 0 -39 -1q-55 -3 -87 -32t-33 -80q-1 -2 -1 -8q0 -25 7 -44q10 -29 25 -44.5t33 -23t38 -9t35.5 -2
t26.5 -0.5h59z" />
    <glyph glyph-name="uni0450" unicode="&#x450;" horiz-adv-x="546" 
d="M443 -5h-409v26h22q20 0 33 13t14 32v462q0 18 -13.5 30.5t-33.5 12.5h-22v26h293q14 0 31 2t33.5 5t30 6.5t21.5 6.5v-131h-27v23q0 17 -11.5 29t-29.5 13h-193v-230h158q16 1 24 10.5t8 22.5v21h27v-153h-27v21q0 13 -7.5 22t-22.5 11h-159v-230h143q33 1 56.5 9.5
t40.5 22.5t29.5 34t22.5 43h28zM323 665q-81 37 -162 84q8 16 19 29.5t23 24.5q63 -62 126 -132z" />
    <glyph glyph-name="uni0451" unicode="&#x451;" horiz-adv-x="546" 
d="M443 -5h-409v26h22q20 0 33 13t14 32v462q0 18 -13.5 30.5t-33.5 12.5h-22v26h293q14 0 31 2t33.5 5t30 6.5t21.5 6.5v-131h-27v23q0 17 -11.5 29t-29.5 13h-193v-230h158q16 1 24 10.5t8 22.5v21h27v-153h-27v21q0 13 -7.5 22t-22.5 11h-159v-230h143q33 1 56.5 9.5
t40.5 22.5t29.5 34t22.5 43h28zM164 662q-17 0 -28 11.5t-11 28.5t11.5 28.5t28.5 11.5t28.5 -11t11.5 -28t-11 -28t-28 -11zM350 660q-17 0 -28 11.5t-11 28.5t11.5 28.5t28.5 11.5t28.5 -11t11.5 -28t-11 -28t-28 -11z" />
    <glyph glyph-name="uni0452" unicode="&#x452;" horiz-adv-x="732" 
d="M449 601q14 0 31 2t33.5 5t30.5 6.5t22 6.5v-131h-27v23q0 17 -11.5 29t-29.5 13h-167v-180h166q99 0 154.5 -52.5t55.5 -144.5q-5 -115 -64 -199q-53 -75 -123 -112.5t-128 -41.5v15q24 9 82 50t104.5 121.5t42 160.5t-35.5 118.5t-89 38.5h-165v-329h-148v26h20
q20 0 33.5 13t15.5 32v484h-168q-18 -1 -29 -13t-11 -29v-23h-28v131q8 -3 22 -6.5t30.5 -6.5t33.5 -5t31 -2h316z" />
    <glyph glyph-name="uni0453" unicode="&#x453;" horiz-adv-x="536" 
d="M473 441q-10 24 -22.5 43.5t-30 34t-41 23t-55.5 9.5h-143v-482q1 -18 15.5 -31t34.5 -13h20v-27h-218v27h20q20 0 34.5 13t15.5 31v459q-1 19 -14 32t-33 13h-22v26h409l59 -154zM241 670q32 35 63 68t63 64q12 -12 23 -25.5t19 -28.5q-41 -23 -81 -43.5t-81 -40.5z" />
    <glyph glyph-name="uni0454" unicode="&#x454;" horiz-adv-x="705" 
d="M666 262l-11 -145q-40 -61 -114 -96t-162 -35q-76 0 -137 22t-104 62.5t-66 98.5t-23 131t23 131.5t66 99t104 62t137 21.5q62 0 124.5 -17t110.5 -46l24 -150h-25q-23 90 -85 128.5t-150 38.5q-56 0 -100.5 -18.5t-76 -53t-48.5 -84.5q-14 -41 -17 -89h263
q17 1 28.5 12.5t11.5 28.5v22h26v-170h-26v23q0 16 -11.5 27.5t-26.5 12.5h-265q3 -48 17 -88q18 -49 50 -83.5t76.5 -54t99.5 -20.5h3q52 0 97.5 13.5t80 41.5t56 71t25.5 103h25z" />
    <glyph glyph-name="uni0455" unicode="&#x455;" horiz-adv-x="462" 
d="M363 262q24 -20 35 -51t12 -61q0 -34 -14.5 -64t-39 -52.5t-57.5 -35.5t-70 -13q-22 0 -47 3t-48.5 9t-44.5 15.5t-35 22.5q-2 8 -3 17.5t-1 20.5q0 21 4 47t12 49h27q-1 -9 -1.5 -15t-0.5 -10q0 -53 34 -82.5t88 -29.5h7q57 2 89.5 28t32.5 71q0 20 -7.5 37.5
t-25.5 32.5h1l-195 150q-29 25 -39 55t-11 57q0 31 13 59t36 48t54 32t67 12q33 0 56.5 -2.5t40.5 -6.5h39l3 -122h-28q0 40 -25 62.5t-78 22.5q-23 0 -43 -6.5t-35 -18t-23.5 -26.5t-8.5 -33q0 -17 7 -35t28 -35z" />
    <glyph glyph-name="uni0456" unicode="&#x456;" horiz-adv-x="336" 
d="M44 0v26h21q23 0 39.5 13t18.5 31v459q-2 18 -18.5 31t-39.5 13h-21v27h237v-27h-21q-22 0 -38.5 -13t-18.5 -30v-460q1 -18 17.5 -31t39.5 -13h21v-26h-237z" />
    <glyph glyph-name="uni0457" unicode="&#x457;" horiz-adv-x="336" 
d="M44 0v26h21q23 0 39.5 13t18.5 31v459q-2 18 -18.5 31t-39.5 13h-21v27h237v-27h-21q-22 0 -38.5 -13t-18.5 -30v-460q1 -18 17.5 -31t39.5 -13h21v-26h-237zM74 662q-17 0 -28 11.5t-11 28.5t11.5 28.5t28.5 11.5t28.5 -11t11.5 -28t-11 -28t-28 -11zM260 660
q-17 0 -28 11.5t-11 28.5t11.5 28.5t28.5 11.5t28.5 -11t11.5 -28t-11 -28t-28 -11z" />
    <glyph glyph-name="uni0458" unicode="&#x458;" horiz-adv-x="309" 
d="M278 600v-27h-21q-23 0 -39 -13t-17 -32v-524q0 -37 -16 -70t-43 -58t-62.5 -39.5t-74.5 -14.5v24q23 7 44 23t37 37.5t25.5 46.5t9.5 51v528q-2 17 -18 29t-37 12h-21v27h233z" />
    <glyph glyph-name="uni0459" unicode="&#x459;" horiz-adv-x="962" 
d="M233 205q0 -12 -1 -24v-18l-4 -4q-3 -18 -10 -35q-15 -37 -41 -64.5t-61.5 -43t-99.5 -15.5v26q47 9 68 25.5t36 41.5t24 54q6 19 8 39v350q-1 18 -14 31t-31 13h-19v27h594v-27h-19q-18 0 -31 -12.5t-14 -29.5v-469q1 -14 8 -25h78q68 0 106.5 32t38.5 87q0 12 -1.5 26
t-4.5 24q-11 31 -28.5 50.5t-37.5 30t-40.5 14t-38.5 3.5q-11 0 -21.5 -1t-18.5 -3q-10 -2 -19 -4v15q29 14 57 23t54 9q38 0 71.5 -12.5t59 -33t40.5 -54.5t15 -77q0 -40 -16.5 -72t-47 -54.5t-73.5 -35.5q-33 -9 -115 -12h-1q-24 -1 -52 -1l-1 1h-155v26h19q18 0 31 13
t14 31v447q-1 19 -14 32.5t-30 13.5h-220q-17 0 -29.5 -13t-13.5 -31z" />
    <glyph glyph-name="uni045A" unicode="&#x45a;" horiz-adv-x="964" 
d="M470 -1v26h19q20 0 34 13t15 32v203h-342v-203q1 -19 15 -32t34 -13h19v-26h-215v26h19q20 0 34 13t15 32v458q-1 18 -15 31t-34 13h-19v27h215v-27h-20q-19 0 -32.5 -12.5t-14.5 -29.5v-211h342v210q-1 18 -15 31t-34 13h-19v27h215v-27h-19q-19 0 -32.5 -13t-15.5 -30
v-459q1 -15 9 -26h76q68 0 106.5 32t38.5 77q0 12 -1.5 26t-4.5 24q-11 31 -28.5 50.5t-37.5 30t-40.5 14t-38.5 3.5q-11 0 -21.5 -1t-18.5 -3q-10 -2 -19 -4v15q29 14 57 23t54 9q38 0 71.5 -12.5t59 -33t40.5 -54.5t15 -77q0 -30 -16.5 -62t-47 -54.5t-73.5 -35.5
q-33 -9 -112 -12h-4q-24 -1 -52 -1l-1 1z" />
    <glyph glyph-name="uni045B" unicode="&#x45b;" horiz-adv-x="734" 
d="M657 79q2 -22 17 -37.5t38 -15.5h1v-26h-185v26v0q23 0 38 15.5t17 37.5h1l-1 108q-2 65 -33 103.5t-89 38.5l-128 -1v-328h-148v26h20q20 0 33.5 13t15.5 32v484h-168q-18 -1 -29 -13t-11 -29v-23h-28v131q8 -3 22 -6.5t30.5 -6.5t33.5 -5t31 -2h316q14 0 31 2t33.5 5
t30.5 6.5t22 6.5v-131h-27v23q0 17 -11.5 29t-29.5 13h-167v-180h129q99 0 147 -52.5t48 -144.5l-1 -99h1z" />
    <glyph glyph-name="uni045C" unicode="&#x45c;" horiz-adv-x="624" 
d="M517 62q17 -18 35 -26.5t53 -9.5v-26h-46q-11 0 -29 1.5t-38.5 7t-42 17t-39.5 32.5l-217 239l213 252q5 5 5 10q0 14 -19 14h-17v27h214v-27h-12q-26 0 -49 -8.5t-39 -23.5l-207 -221zM167 70q1 -19 15 -32t34 -13h20v-26h-216v26h20q20 0 34 13t15 32v458q-1 18 -15 31
t-34 13h-20v27h216v-27h-20q-20 0 -34 -12.5t-15 -29.5v-460zM241 670q32 35 63 68t63 64q12 -12 23 -25.5t19 -28.5q-41 -23 -81 -43.5t-81 -40.5z" />
    <glyph glyph-name="uni045D" unicode="&#x45d;" horiz-adv-x="773" 
d="M230 600v-26h-25q-18 0 -31 -12t-15 -29v-384l494 465h24q-3 -20 -6 -41q-2 -18 -4 -41.5t-2 -47.5v-416q1 -18 14.5 -30.5t31.5 -12.5h25v-26h-200v26h25q18 0 31 12.5t15 30.5v386l-495 -469h-22q3 21 5 43q2 19 3.5 42.5t1.5 46.5v414q-2 17 -15 29t-32 12h-24v26z
M363 670q32 35 63 68t63 64q12 -12 23 -25.5t19 -28.5q-41 -23 -81 -43.5t-81 -40.5z" />
    <glyph glyph-name="uni045E" unicode="&#x45e;" horiz-adv-x="598" 
d="M586 599v-18h-21q-21 0 -37 -15q-15 -13 -25 -35l-137 -361q-8 -21 -19 -45.5t-26.5 -48t-36 -42t-45.5 -26.5q-14 -4 -50 -6t-84 -2h-31v29q36 1 60 3t42 6.5t34.5 14t37.5 26.5q19 22 48 89l4 15q-100 185 -155 277.5t-66 100.5q-26 21 -46 21h-21v17h211v-16h-21
q-32 0 -32 -22q0 -5 1 -7q3 -13 42 -85t114 -212l106 271q-2 25 -16 38q-18 15 -38 15h-15v18h222zM405 768q0 -21 -8 -39.5t-22.5 -33t-33 -22.5t-39.5 -8t-39.5 8t-33 22.5t-22.5 33t-8 39.5h10q8 -20 33.5 -37t60.5 -17t60.5 17t33.5 37h8z" />
    <glyph glyph-name="uni045F" unicode="&#x45f;" horiz-adv-x="703" 
d="M375 0q2 -47 17 -62.5t38 -15.5v-26h-158v26q24 0 39 15.5t17 62.5h-275v27h19q18 0 31 13t14 31v459q-1 18 -14 31t-31 13h-19v26h208v-26h-19q-18 0 -31 -13t-14 -31v-441q1 -18 13.5 -31t29.5 -13h220q17 0 30 13.5t14 32.5v439q-1 18 -14 31t-31 13h-19v26h209
l-3 -26h-18q-18 0 -31 -13t-14 -31v-461q1 -17 14 -29.5t31 -12.5h19v-27h-272z" />
    <glyph glyph-name="Wgrave" unicode="&#x1e80;" horiz-adv-x="982" 
d="M508 765q-81 37 -162 84q8 16 19 29.5t23 24.5q63 -62 126 -132zM989 701v-26h-17q-21 0 -44.5 -13t-33.5 -42l-163 -517q0 -2 -3 -12.5t-7 -27t-7 -36.5t-4 -39h-23l-193 542l-140 -428q-5 -17 -9 -36q-4 -17 -7 -37.5t-4 -40.5h-23l-224 632q-11 29 -34 41.5t-44 12.5
h-16v26h233v-26h-17q-12 0 -22.5 -8t-10.5 -25q0 -7 3 -16l140 -451l176 542h20l186 -522l124 433q2 10 2 16q0 15 -9 23t-22 8h-17v26z" />
    <glyph glyph-name="wgrave" unicode="&#x1e81;" horiz-adv-x="899" 
d="M464 667q-81 37 -162 84q8 16 19 29.5t23 24.5q63 -62 126 -132zM898 602v-26h-16q-26 0 -44 -15t-27 -38l-141 -419q0 -2 -3.5 -13t-7 -27t-7 -36t-4.5 -39h-24l-175 448l-119 -334q0 -1 -3 -11.5t-7 -26.5t-7 -36t-4 -40h-23l-207 538q-8 21 -25.5 34t-43.5 13h-16v26
h217v-26h-16q-10 0 -18.5 -6.5t-8.5 -21.5v-6.5t2 -7.5l122 -372l158 455h21l168 -428l102 338q2 6 3 11t1 10q0 15 -8 21.5t-17 6.5h-17v26z" />
    <glyph glyph-name="Wacute" unicode="&#x1e82;" horiz-adv-x="982" 
d="M501 770q32 35 63 68t63 64q12 -12 23 -25.5t19 -28.5q-41 -23 -81 -43.5t-81 -40.5zM989 701v-26h-17q-21 0 -44.5 -13t-33.5 -42l-163 -517q0 -2 -3 -12.5t-7 -27t-7 -36.5t-4 -39h-23l-193 542l-140 -428q-5 -17 -9 -36q-4 -17 -7 -37.5t-4 -40.5h-23l-224 632
q-11 29 -34 41.5t-44 12.5h-16v26h233v-26h-17q-12 0 -22.5 -8t-10.5 -25q0 -7 3 -16l140 -451l176 542h20l186 -522l124 433q2 10 2 16q0 15 -9 23t-22 8h-17v26z" />
    <glyph glyph-name="wacute" unicode="&#x1e83;" horiz-adv-x="899" 
d="M457 672q32 35 63 68t63 64q12 -12 23 -25.5t19 -28.5q-41 -23 -81 -43.5t-81 -40.5zM898 602v-26h-16q-26 0 -44 -15t-27 -38l-141 -419q0 -2 -3.5 -13t-7 -27t-7 -36t-4.5 -39h-24l-175 448l-119 -334q0 -1 -3 -11.5t-7 -26.5t-7 -36t-4 -40h-23l-207 538
q-8 21 -25.5 34t-43.5 13h-16v26h217v-26h-16q-10 0 -18.5 -6.5t-8.5 -21.5v-6.5t2 -7.5l122 -372l158 455h21l168 -428l102 338q2 6 3 11t1 10q0 15 -8 21.5t-17 6.5h-17v26z" />
    <glyph glyph-name="Wdieresis" unicode="&#x1e84;" horiz-adv-x="982" 
d="M411 762q-17 0 -28 11.5t-11 28.5t11.5 28.5t28.5 11.5t28.5 -11t11.5 -28t-11 -28t-28 -11zM597 760q-17 0 -28 11.5t-11 28.5t11.5 28.5t28.5 11.5t28.5 -11t11.5 -28t-11 -28t-28 -11zM989 701v-26h-17q-21 0 -44.5 -13t-33.5 -42l-163 -517q0 -2 -3 -12.5t-7 -27
t-7 -36.5t-4 -39h-23l-193 542l-140 -428q-5 -17 -9 -36q-4 -17 -7 -37.5t-4 -40.5h-23l-224 632q-11 29 -34 41.5t-44 12.5h-16v26h233v-26h-17q-12 0 -22.5 -8t-10.5 -25q0 -7 3 -16l140 -451l176 542h20l186 -522l124 433q2 10 2 16q0 15 -9 23t-22 8h-17v26z" />
    <glyph glyph-name="wdieresis" unicode="&#x1e85;" horiz-adv-x="899" 
d="M367 664q-17 0 -28 11.5t-11 28.5t11.5 28.5t28.5 11.5t28.5 -11t11.5 -28t-11 -28t-28 -11zM553 662q-17 0 -28 11.5t-11 28.5t11.5 28.5t28.5 11.5t28.5 -11t11.5 -28t-11 -28t-28 -11zM898 602v-26h-16q-26 0 -44 -15t-27 -38l-141 -419q0 -2 -3.5 -13t-7 -27t-7 -36
t-4.5 -39h-24l-175 448l-119 -334q0 -1 -3 -11.5t-7 -26.5t-7 -36t-4 -40h-23l-207 538q-8 21 -25.5 34t-43.5 13h-16v26h217v-26h-16q-10 0 -18.5 -6.5t-8.5 -21.5v-6.5t2 -7.5l122 -372l158 455h21l168 -428l102 338q2 6 3 11t1 10q0 15 -8 21.5t-17 6.5h-17v26z" />
    <glyph glyph-name="Ygrave" unicode="&#x1ef2;" horiz-adv-x="661" 
d="M341 765q-81 37 -162 84q8 16 19 29.5t23 24.5q63 -62 126 -132zM669 699v-26h-21q-29 0 -53 -16t-38 -37l-192 -311v-231q1 -22 16.5 -37.5t37.5 -15.5h21v-26h-230v26h21q22 0 37 15.5t17 37.5v233l-184 309q-14 21 -38 37.5t-53 16.5h-22v26h257v-26h-21
q-13 0 -21.5 -10t-8.5 -23q0 -9 4 -16l139 -260l149 261l1 1q3 6 3 14q0 13 -9.5 23t-21.5 10h-21v26z" />
    <glyph glyph-name="ygrave" unicode="&#x1ef3;" horiz-adv-x="640" 
d="M334 665q-81 37 -162 84q8 16 19 29.5t23 24.5q63 -62 126 -132zM641 600v-27h-21q-26 0 -47 -14t-35 -32l-185 -280v-177q1 -18 15 -31t34 -13h19v-26h-216v26h19q20 0 33.5 13t15.5 31v177l-179 280q-14 21 -34.5 33.5t-46.5 12.5h-20v27h242v-27h-19q-13 0 -20.5 -7.5
t-7.5 -18.5q0 -2 0.5 -4.5t0.5 -4.5l134 -238l143 238q2 6 2 10q0 11 -7.5 18t-20.5 7h-19v27h220z" />
    <glyph glyph-name="endash" unicode="&#x2013;" horiz-adv-x="500" 
d="M0 319h500v-48h-500v48z" />
    <glyph glyph-name="emdash" unicode="&#x2014;" horiz-adv-x="800" 
d="M0 321h800v-50h-800v50z" />
    <glyph glyph-name="quoteleft" unicode="&#x2018;" horiz-adv-x="200" 
d="M153 777q-24 -8 -35 -21t-13.5 -27.5t2 -28t11.5 -21.5q5 -6 11 -13t10.5 -14.5t5.5 -16.5t-3 -19q-5 -12 -16.5 -18t-24 -5t-24.5 9t-19 24q-13 31 -10 59.5t17 50t36.5 34.5t48.5 14z" />
    <glyph glyph-name="quoteright" unicode="&#x2019;" horiz-adv-x="200" 
d="M50 606q23 7 33.5 20t12.5 26.5t-2 26t-10 20.5q-10 12 -20.5 26t-2.5 34q5 11 15.5 16.5t22.5 4.5t23.5 -8.5t17.5 -22.5q12 -30 9.5 -57t-16 -47.5t-34.5 -33t-46 -13.5z" />
    <glyph glyph-name="quotesinglbase" unicode="&#x201a;" horiz-adv-x="200" 
d="M47 -90q24 8 35 21t13 27.5t-2 28t-11 21.5q-5 6 -11 13t-10.5 14.5t-6 16.5t3.5 19q5 12 16.5 17.5t24 5t24.5 -8.5t19 -24q13 -31 10 -59.5t-17 -50t-36.5 -34.5t-48.5 -14z" />
    <glyph glyph-name="quotedblleft" unicode="&#x201c;" horiz-adv-x="340" 
d="M153 777q-24 -8 -35 -21t-13.5 -27.5t2 -28t11.5 -21.5q5 -6 11 -13t10.5 -14.5t5.5 -16.5t-3 -19q-5 -12 -16.5 -18t-24 -5t-24.5 9t-19 24q-13 31 -10 59.5t17 50t36.5 34.5t48.5 14zM293 779q-24 -8 -35 -21t-13.5 -27.5t2 -28t11.5 -21.5q5 -6 11 -13t10.5 -14.5
t5.5 -16.5t-3 -19q-5 -12 -16.5 -18t-24 -5t-24.5 9t-19 24q-13 31 -10 59.5t17 50t36.5 34.5t48.5 14z" />
    <glyph glyph-name="quotedblright" unicode="&#x201d;" horiz-adv-x="340" 
d="M50 606q23 7 33.5 20t12.5 26.5t-2 26t-10 20.5q-10 12 -20.5 26t-2.5 34q5 11 15.5 16.5t22.5 4.5t23.5 -8.5t17.5 -22.5q12 -30 9.5 -57t-16 -47.5t-34.5 -33t-46 -13.5zM189 606q23 7 33.5 20t12.5 26.5t-2 26t-10 20.5q-10 12 -20.5 26t-2.5 34q5 11 15.5 16.5
t22.5 4.5t23.5 -8.5t17.5 -22.5q12 -30 9.5 -57t-16 -47.5t-34.5 -33t-46 -13.5z" />
    <glyph glyph-name="quotedblbase" unicode="&#x201e;" horiz-adv-x="340" 
d="M46 -91q25 8 37 22t14.5 29t-2 28.5t-11.5 22.5q-5 6 -11.5 13t-11 15t-6.5 16.5t3 19.5q5 12 16.5 18t25 5.5t26 -9t19.5 -25.5q13 -33 10 -62.5t-17.5 -52.5t-38.5 -36.5t-51 -14.5zM179 -89q25 8 37 22t14.5 29t-2 28.5t-11.5 22.5q-5 6 -11.5 13t-11 15t-6.5 16.5
t3 19.5q5 12 16.5 18t25 5.5t26 -9t19.5 -25.5q13 -33 10 -62.5t-17.5 -52.5t-38.5 -36.5t-51 -14.5z" />
    <glyph glyph-name="dagger" unicode="&#x2020;" horiz-adv-x="517" 
d="M464 390l-160 17l-30 10q3 -7 5.5 -13.5t4.5 -13.5l12 -233l-28 -337h-25l-27 337l13 233l9 27l-29 -10l-159 -17l-17 45l17 46l159 -18l29 -10l-9 27l-19 218l48 17l43 -17l-17 -218l-10 -27l29 10l161 18l17 -46z" />
    <glyph glyph-name="daggerdbl" unicode="&#x2021;" horiz-adv-x="518" 
d="M485 98l-17 -46l-160 19l-29 10q3 -7 5.5 -14t4.5 -13l18 -218l-47 -17l-44 17l18 218l9 27q-7 -3 -14 -5.5t-15 -4.5l-160 -19l-17 46l17 45l160 -17l29 -10l-9 26l-18 125l17 125l9 26l-29 -10l-159 -17l-17 45l17 46l159 -18l29 -10l-9 27l-19 218l48 17l43 -17
l-17 -218l-10 -27l29 10l161 18l17 -46l-17 -45l-160 17l-30 10q5 -12 10 -26l18 -125l-17 -125l-10 -26l30 10l159 17z" />
    <glyph glyph-name="bullet" unicode="&#x2022;" horiz-adv-x="335" 
d="M270 314q-7 -20 -12.5 -32t-13.5 -19.5t-19.5 -13t-30.5 -11.5v-1q-12 -3 -19 -3q-6 0 -16 2q-21 7 -33.5 12.5t-20.5 13.5t-13.5 20.5t-12.5 33.5q-2 5 -2 8v8q0 10 2 15q7 21 12.5 33.5t13.5 20.5t20.5 13.5t33.5 12.5q5 2 8.5 2h7.5h7.5t8.5 -2q21 -7 33.5 -12.5
t20.5 -13.5t13.5 -20.5t12.5 -33.5q2 -10 2 -15q0 -8 -3 -18z" />
    <glyph glyph-name="ellipsis" unicode="&#x2026;" horiz-adv-x="570" 
d="M90 -4q-19 0 -32 13t-13 32t13 32t32 13t32 -13t13 -32t-13 -32t-32 -13zM290 -4q-19 0 -32 13t-13 32t13 32t32 13t32 -13t13 -32t-13 -32t-32 -13zM480 -4q-19 0 -32 13t-13 32t13 32t32 13t32 -13t13 -32t-13 -32t-32 -13z" />
    <glyph glyph-name="perthousand" unicode="&#x2030;" horiz-adv-x="1015" 
d="M553 696l-371 -709l-41 17l340 645q-19 -10 -41 -18t-49 -8h-11q-13 2 -25 5t-23 8q8 -26 8 -56q0 -11 -1 -23.5t-3 -25.5v1q-7 -42 -23 -75.5t-38.5 -56.5t-50.5 -35.5t-59 -12.5q-54 0 -85 35t-31 99q0 20 5 48q14 83 61 130.5t111 49.5q19 0 37 -5q17 -5 31 -11.5
t26 -14.5q15 -8 30.5 -15.5t33.5 -9.5h7q28 0 55 12.5t48 24.5q13 8 28 15zM532 348q54 0 84.5 -35.5t30.5 -98.5q0 -11 -1 -23.5t-3 -25.5q-16 -82 -63 -131t-109 -49q-54 0 -84.5 35.5t-30.5 98.5q0 21 5 49q7 41 23.5 74t39 56.5t50.5 36.5t58 13zM855 348
q54 0 84.5 -35.5t30.5 -98.5q0 -21 -5 -49q-8 -41 -24 -74t-38.5 -56.5t-50.5 -36.5t-58 -13q-54 0 -84.5 35.5t-30.5 98.5q0 11 1 23.5t3 25.5q16 82 63 131t109 49zM897 168q6 31 6 57q0 41 -13 63.5t-39 22.5q-35 0 -62 -39t-39 -107q-2 -16 -3.5 -30.5t-1.5 -27.5
q0 -41 13 -63t39 -22q35 0 61.5 38.5t38.5 107.5zM575 168q2 16 3.5 30t1.5 27q0 41 -13 63.5t-39 22.5q-35 0 -61.5 -39t-38.5 -107q-6 -32 -6 -58q0 -41 13.5 -63t38.5 -22q35 0 62 38.5t39 107.5zM268 534q3 17 4 31t1 27q0 41 -13 63t-39 22q-35 0 -61.5 -38.5
t-38.5 -107.5q-6 -32 -6 -57q0 -41 13.5 -63t38.5 -22q35 0 62 38.5t39 106.5z" />
    <glyph glyph-name="guilsinglleft" unicode="&#x2039;" horiz-adv-x="283" 
d="M215 490l18 -5l-118 -193l119 -197l-19 -5l-175 202z" />
    <glyph glyph-name="guilsinglright" unicode="&#x203a;" horiz-adv-x="283" 
d="M69 90l-18 5l119 197l-118 193l17 5l175 -198z" />
    <glyph glyph-name="fraction" unicode="&#x2044;" horiz-adv-x="542" 
d="M498 714l35 -17l-478 -711l-36 16z" />
    <glyph glyph-name="Euro" unicode="&#x20ac;" horiz-adv-x="733" 
d="M704 170l-1 -116q-17 -17 -42.5 -29.5t-55 -20.5t-62 -11.5t-63.5 -3.5q-68 0 -128 22t-107.5 60.5t-80 91.5t-45.5 116h-114l16 46h92q-1 7 -1 13.5v13.5v12t1 12h-107l16 46h97q12 63 44.5 117t80.5 93.5t108.5 61.5t128.5 22q76 0 135.5 -15.5t88.5 -49.5l-36 -104
h-26q3 11 4 19.5t1 13.5q0 29 -17.5 46.5t-43 27t-54.5 12.5t-52 3q-51 0 -95.5 -18.5t-80.5 -51.5t-60.5 -78.5t-34.5 -99.5h417l-17 -46h-406q-1 -6 -1 -12v-12q0 -10 0.5 -14.5l1.5 -13.5h389l-17 -46h-366q11 -53 36 -97.5t60 -77t79.5 -51t94.5 -18.5q87 0 135.5 30.5
t62.5 101.5z" />
    <glyph glyph-name="trademark" unicode="&#x2122;" horiz-adv-x="446" 
d="M140 699q9 0 19 1.5t14 3.5v-41h-3v5q0 16 -16 16h-47v-162q0 -8 5 -13t13 -5h4v-3h-74v3h4q8 0 13 5t5 13v163h-47q-16 0 -16 -16v-5h-3v41q4 -2 14 -3.5t19 -1.5zM415 523q3 -17 20 -17h4v-3h-71v3h4q5 0 8.5 3.5t2.5 8.5l-18 122l-53 -112l-4 -10t-3.5 -9.5t-2.5 -9.5
h-3l-69 135l-8 -116q0 -5 3 -8.5t8 -3.5h4v-3h-61v3h4q8 0 13.5 5t6.5 13l21 180h3l83 -156l72 155h3z" />
    <glyph glyph-name="partialdiff" unicode="&#x2202;" horiz-adv-x="566" 
d="M59 576q36 69 82.5 104t112.5 35q8 0 17.5 -0.5t17.5 -1.5q48 -7 88 -36.5t68.5 -76t44.5 -106.5t16 -127v-18t-1 -18q-10 -162 -73 -251.5t-172 -95.5h-17q-51 0 -87 16.5t-59 43.5t-33.5 62.5t-10.5 74.5q0 41 11 83q9 32 29 63t47.5 55.5t62.5 39.5t74 15
q34 0 70 -12.5t73 -41.5q-1 47 -9.5 90.5t-25 78t-42 58.5t-59.5 32q-12 3 -25.5 5t-27.5 2q-34 0 -72.5 -18.5t-76.5 -70.5zM418 349q-35 19 -65 27.5t-56 8.5q-32 0 -57 -12t-43.5 -33t-31.5 -49t-21 -59q-8 -34 -8 -61q0 -29 7.5 -54.5t21.5 -44.5t34 -30t46 -11
q8 0 12 1q29 3 55.5 25.5t48 62.5t36.5 94t20 120z" />
    <glyph glyph-name="product" unicode="&#x220f;" horiz-adv-x="763" 
d="M710 -202h-210v25h19q18 0 31 13.5t15 32.5v738q-2 19 -15 32.5t-30 13.5h-281q-18 0 -30.5 -13t-13.5 -31v-740q1 -18 14 -31.5t32 -13.5h19v-25h-210v25h19q19 0 31.5 13.5t14.5 32.5v757q-2 19 -14.5 32.5t-31.5 13.5h-19v26h658v-26h-19q-18 0 -31 -13t-14 -31v-759
q1 -18 14 -31.5t31 -13.5h19z" />
    <glyph glyph-name="summation" unicode="&#x2211;" horiz-adv-x="635" 
d="M571 -179h-534v20l258 413l-253 427v20h403q15 0 34 2t37 5.5t33 7.5t24 7v-144h-26v26q0 20 -14.5 34.5t-34.5 15.5h-349l218 -376l-236 -380h326q48 4 78 39t43 84h26z" />
    <glyph glyph-name="minus" unicode="&#x2212;" horiz-adv-x="481" 
d="M40 332h402v-45h-402v45z" />
    <glyph glyph-name="radical" unicode="&#x221a;" horiz-adv-x="594" 
d="M12 455l151 22l116 -415q63 201 125.5 400.5t125.5 400.5l46 -3l-314 -1007l-161 568q-20 -2 -41.5 -5.5t-40.5 -6.5z" />
    <glyph glyph-name="infinity" unicode="&#x221e;" horiz-adv-x="593" 
d="M443 165q-44 0 -81.5 25t-63.5 60q-30 -37 -66.5 -61t-74.5 -24q-27 0 -49.5 10t-39 27.5t-25.5 41.5t-9 53q0 28 9.5 52.5t26 42.5t39 28t48.5 10q41 0 78.5 -24.5t64.5 -58.5q27 33 64.5 58t78.5 25q25 0 47.5 -10t39 -28t26 -42.5t9.5 -52.5q0 -29 -9 -53t-25.5 -41.5
t-39 -27.5t-48.5 -10zM338 297q20 -29 47.5 -50.5t58.5 -22.5q24 0 42 21.5t18 51.5q0 31 -18 52t-42 21q-15 0 -30 -6.5t-28.5 -17t-25.5 -23.5t-22 -26zM163 224q29 2 56 24.5t45 48.5q-11 13 -23 26t-25.5 23.5t-28 17t-29.5 6.5q-25 0 -43 -21t-18 -51t19.5 -51.5
t45.5 -21.5z" />
    <glyph glyph-name="integral" unicode="&#x222b;" horiz-adv-x="440" 
d="M314 792q12 1 25 0t25.5 -5t23.5 -10.5t17 -16.5q7 -11 6 -24t-9 -22q-13 -14 -29 -14t-27 11q-6 6 -10.5 13.5t-8.5 14t-9 11t-14 4.5q-14 0 -23.5 -19t-11.5 -71q-1 -10 -2.5 -40t-3.5 -73.5t-5 -96.5t-5.5 -109t-5.5 -110.5t-5.5 -101t-4.5 -81t-3 -50.5
q-2 -29 -8.5 -61.5t-19.5 -60.5t-34.5 -48t-54.5 -23q-12 -1 -25 0t-25.5 4.5t-23.5 10.5t-17 17q-7 11 -6 24t9 22q13 14 29 14t27 -11q6 -6 10.5 -13.5t8.5 -14t9 -11t14 -4.5q14 0 23.5 19t11.5 71q1 13 3.5 61.5t5.5 115t7 142.5t8 145.5t6.5 123t4.5 74.5
q2 29 8.5 61.5t19.5 60.5t34.5 48t54.5 23z" />
    <glyph glyph-name="approxequal" unicode="&#x2248;" horiz-adv-x="481" 
d="M42 207q7 9 18 21t25 22t31 17t35 7q8 0 12 -1q26 -4 49.5 -13t45.5 -20q16 -8 30 -14t28 -9h9q21 0 42 14.5t37 26.5l38 -36l-13 -13q-7 -7 -17 -16t-23 -17.5t-28.5 -14t-33.5 -5.5h-8t-8 1q-26 5 -46.5 13.5t-40.5 17.5q-17 8 -33 15t-33 10q-4 1 -8 1h-7
q-17 0 -29 -8.5t-24 -20.5l-13 -12zM39 366q7 9 18 21t25 22t31 17t35 7q8 0 12 -1q27 -4 50 -13t45 -20q16 -8 30 -14t28 -9q2 0 4.5 -0.5t4.5 -0.5q21 0 42 15t37 27l38 -36l-13 -13q-7 -7 -17 -16t-22.5 -17.5t-28 -14t-33.5 -5.5h-8.5t-8.5 1q-25 5 -46 13.5t-41 17.5
q-17 8 -33 15t-33 10q-5 1 -15 1q-17 0 -29 -8.5t-24 -20.5l-13 -12z" />
    <glyph glyph-name="notequal" unicode="&#x2260;" horiz-adv-x="481" 
d="M302 363l-63 -130h203v-45h-224l-59 -122l-41 19l50 104h-127v45h149l63 130h-212v45h234l53 110l40 -19l-44 -91h118v-45z" />
    <glyph glyph-name="lessequal" unicode="&#x2264;" horiz-adv-x="481" 
d="M442 529l-321 -155l321 -155v-65l-407 193v54l407 193v-65zM35 104h407v-61h-407v61z" />
    <glyph glyph-name="greaterequal" unicode="&#x2265;" horiz-adv-x="481" 
d="M443 401v-54l-407 -193v65l321 155l-321 155v65zM36 104h407v-61h-407v61z" />
    <glyph glyph-name="lozenge" unicode="&#x25ca;" horiz-adv-x="530" 
d="M481 350l-222 -364l-209 364l209 364zM93 350l166 -295l179 295l-179 295z" />
    <glyph glyph-name="uni2627" unicode="&#x2627;" horiz-adv-x="746" 
d="M523 801q99 0 154.5 -52.5t55.5 -144.5q0 -30 -17 -66t-44.5 -61.5t-63.5 -39t-75 -13.5q-24 0 -43.5 6.5t-45.5 20.5v23q5 -2 11 -3q10 -3 29 -3q18 0 40.5 3.5t44.5 15t40.5 32t29.5 53.5v-1q5 19 5 42q-2 65 -33 103.5t-89 38.5h-105v-587l226 149q21 14 37 38.5
t16 53.5h27v-213h-27v21q0 12 -10 21.5t-23 9.5l-14 -3l-210 -136l203 -136h-1q7 -4 16 -4q13 0 22.5 9.5t9.5 20.5v21h27v-212h-27q0 29 -16 53.5t-37 38.5l-219 153v-168q2 -22 17 -37.5t38 -15.5h21v-26h-231v26h21q23 0 38 15.5t17 37.5v169l-238 -153
q-21 -14 -37 -37.5t-16 -52.5v-3h-26v211h26v-20q0 -13 9.5 -22t23.5 -9q6 0 14 3l221 138l-221 135q-7 4 -15 4q-13 0 -22.5 -9.5t-9.5 -21.5v-21h-26v212h26v-1q0 -28 16.5 -53t37.5 -40q61 -41 237 -144v556q-2 20 -17.5 34t-36.5 14h-21v27h260z" />
    <glyph glyph-name="died" unicode="&#x271d;" horiz-adv-x="618" 
d="M267 428q-1 268 -16.5 283t-36.5 15h-21v26h231v-26h-21q-23 0 -38 -15.5t-17 -282.5h127q15 0 33.5 2t36 5t32.5 7t23 8v-144h-26v26q0 20 -13.5 34t-33.5 15h-178v-495q2 -22 17 -37.5t38 -15.5h21v-26h-231v26h21q21 0 36.5 15t16.5 37v496h-177q-20 -1 -33.5 -15
t-13.5 -34v-26h-27v144q9 -4 24 -8t32.5 -7t36 -5t33.5 -2h124z" />
    <glyph glyph-name="fi" unicode="&#xfb01;" horiz-adv-x="859" 
d="M345 596q15 0 32 2t33.5 4.5t31 6t22.5 6.5v-130h-28v23q0 17 -11 29t-29 13h-197v-230h160q16 1 24 10.5t8 22.5v21h27v-153h-27v21q0 13 -7.5 22t-22.5 11h-162v-206q1 -19 15 -32t34 -13h22v-26h-220v26h22q20 0 34 13t15 32v461q-1 18 -15 31t-34 13h-22v26h141z
M558 -4v26h21q23 0 39.5 13t18.5 32v458q-2 19 -18.5 32t-39.5 13h-21v26h237v-26h-21q-22 0 -38.5 -13t-18.5 -30v-460q1 -19 17.5 -32t39.5 -13h21v-26h-237z" />
    <glyph glyph-name="fl" unicode="&#xfb02;" horiz-adv-x="1059" 
d="M337 596q15 0 32 2t33.5 5t31 6.5t22.5 6.5v-131h-28v23q0 17 -11 29t-29 13h-197v-230h160q16 1 24 10.5t8 22.5v21h27v-153h-27v21q0 13 -7.5 22t-22.5 11h-162v-206q1 -19 15 -32t34 -13h22v-26h-220v26h22q20 0 34 13t15 32v461q-1 18 -15 31t-34 13h-22v26h141z
M1021 148l-59 -154h-409v26h22q20 0 33 13t14 32v459q-1 19 -15.5 32t-34.5 13h-20v26h218v-26h-20q-20 0 -34.5 -13t-15.5 -32v-482h143q32 1 55.5 9.5t41 23t30 34.5t22.5 43z" />
    <glyph glyph-name="chi_rho.001" horiz-adv-x="0" 
 />
    <glyph glyph-name="_1" horiz-adv-x="500" 
d="M758 155l-53 -154h-248v76q34 20 70.5 50t66.5 69.5t49.5 87t21.5 102.5v8q0 58 -20 108.5t-54.5 87.5t-81.5 58t-102 21t-102.5 -22t-83 -60t-55.5 -89.5t-20 -111.5q0 -55 18 -102t47 -86t65.5 -70t72.5 -52v-76h-245l-53 153h26q13 -23 24 -39t23.5 -25.5t27.5 -13.5
t35 -4h81q-60 27 -99.5 67t-63.5 83.5t-34 86.5t-11 78v10q0 67 26.5 125.5t73.5 101.5t110.5 67.5t137.5 24.5q72 0 134 -25.5t108 -70t72.5 -104.5t26.5 -129q0 -34 -14 -78.5t-41 -88.5t-67 -83.5t-92 -64.5h86q20 0 34.5 4t27 13.5t23.5 25.5t24 39z" />
    </font>
</defs>
</svg>
